%TF.GenerationSoftware,KiCad,Pcbnew,10.0.0*%
%TF.CreationDate,2026-04-14T23:16:24+02:00*%
%TF.ProjectId,Neon_2x1M_12V_V2_0,4e656f6e-5f32-4783-914d-5f3132565f56,REV 2.0*%
%TF.SameCoordinates,Original*%
%TF.FileFunction,Legend,Top*%
%TF.FilePolarity,Positive*%
%FSLAX46Y46*%
G04 Gerber Fmt 4.6, Leading zero omitted, Abs format (unit mm)*
G04 Created by KiCad (PCBNEW 10.0.0) date 2026-04-14 23:16:24*
%MOMM*%
%LPD*%
G01*
G04 APERTURE LIST*
%ADD10C,0.300000*%
%ADD11C,0.100000*%
%ADD12C,0.120000*%
%ADD13C,0.127000*%
G04 APERTURE END LIST*
D10*
X163311653Y-112600828D02*
X162811653Y-111886542D01*
X162454510Y-112600828D02*
X162454510Y-111100828D01*
X162454510Y-111100828D02*
X163025939Y-111100828D01*
X163025939Y-111100828D02*
X163168796Y-111172257D01*
X163168796Y-111172257D02*
X163240225Y-111243685D01*
X163240225Y-111243685D02*
X163311653Y-111386542D01*
X163311653Y-111386542D02*
X163311653Y-111600828D01*
X163311653Y-111600828D02*
X163240225Y-111743685D01*
X163240225Y-111743685D02*
X163168796Y-111815114D01*
X163168796Y-111815114D02*
X163025939Y-111886542D01*
X163025939Y-111886542D02*
X162454510Y-111886542D01*
X163954510Y-111815114D02*
X164454510Y-111815114D01*
X164668796Y-112600828D02*
X163954510Y-112600828D01*
X163954510Y-112600828D02*
X163954510Y-111100828D01*
X163954510Y-111100828D02*
X164668796Y-111100828D01*
X165240225Y-112529400D02*
X165454511Y-112600828D01*
X165454511Y-112600828D02*
X165811653Y-112600828D01*
X165811653Y-112600828D02*
X165954511Y-112529400D01*
X165954511Y-112529400D02*
X166025939Y-112457971D01*
X166025939Y-112457971D02*
X166097368Y-112315114D01*
X166097368Y-112315114D02*
X166097368Y-112172257D01*
X166097368Y-112172257D02*
X166025939Y-112029400D01*
X166025939Y-112029400D02*
X165954511Y-111957971D01*
X165954511Y-111957971D02*
X165811653Y-111886542D01*
X165811653Y-111886542D02*
X165525939Y-111815114D01*
X165525939Y-111815114D02*
X165383082Y-111743685D01*
X165383082Y-111743685D02*
X165311653Y-111672257D01*
X165311653Y-111672257D02*
X165240225Y-111529400D01*
X165240225Y-111529400D02*
X165240225Y-111386542D01*
X165240225Y-111386542D02*
X165311653Y-111243685D01*
X165311653Y-111243685D02*
X165383082Y-111172257D01*
X165383082Y-111172257D02*
X165525939Y-111100828D01*
X165525939Y-111100828D02*
X165883082Y-111100828D01*
X165883082Y-111100828D02*
X166097368Y-111172257D01*
X166740224Y-111815114D02*
X167240224Y-111815114D01*
X167454510Y-112600828D02*
X166740224Y-112600828D01*
X166740224Y-112600828D02*
X166740224Y-111100828D01*
X166740224Y-111100828D02*
X167454510Y-111100828D01*
X167883082Y-111100828D02*
X168740225Y-111100828D01*
X168311653Y-112600828D02*
X168311653Y-111100828D01*
X199554510Y-118015114D02*
X199768796Y-118086542D01*
X199768796Y-118086542D02*
X199840225Y-118157971D01*
X199840225Y-118157971D02*
X199911653Y-118300828D01*
X199911653Y-118300828D02*
X199911653Y-118515114D01*
X199911653Y-118515114D02*
X199840225Y-118657971D01*
X199840225Y-118657971D02*
X199768796Y-118729400D01*
X199768796Y-118729400D02*
X199625939Y-118800828D01*
X199625939Y-118800828D02*
X199054510Y-118800828D01*
X199054510Y-118800828D02*
X199054510Y-117300828D01*
X199054510Y-117300828D02*
X199554510Y-117300828D01*
X199554510Y-117300828D02*
X199697368Y-117372257D01*
X199697368Y-117372257D02*
X199768796Y-117443685D01*
X199768796Y-117443685D02*
X199840225Y-117586542D01*
X199840225Y-117586542D02*
X199840225Y-117729400D01*
X199840225Y-117729400D02*
X199768796Y-117872257D01*
X199768796Y-117872257D02*
X199697368Y-117943685D01*
X199697368Y-117943685D02*
X199554510Y-118015114D01*
X199554510Y-118015114D02*
X199054510Y-118015114D01*
X200840225Y-117300828D02*
X201125939Y-117300828D01*
X201125939Y-117300828D02*
X201268796Y-117372257D01*
X201268796Y-117372257D02*
X201411653Y-117515114D01*
X201411653Y-117515114D02*
X201483082Y-117800828D01*
X201483082Y-117800828D02*
X201483082Y-118300828D01*
X201483082Y-118300828D02*
X201411653Y-118586542D01*
X201411653Y-118586542D02*
X201268796Y-118729400D01*
X201268796Y-118729400D02*
X201125939Y-118800828D01*
X201125939Y-118800828D02*
X200840225Y-118800828D01*
X200840225Y-118800828D02*
X200697368Y-118729400D01*
X200697368Y-118729400D02*
X200554510Y-118586542D01*
X200554510Y-118586542D02*
X200483082Y-118300828D01*
X200483082Y-118300828D02*
X200483082Y-117800828D01*
X200483082Y-117800828D02*
X200554510Y-117515114D01*
X200554510Y-117515114D02*
X200697368Y-117372257D01*
X200697368Y-117372257D02*
X200840225Y-117300828D01*
X202411654Y-117300828D02*
X202697368Y-117300828D01*
X202697368Y-117300828D02*
X202840225Y-117372257D01*
X202840225Y-117372257D02*
X202983082Y-117515114D01*
X202983082Y-117515114D02*
X203054511Y-117800828D01*
X203054511Y-117800828D02*
X203054511Y-118300828D01*
X203054511Y-118300828D02*
X202983082Y-118586542D01*
X202983082Y-118586542D02*
X202840225Y-118729400D01*
X202840225Y-118729400D02*
X202697368Y-118800828D01*
X202697368Y-118800828D02*
X202411654Y-118800828D01*
X202411654Y-118800828D02*
X202268797Y-118729400D01*
X202268797Y-118729400D02*
X202125939Y-118586542D01*
X202125939Y-118586542D02*
X202054511Y-118300828D01*
X202054511Y-118300828D02*
X202054511Y-117800828D01*
X202054511Y-117800828D02*
X202125939Y-117515114D01*
X202125939Y-117515114D02*
X202268797Y-117372257D01*
X202268797Y-117372257D02*
X202411654Y-117300828D01*
X203483083Y-117300828D02*
X204340226Y-117300828D01*
X203911654Y-118800828D02*
X203911654Y-117300828D01*
X210454510Y-125129400D02*
X211597368Y-125129400D01*
X211025939Y-125700828D02*
X211025939Y-124557971D01*
X210854510Y-110029400D02*
X211997368Y-110029400D01*
X211425939Y-110600828D02*
X211425939Y-109457971D01*
X213054510Y-140229400D02*
X214197368Y-140229400D01*
X213625939Y-140800828D02*
X213625939Y-139657971D01*
X215697368Y-140800828D02*
X214840225Y-140800828D01*
X215268796Y-140800828D02*
X215268796Y-139300828D01*
X215268796Y-139300828D02*
X215125939Y-139515114D01*
X215125939Y-139515114D02*
X214983082Y-139657971D01*
X214983082Y-139657971D02*
X214840225Y-139729400D01*
X216268796Y-139443685D02*
X216340224Y-139372257D01*
X216340224Y-139372257D02*
X216483082Y-139300828D01*
X216483082Y-139300828D02*
X216840224Y-139300828D01*
X216840224Y-139300828D02*
X216983082Y-139372257D01*
X216983082Y-139372257D02*
X217054510Y-139443685D01*
X217054510Y-139443685D02*
X217125939Y-139586542D01*
X217125939Y-139586542D02*
X217125939Y-139729400D01*
X217125939Y-139729400D02*
X217054510Y-139943685D01*
X217054510Y-139943685D02*
X216197367Y-140800828D01*
X216197367Y-140800828D02*
X217125939Y-140800828D01*
X217554510Y-139300828D02*
X218054510Y-140800828D01*
X218054510Y-140800828D02*
X218554510Y-139300828D01*
X207800828Y-112731203D02*
X207800828Y-113445489D01*
X207800828Y-113445489D02*
X206300828Y-113445489D01*
X207015114Y-112231203D02*
X207015114Y-111731203D01*
X207800828Y-111516917D02*
X207800828Y-112231203D01*
X207800828Y-112231203D02*
X206300828Y-112231203D01*
X206300828Y-112231203D02*
X206300828Y-111516917D01*
X207800828Y-110874060D02*
X206300828Y-110874060D01*
X206300828Y-110874060D02*
X206300828Y-110516917D01*
X206300828Y-110516917D02*
X206372257Y-110302631D01*
X206372257Y-110302631D02*
X206515114Y-110159774D01*
X206515114Y-110159774D02*
X206657971Y-110088345D01*
X206657971Y-110088345D02*
X206943685Y-110016917D01*
X206943685Y-110016917D02*
X207157971Y-110016917D01*
X207157971Y-110016917D02*
X207443685Y-110088345D01*
X207443685Y-110088345D02*
X207586542Y-110159774D01*
X207586542Y-110159774D02*
X207729400Y-110302631D01*
X207729400Y-110302631D02*
X207800828Y-110516917D01*
X207800828Y-110516917D02*
X207800828Y-110874060D01*
X207729400Y-108302631D02*
X207800828Y-108088346D01*
X207800828Y-108088346D02*
X207800828Y-107731203D01*
X207800828Y-107731203D02*
X207729400Y-107588346D01*
X207729400Y-107588346D02*
X207657971Y-107516917D01*
X207657971Y-107516917D02*
X207515114Y-107445488D01*
X207515114Y-107445488D02*
X207372257Y-107445488D01*
X207372257Y-107445488D02*
X207229400Y-107516917D01*
X207229400Y-107516917D02*
X207157971Y-107588346D01*
X207157971Y-107588346D02*
X207086542Y-107731203D01*
X207086542Y-107731203D02*
X207015114Y-108016917D01*
X207015114Y-108016917D02*
X206943685Y-108159774D01*
X206943685Y-108159774D02*
X206872257Y-108231203D01*
X206872257Y-108231203D02*
X206729400Y-108302631D01*
X206729400Y-108302631D02*
X206586542Y-108302631D01*
X206586542Y-108302631D02*
X206443685Y-108231203D01*
X206443685Y-108231203D02*
X206372257Y-108159774D01*
X206372257Y-108159774D02*
X206300828Y-108016917D01*
X206300828Y-108016917D02*
X206300828Y-107659774D01*
X206300828Y-107659774D02*
X206372257Y-107445488D01*
X206800828Y-107016917D02*
X206800828Y-106445489D01*
X206300828Y-106802632D02*
X207586542Y-106802632D01*
X207586542Y-106802632D02*
X207729400Y-106731203D01*
X207729400Y-106731203D02*
X207800828Y-106588346D01*
X207800828Y-106588346D02*
X207800828Y-106445489D01*
X207800828Y-105945489D02*
X206800828Y-105945489D01*
X207086542Y-105945489D02*
X206943685Y-105874060D01*
X206943685Y-105874060D02*
X206872257Y-105802632D01*
X206872257Y-105802632D02*
X206800828Y-105659774D01*
X206800828Y-105659774D02*
X206800828Y-105516917D01*
X207800828Y-105016918D02*
X206800828Y-105016918D01*
X206300828Y-105016918D02*
X206372257Y-105088346D01*
X206372257Y-105088346D02*
X206443685Y-105016918D01*
X206443685Y-105016918D02*
X206372257Y-104945489D01*
X206372257Y-104945489D02*
X206300828Y-105016918D01*
X206300828Y-105016918D02*
X206443685Y-105016918D01*
X206800828Y-104302632D02*
X208300828Y-104302632D01*
X206872257Y-104302632D02*
X206800828Y-104159775D01*
X206800828Y-104159775D02*
X206800828Y-103874060D01*
X206800828Y-103874060D02*
X206872257Y-103731203D01*
X206872257Y-103731203D02*
X206943685Y-103659775D01*
X206943685Y-103659775D02*
X207086542Y-103588346D01*
X207086542Y-103588346D02*
X207515114Y-103588346D01*
X207515114Y-103588346D02*
X207657971Y-103659775D01*
X207657971Y-103659775D02*
X207729400Y-103731203D01*
X207729400Y-103731203D02*
X207800828Y-103874060D01*
X207800828Y-103874060D02*
X207800828Y-104159775D01*
X207800828Y-104159775D02*
X207729400Y-104302632D01*
X206443685Y-101874060D02*
X206372257Y-101802632D01*
X206372257Y-101802632D02*
X206300828Y-101659775D01*
X206300828Y-101659775D02*
X206300828Y-101302632D01*
X206300828Y-101302632D02*
X206372257Y-101159775D01*
X206372257Y-101159775D02*
X206443685Y-101088346D01*
X206443685Y-101088346D02*
X206586542Y-101016917D01*
X206586542Y-101016917D02*
X206729400Y-101016917D01*
X206729400Y-101016917D02*
X206943685Y-101088346D01*
X206943685Y-101088346D02*
X207800828Y-101945489D01*
X207800828Y-101945489D02*
X207800828Y-101016917D01*
X207800828Y-127731203D02*
X207800828Y-128445489D01*
X207800828Y-128445489D02*
X206300828Y-128445489D01*
X207015114Y-127231203D02*
X207015114Y-126731203D01*
X207800828Y-126516917D02*
X207800828Y-127231203D01*
X207800828Y-127231203D02*
X206300828Y-127231203D01*
X206300828Y-127231203D02*
X206300828Y-126516917D01*
X207800828Y-125874060D02*
X206300828Y-125874060D01*
X206300828Y-125874060D02*
X206300828Y-125516917D01*
X206300828Y-125516917D02*
X206372257Y-125302631D01*
X206372257Y-125302631D02*
X206515114Y-125159774D01*
X206515114Y-125159774D02*
X206657971Y-125088345D01*
X206657971Y-125088345D02*
X206943685Y-125016917D01*
X206943685Y-125016917D02*
X207157971Y-125016917D01*
X207157971Y-125016917D02*
X207443685Y-125088345D01*
X207443685Y-125088345D02*
X207586542Y-125159774D01*
X207586542Y-125159774D02*
X207729400Y-125302631D01*
X207729400Y-125302631D02*
X207800828Y-125516917D01*
X207800828Y-125516917D02*
X207800828Y-125874060D01*
X207729400Y-123302631D02*
X207800828Y-123088346D01*
X207800828Y-123088346D02*
X207800828Y-122731203D01*
X207800828Y-122731203D02*
X207729400Y-122588346D01*
X207729400Y-122588346D02*
X207657971Y-122516917D01*
X207657971Y-122516917D02*
X207515114Y-122445488D01*
X207515114Y-122445488D02*
X207372257Y-122445488D01*
X207372257Y-122445488D02*
X207229400Y-122516917D01*
X207229400Y-122516917D02*
X207157971Y-122588346D01*
X207157971Y-122588346D02*
X207086542Y-122731203D01*
X207086542Y-122731203D02*
X207015114Y-123016917D01*
X207015114Y-123016917D02*
X206943685Y-123159774D01*
X206943685Y-123159774D02*
X206872257Y-123231203D01*
X206872257Y-123231203D02*
X206729400Y-123302631D01*
X206729400Y-123302631D02*
X206586542Y-123302631D01*
X206586542Y-123302631D02*
X206443685Y-123231203D01*
X206443685Y-123231203D02*
X206372257Y-123159774D01*
X206372257Y-123159774D02*
X206300828Y-123016917D01*
X206300828Y-123016917D02*
X206300828Y-122659774D01*
X206300828Y-122659774D02*
X206372257Y-122445488D01*
X206800828Y-122016917D02*
X206800828Y-121445489D01*
X206300828Y-121802632D02*
X207586542Y-121802632D01*
X207586542Y-121802632D02*
X207729400Y-121731203D01*
X207729400Y-121731203D02*
X207800828Y-121588346D01*
X207800828Y-121588346D02*
X207800828Y-121445489D01*
X207800828Y-120945489D02*
X206800828Y-120945489D01*
X207086542Y-120945489D02*
X206943685Y-120874060D01*
X206943685Y-120874060D02*
X206872257Y-120802632D01*
X206872257Y-120802632D02*
X206800828Y-120659774D01*
X206800828Y-120659774D02*
X206800828Y-120516917D01*
X207800828Y-120016918D02*
X206800828Y-120016918D01*
X206300828Y-120016918D02*
X206372257Y-120088346D01*
X206372257Y-120088346D02*
X206443685Y-120016918D01*
X206443685Y-120016918D02*
X206372257Y-119945489D01*
X206372257Y-119945489D02*
X206300828Y-120016918D01*
X206300828Y-120016918D02*
X206443685Y-120016918D01*
X206800828Y-119302632D02*
X208300828Y-119302632D01*
X206872257Y-119302632D02*
X206800828Y-119159775D01*
X206800828Y-119159775D02*
X206800828Y-118874060D01*
X206800828Y-118874060D02*
X206872257Y-118731203D01*
X206872257Y-118731203D02*
X206943685Y-118659775D01*
X206943685Y-118659775D02*
X207086542Y-118588346D01*
X207086542Y-118588346D02*
X207515114Y-118588346D01*
X207515114Y-118588346D02*
X207657971Y-118659775D01*
X207657971Y-118659775D02*
X207729400Y-118731203D01*
X207729400Y-118731203D02*
X207800828Y-118874060D01*
X207800828Y-118874060D02*
X207800828Y-119159775D01*
X207800828Y-119159775D02*
X207729400Y-119302632D01*
X207800828Y-116016917D02*
X207800828Y-116874060D01*
X207800828Y-116445489D02*
X206300828Y-116445489D01*
X206300828Y-116445489D02*
X206515114Y-116588346D01*
X206515114Y-116588346D02*
X206657971Y-116731203D01*
X206657971Y-116731203D02*
X206729400Y-116874060D01*
X210829400Y-120445489D02*
X210829400Y-119302632D01*
X211029400Y-105445489D02*
X211029400Y-104302632D01*
D11*
X209516666Y-128157419D02*
X209516666Y-128871704D01*
X209516666Y-128871704D02*
X209469047Y-129014561D01*
X209469047Y-129014561D02*
X209373809Y-129109800D01*
X209373809Y-129109800D02*
X209230952Y-129157419D01*
X209230952Y-129157419D02*
X209135714Y-129157419D01*
X210135714Y-128585990D02*
X210040476Y-128538371D01*
X210040476Y-128538371D02*
X209992857Y-128490752D01*
X209992857Y-128490752D02*
X209945238Y-128395514D01*
X209945238Y-128395514D02*
X209945238Y-128347895D01*
X209945238Y-128347895D02*
X209992857Y-128252657D01*
X209992857Y-128252657D02*
X210040476Y-128205038D01*
X210040476Y-128205038D02*
X210135714Y-128157419D01*
X210135714Y-128157419D02*
X210326190Y-128157419D01*
X210326190Y-128157419D02*
X210421428Y-128205038D01*
X210421428Y-128205038D02*
X210469047Y-128252657D01*
X210469047Y-128252657D02*
X210516666Y-128347895D01*
X210516666Y-128347895D02*
X210516666Y-128395514D01*
X210516666Y-128395514D02*
X210469047Y-128490752D01*
X210469047Y-128490752D02*
X210421428Y-128538371D01*
X210421428Y-128538371D02*
X210326190Y-128585990D01*
X210326190Y-128585990D02*
X210135714Y-128585990D01*
X210135714Y-128585990D02*
X210040476Y-128633609D01*
X210040476Y-128633609D02*
X209992857Y-128681228D01*
X209992857Y-128681228D02*
X209945238Y-128776466D01*
X209945238Y-128776466D02*
X209945238Y-128966942D01*
X209945238Y-128966942D02*
X209992857Y-129062180D01*
X209992857Y-129062180D02*
X210040476Y-129109800D01*
X210040476Y-129109800D02*
X210135714Y-129157419D01*
X210135714Y-129157419D02*
X210326190Y-129157419D01*
X210326190Y-129157419D02*
X210421428Y-129109800D01*
X210421428Y-129109800D02*
X210469047Y-129062180D01*
X210469047Y-129062180D02*
X210516666Y-128966942D01*
X210516666Y-128966942D02*
X210516666Y-128776466D01*
X210516666Y-128776466D02*
X210469047Y-128681228D01*
X210469047Y-128681228D02*
X210421428Y-128633609D01*
X210421428Y-128633609D02*
X210326190Y-128585990D01*
X198427847Y-97957419D02*
X198427847Y-98671704D01*
X198427847Y-98671704D02*
X198380228Y-98814561D01*
X198380228Y-98814561D02*
X198284990Y-98909800D01*
X198284990Y-98909800D02*
X198142133Y-98957419D01*
X198142133Y-98957419D02*
X198046895Y-98957419D01*
X199332609Y-97957419D02*
X199142133Y-97957419D01*
X199142133Y-97957419D02*
X199046895Y-98005038D01*
X199046895Y-98005038D02*
X198999276Y-98052657D01*
X198999276Y-98052657D02*
X198904038Y-98195514D01*
X198904038Y-98195514D02*
X198856419Y-98385990D01*
X198856419Y-98385990D02*
X198856419Y-98766942D01*
X198856419Y-98766942D02*
X198904038Y-98862180D01*
X198904038Y-98862180D02*
X198951657Y-98909800D01*
X198951657Y-98909800D02*
X199046895Y-98957419D01*
X199046895Y-98957419D02*
X199237371Y-98957419D01*
X199237371Y-98957419D02*
X199332609Y-98909800D01*
X199332609Y-98909800D02*
X199380228Y-98862180D01*
X199380228Y-98862180D02*
X199427847Y-98766942D01*
X199427847Y-98766942D02*
X199427847Y-98528847D01*
X199427847Y-98528847D02*
X199380228Y-98433609D01*
X199380228Y-98433609D02*
X199332609Y-98385990D01*
X199332609Y-98385990D02*
X199237371Y-98338371D01*
X199237371Y-98338371D02*
X199046895Y-98338371D01*
X199046895Y-98338371D02*
X198951657Y-98385990D01*
X198951657Y-98385990D02*
X198904038Y-98433609D01*
X198904038Y-98433609D02*
X198856419Y-98528847D01*
X189407142Y-126257419D02*
X189073809Y-125781228D01*
X188835714Y-126257419D02*
X188835714Y-125257419D01*
X188835714Y-125257419D02*
X189216666Y-125257419D01*
X189216666Y-125257419D02*
X189311904Y-125305038D01*
X189311904Y-125305038D02*
X189359523Y-125352657D01*
X189359523Y-125352657D02*
X189407142Y-125447895D01*
X189407142Y-125447895D02*
X189407142Y-125590752D01*
X189407142Y-125590752D02*
X189359523Y-125685990D01*
X189359523Y-125685990D02*
X189311904Y-125733609D01*
X189311904Y-125733609D02*
X189216666Y-125781228D01*
X189216666Y-125781228D02*
X188835714Y-125781228D01*
X190359523Y-126257419D02*
X189788095Y-126257419D01*
X190073809Y-126257419D02*
X190073809Y-125257419D01*
X190073809Y-125257419D02*
X189978571Y-125400276D01*
X189978571Y-125400276D02*
X189883333Y-125495514D01*
X189883333Y-125495514D02*
X189788095Y-125543133D01*
X190978571Y-125257419D02*
X191073809Y-125257419D01*
X191073809Y-125257419D02*
X191169047Y-125305038D01*
X191169047Y-125305038D02*
X191216666Y-125352657D01*
X191216666Y-125352657D02*
X191264285Y-125447895D01*
X191264285Y-125447895D02*
X191311904Y-125638371D01*
X191311904Y-125638371D02*
X191311904Y-125876466D01*
X191311904Y-125876466D02*
X191264285Y-126066942D01*
X191264285Y-126066942D02*
X191216666Y-126162180D01*
X191216666Y-126162180D02*
X191169047Y-126209800D01*
X191169047Y-126209800D02*
X191073809Y-126257419D01*
X191073809Y-126257419D02*
X190978571Y-126257419D01*
X190978571Y-126257419D02*
X190883333Y-126209800D01*
X190883333Y-126209800D02*
X190835714Y-126162180D01*
X190835714Y-126162180D02*
X190788095Y-126066942D01*
X190788095Y-126066942D02*
X190740476Y-125876466D01*
X190740476Y-125876466D02*
X190740476Y-125638371D01*
X190740476Y-125638371D02*
X190788095Y-125447895D01*
X190788095Y-125447895D02*
X190835714Y-125352657D01*
X190835714Y-125352657D02*
X190883333Y-125305038D01*
X190883333Y-125305038D02*
X190978571Y-125257419D01*
X195333333Y-103457419D02*
X195000000Y-102981228D01*
X194761905Y-103457419D02*
X194761905Y-102457419D01*
X194761905Y-102457419D02*
X195142857Y-102457419D01*
X195142857Y-102457419D02*
X195238095Y-102505038D01*
X195238095Y-102505038D02*
X195285714Y-102552657D01*
X195285714Y-102552657D02*
X195333333Y-102647895D01*
X195333333Y-102647895D02*
X195333333Y-102790752D01*
X195333333Y-102790752D02*
X195285714Y-102885990D01*
X195285714Y-102885990D02*
X195238095Y-102933609D01*
X195238095Y-102933609D02*
X195142857Y-102981228D01*
X195142857Y-102981228D02*
X194761905Y-102981228D01*
X196238095Y-102457419D02*
X195761905Y-102457419D01*
X195761905Y-102457419D02*
X195714286Y-102933609D01*
X195714286Y-102933609D02*
X195761905Y-102885990D01*
X195761905Y-102885990D02*
X195857143Y-102838371D01*
X195857143Y-102838371D02*
X196095238Y-102838371D01*
X196095238Y-102838371D02*
X196190476Y-102885990D01*
X196190476Y-102885990D02*
X196238095Y-102933609D01*
X196238095Y-102933609D02*
X196285714Y-103028847D01*
X196285714Y-103028847D02*
X196285714Y-103266942D01*
X196285714Y-103266942D02*
X196238095Y-103362180D01*
X196238095Y-103362180D02*
X196190476Y-103409800D01*
X196190476Y-103409800D02*
X196095238Y-103457419D01*
X196095238Y-103457419D02*
X195857143Y-103457419D01*
X195857143Y-103457419D02*
X195761905Y-103409800D01*
X195761905Y-103409800D02*
X195714286Y-103362180D01*
X192333333Y-112457419D02*
X192000000Y-111981228D01*
X191761905Y-112457419D02*
X191761905Y-111457419D01*
X191761905Y-111457419D02*
X192142857Y-111457419D01*
X192142857Y-111457419D02*
X192238095Y-111505038D01*
X192238095Y-111505038D02*
X192285714Y-111552657D01*
X192285714Y-111552657D02*
X192333333Y-111647895D01*
X192333333Y-111647895D02*
X192333333Y-111790752D01*
X192333333Y-111790752D02*
X192285714Y-111885990D01*
X192285714Y-111885990D02*
X192238095Y-111933609D01*
X192238095Y-111933609D02*
X192142857Y-111981228D01*
X192142857Y-111981228D02*
X191761905Y-111981228D01*
X192714286Y-111552657D02*
X192761905Y-111505038D01*
X192761905Y-111505038D02*
X192857143Y-111457419D01*
X192857143Y-111457419D02*
X193095238Y-111457419D01*
X193095238Y-111457419D02*
X193190476Y-111505038D01*
X193190476Y-111505038D02*
X193238095Y-111552657D01*
X193238095Y-111552657D02*
X193285714Y-111647895D01*
X193285714Y-111647895D02*
X193285714Y-111743133D01*
X193285714Y-111743133D02*
X193238095Y-111885990D01*
X193238095Y-111885990D02*
X192666667Y-112457419D01*
X192666667Y-112457419D02*
X193285714Y-112457419D01*
X193833333Y-121157419D02*
X193500000Y-120681228D01*
X193261905Y-121157419D02*
X193261905Y-120157419D01*
X193261905Y-120157419D02*
X193642857Y-120157419D01*
X193642857Y-120157419D02*
X193738095Y-120205038D01*
X193738095Y-120205038D02*
X193785714Y-120252657D01*
X193785714Y-120252657D02*
X193833333Y-120347895D01*
X193833333Y-120347895D02*
X193833333Y-120490752D01*
X193833333Y-120490752D02*
X193785714Y-120585990D01*
X193785714Y-120585990D02*
X193738095Y-120633609D01*
X193738095Y-120633609D02*
X193642857Y-120681228D01*
X193642857Y-120681228D02*
X193261905Y-120681228D01*
X194785714Y-121157419D02*
X194214286Y-121157419D01*
X194500000Y-121157419D02*
X194500000Y-120157419D01*
X194500000Y-120157419D02*
X194404762Y-120300276D01*
X194404762Y-120300276D02*
X194309524Y-120395514D01*
X194309524Y-120395514D02*
X194214286Y-120443133D01*
X168833333Y-138362180D02*
X168785714Y-138409800D01*
X168785714Y-138409800D02*
X168642857Y-138457419D01*
X168642857Y-138457419D02*
X168547619Y-138457419D01*
X168547619Y-138457419D02*
X168404762Y-138409800D01*
X168404762Y-138409800D02*
X168309524Y-138314561D01*
X168309524Y-138314561D02*
X168261905Y-138219323D01*
X168261905Y-138219323D02*
X168214286Y-138028847D01*
X168214286Y-138028847D02*
X168214286Y-137885990D01*
X168214286Y-137885990D02*
X168261905Y-137695514D01*
X168261905Y-137695514D02*
X168309524Y-137600276D01*
X168309524Y-137600276D02*
X168404762Y-137505038D01*
X168404762Y-137505038D02*
X168547619Y-137457419D01*
X168547619Y-137457419D02*
X168642857Y-137457419D01*
X168642857Y-137457419D02*
X168785714Y-137505038D01*
X168785714Y-137505038D02*
X168833333Y-137552657D01*
X169690476Y-137790752D02*
X169690476Y-138457419D01*
X169452381Y-137409800D02*
X169214286Y-138124085D01*
X169214286Y-138124085D02*
X169833333Y-138124085D01*
X198333333Y-132424680D02*
X198285714Y-132472300D01*
X198285714Y-132472300D02*
X198142857Y-132519919D01*
X198142857Y-132519919D02*
X198047619Y-132519919D01*
X198047619Y-132519919D02*
X197904762Y-132472300D01*
X197904762Y-132472300D02*
X197809524Y-132377061D01*
X197809524Y-132377061D02*
X197761905Y-132281823D01*
X197761905Y-132281823D02*
X197714286Y-132091347D01*
X197714286Y-132091347D02*
X197714286Y-131948490D01*
X197714286Y-131948490D02*
X197761905Y-131758014D01*
X197761905Y-131758014D02*
X197809524Y-131662776D01*
X197809524Y-131662776D02*
X197904762Y-131567538D01*
X197904762Y-131567538D02*
X198047619Y-131519919D01*
X198047619Y-131519919D02*
X198142857Y-131519919D01*
X198142857Y-131519919D02*
X198285714Y-131567538D01*
X198285714Y-131567538D02*
X198333333Y-131615157D01*
X198714286Y-131615157D02*
X198761905Y-131567538D01*
X198761905Y-131567538D02*
X198857143Y-131519919D01*
X198857143Y-131519919D02*
X199095238Y-131519919D01*
X199095238Y-131519919D02*
X199190476Y-131567538D01*
X199190476Y-131567538D02*
X199238095Y-131615157D01*
X199238095Y-131615157D02*
X199285714Y-131710395D01*
X199285714Y-131710395D02*
X199285714Y-131805633D01*
X199285714Y-131805633D02*
X199238095Y-131948490D01*
X199238095Y-131948490D02*
X198666667Y-132519919D01*
X198666667Y-132519919D02*
X199285714Y-132519919D01*
X186761905Y-148457419D02*
X186761905Y-147457419D01*
X186761905Y-147457419D02*
X187000000Y-147457419D01*
X187000000Y-147457419D02*
X187142857Y-147505038D01*
X187142857Y-147505038D02*
X187238095Y-147600276D01*
X187238095Y-147600276D02*
X187285714Y-147695514D01*
X187285714Y-147695514D02*
X187333333Y-147885990D01*
X187333333Y-147885990D02*
X187333333Y-148028847D01*
X187333333Y-148028847D02*
X187285714Y-148219323D01*
X187285714Y-148219323D02*
X187238095Y-148314561D01*
X187238095Y-148314561D02*
X187142857Y-148409800D01*
X187142857Y-148409800D02*
X187000000Y-148457419D01*
X187000000Y-148457419D02*
X186761905Y-148457419D01*
X187714286Y-147552657D02*
X187761905Y-147505038D01*
X187761905Y-147505038D02*
X187857143Y-147457419D01*
X187857143Y-147457419D02*
X188095238Y-147457419D01*
X188095238Y-147457419D02*
X188190476Y-147505038D01*
X188190476Y-147505038D02*
X188238095Y-147552657D01*
X188238095Y-147552657D02*
X188285714Y-147647895D01*
X188285714Y-147647895D02*
X188285714Y-147743133D01*
X188285714Y-147743133D02*
X188238095Y-147885990D01*
X188238095Y-147885990D02*
X187666667Y-148457419D01*
X187666667Y-148457419D02*
X188285714Y-148457419D01*
X176761905Y-122957419D02*
X176761905Y-121957419D01*
X176761905Y-121957419D02*
X177000000Y-121957419D01*
X177000000Y-121957419D02*
X177142857Y-122005038D01*
X177142857Y-122005038D02*
X177238095Y-122100276D01*
X177238095Y-122100276D02*
X177285714Y-122195514D01*
X177285714Y-122195514D02*
X177333333Y-122385990D01*
X177333333Y-122385990D02*
X177333333Y-122528847D01*
X177333333Y-122528847D02*
X177285714Y-122719323D01*
X177285714Y-122719323D02*
X177238095Y-122814561D01*
X177238095Y-122814561D02*
X177142857Y-122909800D01*
X177142857Y-122909800D02*
X177000000Y-122957419D01*
X177000000Y-122957419D02*
X176761905Y-122957419D01*
X178238095Y-121957419D02*
X177761905Y-121957419D01*
X177761905Y-121957419D02*
X177714286Y-122433609D01*
X177714286Y-122433609D02*
X177761905Y-122385990D01*
X177761905Y-122385990D02*
X177857143Y-122338371D01*
X177857143Y-122338371D02*
X178095238Y-122338371D01*
X178095238Y-122338371D02*
X178190476Y-122385990D01*
X178190476Y-122385990D02*
X178238095Y-122433609D01*
X178238095Y-122433609D02*
X178285714Y-122528847D01*
X178285714Y-122528847D02*
X178285714Y-122766942D01*
X178285714Y-122766942D02*
X178238095Y-122862180D01*
X178238095Y-122862180D02*
X178190476Y-122909800D01*
X178190476Y-122909800D02*
X178095238Y-122957419D01*
X178095238Y-122957419D02*
X177857143Y-122957419D01*
X177857143Y-122957419D02*
X177761905Y-122909800D01*
X177761905Y-122909800D02*
X177714286Y-122862180D01*
X163358333Y-102457419D02*
X163025000Y-101981228D01*
X162786905Y-102457419D02*
X162786905Y-101457419D01*
X162786905Y-101457419D02*
X163167857Y-101457419D01*
X163167857Y-101457419D02*
X163263095Y-101505038D01*
X163263095Y-101505038D02*
X163310714Y-101552657D01*
X163310714Y-101552657D02*
X163358333Y-101647895D01*
X163358333Y-101647895D02*
X163358333Y-101790752D01*
X163358333Y-101790752D02*
X163310714Y-101885990D01*
X163310714Y-101885990D02*
X163263095Y-101933609D01*
X163263095Y-101933609D02*
X163167857Y-101981228D01*
X163167857Y-101981228D02*
X162786905Y-101981228D01*
X163691667Y-101457419D02*
X164358333Y-101457419D01*
X164358333Y-101457419D02*
X163929762Y-102457419D01*
X199961905Y-122357419D02*
X199961905Y-121357419D01*
X199961905Y-121357419D02*
X200200000Y-121357419D01*
X200200000Y-121357419D02*
X200342857Y-121405038D01*
X200342857Y-121405038D02*
X200438095Y-121500276D01*
X200438095Y-121500276D02*
X200485714Y-121595514D01*
X200485714Y-121595514D02*
X200533333Y-121785990D01*
X200533333Y-121785990D02*
X200533333Y-121928847D01*
X200533333Y-121928847D02*
X200485714Y-122119323D01*
X200485714Y-122119323D02*
X200438095Y-122214561D01*
X200438095Y-122214561D02*
X200342857Y-122309800D01*
X200342857Y-122309800D02*
X200200000Y-122357419D01*
X200200000Y-122357419D02*
X199961905Y-122357419D01*
X201009524Y-122357419D02*
X201200000Y-122357419D01*
X201200000Y-122357419D02*
X201295238Y-122309800D01*
X201295238Y-122309800D02*
X201342857Y-122262180D01*
X201342857Y-122262180D02*
X201438095Y-122119323D01*
X201438095Y-122119323D02*
X201485714Y-121928847D01*
X201485714Y-121928847D02*
X201485714Y-121547895D01*
X201485714Y-121547895D02*
X201438095Y-121452657D01*
X201438095Y-121452657D02*
X201390476Y-121405038D01*
X201390476Y-121405038D02*
X201295238Y-121357419D01*
X201295238Y-121357419D02*
X201104762Y-121357419D01*
X201104762Y-121357419D02*
X201009524Y-121405038D01*
X201009524Y-121405038D02*
X200961905Y-121452657D01*
X200961905Y-121452657D02*
X200914286Y-121547895D01*
X200914286Y-121547895D02*
X200914286Y-121785990D01*
X200914286Y-121785990D02*
X200961905Y-121881228D01*
X200961905Y-121881228D02*
X201009524Y-121928847D01*
X201009524Y-121928847D02*
X201104762Y-121976466D01*
X201104762Y-121976466D02*
X201295238Y-121976466D01*
X201295238Y-121976466D02*
X201390476Y-121928847D01*
X201390476Y-121928847D02*
X201438095Y-121881228D01*
X201438095Y-121881228D02*
X201485714Y-121785990D01*
X198833333Y-102957419D02*
X198500000Y-102481228D01*
X198261905Y-102957419D02*
X198261905Y-101957419D01*
X198261905Y-101957419D02*
X198642857Y-101957419D01*
X198642857Y-101957419D02*
X198738095Y-102005038D01*
X198738095Y-102005038D02*
X198785714Y-102052657D01*
X198785714Y-102052657D02*
X198833333Y-102147895D01*
X198833333Y-102147895D02*
X198833333Y-102290752D01*
X198833333Y-102290752D02*
X198785714Y-102385990D01*
X198785714Y-102385990D02*
X198738095Y-102433609D01*
X198738095Y-102433609D02*
X198642857Y-102481228D01*
X198642857Y-102481228D02*
X198261905Y-102481228D01*
X199690476Y-101957419D02*
X199500000Y-101957419D01*
X199500000Y-101957419D02*
X199404762Y-102005038D01*
X199404762Y-102005038D02*
X199357143Y-102052657D01*
X199357143Y-102052657D02*
X199261905Y-102195514D01*
X199261905Y-102195514D02*
X199214286Y-102385990D01*
X199214286Y-102385990D02*
X199214286Y-102766942D01*
X199214286Y-102766942D02*
X199261905Y-102862180D01*
X199261905Y-102862180D02*
X199309524Y-102909800D01*
X199309524Y-102909800D02*
X199404762Y-102957419D01*
X199404762Y-102957419D02*
X199595238Y-102957419D01*
X199595238Y-102957419D02*
X199690476Y-102909800D01*
X199690476Y-102909800D02*
X199738095Y-102862180D01*
X199738095Y-102862180D02*
X199785714Y-102766942D01*
X199785714Y-102766942D02*
X199785714Y-102528847D01*
X199785714Y-102528847D02*
X199738095Y-102433609D01*
X199738095Y-102433609D02*
X199690476Y-102385990D01*
X199690476Y-102385990D02*
X199595238Y-102338371D01*
X199595238Y-102338371D02*
X199404762Y-102338371D01*
X199404762Y-102338371D02*
X199309524Y-102385990D01*
X199309524Y-102385990D02*
X199261905Y-102433609D01*
X199261905Y-102433609D02*
X199214286Y-102528847D01*
X184738095Y-129757419D02*
X184738095Y-130566942D01*
X184738095Y-130566942D02*
X184785714Y-130662180D01*
X184785714Y-130662180D02*
X184833333Y-130709800D01*
X184833333Y-130709800D02*
X184928571Y-130757419D01*
X184928571Y-130757419D02*
X185119047Y-130757419D01*
X185119047Y-130757419D02*
X185214285Y-130709800D01*
X185214285Y-130709800D02*
X185261904Y-130662180D01*
X185261904Y-130662180D02*
X185309523Y-130566942D01*
X185309523Y-130566942D02*
X185309523Y-129757419D01*
X185690476Y-129757419D02*
X186309523Y-129757419D01*
X186309523Y-129757419D02*
X185976190Y-130138371D01*
X185976190Y-130138371D02*
X186119047Y-130138371D01*
X186119047Y-130138371D02*
X186214285Y-130185990D01*
X186214285Y-130185990D02*
X186261904Y-130233609D01*
X186261904Y-130233609D02*
X186309523Y-130328847D01*
X186309523Y-130328847D02*
X186309523Y-130566942D01*
X186309523Y-130566942D02*
X186261904Y-130662180D01*
X186261904Y-130662180D02*
X186214285Y-130709800D01*
X186214285Y-130709800D02*
X186119047Y-130757419D01*
X186119047Y-130757419D02*
X185833333Y-130757419D01*
X185833333Y-130757419D02*
X185738095Y-130709800D01*
X185738095Y-130709800D02*
X185690476Y-130662180D01*
X195833333Y-126257419D02*
X195500000Y-125781228D01*
X195261905Y-126257419D02*
X195261905Y-125257419D01*
X195261905Y-125257419D02*
X195642857Y-125257419D01*
X195642857Y-125257419D02*
X195738095Y-125305038D01*
X195738095Y-125305038D02*
X195785714Y-125352657D01*
X195785714Y-125352657D02*
X195833333Y-125447895D01*
X195833333Y-125447895D02*
X195833333Y-125590752D01*
X195833333Y-125590752D02*
X195785714Y-125685990D01*
X195785714Y-125685990D02*
X195738095Y-125733609D01*
X195738095Y-125733609D02*
X195642857Y-125781228D01*
X195642857Y-125781228D02*
X195261905Y-125781228D01*
X196309524Y-126257419D02*
X196500000Y-126257419D01*
X196500000Y-126257419D02*
X196595238Y-126209800D01*
X196595238Y-126209800D02*
X196642857Y-126162180D01*
X196642857Y-126162180D02*
X196738095Y-126019323D01*
X196738095Y-126019323D02*
X196785714Y-125828847D01*
X196785714Y-125828847D02*
X196785714Y-125447895D01*
X196785714Y-125447895D02*
X196738095Y-125352657D01*
X196738095Y-125352657D02*
X196690476Y-125305038D01*
X196690476Y-125305038D02*
X196595238Y-125257419D01*
X196595238Y-125257419D02*
X196404762Y-125257419D01*
X196404762Y-125257419D02*
X196309524Y-125305038D01*
X196309524Y-125305038D02*
X196261905Y-125352657D01*
X196261905Y-125352657D02*
X196214286Y-125447895D01*
X196214286Y-125447895D02*
X196214286Y-125685990D01*
X196214286Y-125685990D02*
X196261905Y-125781228D01*
X196261905Y-125781228D02*
X196309524Y-125828847D01*
X196309524Y-125828847D02*
X196404762Y-125876466D01*
X196404762Y-125876466D02*
X196595238Y-125876466D01*
X196595238Y-125876466D02*
X196690476Y-125828847D01*
X196690476Y-125828847D02*
X196738095Y-125781228D01*
X196738095Y-125781228D02*
X196785714Y-125685990D01*
X204333333Y-150362180D02*
X204285714Y-150409800D01*
X204285714Y-150409800D02*
X204142857Y-150457419D01*
X204142857Y-150457419D02*
X204047619Y-150457419D01*
X204047619Y-150457419D02*
X203904762Y-150409800D01*
X203904762Y-150409800D02*
X203809524Y-150314561D01*
X203809524Y-150314561D02*
X203761905Y-150219323D01*
X203761905Y-150219323D02*
X203714286Y-150028847D01*
X203714286Y-150028847D02*
X203714286Y-149885990D01*
X203714286Y-149885990D02*
X203761905Y-149695514D01*
X203761905Y-149695514D02*
X203809524Y-149600276D01*
X203809524Y-149600276D02*
X203904762Y-149505038D01*
X203904762Y-149505038D02*
X204047619Y-149457419D01*
X204047619Y-149457419D02*
X204142857Y-149457419D01*
X204142857Y-149457419D02*
X204285714Y-149505038D01*
X204285714Y-149505038D02*
X204333333Y-149552657D01*
X205285714Y-150457419D02*
X204714286Y-150457419D01*
X205000000Y-150457419D02*
X205000000Y-149457419D01*
X205000000Y-149457419D02*
X204904762Y-149600276D01*
X204904762Y-149600276D02*
X204809524Y-149695514D01*
X204809524Y-149695514D02*
X204714286Y-149743133D01*
X209866666Y-113257419D02*
X209866666Y-113971704D01*
X209866666Y-113971704D02*
X209819047Y-114114561D01*
X209819047Y-114114561D02*
X209723809Y-114209800D01*
X209723809Y-114209800D02*
X209580952Y-114257419D01*
X209580952Y-114257419D02*
X209485714Y-114257419D01*
X210247619Y-113257419D02*
X210914285Y-113257419D01*
X210914285Y-113257419D02*
X210485714Y-114257419D01*
X182634514Y-122957419D02*
X182301181Y-122481228D01*
X182063086Y-122957419D02*
X182063086Y-121957419D01*
X182063086Y-121957419D02*
X182444038Y-121957419D01*
X182444038Y-121957419D02*
X182539276Y-122005038D01*
X182539276Y-122005038D02*
X182586895Y-122052657D01*
X182586895Y-122052657D02*
X182634514Y-122147895D01*
X182634514Y-122147895D02*
X182634514Y-122290752D01*
X182634514Y-122290752D02*
X182586895Y-122385990D01*
X182586895Y-122385990D02*
X182539276Y-122433609D01*
X182539276Y-122433609D02*
X182444038Y-122481228D01*
X182444038Y-122481228D02*
X182063086Y-122481228D01*
X183491657Y-122290752D02*
X183491657Y-122957419D01*
X183253562Y-121909800D02*
X183015467Y-122624085D01*
X183015467Y-122624085D02*
X183634514Y-122624085D01*
X203404761Y-112052657D02*
X203309523Y-112005038D01*
X203309523Y-112005038D02*
X203214285Y-111909800D01*
X203214285Y-111909800D02*
X203071428Y-111766942D01*
X203071428Y-111766942D02*
X202976190Y-111719323D01*
X202976190Y-111719323D02*
X202880952Y-111719323D01*
X202928571Y-111957419D02*
X202833333Y-111909800D01*
X202833333Y-111909800D02*
X202738095Y-111814561D01*
X202738095Y-111814561D02*
X202690476Y-111624085D01*
X202690476Y-111624085D02*
X202690476Y-111290752D01*
X202690476Y-111290752D02*
X202738095Y-111100276D01*
X202738095Y-111100276D02*
X202833333Y-111005038D01*
X202833333Y-111005038D02*
X202928571Y-110957419D01*
X202928571Y-110957419D02*
X203119047Y-110957419D01*
X203119047Y-110957419D02*
X203214285Y-111005038D01*
X203214285Y-111005038D02*
X203309523Y-111100276D01*
X203309523Y-111100276D02*
X203357142Y-111290752D01*
X203357142Y-111290752D02*
X203357142Y-111624085D01*
X203357142Y-111624085D02*
X203309523Y-111814561D01*
X203309523Y-111814561D02*
X203214285Y-111909800D01*
X203214285Y-111909800D02*
X203119047Y-111957419D01*
X203119047Y-111957419D02*
X202928571Y-111957419D01*
X204309523Y-111957419D02*
X203738095Y-111957419D01*
X204023809Y-111957419D02*
X204023809Y-110957419D01*
X204023809Y-110957419D02*
X203928571Y-111100276D01*
X203928571Y-111100276D02*
X203833333Y-111195514D01*
X203833333Y-111195514D02*
X203738095Y-111243133D01*
X193666667Y-115909800D02*
X193809524Y-115957419D01*
X193809524Y-115957419D02*
X194047619Y-115957419D01*
X194047619Y-115957419D02*
X194142857Y-115909800D01*
X194142857Y-115909800D02*
X194190476Y-115862180D01*
X194190476Y-115862180D02*
X194238095Y-115766942D01*
X194238095Y-115766942D02*
X194238095Y-115671704D01*
X194238095Y-115671704D02*
X194190476Y-115576466D01*
X194190476Y-115576466D02*
X194142857Y-115528847D01*
X194142857Y-115528847D02*
X194047619Y-115481228D01*
X194047619Y-115481228D02*
X193857143Y-115433609D01*
X193857143Y-115433609D02*
X193761905Y-115385990D01*
X193761905Y-115385990D02*
X193714286Y-115338371D01*
X193714286Y-115338371D02*
X193666667Y-115243133D01*
X193666667Y-115243133D02*
X193666667Y-115147895D01*
X193666667Y-115147895D02*
X193714286Y-115052657D01*
X193714286Y-115052657D02*
X193761905Y-115005038D01*
X193761905Y-115005038D02*
X193857143Y-114957419D01*
X193857143Y-114957419D02*
X194095238Y-114957419D01*
X194095238Y-114957419D02*
X194238095Y-115005038D01*
X194571429Y-114957419D02*
X194809524Y-115957419D01*
X194809524Y-115957419D02*
X195000000Y-115243133D01*
X195000000Y-115243133D02*
X195190476Y-115957419D01*
X195190476Y-115957419D02*
X195428572Y-114957419D01*
X195761905Y-115052657D02*
X195809524Y-115005038D01*
X195809524Y-115005038D02*
X195904762Y-114957419D01*
X195904762Y-114957419D02*
X196142857Y-114957419D01*
X196142857Y-114957419D02*
X196238095Y-115005038D01*
X196238095Y-115005038D02*
X196285714Y-115052657D01*
X196285714Y-115052657D02*
X196333333Y-115147895D01*
X196333333Y-115147895D02*
X196333333Y-115243133D01*
X196333333Y-115243133D02*
X196285714Y-115385990D01*
X196285714Y-115385990D02*
X195714286Y-115957419D01*
X195714286Y-115957419D02*
X196333333Y-115957419D01*
X162833333Y-132362180D02*
X162785714Y-132409800D01*
X162785714Y-132409800D02*
X162642857Y-132457419D01*
X162642857Y-132457419D02*
X162547619Y-132457419D01*
X162547619Y-132457419D02*
X162404762Y-132409800D01*
X162404762Y-132409800D02*
X162309524Y-132314561D01*
X162309524Y-132314561D02*
X162261905Y-132219323D01*
X162261905Y-132219323D02*
X162214286Y-132028847D01*
X162214286Y-132028847D02*
X162214286Y-131885990D01*
X162214286Y-131885990D02*
X162261905Y-131695514D01*
X162261905Y-131695514D02*
X162309524Y-131600276D01*
X162309524Y-131600276D02*
X162404762Y-131505038D01*
X162404762Y-131505038D02*
X162547619Y-131457419D01*
X162547619Y-131457419D02*
X162642857Y-131457419D01*
X162642857Y-131457419D02*
X162785714Y-131505038D01*
X162785714Y-131505038D02*
X162833333Y-131552657D01*
X163166667Y-131457419D02*
X163785714Y-131457419D01*
X163785714Y-131457419D02*
X163452381Y-131838371D01*
X163452381Y-131838371D02*
X163595238Y-131838371D01*
X163595238Y-131838371D02*
X163690476Y-131885990D01*
X163690476Y-131885990D02*
X163738095Y-131933609D01*
X163738095Y-131933609D02*
X163785714Y-132028847D01*
X163785714Y-132028847D02*
X163785714Y-132266942D01*
X163785714Y-132266942D02*
X163738095Y-132362180D01*
X163738095Y-132362180D02*
X163690476Y-132409800D01*
X163690476Y-132409800D02*
X163595238Y-132457419D01*
X163595238Y-132457419D02*
X163309524Y-132457419D01*
X163309524Y-132457419D02*
X163214286Y-132409800D01*
X163214286Y-132409800D02*
X163166667Y-132362180D01*
X186333333Y-123457419D02*
X186000000Y-122981228D01*
X185761905Y-123457419D02*
X185761905Y-122457419D01*
X185761905Y-122457419D02*
X186142857Y-122457419D01*
X186142857Y-122457419D02*
X186238095Y-122505038D01*
X186238095Y-122505038D02*
X186285714Y-122552657D01*
X186285714Y-122552657D02*
X186333333Y-122647895D01*
X186333333Y-122647895D02*
X186333333Y-122790752D01*
X186333333Y-122790752D02*
X186285714Y-122885990D01*
X186285714Y-122885990D02*
X186238095Y-122933609D01*
X186238095Y-122933609D02*
X186142857Y-122981228D01*
X186142857Y-122981228D02*
X185761905Y-122981228D01*
X186904762Y-122885990D02*
X186809524Y-122838371D01*
X186809524Y-122838371D02*
X186761905Y-122790752D01*
X186761905Y-122790752D02*
X186714286Y-122695514D01*
X186714286Y-122695514D02*
X186714286Y-122647895D01*
X186714286Y-122647895D02*
X186761905Y-122552657D01*
X186761905Y-122552657D02*
X186809524Y-122505038D01*
X186809524Y-122505038D02*
X186904762Y-122457419D01*
X186904762Y-122457419D02*
X187095238Y-122457419D01*
X187095238Y-122457419D02*
X187190476Y-122505038D01*
X187190476Y-122505038D02*
X187238095Y-122552657D01*
X187238095Y-122552657D02*
X187285714Y-122647895D01*
X187285714Y-122647895D02*
X187285714Y-122695514D01*
X187285714Y-122695514D02*
X187238095Y-122790752D01*
X187238095Y-122790752D02*
X187190476Y-122838371D01*
X187190476Y-122838371D02*
X187095238Y-122885990D01*
X187095238Y-122885990D02*
X186904762Y-122885990D01*
X186904762Y-122885990D02*
X186809524Y-122933609D01*
X186809524Y-122933609D02*
X186761905Y-122981228D01*
X186761905Y-122981228D02*
X186714286Y-123076466D01*
X186714286Y-123076466D02*
X186714286Y-123266942D01*
X186714286Y-123266942D02*
X186761905Y-123362180D01*
X186761905Y-123362180D02*
X186809524Y-123409800D01*
X186809524Y-123409800D02*
X186904762Y-123457419D01*
X186904762Y-123457419D02*
X187095238Y-123457419D01*
X187095238Y-123457419D02*
X187190476Y-123409800D01*
X187190476Y-123409800D02*
X187238095Y-123362180D01*
X187238095Y-123362180D02*
X187285714Y-123266942D01*
X187285714Y-123266942D02*
X187285714Y-123076466D01*
X187285714Y-123076466D02*
X187238095Y-122981228D01*
X187238095Y-122981228D02*
X187190476Y-122933609D01*
X187190476Y-122933609D02*
X187095238Y-122885990D01*
X178833333Y-147857419D02*
X178357143Y-147857419D01*
X178357143Y-147857419D02*
X178357143Y-146857419D01*
X179690476Y-147857419D02*
X179119048Y-147857419D01*
X179404762Y-147857419D02*
X179404762Y-146857419D01*
X179404762Y-146857419D02*
X179309524Y-147000276D01*
X179309524Y-147000276D02*
X179214286Y-147095514D01*
X179214286Y-147095514D02*
X179119048Y-147143133D01*
X203404761Y-105052657D02*
X203309523Y-105005038D01*
X203309523Y-105005038D02*
X203214285Y-104909800D01*
X203214285Y-104909800D02*
X203071428Y-104766942D01*
X203071428Y-104766942D02*
X202976190Y-104719323D01*
X202976190Y-104719323D02*
X202880952Y-104719323D01*
X202928571Y-104957419D02*
X202833333Y-104909800D01*
X202833333Y-104909800D02*
X202738095Y-104814561D01*
X202738095Y-104814561D02*
X202690476Y-104624085D01*
X202690476Y-104624085D02*
X202690476Y-104290752D01*
X202690476Y-104290752D02*
X202738095Y-104100276D01*
X202738095Y-104100276D02*
X202833333Y-104005038D01*
X202833333Y-104005038D02*
X202928571Y-103957419D01*
X202928571Y-103957419D02*
X203119047Y-103957419D01*
X203119047Y-103957419D02*
X203214285Y-104005038D01*
X203214285Y-104005038D02*
X203309523Y-104100276D01*
X203309523Y-104100276D02*
X203357142Y-104290752D01*
X203357142Y-104290752D02*
X203357142Y-104624085D01*
X203357142Y-104624085D02*
X203309523Y-104814561D01*
X203309523Y-104814561D02*
X203214285Y-104909800D01*
X203214285Y-104909800D02*
X203119047Y-104957419D01*
X203119047Y-104957419D02*
X202928571Y-104957419D01*
X203738095Y-104052657D02*
X203785714Y-104005038D01*
X203785714Y-104005038D02*
X203880952Y-103957419D01*
X203880952Y-103957419D02*
X204119047Y-103957419D01*
X204119047Y-103957419D02*
X204214285Y-104005038D01*
X204214285Y-104005038D02*
X204261904Y-104052657D01*
X204261904Y-104052657D02*
X204309523Y-104147895D01*
X204309523Y-104147895D02*
X204309523Y-104243133D01*
X204309523Y-104243133D02*
X204261904Y-104385990D01*
X204261904Y-104385990D02*
X203690476Y-104957419D01*
X203690476Y-104957419D02*
X204309523Y-104957419D01*
X164066667Y-110409800D02*
X164209524Y-110457419D01*
X164209524Y-110457419D02*
X164447619Y-110457419D01*
X164447619Y-110457419D02*
X164542857Y-110409800D01*
X164542857Y-110409800D02*
X164590476Y-110362180D01*
X164590476Y-110362180D02*
X164638095Y-110266942D01*
X164638095Y-110266942D02*
X164638095Y-110171704D01*
X164638095Y-110171704D02*
X164590476Y-110076466D01*
X164590476Y-110076466D02*
X164542857Y-110028847D01*
X164542857Y-110028847D02*
X164447619Y-109981228D01*
X164447619Y-109981228D02*
X164257143Y-109933609D01*
X164257143Y-109933609D02*
X164161905Y-109885990D01*
X164161905Y-109885990D02*
X164114286Y-109838371D01*
X164114286Y-109838371D02*
X164066667Y-109743133D01*
X164066667Y-109743133D02*
X164066667Y-109647895D01*
X164066667Y-109647895D02*
X164114286Y-109552657D01*
X164114286Y-109552657D02*
X164161905Y-109505038D01*
X164161905Y-109505038D02*
X164257143Y-109457419D01*
X164257143Y-109457419D02*
X164495238Y-109457419D01*
X164495238Y-109457419D02*
X164638095Y-109505038D01*
X164971429Y-109457419D02*
X165209524Y-110457419D01*
X165209524Y-110457419D02*
X165400000Y-109743133D01*
X165400000Y-109743133D02*
X165590476Y-110457419D01*
X165590476Y-110457419D02*
X165828572Y-109457419D01*
X166733333Y-110457419D02*
X166161905Y-110457419D01*
X166447619Y-110457419D02*
X166447619Y-109457419D01*
X166447619Y-109457419D02*
X166352381Y-109600276D01*
X166352381Y-109600276D02*
X166257143Y-109695514D01*
X166257143Y-109695514D02*
X166161905Y-109743133D01*
X171143095Y-118252419D02*
X171143095Y-119061942D01*
X171143095Y-119061942D02*
X171190714Y-119157180D01*
X171190714Y-119157180D02*
X171238333Y-119204800D01*
X171238333Y-119204800D02*
X171333571Y-119252419D01*
X171333571Y-119252419D02*
X171524047Y-119252419D01*
X171524047Y-119252419D02*
X171619285Y-119204800D01*
X171619285Y-119204800D02*
X171666904Y-119157180D01*
X171666904Y-119157180D02*
X171714523Y-119061942D01*
X171714523Y-119061942D02*
X171714523Y-118252419D01*
X172714523Y-119252419D02*
X172143095Y-119252419D01*
X172428809Y-119252419D02*
X172428809Y-118252419D01*
X172428809Y-118252419D02*
X172333571Y-118395276D01*
X172333571Y-118395276D02*
X172238333Y-118490514D01*
X172238333Y-118490514D02*
X172143095Y-118538133D01*
X200833333Y-111457419D02*
X200500000Y-110981228D01*
X200261905Y-111457419D02*
X200261905Y-110457419D01*
X200261905Y-110457419D02*
X200642857Y-110457419D01*
X200642857Y-110457419D02*
X200738095Y-110505038D01*
X200738095Y-110505038D02*
X200785714Y-110552657D01*
X200785714Y-110552657D02*
X200833333Y-110647895D01*
X200833333Y-110647895D02*
X200833333Y-110790752D01*
X200833333Y-110790752D02*
X200785714Y-110885990D01*
X200785714Y-110885990D02*
X200738095Y-110933609D01*
X200738095Y-110933609D02*
X200642857Y-110981228D01*
X200642857Y-110981228D02*
X200261905Y-110981228D01*
X201166667Y-110457419D02*
X201785714Y-110457419D01*
X201785714Y-110457419D02*
X201452381Y-110838371D01*
X201452381Y-110838371D02*
X201595238Y-110838371D01*
X201595238Y-110838371D02*
X201690476Y-110885990D01*
X201690476Y-110885990D02*
X201738095Y-110933609D01*
X201738095Y-110933609D02*
X201785714Y-111028847D01*
X201785714Y-111028847D02*
X201785714Y-111266942D01*
X201785714Y-111266942D02*
X201738095Y-111362180D01*
X201738095Y-111362180D02*
X201690476Y-111409800D01*
X201690476Y-111409800D02*
X201595238Y-111457419D01*
X201595238Y-111457419D02*
X201309524Y-111457419D01*
X201309524Y-111457419D02*
X201214286Y-111409800D01*
X201214286Y-111409800D02*
X201166667Y-111362180D01*
X204333333Y-136457419D02*
X204333333Y-137171704D01*
X204333333Y-137171704D02*
X204380952Y-137314561D01*
X204380952Y-137314561D02*
X204476190Y-137409800D01*
X204476190Y-137409800D02*
X204619047Y-137457419D01*
X204619047Y-137457419D02*
X204714285Y-137457419D01*
X203904761Y-136552657D02*
X203857142Y-136505038D01*
X203857142Y-136505038D02*
X203761904Y-136457419D01*
X203761904Y-136457419D02*
X203523809Y-136457419D01*
X203523809Y-136457419D02*
X203428571Y-136505038D01*
X203428571Y-136505038D02*
X203380952Y-136552657D01*
X203380952Y-136552657D02*
X203333333Y-136647895D01*
X203333333Y-136647895D02*
X203333333Y-136743133D01*
X203333333Y-136743133D02*
X203380952Y-136885990D01*
X203380952Y-136885990D02*
X203952380Y-137457419D01*
X203952380Y-137457419D02*
X203333333Y-137457419D01*
%TO.C,J8*%
D12*
X213700000Y-116590000D02*
X214300000Y-116590000D01*
X214000000Y-117190000D02*
X213700000Y-116590000D01*
X214300000Y-116590000D02*
X214000000Y-117190000D01*
X209090000Y-117390000D02*
X217810000Y-117390000D01*
X217810000Y-127610000D01*
X209090000Y-127610000D01*
X209090000Y-117390000D01*
%TO.C,J6*%
X194841181Y-94120000D02*
X194841181Y-96880000D01*
X200031181Y-94120000D02*
X194841181Y-94120000D01*
X200031181Y-94120000D02*
X200031181Y-96880000D01*
X200031181Y-96880000D02*
X194841181Y-96880000D01*
X201301181Y-94120000D02*
X202681181Y-94120000D01*
X202681181Y-94120000D02*
X202681181Y-95500000D01*
%TO.C,R10*%
X189272936Y-126590000D02*
X190727064Y-126590000D01*
X189272936Y-128410000D02*
X190727064Y-128410000D01*
%TO.C,R5*%
X194590000Y-105772936D02*
X194590000Y-107227064D01*
X196410000Y-105772936D02*
X196410000Y-107227064D01*
%TO.C,R2*%
X193590000Y-112727064D02*
X193590000Y-111272936D01*
X195410000Y-112727064D02*
X195410000Y-111272936D01*
%TO.C,R1*%
X194727064Y-121590000D02*
X193272936Y-121590000D01*
X194727064Y-123410000D02*
X193272936Y-123410000D01*
%TO.C,C4*%
X169711252Y-135090000D02*
X168288748Y-135090000D01*
X169711252Y-136910000D02*
X168288748Y-136910000D01*
%TO.C,C2*%
X197590000Y-136211252D02*
X197590000Y-134788748D01*
X199410000Y-136211252D02*
X199410000Y-134788748D01*
%TO.C,D2*%
X188850000Y-139990000D02*
X188850000Y-147000000D01*
X192150000Y-139990000D02*
X188850000Y-139990000D01*
X192150000Y-139990000D02*
X192150000Y-147000000D01*
%TO.C,D5*%
X174841181Y-119460000D02*
X174841181Y-121730000D01*
X174841181Y-121730000D02*
X178901181Y-121730000D01*
X178901181Y-119460000D02*
X174841181Y-119460000D01*
%TO.C,R7*%
X164670000Y-102723737D02*
X164670000Y-101276263D01*
X167380000Y-102723737D02*
X167380000Y-101276263D01*
%TO.C,D9*%
X197365000Y-121400000D02*
X197365000Y-125460000D01*
X197365000Y-125460000D02*
X199635000Y-125460000D01*
X199635000Y-125460000D02*
X199635000Y-121400000D01*
%TO.C,R6*%
X197645000Y-105276263D02*
X197645000Y-106723737D01*
X200355000Y-105276263D02*
X200355000Y-106723737D01*
%TO.C,U3*%
X186840000Y-128990000D02*
X191460000Y-128990000D01*
X186840000Y-132250000D02*
X188220000Y-132250000D01*
X186840000Y-135950000D02*
X188220000Y-135950000D01*
X186840000Y-139210000D02*
X186840000Y-128990000D01*
X188220000Y-139210000D02*
X188220000Y-128990000D01*
X191460000Y-128990000D02*
X191460000Y-131240000D01*
X191460000Y-130215000D02*
X194096000Y-130215000D01*
X191460000Y-131185000D02*
X194096000Y-131185000D01*
X191460000Y-133560000D02*
X191460000Y-134640000D01*
X191460000Y-133615000D02*
X194096000Y-133615000D01*
X191460000Y-134585000D02*
X194096000Y-134585000D01*
X191460000Y-136960000D02*
X191460000Y-139210000D01*
X191460000Y-137015000D02*
X193990000Y-137015000D01*
X191460000Y-137985000D02*
X193990000Y-137985000D01*
X191460000Y-139210000D02*
X186840000Y-139210000D01*
%TO.C,R9*%
X195272936Y-126590000D02*
X196727064Y-126590000D01*
X195272936Y-128410000D02*
X196727064Y-128410000D01*
%TO.C,C1*%
X196240000Y-141304437D02*
X196240000Y-148760000D01*
X196240000Y-148760000D02*
X199190000Y-148760000D01*
X197304437Y-140240000D02*
X196240000Y-141304437D01*
X197304437Y-140240000D02*
X199190000Y-140240000D01*
X203695563Y-140240000D02*
X201810000Y-140240000D01*
X203695563Y-140240000D02*
X204760000Y-141304437D01*
X204760000Y-141304437D02*
X204760000Y-148760000D01*
X204760000Y-148760000D02*
X201810000Y-148760000D01*
%TO.C,J7*%
X213750000Y-101590000D02*
X214350000Y-101590000D01*
X214050000Y-102190000D02*
X213750000Y-101590000D01*
X214350000Y-101590000D02*
X214050000Y-102190000D01*
X209140000Y-102390000D02*
X217860000Y-102390000D01*
X217860000Y-112610000D01*
X209140000Y-112610000D01*
X209140000Y-102390000D01*
%TO.C,R4*%
X182074117Y-119685000D02*
X183528245Y-119685000D01*
X182074117Y-121505000D02*
X183528245Y-121505000D01*
%TO.C,Q1*%
D13*
X203246000Y-115460500D02*
X204300000Y-115460500D01*
X204300000Y-112539500D02*
X203246000Y-112539500D01*
X204300000Y-113301500D02*
X204300000Y-112539500D01*
X204300000Y-115460500D02*
X204300000Y-114698500D01*
%TO.C,SW2*%
X193000000Y-116550000D02*
X193000000Y-116780000D01*
X193000000Y-116550000D02*
X197000000Y-116550000D01*
X193000000Y-119450000D02*
X193000000Y-119220000D01*
X197000000Y-116550000D02*
X197000000Y-116780000D01*
X197000000Y-119220000D02*
X197000000Y-119450000D01*
X197000000Y-119450000D02*
X193000000Y-119450000D01*
%TO.C,C3*%
D12*
X164240000Y-124240000D02*
X164240000Y-127190000D01*
X164240000Y-132760000D02*
X164240000Y-129810000D01*
X171695563Y-124240000D02*
X164240000Y-124240000D01*
X171695563Y-132760000D02*
X164240000Y-132760000D01*
X172760000Y-125304437D02*
X171695563Y-124240000D01*
X172760000Y-125304437D02*
X172760000Y-127190000D01*
X172760000Y-131695563D02*
X171695563Y-132760000D01*
X172760000Y-131695563D02*
X172760000Y-129810000D01*
%TO.C,R8*%
X187645000Y-120276263D02*
X187645000Y-121723737D01*
X190355000Y-120276263D02*
X190355000Y-121723737D01*
%TO.C,L1*%
X172500000Y-136250000D02*
X172500000Y-133900000D01*
X172500000Y-146100000D02*
X172500000Y-143750000D01*
X172900000Y-133500000D02*
X185100000Y-133500000D01*
X185100000Y-146500000D02*
X172900000Y-146500000D01*
X185500000Y-136250000D02*
X185500000Y-133900000D01*
X185500000Y-143750000D02*
X186250000Y-143750000D01*
X185500000Y-146100000D02*
X185500000Y-143750000D01*
X172500000Y-133900000D02*
G75*
G02*
X172900000Y-133500000I400000J0D01*
G01*
X172900000Y-146500000D02*
G75*
G02*
X172500000Y-146100000I0J400000D01*
G01*
X185100000Y-133500000D02*
G75*
G02*
X185500000Y-133900000I1J-399999D01*
G01*
X185500000Y-146100000D02*
G75*
G02*
X185100000Y-146500000I-399999J-1D01*
G01*
%TO.C,Q2*%
D13*
X203246000Y-108460500D02*
X204300000Y-108460500D01*
X204300000Y-105539500D02*
X203246000Y-105539500D01*
X204300000Y-106301500D02*
X204300000Y-105539500D01*
X204300000Y-108460500D02*
X204300000Y-107698500D01*
%TO.C,SW1*%
X163400000Y-106050000D02*
X167400000Y-106050000D01*
X163400000Y-106280000D02*
X163400000Y-106050000D01*
X163400000Y-108950000D02*
X163400000Y-108720000D01*
X167400000Y-106050000D02*
X167400000Y-106280000D01*
X167400000Y-108950000D02*
X163400000Y-108950000D01*
X167400000Y-108950000D02*
X167400000Y-108720000D01*
%TO.C,U1*%
D12*
X171535000Y-91485000D02*
X171535000Y-97645000D01*
X171535000Y-91485000D02*
X189775000Y-91485000D01*
X171535000Y-116445000D02*
X171535000Y-117225000D01*
X171535000Y-117225000D02*
X172535000Y-117225000D01*
X189775000Y-91485000D02*
X189775000Y-97900000D01*
X189775000Y-116445000D02*
X189775000Y-117225000D01*
X189775000Y-117225000D02*
X188775000Y-117225000D01*
X171530000Y-98370000D02*
X171030000Y-98370000D01*
X171530000Y-97870000D01*
X171530000Y-98370000D01*
G36*
X171530000Y-98370000D02*
G01*
X171030000Y-98370000D01*
X171530000Y-97870000D01*
X171530000Y-98370000D01*
G37*
%TO.C,R3*%
X197145000Y-113223737D02*
X197145000Y-111776263D01*
X199855000Y-113223737D02*
X199855000Y-111776263D01*
%TD*%
M02*
