M48
; DRILL file KiCad 10.0.0 date 2026-04-14T23:16:29
; FORMAT={-:-/ absolute / metric / decimal}
; #@! TF.CreationDate,2026-04-14T23:16:29+02:00
; #@! TF.GenerationSoftware,Kicad,Pcbnew,10.0.0
; #@! TF.FileFunction,Plated,1,2,PTH
FMAT,2
METRIC
; #@! TA.AperFunction,Plated,PTH,ComponentDrill
T1C0.200
; #@! TA.AperFunction,Plated,PTH,ComponentDrill
T2C0.500
; #@! TA.AperFunction,Plated,PTH,ComponentDrill
T3C1.000
; #@! TA.AperFunction,Plated,PTH,ComponentDrill
T4C1.100
; #@! TA.AperFunction,Plated,PTH,ComponentDrill
T5C1.700
; #@! TA.AperFunction,Plated,PTH,ComponentDrill
T6C3.200
%
G90
G05
T1
X178.45Y-105.672
X178.45Y-107.197
X179.213Y-104.91
X179.213Y-106.435
X179.213Y-107.96
X179.975Y-105.672
X179.975Y-107.197
X180.737Y-104.91
X180.737Y-106.435
X180.737Y-107.96
X181.5Y-105.672
X181.5Y-107.197
T2
X162.1Y-95.5
X162.1Y-148.5
X162.803Y-93.803
X162.803Y-97.197
X162.803Y-146.803
X162.803Y-150.197
X164.5Y-93.1
X164.5Y-97.9
X164.5Y-146.1
X164.5Y-150.9
X166.197Y-93.803
X166.197Y-97.197
X166.197Y-146.803
X166.197Y-150.197
X166.9Y-95.5
X166.9Y-148.5
X212.1Y-95.5
X212.1Y-148.5
X212.803Y-93.803
X212.803Y-97.197
X212.803Y-146.803
X212.803Y-150.197
X214.5Y-93.1
X214.5Y-97.9
X214.5Y-146.1
X214.5Y-150.9
X216.197Y-93.803
X216.197Y-97.197
X216.197Y-146.803
X216.197Y-150.197
X216.9Y-95.5
X216.9Y-148.5
T3
X196.221Y-95.5
X198.761Y-95.5
X201.301Y-95.5
T4
X191.45Y-132.4
X191.45Y-135.8
X195.15Y-130.7
X195.15Y-134.1
X195.15Y-137.5
T5
X214.0Y-120.0
X214.0Y-125.0
X214.05Y-105.0
X214.05Y-110.0
T6
X164.5Y-95.5
X164.5Y-148.5
X214.5Y-95.5
X214.5Y-148.5
T3
G00X206.0Y-135.0
M15
G01X206.0Y-133.0
M16
G05
G00X210.0Y-138.7
M15
G01X208.0Y-138.7
M16
G05
G00X212.0Y-135.0
M15
G01X212.0Y-133.0
M16
G05
M30
