%TF.GenerationSoftware,KiCad,Pcbnew,10.0.0*%
%TF.CreationDate,2026-04-14T00:47:31+02:00*%
%TF.ProjectId,Neon_2x1M_12V_V2_0,4e656f6e-5f32-4783-914d-5f3132565f56,REV 2.0*%
%TF.SameCoordinates,Original*%
%TF.FileFunction,Paste,Top*%
%TF.FilePolarity,Positive*%
%FSLAX46Y46*%
G04 Gerber Fmt 4.6, Leading zero omitted, Abs format (unit mm)*
G04 Created by KiCad (PCBNEW 10.0.0) date 2026-04-14 00:47:31*
%MOMM*%
%LPD*%
G01*
G04 APERTURE LIST*
G04 Aperture macros list*
%AMRoundRect*
0 Rectangle with rounded corners*
0 $1 Rounding radius*
0 $2 $3 $4 $5 $6 $7 $8 $9 X,Y pos of 4 corners*
0 Add a 4 corners polygon primitive as box body*
4,1,4,$2,$3,$4,$5,$6,$7,$8,$9,$2,$3,0*
0 Add four circle primitives for the rounded corners*
1,1,$1+$1,$2,$3*
1,1,$1+$1,$4,$5*
1,1,$1+$1,$6,$7*
1,1,$1+$1,$8,$9*
0 Add four rect primitives between the rounded corners*
20,1,$1+$1,$2,$3,$4,$5,0*
20,1,$1+$1,$4,$5,$6,$7,0*
20,1,$1+$1,$6,$7,$8,$9,0*
20,1,$1+$1,$8,$9,$2,$3,0*%
G04 Aperture macros list end*
%ADD10RoundRect,0.250000X-0.400000X-0.625000X0.400000X-0.625000X0.400000X0.625000X-0.400000X0.625000X0*%
%ADD11RoundRect,0.250000X-0.625000X0.400000X-0.625000X-0.400000X0.625000X-0.400000X0.625000X0.400000X0*%
%ADD12RoundRect,0.250000X0.625000X-0.400000X0.625000X0.400000X-0.625000X0.400000X-0.625000X-0.400000X0*%
%ADD13RoundRect,0.250000X0.400000X0.625000X-0.400000X0.625000X-0.400000X-0.625000X0.400000X-0.625000X0*%
%ADD14RoundRect,0.250000X0.412500X0.650000X-0.412500X0.650000X-0.412500X-0.650000X0.412500X-0.650000X0*%
%ADD15RoundRect,0.250000X0.650000X-0.412500X0.650000X0.412500X-0.650000X0.412500X-0.650000X-0.412500X0*%
%ADD16RoundRect,0.250000X-0.650000X1.500000X-0.650000X-1.500000X0.650000X-1.500000X0.650000X1.500000X0*%
%ADD17RoundRect,0.250001X-0.462499X-0.624999X0.462499X-0.624999X0.462499X0.624999X-0.462499X0.624999X0*%
%ADD18RoundRect,0.250000X1.075000X-0.400000X1.075000X0.400000X-1.075000X0.400000X-1.075000X-0.400000X0*%
%ADD19RoundRect,0.250001X0.462499X0.624999X-0.462499X0.624999X-0.462499X-0.624999X0.462499X-0.624999X0*%
%ADD20RoundRect,0.250000X-1.075000X0.400000X-1.075000X-0.400000X1.075000X-0.400000X1.075000X0.400000X0*%
%ADD21RoundRect,0.250001X-0.799999X1.999999X-0.799999X-1.999999X0.799999X-1.999999X0.799999X1.999999X0*%
%ADD22R,1.200000X1.016000*%
%ADD23R,1.350000X1.800000*%
%ADD24RoundRect,0.250001X1.999999X0.799999X-1.999999X0.799999X-1.999999X-0.799999X1.999999X-0.799999X0*%
%ADD25R,4.000000X7.000000*%
%ADD26R,1.500000X0.900000*%
%ADD27R,0.900000X1.500000*%
%ADD28R,1.050000X1.050000*%
G04 APERTURE END LIST*
D10*
%TO.C,R10*%
X188450000Y-127500000D03*
X191550000Y-127500000D03*
%TD*%
D11*
%TO.C,R5*%
X195000000Y-104950000D03*
X195000000Y-108050000D03*
%TD*%
D12*
%TO.C,R2*%
X194500000Y-113550000D03*
X194500000Y-110450000D03*
%TD*%
D13*
%TO.C,R1*%
X195550000Y-122500000D03*
X192450000Y-122500000D03*
%TD*%
D14*
%TO.C,C4*%
X170562500Y-136000000D03*
X167437500Y-136000000D03*
%TD*%
D15*
%TO.C,C2*%
X198500000Y-137062500D03*
X198500000Y-133937500D03*
%TD*%
D16*
%TO.C,D2*%
X190500000Y-142000000D03*
X190500000Y-147000000D03*
%TD*%
D17*
%TO.C,D5*%
X175813681Y-120595000D03*
X178788681Y-120595000D03*
%TD*%
D18*
%TO.C,R7*%
X168500000Y-102550000D03*
X168500000Y-99450000D03*
%TD*%
D19*
%TO.C,D9*%
X200987500Y-122500000D03*
X198012500Y-122500000D03*
%TD*%
D20*
%TO.C,R6*%
X198500000Y-104450000D03*
X198500000Y-107550000D03*
%TD*%
D10*
%TO.C,R9*%
X194450000Y-127500000D03*
X197550000Y-127500000D03*
%TD*%
D21*
%TO.C,C1*%
X200500000Y-140900000D03*
X200500000Y-148100000D03*
%TD*%
D10*
%TO.C,R4*%
X181251181Y-120595000D03*
X184351181Y-120595000D03*
%TD*%
D22*
%TO.C,Q1*%
X202440000Y-113050000D03*
X202440000Y-114950000D03*
X204560000Y-114000000D03*
%TD*%
D23*
%TO.C,SW2*%
X197075000Y-118000000D03*
X192925000Y-118000000D03*
%TD*%
D24*
%TO.C,C3*%
X172100000Y-128500000D03*
X164900000Y-128500000D03*
%TD*%
D20*
%TO.C,R8*%
X189000000Y-119450000D03*
X189000000Y-122550000D03*
%TD*%
D25*
%TO.C,L1*%
X184000000Y-140000000D03*
X174000000Y-140000000D03*
%TD*%
D22*
%TO.C,Q2*%
X202440000Y-106050000D03*
X202440000Y-107950000D03*
X204560000Y-107000000D03*
%TD*%
D23*
%TO.C,SW1*%
X164425000Y-105500000D03*
X168575000Y-105500000D03*
%TD*%
D26*
%TO.C,U1*%
X171905000Y-99095000D03*
X171905000Y-100365000D03*
X171905000Y-101635000D03*
X171905000Y-102905000D03*
X171905000Y-104175000D03*
X171905000Y-105445000D03*
X171905000Y-106715000D03*
X171905000Y-107985000D03*
X171905000Y-109255000D03*
X171905000Y-110525000D03*
X171905000Y-111795000D03*
X171905000Y-113065000D03*
X171905000Y-114335000D03*
X171905000Y-115605000D03*
D27*
X174945000Y-116855000D03*
X176215000Y-116855000D03*
X177485000Y-116855000D03*
X178755000Y-116855000D03*
X180025000Y-116855000D03*
X181295000Y-116855000D03*
X182565000Y-116855000D03*
X183835000Y-116855000D03*
X185105000Y-116855000D03*
X186375000Y-116855000D03*
D26*
X189405000Y-115605000D03*
X189405000Y-114335000D03*
X189405000Y-113065000D03*
X189405000Y-111795000D03*
X189405000Y-110525000D03*
X189405000Y-109255000D03*
X189405000Y-107985000D03*
X189405000Y-106715000D03*
X189405000Y-105445000D03*
X189405000Y-104175000D03*
X189405000Y-102905000D03*
X189405000Y-101635000D03*
X189405000Y-100365000D03*
X189405000Y-99095000D03*
D28*
X178450000Y-104910000D03*
X178450000Y-106435000D03*
X178450000Y-107960000D03*
X179975000Y-104910000D03*
X179975000Y-106435000D03*
X179975000Y-107960000D03*
X181500000Y-104910000D03*
X181500000Y-106435000D03*
X181500000Y-107960000D03*
%TD*%
D18*
%TO.C,R3*%
X198500000Y-114050000D03*
X198500000Y-110950000D03*
%TD*%
M02*
