%TF.GenerationSoftware,KiCad,Pcbnew,10.0.0*%
%TF.CreationDate,2026-04-14T00:47:31+02:00*%
%TF.ProjectId,Neon_2x1M_12V_V2_0,4e656f6e-5f32-4783-914d-5f3132565f56,REV 2.0*%
%TF.SameCoordinates,Original*%
%TF.FileFunction,Legend,Top*%
%TF.FilePolarity,Positive*%
%FSLAX46Y46*%
G04 Gerber Fmt 4.6, Leading zero omitted, Abs format (unit mm)*
G04 Created by KiCad (PCBNEW 10.0.0) date 2026-04-14 00:47:31*
%MOMM*%
%LPD*%
G01*
G04 APERTURE LIST*
%ADD10C,0.250000*%
%ADD11C,0.150000*%
%ADD12C,0.127000*%
%ADD13C,0.120000*%
G04 APERTURE END LIST*
D10*
X214402568Y-128983666D02*
X215164473Y-128983666D01*
X214783520Y-129364619D02*
X214783520Y-128602714D01*
X216164472Y-129364619D02*
X215593044Y-129364619D01*
X215878758Y-129364619D02*
X215878758Y-128364619D01*
X215878758Y-128364619D02*
X215783520Y-128507476D01*
X215783520Y-128507476D02*
X215688282Y-128602714D01*
X215688282Y-128602714D02*
X215593044Y-128650333D01*
X216545425Y-128459857D02*
X216593044Y-128412238D01*
X216593044Y-128412238D02*
X216688282Y-128364619D01*
X216688282Y-128364619D02*
X216926377Y-128364619D01*
X216926377Y-128364619D02*
X217021615Y-128412238D01*
X217021615Y-128412238D02*
X217069234Y-128459857D01*
X217069234Y-128459857D02*
X217116853Y-128555095D01*
X217116853Y-128555095D02*
X217116853Y-128650333D01*
X217116853Y-128650333D02*
X217069234Y-128793190D01*
X217069234Y-128793190D02*
X216497806Y-129364619D01*
X216497806Y-129364619D02*
X217116853Y-129364619D01*
X217402568Y-128364619D02*
X217735901Y-129364619D01*
X217735901Y-129364619D02*
X218069234Y-128364619D01*
X214402568Y-113983666D02*
X215164473Y-113983666D01*
X214783520Y-114364619D02*
X214783520Y-113602714D01*
X216164472Y-114364619D02*
X215593044Y-114364619D01*
X215878758Y-114364619D02*
X215878758Y-113364619D01*
X215878758Y-113364619D02*
X215783520Y-113507476D01*
X215783520Y-113507476D02*
X215688282Y-113602714D01*
X215688282Y-113602714D02*
X215593044Y-113650333D01*
X216545425Y-113459857D02*
X216593044Y-113412238D01*
X216593044Y-113412238D02*
X216688282Y-113364619D01*
X216688282Y-113364619D02*
X216926377Y-113364619D01*
X216926377Y-113364619D02*
X217021615Y-113412238D01*
X217021615Y-113412238D02*
X217069234Y-113459857D01*
X217069234Y-113459857D02*
X217116853Y-113555095D01*
X217116853Y-113555095D02*
X217116853Y-113650333D01*
X217116853Y-113650333D02*
X217069234Y-113793190D01*
X217069234Y-113793190D02*
X216497806Y-114364619D01*
X216497806Y-114364619D02*
X217116853Y-114364619D01*
X217402568Y-113364619D02*
X217735901Y-114364619D01*
X217735901Y-114364619D02*
X218069234Y-113364619D01*
D11*
X207166666Y-124454819D02*
X207166666Y-125169104D01*
X207166666Y-125169104D02*
X207119047Y-125311961D01*
X207119047Y-125311961D02*
X207023809Y-125407200D01*
X207023809Y-125407200D02*
X206880952Y-125454819D01*
X206880952Y-125454819D02*
X206785714Y-125454819D01*
X207785714Y-124883390D02*
X207690476Y-124835771D01*
X207690476Y-124835771D02*
X207642857Y-124788152D01*
X207642857Y-124788152D02*
X207595238Y-124692914D01*
X207595238Y-124692914D02*
X207595238Y-124645295D01*
X207595238Y-124645295D02*
X207642857Y-124550057D01*
X207642857Y-124550057D02*
X207690476Y-124502438D01*
X207690476Y-124502438D02*
X207785714Y-124454819D01*
X207785714Y-124454819D02*
X207976190Y-124454819D01*
X207976190Y-124454819D02*
X208071428Y-124502438D01*
X208071428Y-124502438D02*
X208119047Y-124550057D01*
X208119047Y-124550057D02*
X208166666Y-124645295D01*
X208166666Y-124645295D02*
X208166666Y-124692914D01*
X208166666Y-124692914D02*
X208119047Y-124788152D01*
X208119047Y-124788152D02*
X208071428Y-124835771D01*
X208071428Y-124835771D02*
X207976190Y-124883390D01*
X207976190Y-124883390D02*
X207785714Y-124883390D01*
X207785714Y-124883390D02*
X207690476Y-124931009D01*
X207690476Y-124931009D02*
X207642857Y-124978628D01*
X207642857Y-124978628D02*
X207595238Y-125073866D01*
X207595238Y-125073866D02*
X207595238Y-125264342D01*
X207595238Y-125264342D02*
X207642857Y-125359580D01*
X207642857Y-125359580D02*
X207690476Y-125407200D01*
X207690476Y-125407200D02*
X207785714Y-125454819D01*
X207785714Y-125454819D02*
X207976190Y-125454819D01*
X207976190Y-125454819D02*
X208071428Y-125407200D01*
X208071428Y-125407200D02*
X208119047Y-125359580D01*
X208119047Y-125359580D02*
X208166666Y-125264342D01*
X208166666Y-125264342D02*
X208166666Y-125073866D01*
X208166666Y-125073866D02*
X208119047Y-124978628D01*
X208119047Y-124978628D02*
X208071428Y-124931009D01*
X208071428Y-124931009D02*
X207976190Y-124883390D01*
X198427847Y-96549819D02*
X198427847Y-97264104D01*
X198427847Y-97264104D02*
X198380228Y-97406961D01*
X198380228Y-97406961D02*
X198284990Y-97502200D01*
X198284990Y-97502200D02*
X198142133Y-97549819D01*
X198142133Y-97549819D02*
X198046895Y-97549819D01*
X199332609Y-96549819D02*
X199142133Y-96549819D01*
X199142133Y-96549819D02*
X199046895Y-96597438D01*
X199046895Y-96597438D02*
X198999276Y-96645057D01*
X198999276Y-96645057D02*
X198904038Y-96787914D01*
X198904038Y-96787914D02*
X198856419Y-96978390D01*
X198856419Y-96978390D02*
X198856419Y-97359342D01*
X198856419Y-97359342D02*
X198904038Y-97454580D01*
X198904038Y-97454580D02*
X198951657Y-97502200D01*
X198951657Y-97502200D02*
X199046895Y-97549819D01*
X199046895Y-97549819D02*
X199237371Y-97549819D01*
X199237371Y-97549819D02*
X199332609Y-97502200D01*
X199332609Y-97502200D02*
X199380228Y-97454580D01*
X199380228Y-97454580D02*
X199427847Y-97359342D01*
X199427847Y-97359342D02*
X199427847Y-97121247D01*
X199427847Y-97121247D02*
X199380228Y-97026009D01*
X199380228Y-97026009D02*
X199332609Y-96978390D01*
X199332609Y-96978390D02*
X199237371Y-96930771D01*
X199237371Y-96930771D02*
X199046895Y-96930771D01*
X199046895Y-96930771D02*
X198951657Y-96978390D01*
X198951657Y-96978390D02*
X198904038Y-97026009D01*
X198904038Y-97026009D02*
X198856419Y-97121247D01*
X189407142Y-126254819D02*
X189073809Y-125778628D01*
X188835714Y-126254819D02*
X188835714Y-125254819D01*
X188835714Y-125254819D02*
X189216666Y-125254819D01*
X189216666Y-125254819D02*
X189311904Y-125302438D01*
X189311904Y-125302438D02*
X189359523Y-125350057D01*
X189359523Y-125350057D02*
X189407142Y-125445295D01*
X189407142Y-125445295D02*
X189407142Y-125588152D01*
X189407142Y-125588152D02*
X189359523Y-125683390D01*
X189359523Y-125683390D02*
X189311904Y-125731009D01*
X189311904Y-125731009D02*
X189216666Y-125778628D01*
X189216666Y-125778628D02*
X188835714Y-125778628D01*
X190359523Y-126254819D02*
X189788095Y-126254819D01*
X190073809Y-126254819D02*
X190073809Y-125254819D01*
X190073809Y-125254819D02*
X189978571Y-125397676D01*
X189978571Y-125397676D02*
X189883333Y-125492914D01*
X189883333Y-125492914D02*
X189788095Y-125540533D01*
X190978571Y-125254819D02*
X191073809Y-125254819D01*
X191073809Y-125254819D02*
X191169047Y-125302438D01*
X191169047Y-125302438D02*
X191216666Y-125350057D01*
X191216666Y-125350057D02*
X191264285Y-125445295D01*
X191264285Y-125445295D02*
X191311904Y-125635771D01*
X191311904Y-125635771D02*
X191311904Y-125873866D01*
X191311904Y-125873866D02*
X191264285Y-126064342D01*
X191264285Y-126064342D02*
X191216666Y-126159580D01*
X191216666Y-126159580D02*
X191169047Y-126207200D01*
X191169047Y-126207200D02*
X191073809Y-126254819D01*
X191073809Y-126254819D02*
X190978571Y-126254819D01*
X190978571Y-126254819D02*
X190883333Y-126207200D01*
X190883333Y-126207200D02*
X190835714Y-126159580D01*
X190835714Y-126159580D02*
X190788095Y-126064342D01*
X190788095Y-126064342D02*
X190740476Y-125873866D01*
X190740476Y-125873866D02*
X190740476Y-125635771D01*
X190740476Y-125635771D02*
X190788095Y-125445295D01*
X190788095Y-125445295D02*
X190835714Y-125350057D01*
X190835714Y-125350057D02*
X190883333Y-125302438D01*
X190883333Y-125302438D02*
X190978571Y-125254819D01*
D12*
X192873000Y-106845911D02*
X192619000Y-106483054D01*
X192437571Y-106845911D02*
X192437571Y-106083911D01*
X192437571Y-106083911D02*
X192727857Y-106083911D01*
X192727857Y-106083911D02*
X192800428Y-106120197D01*
X192800428Y-106120197D02*
X192836714Y-106156483D01*
X192836714Y-106156483D02*
X192873000Y-106229054D01*
X192873000Y-106229054D02*
X192873000Y-106337911D01*
X192873000Y-106337911D02*
X192836714Y-106410483D01*
X192836714Y-106410483D02*
X192800428Y-106446768D01*
X192800428Y-106446768D02*
X192727857Y-106483054D01*
X192727857Y-106483054D02*
X192437571Y-106483054D01*
X193562428Y-106083911D02*
X193199571Y-106083911D01*
X193199571Y-106083911D02*
X193163285Y-106446768D01*
X193163285Y-106446768D02*
X193199571Y-106410483D01*
X193199571Y-106410483D02*
X193272143Y-106374197D01*
X193272143Y-106374197D02*
X193453571Y-106374197D01*
X193453571Y-106374197D02*
X193526143Y-106410483D01*
X193526143Y-106410483D02*
X193562428Y-106446768D01*
X193562428Y-106446768D02*
X193598714Y-106519340D01*
X193598714Y-106519340D02*
X193598714Y-106700768D01*
X193598714Y-106700768D02*
X193562428Y-106773340D01*
X193562428Y-106773340D02*
X193526143Y-106809626D01*
X193526143Y-106809626D02*
X193453571Y-106845911D01*
X193453571Y-106845911D02*
X193272143Y-106845911D01*
X193272143Y-106845911D02*
X193199571Y-106809626D01*
X193199571Y-106809626D02*
X193163285Y-106773340D01*
X192373000Y-112345911D02*
X192119000Y-111983054D01*
X191937571Y-112345911D02*
X191937571Y-111583911D01*
X191937571Y-111583911D02*
X192227857Y-111583911D01*
X192227857Y-111583911D02*
X192300428Y-111620197D01*
X192300428Y-111620197D02*
X192336714Y-111656483D01*
X192336714Y-111656483D02*
X192373000Y-111729054D01*
X192373000Y-111729054D02*
X192373000Y-111837911D01*
X192373000Y-111837911D02*
X192336714Y-111910483D01*
X192336714Y-111910483D02*
X192300428Y-111946768D01*
X192300428Y-111946768D02*
X192227857Y-111983054D01*
X192227857Y-111983054D02*
X191937571Y-111983054D01*
X192663285Y-111656483D02*
X192699571Y-111620197D01*
X192699571Y-111620197D02*
X192772143Y-111583911D01*
X192772143Y-111583911D02*
X192953571Y-111583911D01*
X192953571Y-111583911D02*
X193026143Y-111620197D01*
X193026143Y-111620197D02*
X193062428Y-111656483D01*
X193062428Y-111656483D02*
X193098714Y-111729054D01*
X193098714Y-111729054D02*
X193098714Y-111801626D01*
X193098714Y-111801626D02*
X193062428Y-111910483D01*
X193062428Y-111910483D02*
X192627000Y-112345911D01*
X192627000Y-112345911D02*
X193098714Y-112345911D01*
X193873000Y-121045911D02*
X193619000Y-120683054D01*
X193437571Y-121045911D02*
X193437571Y-120283911D01*
X193437571Y-120283911D02*
X193727857Y-120283911D01*
X193727857Y-120283911D02*
X193800428Y-120320197D01*
X193800428Y-120320197D02*
X193836714Y-120356483D01*
X193836714Y-120356483D02*
X193873000Y-120429054D01*
X193873000Y-120429054D02*
X193873000Y-120537911D01*
X193873000Y-120537911D02*
X193836714Y-120610483D01*
X193836714Y-120610483D02*
X193800428Y-120646768D01*
X193800428Y-120646768D02*
X193727857Y-120683054D01*
X193727857Y-120683054D02*
X193437571Y-120683054D01*
X194598714Y-121045911D02*
X194163285Y-121045911D01*
X194381000Y-121045911D02*
X194381000Y-120283911D01*
X194381000Y-120283911D02*
X194308428Y-120392768D01*
X194308428Y-120392768D02*
X194235857Y-120465340D01*
X194235857Y-120465340D02*
X194163285Y-120501626D01*
D11*
X168833333Y-138359580D02*
X168785714Y-138407200D01*
X168785714Y-138407200D02*
X168642857Y-138454819D01*
X168642857Y-138454819D02*
X168547619Y-138454819D01*
X168547619Y-138454819D02*
X168404762Y-138407200D01*
X168404762Y-138407200D02*
X168309524Y-138311961D01*
X168309524Y-138311961D02*
X168261905Y-138216723D01*
X168261905Y-138216723D02*
X168214286Y-138026247D01*
X168214286Y-138026247D02*
X168214286Y-137883390D01*
X168214286Y-137883390D02*
X168261905Y-137692914D01*
X168261905Y-137692914D02*
X168309524Y-137597676D01*
X168309524Y-137597676D02*
X168404762Y-137502438D01*
X168404762Y-137502438D02*
X168547619Y-137454819D01*
X168547619Y-137454819D02*
X168642857Y-137454819D01*
X168642857Y-137454819D02*
X168785714Y-137502438D01*
X168785714Y-137502438D02*
X168833333Y-137550057D01*
X169690476Y-137788152D02*
X169690476Y-138454819D01*
X169452381Y-137407200D02*
X169214286Y-138121485D01*
X169214286Y-138121485D02*
X169833333Y-138121485D01*
X198333333Y-132422080D02*
X198285714Y-132469700D01*
X198285714Y-132469700D02*
X198142857Y-132517319D01*
X198142857Y-132517319D02*
X198047619Y-132517319D01*
X198047619Y-132517319D02*
X197904762Y-132469700D01*
X197904762Y-132469700D02*
X197809524Y-132374461D01*
X197809524Y-132374461D02*
X197761905Y-132279223D01*
X197761905Y-132279223D02*
X197714286Y-132088747D01*
X197714286Y-132088747D02*
X197714286Y-131945890D01*
X197714286Y-131945890D02*
X197761905Y-131755414D01*
X197761905Y-131755414D02*
X197809524Y-131660176D01*
X197809524Y-131660176D02*
X197904762Y-131564938D01*
X197904762Y-131564938D02*
X198047619Y-131517319D01*
X198047619Y-131517319D02*
X198142857Y-131517319D01*
X198142857Y-131517319D02*
X198285714Y-131564938D01*
X198285714Y-131564938D02*
X198333333Y-131612557D01*
X198714286Y-131612557D02*
X198761905Y-131564938D01*
X198761905Y-131564938D02*
X198857143Y-131517319D01*
X198857143Y-131517319D02*
X199095238Y-131517319D01*
X199095238Y-131517319D02*
X199190476Y-131564938D01*
X199190476Y-131564938D02*
X199238095Y-131612557D01*
X199238095Y-131612557D02*
X199285714Y-131707795D01*
X199285714Y-131707795D02*
X199285714Y-131803033D01*
X199285714Y-131803033D02*
X199238095Y-131945890D01*
X199238095Y-131945890D02*
X198666667Y-132517319D01*
X198666667Y-132517319D02*
X199285714Y-132517319D01*
X186761905Y-148454819D02*
X186761905Y-147454819D01*
X186761905Y-147454819D02*
X187000000Y-147454819D01*
X187000000Y-147454819D02*
X187142857Y-147502438D01*
X187142857Y-147502438D02*
X187238095Y-147597676D01*
X187238095Y-147597676D02*
X187285714Y-147692914D01*
X187285714Y-147692914D02*
X187333333Y-147883390D01*
X187333333Y-147883390D02*
X187333333Y-148026247D01*
X187333333Y-148026247D02*
X187285714Y-148216723D01*
X187285714Y-148216723D02*
X187238095Y-148311961D01*
X187238095Y-148311961D02*
X187142857Y-148407200D01*
X187142857Y-148407200D02*
X187000000Y-148454819D01*
X187000000Y-148454819D02*
X186761905Y-148454819D01*
X187714286Y-147550057D02*
X187761905Y-147502438D01*
X187761905Y-147502438D02*
X187857143Y-147454819D01*
X187857143Y-147454819D02*
X188095238Y-147454819D01*
X188095238Y-147454819D02*
X188190476Y-147502438D01*
X188190476Y-147502438D02*
X188238095Y-147550057D01*
X188238095Y-147550057D02*
X188285714Y-147645295D01*
X188285714Y-147645295D02*
X188285714Y-147740533D01*
X188285714Y-147740533D02*
X188238095Y-147883390D01*
X188238095Y-147883390D02*
X187666667Y-148454819D01*
X187666667Y-148454819D02*
X188285714Y-148454819D01*
D12*
X176937571Y-122845911D02*
X176937571Y-122083911D01*
X176937571Y-122083911D02*
X177119000Y-122083911D01*
X177119000Y-122083911D02*
X177227857Y-122120197D01*
X177227857Y-122120197D02*
X177300428Y-122192768D01*
X177300428Y-122192768D02*
X177336714Y-122265340D01*
X177336714Y-122265340D02*
X177373000Y-122410483D01*
X177373000Y-122410483D02*
X177373000Y-122519340D01*
X177373000Y-122519340D02*
X177336714Y-122664483D01*
X177336714Y-122664483D02*
X177300428Y-122737054D01*
X177300428Y-122737054D02*
X177227857Y-122809626D01*
X177227857Y-122809626D02*
X177119000Y-122845911D01*
X177119000Y-122845911D02*
X176937571Y-122845911D01*
X178062428Y-122083911D02*
X177699571Y-122083911D01*
X177699571Y-122083911D02*
X177663285Y-122446768D01*
X177663285Y-122446768D02*
X177699571Y-122410483D01*
X177699571Y-122410483D02*
X177772143Y-122374197D01*
X177772143Y-122374197D02*
X177953571Y-122374197D01*
X177953571Y-122374197D02*
X178026143Y-122410483D01*
X178026143Y-122410483D02*
X178062428Y-122446768D01*
X178062428Y-122446768D02*
X178098714Y-122519340D01*
X178098714Y-122519340D02*
X178098714Y-122700768D01*
X178098714Y-122700768D02*
X178062428Y-122773340D01*
X178062428Y-122773340D02*
X178026143Y-122809626D01*
X178026143Y-122809626D02*
X177953571Y-122845911D01*
X177953571Y-122845911D02*
X177772143Y-122845911D01*
X177772143Y-122845911D02*
X177699571Y-122809626D01*
X177699571Y-122809626D02*
X177663285Y-122773340D01*
D11*
X166674819Y-101166666D02*
X166198628Y-101499999D01*
X166674819Y-101738094D02*
X165674819Y-101738094D01*
X165674819Y-101738094D02*
X165674819Y-101357142D01*
X165674819Y-101357142D02*
X165722438Y-101261904D01*
X165722438Y-101261904D02*
X165770057Y-101214285D01*
X165770057Y-101214285D02*
X165865295Y-101166666D01*
X165865295Y-101166666D02*
X166008152Y-101166666D01*
X166008152Y-101166666D02*
X166103390Y-101214285D01*
X166103390Y-101214285D02*
X166151009Y-101261904D01*
X166151009Y-101261904D02*
X166198628Y-101357142D01*
X166198628Y-101357142D02*
X166198628Y-101738094D01*
X165674819Y-100833332D02*
X165674819Y-100166666D01*
X165674819Y-100166666D02*
X166674819Y-100595237D01*
D12*
X198837571Y-124545911D02*
X198837571Y-123783911D01*
X198837571Y-123783911D02*
X199019000Y-123783911D01*
X199019000Y-123783911D02*
X199127857Y-123820197D01*
X199127857Y-123820197D02*
X199200428Y-123892768D01*
X199200428Y-123892768D02*
X199236714Y-123965340D01*
X199236714Y-123965340D02*
X199273000Y-124110483D01*
X199273000Y-124110483D02*
X199273000Y-124219340D01*
X199273000Y-124219340D02*
X199236714Y-124364483D01*
X199236714Y-124364483D02*
X199200428Y-124437054D01*
X199200428Y-124437054D02*
X199127857Y-124509626D01*
X199127857Y-124509626D02*
X199019000Y-124545911D01*
X199019000Y-124545911D02*
X198837571Y-124545911D01*
X199635857Y-124545911D02*
X199781000Y-124545911D01*
X199781000Y-124545911D02*
X199853571Y-124509626D01*
X199853571Y-124509626D02*
X199889857Y-124473340D01*
X199889857Y-124473340D02*
X199962428Y-124364483D01*
X199962428Y-124364483D02*
X199998714Y-124219340D01*
X199998714Y-124219340D02*
X199998714Y-123929054D01*
X199998714Y-123929054D02*
X199962428Y-123856483D01*
X199962428Y-123856483D02*
X199926143Y-123820197D01*
X199926143Y-123820197D02*
X199853571Y-123783911D01*
X199853571Y-123783911D02*
X199708428Y-123783911D01*
X199708428Y-123783911D02*
X199635857Y-123820197D01*
X199635857Y-123820197D02*
X199599571Y-123856483D01*
X199599571Y-123856483D02*
X199563285Y-123929054D01*
X199563285Y-123929054D02*
X199563285Y-124110483D01*
X199563285Y-124110483D02*
X199599571Y-124183054D01*
X199599571Y-124183054D02*
X199635857Y-124219340D01*
X199635857Y-124219340D02*
X199708428Y-124255626D01*
X199708428Y-124255626D02*
X199853571Y-124255626D01*
X199853571Y-124255626D02*
X199926143Y-124219340D01*
X199926143Y-124219340D02*
X199962428Y-124183054D01*
X199962428Y-124183054D02*
X199998714Y-124110483D01*
D11*
X201234819Y-106166666D02*
X200758628Y-106499999D01*
X201234819Y-106738094D02*
X200234819Y-106738094D01*
X200234819Y-106738094D02*
X200234819Y-106357142D01*
X200234819Y-106357142D02*
X200282438Y-106261904D01*
X200282438Y-106261904D02*
X200330057Y-106214285D01*
X200330057Y-106214285D02*
X200425295Y-106166666D01*
X200425295Y-106166666D02*
X200568152Y-106166666D01*
X200568152Y-106166666D02*
X200663390Y-106214285D01*
X200663390Y-106214285D02*
X200711009Y-106261904D01*
X200711009Y-106261904D02*
X200758628Y-106357142D01*
X200758628Y-106357142D02*
X200758628Y-106738094D01*
X200234819Y-105309523D02*
X200234819Y-105499999D01*
X200234819Y-105499999D02*
X200282438Y-105595237D01*
X200282438Y-105595237D02*
X200330057Y-105642856D01*
X200330057Y-105642856D02*
X200472914Y-105738094D01*
X200472914Y-105738094D02*
X200663390Y-105785713D01*
X200663390Y-105785713D02*
X201044342Y-105785713D01*
X201044342Y-105785713D02*
X201139580Y-105738094D01*
X201139580Y-105738094D02*
X201187200Y-105690475D01*
X201187200Y-105690475D02*
X201234819Y-105595237D01*
X201234819Y-105595237D02*
X201234819Y-105404761D01*
X201234819Y-105404761D02*
X201187200Y-105309523D01*
X201187200Y-105309523D02*
X201139580Y-105261904D01*
X201139580Y-105261904D02*
X201044342Y-105214285D01*
X201044342Y-105214285D02*
X200806247Y-105214285D01*
X200806247Y-105214285D02*
X200711009Y-105261904D01*
X200711009Y-105261904D02*
X200663390Y-105309523D01*
X200663390Y-105309523D02*
X200615771Y-105404761D01*
X200615771Y-105404761D02*
X200615771Y-105595237D01*
X200615771Y-105595237D02*
X200663390Y-105690475D01*
X200663390Y-105690475D02*
X200711009Y-105738094D01*
X200711009Y-105738094D02*
X200806247Y-105785713D01*
X184738095Y-129754819D02*
X184738095Y-130564342D01*
X184738095Y-130564342D02*
X184785714Y-130659580D01*
X184785714Y-130659580D02*
X184833333Y-130707200D01*
X184833333Y-130707200D02*
X184928571Y-130754819D01*
X184928571Y-130754819D02*
X185119047Y-130754819D01*
X185119047Y-130754819D02*
X185214285Y-130707200D01*
X185214285Y-130707200D02*
X185261904Y-130659580D01*
X185261904Y-130659580D02*
X185309523Y-130564342D01*
X185309523Y-130564342D02*
X185309523Y-129754819D01*
X185690476Y-129754819D02*
X186309523Y-129754819D01*
X186309523Y-129754819D02*
X185976190Y-130135771D01*
X185976190Y-130135771D02*
X186119047Y-130135771D01*
X186119047Y-130135771D02*
X186214285Y-130183390D01*
X186214285Y-130183390D02*
X186261904Y-130231009D01*
X186261904Y-130231009D02*
X186309523Y-130326247D01*
X186309523Y-130326247D02*
X186309523Y-130564342D01*
X186309523Y-130564342D02*
X186261904Y-130659580D01*
X186261904Y-130659580D02*
X186214285Y-130707200D01*
X186214285Y-130707200D02*
X186119047Y-130754819D01*
X186119047Y-130754819D02*
X185833333Y-130754819D01*
X185833333Y-130754819D02*
X185738095Y-130707200D01*
X185738095Y-130707200D02*
X185690476Y-130659580D01*
X195833333Y-126254819D02*
X195500000Y-125778628D01*
X195261905Y-126254819D02*
X195261905Y-125254819D01*
X195261905Y-125254819D02*
X195642857Y-125254819D01*
X195642857Y-125254819D02*
X195738095Y-125302438D01*
X195738095Y-125302438D02*
X195785714Y-125350057D01*
X195785714Y-125350057D02*
X195833333Y-125445295D01*
X195833333Y-125445295D02*
X195833333Y-125588152D01*
X195833333Y-125588152D02*
X195785714Y-125683390D01*
X195785714Y-125683390D02*
X195738095Y-125731009D01*
X195738095Y-125731009D02*
X195642857Y-125778628D01*
X195642857Y-125778628D02*
X195261905Y-125778628D01*
X196309524Y-126254819D02*
X196500000Y-126254819D01*
X196500000Y-126254819D02*
X196595238Y-126207200D01*
X196595238Y-126207200D02*
X196642857Y-126159580D01*
X196642857Y-126159580D02*
X196738095Y-126016723D01*
X196738095Y-126016723D02*
X196785714Y-125826247D01*
X196785714Y-125826247D02*
X196785714Y-125445295D01*
X196785714Y-125445295D02*
X196738095Y-125350057D01*
X196738095Y-125350057D02*
X196690476Y-125302438D01*
X196690476Y-125302438D02*
X196595238Y-125254819D01*
X196595238Y-125254819D02*
X196404762Y-125254819D01*
X196404762Y-125254819D02*
X196309524Y-125302438D01*
X196309524Y-125302438D02*
X196261905Y-125350057D01*
X196261905Y-125350057D02*
X196214286Y-125445295D01*
X196214286Y-125445295D02*
X196214286Y-125683390D01*
X196214286Y-125683390D02*
X196261905Y-125778628D01*
X196261905Y-125778628D02*
X196309524Y-125826247D01*
X196309524Y-125826247D02*
X196404762Y-125873866D01*
X196404762Y-125873866D02*
X196595238Y-125873866D01*
X196595238Y-125873866D02*
X196690476Y-125826247D01*
X196690476Y-125826247D02*
X196738095Y-125778628D01*
X196738095Y-125778628D02*
X196785714Y-125683390D01*
X204333333Y-150359580D02*
X204285714Y-150407200D01*
X204285714Y-150407200D02*
X204142857Y-150454819D01*
X204142857Y-150454819D02*
X204047619Y-150454819D01*
X204047619Y-150454819D02*
X203904762Y-150407200D01*
X203904762Y-150407200D02*
X203809524Y-150311961D01*
X203809524Y-150311961D02*
X203761905Y-150216723D01*
X203761905Y-150216723D02*
X203714286Y-150026247D01*
X203714286Y-150026247D02*
X203714286Y-149883390D01*
X203714286Y-149883390D02*
X203761905Y-149692914D01*
X203761905Y-149692914D02*
X203809524Y-149597676D01*
X203809524Y-149597676D02*
X203904762Y-149502438D01*
X203904762Y-149502438D02*
X204047619Y-149454819D01*
X204047619Y-149454819D02*
X204142857Y-149454819D01*
X204142857Y-149454819D02*
X204285714Y-149502438D01*
X204285714Y-149502438D02*
X204333333Y-149550057D01*
X205285714Y-150454819D02*
X204714286Y-150454819D01*
X205000000Y-150454819D02*
X205000000Y-149454819D01*
X205000000Y-149454819D02*
X204904762Y-149597676D01*
X204904762Y-149597676D02*
X204809524Y-149692914D01*
X204809524Y-149692914D02*
X204714286Y-149740533D01*
X207166666Y-109954819D02*
X207166666Y-110669104D01*
X207166666Y-110669104D02*
X207119047Y-110811961D01*
X207119047Y-110811961D02*
X207023809Y-110907200D01*
X207023809Y-110907200D02*
X206880952Y-110954819D01*
X206880952Y-110954819D02*
X206785714Y-110954819D01*
X207547619Y-109954819D02*
X208214285Y-109954819D01*
X208214285Y-109954819D02*
X207785714Y-110954819D01*
D12*
X182674181Y-122845911D02*
X182420181Y-122483054D01*
X182238752Y-122845911D02*
X182238752Y-122083911D01*
X182238752Y-122083911D02*
X182529038Y-122083911D01*
X182529038Y-122083911D02*
X182601609Y-122120197D01*
X182601609Y-122120197D02*
X182637895Y-122156483D01*
X182637895Y-122156483D02*
X182674181Y-122229054D01*
X182674181Y-122229054D02*
X182674181Y-122337911D01*
X182674181Y-122337911D02*
X182637895Y-122410483D01*
X182637895Y-122410483D02*
X182601609Y-122446768D01*
X182601609Y-122446768D02*
X182529038Y-122483054D01*
X182529038Y-122483054D02*
X182238752Y-122483054D01*
X183327324Y-122337911D02*
X183327324Y-122845911D01*
X183145895Y-122047626D02*
X182964466Y-122591911D01*
X182964466Y-122591911D02*
X183436181Y-122591911D01*
X203427428Y-116918483D02*
X203354857Y-116882197D01*
X203354857Y-116882197D02*
X203282285Y-116809626D01*
X203282285Y-116809626D02*
X203173428Y-116700768D01*
X203173428Y-116700768D02*
X203100857Y-116664483D01*
X203100857Y-116664483D02*
X203028285Y-116664483D01*
X203064571Y-116845911D02*
X202992000Y-116809626D01*
X202992000Y-116809626D02*
X202919428Y-116737054D01*
X202919428Y-116737054D02*
X202883142Y-116591911D01*
X202883142Y-116591911D02*
X202883142Y-116337911D01*
X202883142Y-116337911D02*
X202919428Y-116192768D01*
X202919428Y-116192768D02*
X202992000Y-116120197D01*
X202992000Y-116120197D02*
X203064571Y-116083911D01*
X203064571Y-116083911D02*
X203209714Y-116083911D01*
X203209714Y-116083911D02*
X203282285Y-116120197D01*
X203282285Y-116120197D02*
X203354857Y-116192768D01*
X203354857Y-116192768D02*
X203391142Y-116337911D01*
X203391142Y-116337911D02*
X203391142Y-116591911D01*
X203391142Y-116591911D02*
X203354857Y-116737054D01*
X203354857Y-116737054D02*
X203282285Y-116809626D01*
X203282285Y-116809626D02*
X203209714Y-116845911D01*
X203209714Y-116845911D02*
X203064571Y-116845911D01*
X204116857Y-116845911D02*
X203681428Y-116845911D01*
X203899143Y-116845911D02*
X203899143Y-116083911D01*
X203899143Y-116083911D02*
X203826571Y-116192768D01*
X203826571Y-116192768D02*
X203754000Y-116265340D01*
X203754000Y-116265340D02*
X203681428Y-116301626D01*
X193984000Y-115809626D02*
X194092858Y-115845911D01*
X194092858Y-115845911D02*
X194274286Y-115845911D01*
X194274286Y-115845911D02*
X194346858Y-115809626D01*
X194346858Y-115809626D02*
X194383143Y-115773340D01*
X194383143Y-115773340D02*
X194419429Y-115700768D01*
X194419429Y-115700768D02*
X194419429Y-115628197D01*
X194419429Y-115628197D02*
X194383143Y-115555626D01*
X194383143Y-115555626D02*
X194346858Y-115519340D01*
X194346858Y-115519340D02*
X194274286Y-115483054D01*
X194274286Y-115483054D02*
X194129143Y-115446768D01*
X194129143Y-115446768D02*
X194056572Y-115410483D01*
X194056572Y-115410483D02*
X194020286Y-115374197D01*
X194020286Y-115374197D02*
X193984000Y-115301626D01*
X193984000Y-115301626D02*
X193984000Y-115229054D01*
X193984000Y-115229054D02*
X194020286Y-115156483D01*
X194020286Y-115156483D02*
X194056572Y-115120197D01*
X194056572Y-115120197D02*
X194129143Y-115083911D01*
X194129143Y-115083911D02*
X194310572Y-115083911D01*
X194310572Y-115083911D02*
X194419429Y-115120197D01*
X194673429Y-115083911D02*
X194854857Y-115845911D01*
X194854857Y-115845911D02*
X195000000Y-115301626D01*
X195000000Y-115301626D02*
X195145143Y-115845911D01*
X195145143Y-115845911D02*
X195326572Y-115083911D01*
X195580571Y-115156483D02*
X195616857Y-115120197D01*
X195616857Y-115120197D02*
X195689429Y-115083911D01*
X195689429Y-115083911D02*
X195870857Y-115083911D01*
X195870857Y-115083911D02*
X195943429Y-115120197D01*
X195943429Y-115120197D02*
X195979714Y-115156483D01*
X195979714Y-115156483D02*
X196016000Y-115229054D01*
X196016000Y-115229054D02*
X196016000Y-115301626D01*
X196016000Y-115301626D02*
X195979714Y-115410483D01*
X195979714Y-115410483D02*
X195544286Y-115845911D01*
X195544286Y-115845911D02*
X196016000Y-115845911D01*
D11*
X163359580Y-132166666D02*
X163407200Y-132214285D01*
X163407200Y-132214285D02*
X163454819Y-132357142D01*
X163454819Y-132357142D02*
X163454819Y-132452380D01*
X163454819Y-132452380D02*
X163407200Y-132595237D01*
X163407200Y-132595237D02*
X163311961Y-132690475D01*
X163311961Y-132690475D02*
X163216723Y-132738094D01*
X163216723Y-132738094D02*
X163026247Y-132785713D01*
X163026247Y-132785713D02*
X162883390Y-132785713D01*
X162883390Y-132785713D02*
X162692914Y-132738094D01*
X162692914Y-132738094D02*
X162597676Y-132690475D01*
X162597676Y-132690475D02*
X162502438Y-132595237D01*
X162502438Y-132595237D02*
X162454819Y-132452380D01*
X162454819Y-132452380D02*
X162454819Y-132357142D01*
X162454819Y-132357142D02*
X162502438Y-132214285D01*
X162502438Y-132214285D02*
X162550057Y-132166666D01*
X162454819Y-131833332D02*
X162454819Y-131214285D01*
X162454819Y-131214285D02*
X162835771Y-131547618D01*
X162835771Y-131547618D02*
X162835771Y-131404761D01*
X162835771Y-131404761D02*
X162883390Y-131309523D01*
X162883390Y-131309523D02*
X162931009Y-131261904D01*
X162931009Y-131261904D02*
X163026247Y-131214285D01*
X163026247Y-131214285D02*
X163264342Y-131214285D01*
X163264342Y-131214285D02*
X163359580Y-131261904D01*
X163359580Y-131261904D02*
X163407200Y-131309523D01*
X163407200Y-131309523D02*
X163454819Y-131404761D01*
X163454819Y-131404761D02*
X163454819Y-131690475D01*
X163454819Y-131690475D02*
X163407200Y-131785713D01*
X163407200Y-131785713D02*
X163359580Y-131833332D01*
D12*
X212583911Y-132961499D02*
X213128197Y-132961499D01*
X213128197Y-132961499D02*
X213237054Y-132997784D01*
X213237054Y-132997784D02*
X213309626Y-133070356D01*
X213309626Y-133070356D02*
X213345911Y-133179213D01*
X213345911Y-133179213D02*
X213345911Y-133251784D01*
X212656483Y-132634928D02*
X212620197Y-132598642D01*
X212620197Y-132598642D02*
X212583911Y-132526071D01*
X212583911Y-132526071D02*
X212583911Y-132344642D01*
X212583911Y-132344642D02*
X212620197Y-132272071D01*
X212620197Y-132272071D02*
X212656483Y-132235785D01*
X212656483Y-132235785D02*
X212729054Y-132199499D01*
X212729054Y-132199499D02*
X212801626Y-132199499D01*
X212801626Y-132199499D02*
X212910483Y-132235785D01*
X212910483Y-132235785D02*
X213345911Y-132671213D01*
X213345911Y-132671213D02*
X213345911Y-132199499D01*
D11*
X191734819Y-121166666D02*
X191258628Y-121499999D01*
X191734819Y-121738094D02*
X190734819Y-121738094D01*
X190734819Y-121738094D02*
X190734819Y-121357142D01*
X190734819Y-121357142D02*
X190782438Y-121261904D01*
X190782438Y-121261904D02*
X190830057Y-121214285D01*
X190830057Y-121214285D02*
X190925295Y-121166666D01*
X190925295Y-121166666D02*
X191068152Y-121166666D01*
X191068152Y-121166666D02*
X191163390Y-121214285D01*
X191163390Y-121214285D02*
X191211009Y-121261904D01*
X191211009Y-121261904D02*
X191258628Y-121357142D01*
X191258628Y-121357142D02*
X191258628Y-121738094D01*
X191163390Y-120595237D02*
X191115771Y-120690475D01*
X191115771Y-120690475D02*
X191068152Y-120738094D01*
X191068152Y-120738094D02*
X190972914Y-120785713D01*
X190972914Y-120785713D02*
X190925295Y-120785713D01*
X190925295Y-120785713D02*
X190830057Y-120738094D01*
X190830057Y-120738094D02*
X190782438Y-120690475D01*
X190782438Y-120690475D02*
X190734819Y-120595237D01*
X190734819Y-120595237D02*
X190734819Y-120404761D01*
X190734819Y-120404761D02*
X190782438Y-120309523D01*
X190782438Y-120309523D02*
X190830057Y-120261904D01*
X190830057Y-120261904D02*
X190925295Y-120214285D01*
X190925295Y-120214285D02*
X190972914Y-120214285D01*
X190972914Y-120214285D02*
X191068152Y-120261904D01*
X191068152Y-120261904D02*
X191115771Y-120309523D01*
X191115771Y-120309523D02*
X191163390Y-120404761D01*
X191163390Y-120404761D02*
X191163390Y-120595237D01*
X191163390Y-120595237D02*
X191211009Y-120690475D01*
X191211009Y-120690475D02*
X191258628Y-120738094D01*
X191258628Y-120738094D02*
X191353866Y-120785713D01*
X191353866Y-120785713D02*
X191544342Y-120785713D01*
X191544342Y-120785713D02*
X191639580Y-120738094D01*
X191639580Y-120738094D02*
X191687200Y-120690475D01*
X191687200Y-120690475D02*
X191734819Y-120595237D01*
X191734819Y-120595237D02*
X191734819Y-120404761D01*
X191734819Y-120404761D02*
X191687200Y-120309523D01*
X191687200Y-120309523D02*
X191639580Y-120261904D01*
X191639580Y-120261904D02*
X191544342Y-120214285D01*
X191544342Y-120214285D02*
X191353866Y-120214285D01*
X191353866Y-120214285D02*
X191258628Y-120261904D01*
X191258628Y-120261904D02*
X191211009Y-120309523D01*
X191211009Y-120309523D02*
X191163390Y-120404761D01*
X178833333Y-147854819D02*
X178357143Y-147854819D01*
X178357143Y-147854819D02*
X178357143Y-146854819D01*
X179690476Y-147854819D02*
X179119048Y-147854819D01*
X179404762Y-147854819D02*
X179404762Y-146854819D01*
X179404762Y-146854819D02*
X179309524Y-146997676D01*
X179309524Y-146997676D02*
X179214286Y-147092914D01*
X179214286Y-147092914D02*
X179119048Y-147140533D01*
D12*
X203427428Y-104918483D02*
X203354857Y-104882197D01*
X203354857Y-104882197D02*
X203282285Y-104809626D01*
X203282285Y-104809626D02*
X203173428Y-104700768D01*
X203173428Y-104700768D02*
X203100857Y-104664483D01*
X203100857Y-104664483D02*
X203028285Y-104664483D01*
X203064571Y-104845911D02*
X202992000Y-104809626D01*
X202992000Y-104809626D02*
X202919428Y-104737054D01*
X202919428Y-104737054D02*
X202883142Y-104591911D01*
X202883142Y-104591911D02*
X202883142Y-104337911D01*
X202883142Y-104337911D02*
X202919428Y-104192768D01*
X202919428Y-104192768D02*
X202992000Y-104120197D01*
X202992000Y-104120197D02*
X203064571Y-104083911D01*
X203064571Y-104083911D02*
X203209714Y-104083911D01*
X203209714Y-104083911D02*
X203282285Y-104120197D01*
X203282285Y-104120197D02*
X203354857Y-104192768D01*
X203354857Y-104192768D02*
X203391142Y-104337911D01*
X203391142Y-104337911D02*
X203391142Y-104591911D01*
X203391142Y-104591911D02*
X203354857Y-104737054D01*
X203354857Y-104737054D02*
X203282285Y-104809626D01*
X203282285Y-104809626D02*
X203209714Y-104845911D01*
X203209714Y-104845911D02*
X203064571Y-104845911D01*
X203681428Y-104156483D02*
X203717714Y-104120197D01*
X203717714Y-104120197D02*
X203790286Y-104083911D01*
X203790286Y-104083911D02*
X203971714Y-104083911D01*
X203971714Y-104083911D02*
X204044286Y-104120197D01*
X204044286Y-104120197D02*
X204080571Y-104156483D01*
X204080571Y-104156483D02*
X204116857Y-104229054D01*
X204116857Y-104229054D02*
X204116857Y-104301626D01*
X204116857Y-104301626D02*
X204080571Y-104410483D01*
X204080571Y-104410483D02*
X203645143Y-104845911D01*
X203645143Y-104845911D02*
X204116857Y-104845911D01*
X165484000Y-108309626D02*
X165592858Y-108345911D01*
X165592858Y-108345911D02*
X165774286Y-108345911D01*
X165774286Y-108345911D02*
X165846858Y-108309626D01*
X165846858Y-108309626D02*
X165883143Y-108273340D01*
X165883143Y-108273340D02*
X165919429Y-108200768D01*
X165919429Y-108200768D02*
X165919429Y-108128197D01*
X165919429Y-108128197D02*
X165883143Y-108055626D01*
X165883143Y-108055626D02*
X165846858Y-108019340D01*
X165846858Y-108019340D02*
X165774286Y-107983054D01*
X165774286Y-107983054D02*
X165629143Y-107946768D01*
X165629143Y-107946768D02*
X165556572Y-107910483D01*
X165556572Y-107910483D02*
X165520286Y-107874197D01*
X165520286Y-107874197D02*
X165484000Y-107801626D01*
X165484000Y-107801626D02*
X165484000Y-107729054D01*
X165484000Y-107729054D02*
X165520286Y-107656483D01*
X165520286Y-107656483D02*
X165556572Y-107620197D01*
X165556572Y-107620197D02*
X165629143Y-107583911D01*
X165629143Y-107583911D02*
X165810572Y-107583911D01*
X165810572Y-107583911D02*
X165919429Y-107620197D01*
X166173429Y-107583911D02*
X166354857Y-108345911D01*
X166354857Y-108345911D02*
X166500000Y-107801626D01*
X166500000Y-107801626D02*
X166645143Y-108345911D01*
X166645143Y-108345911D02*
X166826572Y-107583911D01*
X167516000Y-108345911D02*
X167080571Y-108345911D01*
X167298286Y-108345911D02*
X167298286Y-107583911D01*
X167298286Y-107583911D02*
X167225714Y-107692768D01*
X167225714Y-107692768D02*
X167153143Y-107765340D01*
X167153143Y-107765340D02*
X167080571Y-107801626D01*
X171324428Y-118378911D02*
X171324428Y-118995768D01*
X171324428Y-118995768D02*
X171360714Y-119068340D01*
X171360714Y-119068340D02*
X171397000Y-119104626D01*
X171397000Y-119104626D02*
X171469571Y-119140911D01*
X171469571Y-119140911D02*
X171614714Y-119140911D01*
X171614714Y-119140911D02*
X171687285Y-119104626D01*
X171687285Y-119104626D02*
X171723571Y-119068340D01*
X171723571Y-119068340D02*
X171759857Y-118995768D01*
X171759857Y-118995768D02*
X171759857Y-118378911D01*
X172521857Y-119140911D02*
X172086428Y-119140911D01*
X172304143Y-119140911D02*
X172304143Y-118378911D01*
X172304143Y-118378911D02*
X172231571Y-118487768D01*
X172231571Y-118487768D02*
X172159000Y-118560340D01*
X172159000Y-118560340D02*
X172086428Y-118596626D01*
D11*
X196674819Y-112666666D02*
X196198628Y-112999999D01*
X196674819Y-113238094D02*
X195674819Y-113238094D01*
X195674819Y-113238094D02*
X195674819Y-112857142D01*
X195674819Y-112857142D02*
X195722438Y-112761904D01*
X195722438Y-112761904D02*
X195770057Y-112714285D01*
X195770057Y-112714285D02*
X195865295Y-112666666D01*
X195865295Y-112666666D02*
X196008152Y-112666666D01*
X196008152Y-112666666D02*
X196103390Y-112714285D01*
X196103390Y-112714285D02*
X196151009Y-112761904D01*
X196151009Y-112761904D02*
X196198628Y-112857142D01*
X196198628Y-112857142D02*
X196198628Y-113238094D01*
X195674819Y-112333332D02*
X195674819Y-111714285D01*
X195674819Y-111714285D02*
X196055771Y-112047618D01*
X196055771Y-112047618D02*
X196055771Y-111904761D01*
X196055771Y-111904761D02*
X196103390Y-111809523D01*
X196103390Y-111809523D02*
X196151009Y-111761904D01*
X196151009Y-111761904D02*
X196246247Y-111714285D01*
X196246247Y-111714285D02*
X196484342Y-111714285D01*
X196484342Y-111714285D02*
X196579580Y-111761904D01*
X196579580Y-111761904D02*
X196627200Y-111809523D01*
X196627200Y-111809523D02*
X196674819Y-111904761D01*
X196674819Y-111904761D02*
X196674819Y-112190475D01*
X196674819Y-112190475D02*
X196627200Y-112285713D01*
X196627200Y-112285713D02*
X196579580Y-112333332D01*
%TO.C,J8*%
D13*
X213750000Y-116590000D02*
X214350000Y-116590000D01*
X214050000Y-117190000D02*
X213750000Y-116590000D01*
X214350000Y-116590000D02*
X214050000Y-117190000D01*
X209140000Y-117390000D02*
X217860000Y-117390000D01*
X217860000Y-127610000D01*
X209140000Y-127610000D01*
X209140000Y-117390000D01*
%TO.C,J6*%
X194841181Y-92715000D02*
X194841181Y-95475000D01*
X200031181Y-92715000D02*
X194841181Y-92715000D01*
X200031181Y-92715000D02*
X200031181Y-95475000D01*
X200031181Y-95475000D02*
X194841181Y-95475000D01*
X201301181Y-92715000D02*
X202681181Y-92715000D01*
X202681181Y-92715000D02*
X202681181Y-94095000D01*
%TO.C,R10*%
X189272936Y-126590000D02*
X190727064Y-126590000D01*
X189272936Y-128410000D02*
X190727064Y-128410000D01*
%TO.C,R5*%
X194090000Y-105772936D02*
X194090000Y-107227064D01*
X195910000Y-105772936D02*
X195910000Y-107227064D01*
%TO.C,R2*%
X193590000Y-112727064D02*
X193590000Y-111272936D01*
X195410000Y-112727064D02*
X195410000Y-111272936D01*
%TO.C,R1*%
X194727064Y-121590000D02*
X193272936Y-121590000D01*
X194727064Y-123410000D02*
X193272936Y-123410000D01*
%TO.C,C4*%
X169711252Y-135090000D02*
X168288748Y-135090000D01*
X169711252Y-136910000D02*
X168288748Y-136910000D01*
%TO.C,C2*%
X197590000Y-136211252D02*
X197590000Y-134788748D01*
X199410000Y-136211252D02*
X199410000Y-134788748D01*
%TO.C,D2*%
X188850000Y-139990000D02*
X188850000Y-147000000D01*
X192150000Y-139990000D02*
X188850000Y-139990000D01*
X192150000Y-139990000D02*
X192150000Y-147000000D01*
%TO.C,D5*%
X174841181Y-119460000D02*
X174841181Y-121730000D01*
X174841181Y-121730000D02*
X178901181Y-121730000D01*
X178901181Y-119460000D02*
X174841181Y-119460000D01*
%TO.C,R7*%
X167145000Y-101723737D02*
X167145000Y-100276263D01*
X169855000Y-101723737D02*
X169855000Y-100276263D01*
%TO.C,D9*%
X197900000Y-123635000D02*
X201960000Y-123635000D01*
X201960000Y-121365000D02*
X197900000Y-121365000D01*
X201960000Y-123635000D02*
X201960000Y-121365000D01*
%TO.C,R6*%
X197145000Y-105276263D02*
X197145000Y-106723737D01*
X199855000Y-105276263D02*
X199855000Y-106723737D01*
%TO.C,U3*%
X186840000Y-128990000D02*
X191460000Y-128990000D01*
X186840000Y-132250000D02*
X188220000Y-132250000D01*
X186840000Y-135950000D02*
X188220000Y-135950000D01*
X186840000Y-139210000D02*
X186840000Y-128990000D01*
X188220000Y-139210000D02*
X188220000Y-128990000D01*
X191460000Y-128990000D02*
X191460000Y-131240000D01*
X191460000Y-130215000D02*
X194096000Y-130215000D01*
X191460000Y-131185000D02*
X194096000Y-131185000D01*
X191460000Y-133560000D02*
X191460000Y-134640000D01*
X191460000Y-133615000D02*
X194096000Y-133615000D01*
X191460000Y-134585000D02*
X194096000Y-134585000D01*
X191460000Y-136960000D02*
X191460000Y-139210000D01*
X191460000Y-137015000D02*
X193990000Y-137015000D01*
X191460000Y-137985000D02*
X193990000Y-137985000D01*
X191460000Y-139210000D02*
X186840000Y-139210000D01*
%TO.C,R9*%
X195272936Y-126590000D02*
X196727064Y-126590000D01*
X195272936Y-128410000D02*
X196727064Y-128410000D01*
%TO.C,C1*%
X196240000Y-141304437D02*
X196240000Y-148760000D01*
X196240000Y-148760000D02*
X199190000Y-148760000D01*
X197304437Y-140240000D02*
X196240000Y-141304437D01*
X197304437Y-140240000D02*
X199190000Y-140240000D01*
X203695563Y-140240000D02*
X201810000Y-140240000D01*
X203695563Y-140240000D02*
X204760000Y-141304437D01*
X204760000Y-141304437D02*
X204760000Y-148760000D01*
X204760000Y-148760000D02*
X201810000Y-148760000D01*
%TO.C,J7*%
X213750000Y-101590000D02*
X214350000Y-101590000D01*
X214050000Y-102190000D02*
X213750000Y-101590000D01*
X214350000Y-101590000D02*
X214050000Y-102190000D01*
X209140000Y-102390000D02*
X217860000Y-102390000D01*
X217860000Y-112610000D01*
X209140000Y-112610000D01*
X209140000Y-102390000D01*
%TO.C,R4*%
X182074117Y-119685000D02*
X183528245Y-119685000D01*
X182074117Y-121505000D02*
X183528245Y-121505000D01*
%TO.C,Q1*%
D12*
X203246000Y-115460500D02*
X204300000Y-115460500D01*
X204300000Y-112539500D02*
X203246000Y-112539500D01*
X204300000Y-113301500D02*
X204300000Y-112539500D01*
X204300000Y-115460500D02*
X204300000Y-114698500D01*
%TO.C,SW2*%
X193000000Y-116550000D02*
X193000000Y-116780000D01*
X193000000Y-116550000D02*
X197000000Y-116550000D01*
X193000000Y-119450000D02*
X193000000Y-119220000D01*
X197000000Y-116550000D02*
X197000000Y-116780000D01*
X197000000Y-119220000D02*
X197000000Y-119450000D01*
X197000000Y-119450000D02*
X193000000Y-119450000D01*
%TO.C,C3*%
D13*
X164240000Y-124240000D02*
X164240000Y-127190000D01*
X164240000Y-132760000D02*
X164240000Y-129810000D01*
X171695563Y-124240000D02*
X164240000Y-124240000D01*
X171695563Y-132760000D02*
X164240000Y-132760000D01*
X172760000Y-125304437D02*
X171695563Y-124240000D01*
X172760000Y-125304437D02*
X172760000Y-127190000D01*
X172760000Y-131695563D02*
X171695563Y-132760000D01*
X172760000Y-131695563D02*
X172760000Y-129810000D01*
%TO.C,J2*%
X205400000Y-142207500D02*
X205400000Y-143257500D01*
X205600000Y-133857500D02*
X207500000Y-133857500D01*
X205600000Y-136557500D02*
X205600000Y-133857500D01*
X205600000Y-143057500D02*
X205600000Y-140457500D01*
X206450000Y-143257500D02*
X205400000Y-143257500D01*
X211500000Y-133857500D02*
X220300000Y-133857500D01*
X220300000Y-133857500D02*
X220300000Y-143057500D01*
X220300000Y-143057500D02*
X205600000Y-143057500D01*
%TO.C,R8*%
X187645000Y-120276263D02*
X187645000Y-121723737D01*
X190355000Y-120276263D02*
X190355000Y-121723737D01*
%TO.C,L1*%
X172500000Y-136250000D02*
X172500000Y-133900000D01*
X172500000Y-146100000D02*
X172500000Y-143750000D01*
X172900000Y-133500000D02*
X185100000Y-133500000D01*
X185100000Y-146500000D02*
X172900000Y-146500000D01*
X185500000Y-136250000D02*
X185500000Y-133900000D01*
X185500000Y-143750000D02*
X186250000Y-143750000D01*
X185500000Y-146100000D02*
X185500000Y-143750000D01*
X172500000Y-133900000D02*
G75*
G02*
X172900000Y-133500000I400000J0D01*
G01*
X172900000Y-146500000D02*
G75*
G02*
X172500000Y-146100000I0J400000D01*
G01*
X185100000Y-133500000D02*
G75*
G02*
X185500000Y-133900000I1J-399999D01*
G01*
X185500000Y-146100000D02*
G75*
G02*
X185100000Y-146500000I-399999J-1D01*
G01*
%TO.C,Q2*%
D12*
X203246000Y-108460500D02*
X204300000Y-108460500D01*
X204300000Y-105539500D02*
X203246000Y-105539500D01*
X204300000Y-106301500D02*
X204300000Y-105539500D01*
X204300000Y-108460500D02*
X204300000Y-107698500D01*
%TO.C,SW1*%
X164500000Y-104050000D02*
X168500000Y-104050000D01*
X164500000Y-104280000D02*
X164500000Y-104050000D01*
X164500000Y-106950000D02*
X164500000Y-106720000D01*
X168500000Y-104050000D02*
X168500000Y-104280000D01*
X168500000Y-106950000D02*
X164500000Y-106950000D01*
X168500000Y-106950000D02*
X168500000Y-106720000D01*
%TO.C,U1*%
D13*
X171535000Y-91485000D02*
X171535000Y-97645000D01*
X171535000Y-91485000D02*
X189775000Y-91485000D01*
X171535000Y-116445000D02*
X171535000Y-117225000D01*
X171535000Y-117225000D02*
X172535000Y-117225000D01*
X189775000Y-91485000D02*
X189775000Y-97900000D01*
X189775000Y-116445000D02*
X189775000Y-117225000D01*
X189775000Y-117225000D02*
X188775000Y-117225000D01*
X171530000Y-98370000D02*
X171030000Y-98370000D01*
X171530000Y-97870000D01*
X171530000Y-98370000D01*
G36*
X171530000Y-98370000D02*
G01*
X171030000Y-98370000D01*
X171530000Y-97870000D01*
X171530000Y-98370000D01*
G37*
%TO.C,R3*%
X197145000Y-113223737D02*
X197145000Y-111776263D01*
X199855000Y-113223737D02*
X199855000Y-111776263D01*
%TD*%
M02*
