%TF.GenerationSoftware,KiCad,Pcbnew,10.0.0*%
%TF.CreationDate,2026-04-14T00:47:30+02:00*%
%TF.ProjectId,Neon_2x1M_12V_V2_0,4e656f6e-5f32-4783-914d-5f3132565f56,REV 2.0*%
%TF.SameCoordinates,Original*%
%TF.FileFunction,Copper,L2,Bot*%
%TF.FilePolarity,Positive*%
%FSLAX46Y46*%
G04 Gerber Fmt 4.6, Leading zero omitted, Abs format (unit mm)*
G04 Created by KiCad (PCBNEW 10.0.0) date 2026-04-14 00:47:30*
%MOMM*%
%LPD*%
G01*
G04 APERTURE LIST*
G04 Aperture macros list*
%AMRoundRect*
0 Rectangle with rounded corners*
0 $1 Rounding radius*
0 $2 $3 $4 $5 $6 $7 $8 $9 X,Y pos of 4 corners*
0 Add a 4 corners polygon primitive as box body*
4,1,4,$2,$3,$4,$5,$6,$7,$8,$9,$2,$3,0*
0 Add four circle primitives for the rounded corners*
1,1,$1+$1,$2,$3*
1,1,$1+$1,$4,$5*
1,1,$1+$1,$6,$7*
1,1,$1+$1,$8,$9*
0 Add four rect primitives between the rounded corners*
20,1,$1+$1,$2,$3,$4,$5,0*
20,1,$1+$1,$4,$5,$6,$7,0*
20,1,$1+$1,$6,$7,$8,$9,0*
20,1,$1+$1,$8,$9,$2,$3,0*%
G04 Aperture macros list end*
%TA.AperFunction,ComponentPad*%
%ADD10RoundRect,0.250001X-1.099999X1.099999X-1.099999X-1.099999X1.099999X-1.099999X1.099999X1.099999X0*%
%TD*%
%TA.AperFunction,ComponentPad*%
%ADD11C,2.700000*%
%TD*%
%TA.AperFunction,ComponentPad*%
%ADD12R,1.700000X1.700000*%
%TD*%
%TA.AperFunction,ComponentPad*%
%ADD13C,1.700000*%
%TD*%
%TA.AperFunction,ComponentPad*%
%ADD14C,0.800000*%
%TD*%
%TA.AperFunction,ComponentPad*%
%ADD15C,6.400000*%
%TD*%
%TA.AperFunction,ComponentPad*%
%ADD16R,1.800000X1.800000*%
%TD*%
%TA.AperFunction,ComponentPad*%
%ADD17C,1.800000*%
%TD*%
%TA.AperFunction,ComponentPad*%
%ADD18R,3.500000X3.500000*%
%TD*%
%TA.AperFunction,ComponentPad*%
%ADD19RoundRect,0.750000X0.750000X1.000000X-0.750000X1.000000X-0.750000X-1.000000X0.750000X-1.000000X0*%
%TD*%
%TA.AperFunction,ComponentPad*%
%ADD20RoundRect,0.875000X0.875000X0.875000X-0.875000X0.875000X-0.875000X-0.875000X0.875000X-0.875000X0*%
%TD*%
%TA.AperFunction,HeatsinkPad*%
%ADD21C,0.600000*%
%TD*%
G04 APERTURE END LIST*
D10*
%TO.P,J8,1,Pin_1_1*%
%TO.N,B_Jack*%
X214050000Y-120000000D03*
D11*
%TO.P,J8,2,Pin_2_2*%
%TO.N,+12V*%
X214050000Y-125000000D03*
%TD*%
D12*
%TO.P,J6,1,Pin_1_1*%
%TO.N,ESP_U0RX*%
X201301181Y-94095000D03*
D13*
%TO.P,J6,2,Pin_2_2*%
%TO.N,ESP_U0TX*%
X198761181Y-94095000D03*
%TO.P,J6,3,Pin_3_3*%
%TO.N,GND*%
X196221181Y-94095000D03*
%TD*%
D14*
%TO.P,H4,1,1_1*%
%TO.N,GND*%
X212100000Y-95500000D03*
X212802944Y-93802944D03*
X212802944Y-97197056D03*
X214500000Y-93100000D03*
D15*
X214500000Y-95500000D03*
D14*
X214500000Y-97900000D03*
X216197056Y-93802944D03*
X216197056Y-97197056D03*
X216900000Y-95500000D03*
%TD*%
%TO.P,H2,1,1_1*%
%TO.N,GND*%
X162100000Y-95500000D03*
X162802944Y-93802944D03*
X162802944Y-97197056D03*
X164500000Y-93100000D03*
D15*
X164500000Y-95500000D03*
D14*
X164500000Y-97900000D03*
X166197056Y-93802944D03*
X166197056Y-97197056D03*
X166900000Y-95500000D03*
%TD*%
D16*
%TO.P,U3,1,VIN_1*%
%TO.N,+12V*%
X195150000Y-137500000D03*
D17*
%TO.P,U3,2,OUT_2*%
%TO.N,/BUCK_SW*%
X191450000Y-135800000D03*
%TO.P,U3,3,GND_3*%
%TO.N,GND*%
X195150000Y-134100000D03*
%TO.P,U3,4,FB_4*%
%TO.N,Net-(U3-FB)*%
X191450000Y-132400000D03*
%TO.P,U3,5,~{ON}/OFF_5*%
%TO.N,GND*%
X195150000Y-130700000D03*
%TD*%
D10*
%TO.P,J7,1,Pin_1_1*%
%TO.N,P_Jack*%
X214050000Y-105000000D03*
D11*
%TO.P,J7,2,Pin_2_2*%
%TO.N,+12V*%
X214050000Y-110000000D03*
%TD*%
D18*
%TO.P,J2,1*%
%TO.N,+12V*%
X206500000Y-138457500D03*
D19*
%TO.P,J2,2*%
%TO.N,GND*%
X212500000Y-138457500D03*
D20*
%TO.P,J2,3,MountPin_3*%
%TO.N,unconnected-(J2-MountPin-Pad3)*%
X209500000Y-133757500D03*
%TD*%
D14*
%TO.P,H3,1,1_1*%
%TO.N,GND*%
X212100000Y-148000000D03*
X212802944Y-146302944D03*
X212802944Y-149697056D03*
X214500000Y-145600000D03*
D15*
X214500000Y-148000000D03*
D14*
X214500000Y-150400000D03*
X216197056Y-146302944D03*
X216197056Y-149697056D03*
X216900000Y-148000000D03*
%TD*%
%TO.P,H1,1,1_1*%
%TO.N,GND*%
X162100000Y-148000000D03*
X162802944Y-146302944D03*
X162802944Y-149697056D03*
X164500000Y-145600000D03*
D15*
X164500000Y-148000000D03*
D14*
X164500000Y-150400000D03*
X166197056Y-146302944D03*
X166197056Y-149697056D03*
X166900000Y-148000000D03*
%TD*%
D21*
%TO.P,U1,39,GND_39*%
%TO.N,GND*%
X178450000Y-105672500D03*
X178450000Y-107197500D03*
X179212500Y-104910000D03*
X179212500Y-106435000D03*
X179212500Y-107960000D03*
X179975000Y-105672500D03*
X179975000Y-107197500D03*
X180737500Y-104910000D03*
X180737500Y-106435000D03*
X180737500Y-107960000D03*
X181500000Y-105672500D03*
X181500000Y-107197500D03*
%TD*%
%TA.AperFunction,Conductor*%
%TO.N,GND*%
G36*
X168398039Y-92274185D02*
G01*
X168443794Y-92326989D01*
X168455000Y-92378500D01*
X168455000Y-97545000D01*
X191955000Y-97545000D01*
X191955000Y-93988753D01*
X194871181Y-93988753D01*
X194871181Y-94201246D01*
X194871673Y-94204352D01*
X194871673Y-94204354D01*
X194880723Y-94261491D01*
X194900732Y-94387826D01*
X194902896Y-94401485D01*
X194902897Y-94401493D01*
X194904423Y-94411130D01*
X194970088Y-94613222D01*
X195050387Y-94770817D01*
X195559716Y-94261489D01*
X195621036Y-94228006D01*
X195690728Y-94232990D01*
X195746661Y-94274862D01*
X195754781Y-94287171D01*
X195755256Y-94287993D01*
X195821082Y-94402007D01*
X195914174Y-94495099D01*
X195914175Y-94495100D01*
X195914177Y-94495101D01*
X196029006Y-94561398D01*
X196077222Y-94611965D01*
X196090444Y-94680573D01*
X196064476Y-94745437D01*
X196054687Y-94756466D01*
X195545360Y-95265790D01*
X195545361Y-95265790D01*
X195545361Y-95265791D01*
X195702964Y-95346094D01*
X195905052Y-95411757D01*
X196114935Y-95445000D01*
X196327426Y-95445000D01*
X196327427Y-95445000D01*
X196440231Y-95427132D01*
X196527668Y-95413284D01*
X196527674Y-95413283D01*
X196537308Y-95411757D01*
X196537311Y-95411757D01*
X196628576Y-95382103D01*
X196739384Y-95346099D01*
X196739387Y-95346097D01*
X196739399Y-95346094D01*
X196739406Y-95346091D01*
X196896999Y-95265791D01*
X196896998Y-95265790D01*
X196896999Y-95265790D01*
X196387674Y-94756466D01*
X196354189Y-94695143D01*
X196359173Y-94625452D01*
X196401044Y-94569518D01*
X196413355Y-94561398D01*
X196425173Y-94554574D01*
X196528188Y-94495099D01*
X196621280Y-94402007D01*
X196687106Y-94287993D01*
X196687105Y-94287993D01*
X196687579Y-94287174D01*
X196738146Y-94238958D01*
X196806753Y-94225735D01*
X196871618Y-94251703D01*
X196882647Y-94261493D01*
X197391971Y-94770818D01*
X197391971Y-94770817D01*
X197391972Y-94770818D01*
X197428436Y-94699253D01*
X197448767Y-94670413D01*
X197453945Y-94664930D01*
X197457658Y-94660998D01*
X197517996Y-94625773D01*
X197587802Y-94628761D01*
X197641522Y-94664930D01*
X197647593Y-94671936D01*
X197664366Y-94696845D01*
X197680555Y-94728618D01*
X197686529Y-94740341D01*
X197691657Y-94750405D01*
X197807353Y-94909646D01*
X197946535Y-95048828D01*
X198105776Y-95164524D01*
X198151906Y-95188028D01*
X198188636Y-95206743D01*
X198274702Y-95250596D01*
X198276305Y-95251534D01*
X198280004Y-95253326D01*
X198282012Y-95254324D01*
X198285778Y-95255386D01*
X198306995Y-95262279D01*
X198340141Y-95273049D01*
X198340142Y-95273050D01*
X198372195Y-95283464D01*
X198468354Y-95314709D01*
X198662759Y-95345500D01*
X198662764Y-95345500D01*
X198859602Y-95345500D01*
X198859603Y-95345500D01*
X199054007Y-95314709D01*
X199241206Y-95253884D01*
X199416586Y-95164524D01*
X199575827Y-95048828D01*
X199715009Y-94909646D01*
X199815887Y-94770799D01*
X199869994Y-94728618D01*
X199871216Y-94728127D01*
X199880139Y-94721243D01*
X199949750Y-94715245D01*
X200011554Y-94747835D01*
X200033113Y-94775778D01*
X200034638Y-94778479D01*
X200050681Y-94839479D01*
X200050681Y-94976520D01*
X200059019Y-95029167D01*
X200059020Y-95029169D01*
X200061473Y-95044657D01*
X200065535Y-95070304D01*
X200123131Y-95183342D01*
X200123133Y-95183344D01*
X200123135Y-95183347D01*
X200212833Y-95273045D01*
X200212835Y-95273046D01*
X200212839Y-95273050D01*
X200325875Y-95330645D01*
X200325879Y-95330647D01*
X200419401Y-95345458D01*
X200419638Y-95345497D01*
X200419647Y-95345497D01*
X200419656Y-95345499D01*
X200419662Y-95345500D01*
X202182699Y-95345499D01*
X202276485Y-95330646D01*
X202389523Y-95273050D01*
X202479231Y-95183342D01*
X202536827Y-95070304D01*
X202536827Y-95070302D01*
X202536828Y-95070301D01*
X202536829Y-95070294D01*
X202537966Y-95065560D01*
X202537966Y-95065558D01*
X202537970Y-95065539D01*
X202538354Y-95060668D01*
X202551292Y-94978979D01*
X202551618Y-94977154D01*
X202551680Y-94976523D01*
X202551681Y-94976519D01*
X202551680Y-93213482D01*
X202536827Y-93119696D01*
X202479231Y-93006658D01*
X202479227Y-93006654D01*
X202479226Y-93006652D01*
X202389528Y-92916954D01*
X202389525Y-92916952D01*
X202389523Y-92916950D01*
X202389522Y-92916949D01*
X202307760Y-92875289D01*
X202307759Y-92875289D01*
X202276483Y-92859352D01*
X202276476Y-92859350D01*
X202182711Y-92844500D01*
X202182705Y-92844500D01*
X200419663Y-92844500D01*
X200419658Y-92844500D01*
X200339335Y-92857222D01*
X200325883Y-92859352D01*
X200325878Y-92859353D01*
X200325877Y-92859354D01*
X200259506Y-92893172D01*
X200212831Y-92916954D01*
X200123136Y-93006649D01*
X200123131Y-93006658D01*
X200065534Y-93119695D01*
X200065531Y-93119703D01*
X200050681Y-93213469D01*
X200050681Y-93342903D01*
X200031711Y-93408817D01*
X200030995Y-93409957D01*
X200027819Y-93420781D01*
X199975021Y-93466543D01*
X199905864Y-93476496D01*
X199872002Y-93466559D01*
X199869177Y-93465269D01*
X199820356Y-93425351D01*
X199815873Y-93419180D01*
X199815873Y-93419181D01*
X199715009Y-93280354D01*
X199575827Y-93141172D01*
X199416586Y-93025476D01*
X199241210Y-92936117D01*
X199054007Y-92875290D01*
X199054001Y-92875289D01*
X198859608Y-92844500D01*
X198859603Y-92844500D01*
X198859598Y-92844500D01*
X198662764Y-92844500D01*
X198662759Y-92844500D01*
X198662754Y-92844500D01*
X198468359Y-92875289D01*
X198468357Y-92875289D01*
X198468354Y-92875290D01*
X198281151Y-92936117D01*
X198193463Y-92980796D01*
X198105774Y-93025476D01*
X198014922Y-93091485D01*
X197958404Y-93132548D01*
X197951025Y-93136680D01*
X197802861Y-93284844D01*
X197798728Y-93292225D01*
X197749505Y-93359974D01*
X197749504Y-93359973D01*
X197691659Y-93439591D01*
X197691648Y-93439609D01*
X197665593Y-93490744D01*
X197645263Y-93519585D01*
X197636372Y-93529000D01*
X197576032Y-93564225D01*
X197506226Y-93561237D01*
X197452506Y-93525067D01*
X197446436Y-93518062D01*
X197429663Y-93493153D01*
X197416112Y-93466558D01*
X197391972Y-93419180D01*
X197391971Y-93419180D01*
X196882646Y-93928505D01*
X196821323Y-93961990D01*
X196751631Y-93957006D01*
X196695698Y-93915134D01*
X196687578Y-93902824D01*
X196668083Y-93869058D01*
X196621280Y-93787993D01*
X196528188Y-93694901D01*
X196444343Y-93646493D01*
X196413354Y-93628601D01*
X196365138Y-93578034D01*
X196351916Y-93509427D01*
X196377884Y-93444562D01*
X196387661Y-93433546D01*
X196896999Y-92924207D01*
X196739403Y-92843907D01*
X196537309Y-92778242D01*
X196537307Y-92778241D01*
X196537305Y-92778241D01*
X196327432Y-92745000D01*
X196327427Y-92745000D01*
X196114935Y-92745000D01*
X196114930Y-92745000D01*
X195914694Y-92776715D01*
X195914686Y-92776715D01*
X195914687Y-92776716D01*
X195905046Y-92778242D01*
X195702966Y-92843903D01*
X195702963Y-92843904D01*
X195622716Y-92884792D01*
X195545361Y-92924207D01*
X196054688Y-93433533D01*
X196088173Y-93494856D01*
X196083189Y-93564547D01*
X196041318Y-93620481D01*
X196029008Y-93628601D01*
X195914174Y-93694901D01*
X195914171Y-93694903D01*
X195821084Y-93787990D01*
X195821082Y-93787993D01*
X195754782Y-93902827D01*
X195704214Y-93951042D01*
X195635607Y-93964264D01*
X195570743Y-93938296D01*
X195559714Y-93928507D01*
X195050388Y-93419180D01*
X195032419Y-93454446D01*
X194970085Y-93576782D01*
X194970084Y-93576784D01*
X194970084Y-93576785D01*
X194904423Y-93778865D01*
X194903684Y-93783531D01*
X194903682Y-93783544D01*
X194871181Y-93988753D01*
X191955000Y-93988753D01*
X191955000Y-92378500D01*
X191974685Y-92311461D01*
X192027489Y-92265706D01*
X192079000Y-92254500D01*
X214495952Y-92254500D01*
X214498612Y-92254529D01*
X214501315Y-92254587D01*
X214504022Y-92254674D01*
X214905514Y-92272204D01*
X214910883Y-92272555D01*
X214916288Y-92273029D01*
X214921614Y-92273613D01*
X215316012Y-92325536D01*
X215321325Y-92326353D01*
X215326655Y-92327293D01*
X215331934Y-92328342D01*
X215720344Y-92414451D01*
X215725577Y-92415732D01*
X215730742Y-92417116D01*
X215735942Y-92418631D01*
X216115342Y-92538256D01*
X216120469Y-92539997D01*
X216125499Y-92541828D01*
X216130537Y-92543787D01*
X216498033Y-92696009D01*
X216502984Y-92698188D01*
X216507895Y-92700478D01*
X216512748Y-92702871D01*
X216783670Y-92843904D01*
X216843960Y-92875289D01*
X216865562Y-92886534D01*
X216870290Y-92889127D01*
X216874971Y-92891830D01*
X216879573Y-92894623D01*
X217055433Y-93006658D01*
X217215076Y-93108362D01*
X217219535Y-93111342D01*
X217222457Y-93113387D01*
X217223990Y-93114461D01*
X217228347Y-93117656D01*
X217543913Y-93359798D01*
X217548125Y-93363178D01*
X217552281Y-93366666D01*
X217556328Y-93370215D01*
X217849586Y-93638937D01*
X217853494Y-93642678D01*
X217857320Y-93646504D01*
X217861061Y-93650412D01*
X217978770Y-93778869D01*
X218129776Y-93943662D01*
X218133335Y-93947720D01*
X218133353Y-93947741D01*
X218136819Y-93951872D01*
X218140200Y-93956085D01*
X218382342Y-94271651D01*
X218385537Y-94276008D01*
X218388640Y-94280439D01*
X218391649Y-94284942D01*
X218457193Y-94387824D01*
X218457194Y-94387827D01*
X218600787Y-94613222D01*
X218602416Y-94615778D01*
X218605364Y-94620406D01*
X218608168Y-94625028D01*
X218610871Y-94629710D01*
X218613471Y-94634449D01*
X218676945Y-94756380D01*
X218720203Y-94839479D01*
X218797127Y-94987248D01*
X218799523Y-94992106D01*
X218801816Y-94997024D01*
X218803992Y-95001970D01*
X218916275Y-95273045D01*
X218946533Y-95346095D01*
X218956203Y-95369439D01*
X218958165Y-95374485D01*
X218960012Y-95379560D01*
X218961750Y-95384679D01*
X219081360Y-95764033D01*
X219082876Y-95769235D01*
X219084273Y-95774450D01*
X219085557Y-95779698D01*
X219171648Y-96168031D01*
X219172704Y-96173343D01*
X219173643Y-96178670D01*
X219174465Y-96184010D01*
X219226381Y-96578343D01*
X219226970Y-96583718D01*
X219227442Y-96589111D01*
X219227796Y-96594513D01*
X219245322Y-96995924D01*
X219245410Y-96998625D01*
X219245470Y-97001372D01*
X219245500Y-97004080D01*
X219245500Y-146495918D01*
X219245470Y-146498626D01*
X219245410Y-146501373D01*
X219245322Y-146504074D01*
X219227796Y-146905485D01*
X219227442Y-146910887D01*
X219226970Y-146916280D01*
X219226381Y-146921655D01*
X219174465Y-147315988D01*
X219173643Y-147321328D01*
X219172704Y-147326655D01*
X219171648Y-147331967D01*
X219085557Y-147720300D01*
X219084273Y-147725548D01*
X219082876Y-147730763D01*
X219081360Y-147735965D01*
X218961750Y-148115319D01*
X218960012Y-148120438D01*
X218958165Y-148125513D01*
X218956203Y-148130559D01*
X218803992Y-148498028D01*
X218801816Y-148502974D01*
X218799523Y-148507892D01*
X218797127Y-148512750D01*
X218613470Y-148865552D01*
X218610870Y-148870292D01*
X218608167Y-148874974D01*
X218605358Y-148879602D01*
X218391656Y-149215045D01*
X218388647Y-149219549D01*
X218385537Y-149223990D01*
X218382342Y-149228347D01*
X218140200Y-149543913D01*
X218136819Y-149548126D01*
X218133349Y-149552262D01*
X218129776Y-149556336D01*
X217861061Y-149849586D01*
X217857320Y-149853494D01*
X217853494Y-149857320D01*
X217849586Y-149861061D01*
X217556336Y-150129776D01*
X217552262Y-150133349D01*
X217548126Y-150136819D01*
X217543913Y-150140200D01*
X217228347Y-150382342D01*
X217223990Y-150385537D01*
X217219549Y-150388647D01*
X217215045Y-150391656D01*
X216879602Y-150605358D01*
X216874974Y-150608167D01*
X216870292Y-150610870D01*
X216865552Y-150613470D01*
X216512750Y-150797127D01*
X216507892Y-150799523D01*
X216502974Y-150801816D01*
X216498028Y-150803992D01*
X216130559Y-150956203D01*
X216125513Y-150958165D01*
X216120438Y-150960012D01*
X216115319Y-150961750D01*
X215735965Y-151081360D01*
X215730763Y-151082876D01*
X215725548Y-151084273D01*
X215720300Y-151085557D01*
X215331967Y-151171648D01*
X215326655Y-151172704D01*
X215321328Y-151173643D01*
X215315988Y-151174465D01*
X214921655Y-151226381D01*
X214916280Y-151226970D01*
X214910887Y-151227442D01*
X214905485Y-151227796D01*
X214504075Y-151245322D01*
X214501374Y-151245410D01*
X214498627Y-151245470D01*
X214495919Y-151245500D01*
X164504081Y-151245500D01*
X164501374Y-151245470D01*
X164498626Y-151245410D01*
X164495924Y-151245322D01*
X164094513Y-151227796D01*
X164089111Y-151227442D01*
X164083718Y-151226970D01*
X164078343Y-151226381D01*
X163684010Y-151174465D01*
X163678673Y-151173644D01*
X163673351Y-151172706D01*
X163668036Y-151171649D01*
X163414740Y-151115495D01*
X163279683Y-151085554D01*
X163274418Y-151084265D01*
X163269232Y-151082875D01*
X163264047Y-151081364D01*
X162884674Y-150961748D01*
X162879551Y-150960009D01*
X162874482Y-150958164D01*
X162869440Y-150956203D01*
X162501970Y-150803992D01*
X162497024Y-150801816D01*
X162492106Y-150799523D01*
X162487248Y-150797127D01*
X162372813Y-150737556D01*
X162134450Y-150613471D01*
X162129714Y-150610873D01*
X162125016Y-150608161D01*
X162120396Y-150605358D01*
X161952671Y-150498505D01*
X161952669Y-150498504D01*
X161952669Y-150498503D01*
X161784942Y-150391649D01*
X161780439Y-150388640D01*
X161776008Y-150385537D01*
X161771651Y-150382342D01*
X161456085Y-150140200D01*
X161451872Y-150136819D01*
X161451114Y-150136183D01*
X161447720Y-150133335D01*
X161443662Y-150129776D01*
X161150412Y-149861061D01*
X161146504Y-149857320D01*
X161142678Y-149853494D01*
X161138937Y-149849586D01*
X160870222Y-149556336D01*
X160866666Y-149552281D01*
X160863178Y-149548125D01*
X160859798Y-149543913D01*
X160617656Y-149228347D01*
X160614461Y-149223990D01*
X160611365Y-149219569D01*
X160608356Y-149215065D01*
X160593660Y-149191997D01*
X160394624Y-148879574D01*
X160391815Y-148874945D01*
X160389134Y-148870301D01*
X160386534Y-148865562D01*
X160386529Y-148865552D01*
X160202858Y-148512723D01*
X160200472Y-148507885D01*
X160198181Y-148502971D01*
X160196006Y-148498028D01*
X160043787Y-148130537D01*
X160041828Y-148125499D01*
X160039997Y-148120469D01*
X160038256Y-148115342D01*
X159918631Y-147735942D01*
X159917116Y-147730742D01*
X159915735Y-147725587D01*
X159914450Y-147720338D01*
X159914442Y-147720300D01*
X159828342Y-147331934D01*
X159827289Y-147326634D01*
X159826355Y-147321333D01*
X159825535Y-147316001D01*
X159773612Y-146921605D01*
X159773027Y-146916261D01*
X159772557Y-146910887D01*
X159772203Y-146905492D01*
X159772203Y-146905485D01*
X159754672Y-146503945D01*
X159754588Y-146501371D01*
X159754529Y-146498622D01*
X159754500Y-146495962D01*
X159754500Y-135697648D01*
X190149500Y-135697648D01*
X190149500Y-135902352D01*
X190149780Y-135904118D01*
X190150395Y-135907998D01*
X190150393Y-135907998D01*
X190150396Y-135908009D01*
X190181520Y-136104529D01*
X190181521Y-136104530D01*
X190181522Y-136104534D01*
X190235919Y-136271950D01*
X190244782Y-136299225D01*
X190308691Y-136424653D01*
X190334189Y-136474696D01*
X190334191Y-136474698D01*
X190337715Y-136481613D01*
X190337717Y-136481616D01*
X190337719Y-136481619D01*
X190458026Y-136647211D01*
X190458028Y-136647213D01*
X190602786Y-136791971D01*
X190757749Y-136904556D01*
X190768390Y-136912287D01*
X190884607Y-136971503D01*
X190945154Y-137002353D01*
X190946043Y-137002824D01*
X190946249Y-137003025D01*
X190949629Y-137004662D01*
X190951637Y-137005660D01*
X190955403Y-137006722D01*
X190995488Y-137019746D01*
X191055135Y-137039126D01*
X191055136Y-137039127D01*
X191098612Y-137053253D01*
X191145465Y-137068477D01*
X191246557Y-137084488D01*
X191347648Y-137100500D01*
X191347649Y-137100500D01*
X191552351Y-137100500D01*
X191552352Y-137100500D01*
X191754534Y-137068477D01*
X191949219Y-137005220D01*
X192131610Y-136912287D01*
X192233686Y-136838125D01*
X192233693Y-136838120D01*
X192233694Y-136838119D01*
X192297174Y-136791999D01*
X192297213Y-136791971D01*
X192297213Y-136791969D01*
X192297272Y-136791927D01*
X192298032Y-136791152D01*
X192441966Y-136647219D01*
X192441968Y-136647215D01*
X192441971Y-136647213D01*
X192499181Y-136568469D01*
X193849500Y-136568469D01*
X193849500Y-138431520D01*
X193857838Y-138484167D01*
X193857839Y-138484169D01*
X193860292Y-138499657D01*
X193864354Y-138525304D01*
X193921950Y-138638342D01*
X193921952Y-138638344D01*
X193921954Y-138638347D01*
X194011652Y-138728045D01*
X194011654Y-138728046D01*
X194011658Y-138728050D01*
X194124694Y-138785645D01*
X194124698Y-138785647D01*
X194218220Y-138800458D01*
X194218457Y-138800497D01*
X194218466Y-138800497D01*
X194218475Y-138800499D01*
X194218481Y-138800500D01*
X196081518Y-138800499D01*
X196175304Y-138785646D01*
X196288342Y-138728050D01*
X196378050Y-138638342D01*
X196435646Y-138525304D01*
X196435646Y-138525302D01*
X196435647Y-138525301D01*
X196435648Y-138525294D01*
X196436785Y-138520560D01*
X196436785Y-138520558D01*
X196436789Y-138520539D01*
X196437173Y-138515668D01*
X196450111Y-138433979D01*
X196450437Y-138432154D01*
X196450499Y-138431523D01*
X196450500Y-138431519D01*
X196450499Y-136675969D01*
X204349500Y-136675969D01*
X204349500Y-140239020D01*
X204357838Y-140291667D01*
X204357839Y-140291669D01*
X204360292Y-140307157D01*
X204364354Y-140332804D01*
X204421950Y-140445842D01*
X204421952Y-140445844D01*
X204421954Y-140445847D01*
X204511652Y-140535545D01*
X204511654Y-140535546D01*
X204511658Y-140535550D01*
X204624694Y-140593145D01*
X204624698Y-140593147D01*
X204718220Y-140607958D01*
X204718457Y-140607997D01*
X204718466Y-140607997D01*
X204718475Y-140607999D01*
X204718481Y-140608000D01*
X208281518Y-140607999D01*
X208375304Y-140593146D01*
X208488342Y-140535550D01*
X208578050Y-140445842D01*
X208635646Y-140332804D01*
X208635646Y-140332802D01*
X208635647Y-140332801D01*
X208635649Y-140332788D01*
X208636784Y-140328062D01*
X208636784Y-140328060D01*
X208636786Y-140328054D01*
X208636789Y-140328039D01*
X208637173Y-140323167D01*
X208650500Y-140239023D01*
X208650500Y-139521697D01*
X210500001Y-139521697D01*
X210510400Y-139653832D01*
X210510401Y-139653834D01*
X210565376Y-139872017D01*
X210658427Y-140076873D01*
X210658428Y-140076874D01*
X210658431Y-140076880D01*
X210786559Y-140261823D01*
X210786564Y-140261829D01*
X210786565Y-140261830D01*
X210786581Y-140261848D01*
X210945650Y-140420917D01*
X210945659Y-140420925D01*
X210945664Y-140420930D01*
X210945676Y-140420940D01*
X211130619Y-140549068D01*
X211130625Y-140549071D01*
X211335480Y-140642122D01*
X211500000Y-140683576D01*
X211500000Y-140683575D01*
X213500000Y-140683575D01*
X213664519Y-140642122D01*
X213869374Y-140549071D01*
X213869380Y-140549068D01*
X214054323Y-140420940D01*
X214054335Y-140420930D01*
X214213430Y-140261835D01*
X214213440Y-140261823D01*
X214341568Y-140076880D01*
X214341571Y-140076874D01*
X214434622Y-139872019D01*
X214489599Y-139653832D01*
X214499999Y-139521696D01*
X214500000Y-139521684D01*
X214500000Y-139457500D01*
X213500000Y-139457500D01*
X213500000Y-140683575D01*
X211500000Y-140683575D01*
X211500000Y-139457500D01*
X210500001Y-139457500D01*
X210500001Y-139521697D01*
X208650500Y-139521697D01*
X208650500Y-139406138D01*
X208650499Y-137393303D01*
X210500000Y-137393303D01*
X210500000Y-137457500D01*
X211500000Y-137457500D01*
X211500000Y-137391674D01*
X212000000Y-137391674D01*
X212000000Y-139523326D01*
X212034075Y-139650493D01*
X212034076Y-139650496D01*
X212080343Y-139730633D01*
X212099901Y-139764507D01*
X212192993Y-139857599D01*
X212273133Y-139903867D01*
X212307003Y-139923423D01*
X212307004Y-139923423D01*
X212307007Y-139923425D01*
X212434174Y-139957500D01*
X212565824Y-139957500D01*
X212565826Y-139957500D01*
X212692993Y-139923425D01*
X212807007Y-139857599D01*
X212900099Y-139764507D01*
X212965925Y-139650493D01*
X213000000Y-139523326D01*
X213000000Y-137457500D01*
X213500000Y-137457500D01*
X214499999Y-137457500D01*
X214499999Y-137393317D01*
X214499998Y-137393302D01*
X214489599Y-137261167D01*
X214434622Y-137042980D01*
X214341571Y-136838125D01*
X214341568Y-136838119D01*
X214213440Y-136653176D01*
X214213430Y-136653164D01*
X214213417Y-136653150D01*
X214054348Y-136494081D01*
X214054339Y-136494073D01*
X214054335Y-136494069D01*
X214054323Y-136494059D01*
X213869380Y-136365931D01*
X213869374Y-136365928D01*
X213869372Y-136365927D01*
X213869368Y-136365924D01*
X213664517Y-136272877D01*
X213500000Y-136231422D01*
X213500000Y-137457500D01*
X213000000Y-137457500D01*
X213000000Y-137391674D01*
X212965925Y-137264507D01*
X212963995Y-137261165D01*
X212946367Y-137230633D01*
X212900099Y-137150493D01*
X212807007Y-137057401D01*
X212773133Y-137037843D01*
X212692996Y-136991576D01*
X212692997Y-136991576D01*
X212677968Y-136987549D01*
X212565826Y-136957500D01*
X212565824Y-136957500D01*
X212434176Y-136957500D01*
X212434174Y-136957500D01*
X212322031Y-136987549D01*
X212307003Y-136991576D01*
X212192996Y-137057399D01*
X212192990Y-137057403D01*
X212099903Y-137150490D01*
X212099899Y-137150496D01*
X212034076Y-137264503D01*
X212034075Y-137264507D01*
X212000000Y-137391674D01*
X211500000Y-137391674D01*
X211500000Y-136231422D01*
X211335479Y-136272877D01*
X211130630Y-136365924D01*
X211130626Y-136365927D01*
X211130625Y-136365928D01*
X211130619Y-136365931D01*
X210956375Y-136486647D01*
X210945669Y-136494064D01*
X210945668Y-136494065D01*
X210945650Y-136494081D01*
X210786581Y-136653150D01*
X210786568Y-136653165D01*
X210786566Y-136653166D01*
X210786559Y-136653175D01*
X210786559Y-136653176D01*
X210658431Y-136838119D01*
X210658430Y-136838121D01*
X210658428Y-136838123D01*
X210565376Y-137042981D01*
X210510400Y-137261165D01*
X210510400Y-137261167D01*
X210500000Y-137393303D01*
X208650499Y-137393303D01*
X208650499Y-137390874D01*
X208650499Y-136675982D01*
X208650497Y-136675969D01*
X208646885Y-136653164D01*
X208635646Y-136582196D01*
X208578050Y-136469158D01*
X208578046Y-136469154D01*
X208578045Y-136469152D01*
X208488347Y-136379454D01*
X208488344Y-136379452D01*
X208488342Y-136379450D01*
X208488340Y-136379449D01*
X208488339Y-136379448D01*
X208411519Y-136340305D01*
X208411519Y-136340306D01*
X208410258Y-136339663D01*
X208375301Y-136321852D01*
X208375299Y-136321851D01*
X208375298Y-136321851D01*
X208375296Y-136321850D01*
X208281530Y-136307000D01*
X208281524Y-136307000D01*
X204718482Y-136307000D01*
X204718478Y-136307000D01*
X204653846Y-136317236D01*
X204653842Y-136317237D01*
X204637519Y-136319823D01*
X204624696Y-136321854D01*
X204511658Y-136379450D01*
X204511657Y-136379451D01*
X204511652Y-136379454D01*
X204508652Y-136382453D01*
X204508649Y-136382455D01*
X204421953Y-136469151D01*
X204415606Y-136481610D01*
X204415604Y-136481613D01*
X204364352Y-136582196D01*
X204364350Y-136582203D01*
X204349500Y-136675969D01*
X196450499Y-136675969D01*
X196450499Y-136568482D01*
X196435646Y-136474696D01*
X196378050Y-136361658D01*
X196378046Y-136361654D01*
X196378045Y-136361652D01*
X196288347Y-136271954D01*
X196288344Y-136271952D01*
X196288342Y-136271950D01*
X196288341Y-136271949D01*
X196208801Y-136231421D01*
X196208800Y-136231421D01*
X196175303Y-136214352D01*
X196175295Y-136214350D01*
X196081530Y-136199500D01*
X196081524Y-136199500D01*
X194218482Y-136199500D01*
X194218478Y-136199500D01*
X194153846Y-136209736D01*
X194153842Y-136209737D01*
X194137519Y-136212323D01*
X194124696Y-136214354D01*
X194011658Y-136271950D01*
X194011657Y-136271951D01*
X194011652Y-136271954D01*
X194008652Y-136274953D01*
X194008649Y-136274955D01*
X193921953Y-136361651D01*
X193902752Y-136399336D01*
X193902751Y-136399337D01*
X193864353Y-136474695D01*
X193864351Y-136474702D01*
X193849500Y-136568469D01*
X192499181Y-136568469D01*
X192555666Y-136490724D01*
X192555917Y-136490378D01*
X192558609Y-136486673D01*
X192558611Y-136486674D01*
X192558622Y-136486652D01*
X192562287Y-136481610D01*
X192655220Y-136299219D01*
X192718477Y-136104534D01*
X192750500Y-135902352D01*
X192750500Y-135697648D01*
X192737504Y-135615592D01*
X192718477Y-135495465D01*
X192657555Y-135307967D01*
X192655220Y-135300781D01*
X192655218Y-135300778D01*
X192655218Y-135300776D01*
X192607077Y-135206296D01*
X192562287Y-135118390D01*
X192547050Y-135097418D01*
X192516580Y-135055478D01*
X192516577Y-135055475D01*
X192441971Y-134952786D01*
X192297213Y-134808028D01*
X192297212Y-134808027D01*
X192297211Y-134808026D01*
X192142202Y-134695408D01*
X192142199Y-134695406D01*
X192131613Y-134687715D01*
X192131612Y-134687714D01*
X192131610Y-134687713D01*
X192057594Y-134650000D01*
X192057594Y-134649999D01*
X192057592Y-134649999D01*
X191949228Y-134594783D01*
X191949221Y-134594780D01*
X191844316Y-134560694D01*
X191754534Y-134531522D01*
X191754532Y-134531521D01*
X191754530Y-134531521D01*
X191754529Y-134531520D01*
X191579995Y-134503878D01*
X191563409Y-134501251D01*
X191552354Y-134499500D01*
X191552352Y-134499500D01*
X191347648Y-134499500D01*
X191347647Y-134499500D01*
X191323327Y-134503351D01*
X191323326Y-134503350D01*
X191145468Y-134531521D01*
X190950777Y-134594780D01*
X190950764Y-134594786D01*
X190768397Y-134687708D01*
X190768385Y-134687715D01*
X190602787Y-134808027D01*
X190602784Y-134808029D01*
X190458029Y-134952784D01*
X190458027Y-134952787D01*
X190337715Y-135118385D01*
X190337708Y-135118397D01*
X190244786Y-135300764D01*
X190244781Y-135300774D01*
X190244781Y-135300776D01*
X190222058Y-135370708D01*
X190181523Y-135495460D01*
X190181521Y-135495467D01*
X190163569Y-135608815D01*
X190163568Y-135608822D01*
X190162497Y-135615589D01*
X190149500Y-135697648D01*
X159754500Y-135697648D01*
X159754500Y-133989818D01*
X193750000Y-133989818D01*
X193750000Y-134210181D01*
X193759412Y-134269608D01*
X193784473Y-134427836D01*
X193852567Y-134637411D01*
X193854913Y-134642255D01*
X193855858Y-134643869D01*
X193883443Y-134698006D01*
X193942031Y-134812992D01*
X194451931Y-134303092D01*
X194513253Y-134269608D01*
X194582945Y-134274592D01*
X194638878Y-134316464D01*
X194646993Y-134328766D01*
X194709890Y-134437708D01*
X194812292Y-134540110D01*
X194921223Y-134603001D01*
X194969438Y-134653566D01*
X194982662Y-134722173D01*
X194956694Y-134787038D01*
X194946904Y-134798068D01*
X194437005Y-135307966D01*
X194437006Y-135307966D01*
X194437006Y-135307967D01*
X194523123Y-135351846D01*
X194612588Y-135397432D01*
X194612591Y-135397433D01*
X194717376Y-135431479D01*
X194822164Y-135465526D01*
X195039819Y-135500000D01*
X195260180Y-135500000D01*
X195260181Y-135500000D01*
X195477835Y-135465526D01*
X195687410Y-135397432D01*
X195862993Y-135307967D01*
X195353095Y-134798068D01*
X195319610Y-134736745D01*
X195324594Y-134667053D01*
X195366466Y-134611120D01*
X195378766Y-134603006D01*
X195487708Y-134540110D01*
X195590110Y-134437708D01*
X195653002Y-134328773D01*
X195703567Y-134280560D01*
X195772173Y-134267336D01*
X195837039Y-134293303D01*
X195848069Y-134303094D01*
X196357966Y-134812992D01*
X196357966Y-134812991D01*
X196357967Y-134812992D01*
X196447432Y-134637410D01*
X196515526Y-134427835D01*
X196550000Y-134210181D01*
X196550000Y-133989818D01*
X196515526Y-133772164D01*
X196461772Y-133606723D01*
X196447433Y-133562591D01*
X196447431Y-133562587D01*
X196444084Y-133556018D01*
X196357967Y-133387006D01*
X196357966Y-133387005D01*
X195848068Y-133896904D01*
X195786745Y-133930389D01*
X195717053Y-133925405D01*
X195661120Y-133883533D01*
X195653006Y-133871233D01*
X195590110Y-133762292D01*
X195487708Y-133659890D01*
X195378775Y-133596998D01*
X195330560Y-133546432D01*
X195317336Y-133477825D01*
X195343304Y-133412960D01*
X195353083Y-133401941D01*
X195862992Y-132892031D01*
X195715726Y-132816995D01*
X195715699Y-132816981D01*
X207349500Y-132816981D01*
X207349500Y-134698004D01*
X207349501Y-134698019D01*
X207360111Y-134832838D01*
X207416210Y-135055476D01*
X207463684Y-135159993D01*
X207511159Y-135264511D01*
X207511161Y-135264514D01*
X207511162Y-135264516D01*
X207541264Y-135307966D01*
X207603246Y-135397433D01*
X207641904Y-135453232D01*
X207641908Y-135453237D01*
X207641915Y-135453246D01*
X207803917Y-135615248D01*
X207803920Y-135615250D01*
X207804259Y-135615589D01*
X207804263Y-135615592D01*
X207804267Y-135615595D01*
X207922704Y-135697648D01*
X207992986Y-135746339D01*
X208097506Y-135793814D01*
X208199942Y-135840344D01*
X208201974Y-135841313D01*
X208204005Y-135841788D01*
X208424661Y-135897389D01*
X208559487Y-135908000D01*
X210440512Y-135907999D01*
X210575339Y-135897389D01*
X210797974Y-135841290D01*
X211007014Y-135746339D01*
X211195741Y-135615589D01*
X211358089Y-135453241D01*
X211488839Y-135264514D01*
X211583790Y-135055474D01*
X211639889Y-134832839D01*
X211650500Y-134698013D01*
X211650499Y-132816988D01*
X211639889Y-132682161D01*
X211583790Y-132459526D01*
X211583789Y-132459523D01*
X211488841Y-132250489D01*
X211488810Y-132250443D01*
X211358101Y-132061775D01*
X211358089Y-132061759D01*
X211358084Y-132061753D01*
X211195746Y-131899415D01*
X211195740Y-131899410D01*
X211195737Y-131899408D01*
X211195732Y-131899404D01*
X211007016Y-131768662D01*
X211007014Y-131768661D01*
X211007011Y-131768659D01*
X210797970Y-131673707D01*
X210649552Y-131636309D01*
X210649552Y-131636310D01*
X210575344Y-131617612D01*
X210575341Y-131617611D01*
X210575339Y-131617611D01*
X210524779Y-131613631D01*
X210440518Y-131607000D01*
X210440513Y-131607000D01*
X210440511Y-131607000D01*
X208559495Y-131607000D01*
X208559492Y-131607000D01*
X208424661Y-131617611D01*
X208202023Y-131673710D01*
X207992989Y-131768658D01*
X207992983Y-131768661D01*
X207992983Y-131768662D01*
X207804267Y-131899404D01*
X207804260Y-131899409D01*
X207804259Y-131899410D01*
X207804241Y-131899426D01*
X207641926Y-132061741D01*
X207641910Y-132061759D01*
X207641909Y-132061760D01*
X207641907Y-132061763D01*
X207641904Y-132061767D01*
X207618558Y-132095466D01*
X207511158Y-132250489D01*
X207416210Y-132459523D01*
X207360111Y-132682161D01*
X207349500Y-132816981D01*
X195715699Y-132816981D01*
X195693869Y-132805858D01*
X195692255Y-132804913D01*
X195687411Y-132802567D01*
X195477836Y-132734473D01*
X195369008Y-132717236D01*
X195260181Y-132700000D01*
X195260180Y-132700000D01*
X195039814Y-132700000D01*
X194822162Y-132734473D01*
X194612587Y-132802567D01*
X194437004Y-132892029D01*
X194946905Y-133401930D01*
X194980390Y-133463253D01*
X194975406Y-133532945D01*
X194933534Y-133588878D01*
X194921224Y-133596998D01*
X194812295Y-133659887D01*
X194812290Y-133659891D01*
X194709891Y-133762290D01*
X194709887Y-133762295D01*
X194646998Y-133871224D01*
X194596431Y-133919439D01*
X194527824Y-133932663D01*
X194462959Y-133906695D01*
X194451930Y-133896905D01*
X193942029Y-133387004D01*
X193852567Y-133562587D01*
X193784473Y-133772162D01*
X193764716Y-133896904D01*
X193750000Y-133989818D01*
X159754500Y-133989818D01*
X159754500Y-132297642D01*
X190149500Y-132297642D01*
X190149500Y-132502356D01*
X190181521Y-132704530D01*
X190244780Y-132899221D01*
X190244786Y-132899234D01*
X190337708Y-133081601D01*
X190337709Y-133081602D01*
X190337715Y-133081613D01*
X190458028Y-133247213D01*
X190602786Y-133391971D01*
X190757749Y-133504556D01*
X190768390Y-133512287D01*
X190867109Y-133562587D01*
X190934644Y-133596998D01*
X190944329Y-133601933D01*
X190945923Y-133602866D01*
X190949610Y-133604652D01*
X190951638Y-133605660D01*
X190955406Y-133606723D01*
X190997956Y-133620547D01*
X191055135Y-133639126D01*
X191055136Y-133639127D01*
X191098612Y-133653253D01*
X191145465Y-133668477D01*
X191246557Y-133684488D01*
X191347648Y-133700500D01*
X191347649Y-133700500D01*
X191552351Y-133700500D01*
X191552352Y-133700500D01*
X191754534Y-133668477D01*
X191949219Y-133605220D01*
X192131610Y-133512287D01*
X192224590Y-133444732D01*
X192297213Y-133391971D01*
X192297213Y-133391969D01*
X192297272Y-133391927D01*
X192298031Y-133391153D01*
X192441966Y-133247219D01*
X192441968Y-133247215D01*
X192441971Y-133247213D01*
X192494730Y-133174593D01*
X192494732Y-133174591D01*
X192518172Y-133142327D01*
X192562287Y-133081610D01*
X192655220Y-132899219D01*
X192718477Y-132704534D01*
X192750500Y-132502352D01*
X192750500Y-132297648D01*
X192718477Y-132095466D01*
X192655220Y-131900781D01*
X192655218Y-131900777D01*
X192655218Y-131900776D01*
X192587900Y-131768658D01*
X192562287Y-131718390D01*
X192554556Y-131707749D01*
X192441971Y-131552786D01*
X192297213Y-131408028D01*
X192297212Y-131408027D01*
X192297211Y-131408026D01*
X192142202Y-131295408D01*
X192142199Y-131295406D01*
X192131613Y-131287715D01*
X192131612Y-131287714D01*
X192131610Y-131287713D01*
X192057594Y-131250000D01*
X192057594Y-131249999D01*
X192057592Y-131249999D01*
X191949228Y-131194783D01*
X191949221Y-131194780D01*
X191844316Y-131160694D01*
X191754534Y-131131522D01*
X191754532Y-131131521D01*
X191754530Y-131131521D01*
X191754529Y-131131520D01*
X191579995Y-131103878D01*
X191563409Y-131101251D01*
X191552354Y-131099500D01*
X191552352Y-131099500D01*
X191347648Y-131099500D01*
X191347647Y-131099500D01*
X191323327Y-131103351D01*
X191323326Y-131103350D01*
X191145468Y-131131521D01*
X190950777Y-131194780D01*
X190950764Y-131194786D01*
X190768397Y-131287708D01*
X190768385Y-131287715D01*
X190602787Y-131408027D01*
X190602784Y-131408029D01*
X190458029Y-131552784D01*
X190458027Y-131552787D01*
X190337715Y-131718385D01*
X190337708Y-131718397D01*
X190244786Y-131900764D01*
X190244780Y-131900777D01*
X190181521Y-132095468D01*
X190149500Y-132297642D01*
X159754500Y-132297642D01*
X159754500Y-130589818D01*
X193750000Y-130589818D01*
X193750000Y-130810181D01*
X193759412Y-130869608D01*
X193784473Y-131027836D01*
X193852567Y-131237411D01*
X193854913Y-131242255D01*
X193855858Y-131243869D01*
X193878199Y-131287715D01*
X193942031Y-131412992D01*
X194451931Y-130903092D01*
X194513253Y-130869608D01*
X194582945Y-130874592D01*
X194638878Y-130916464D01*
X194646993Y-130928766D01*
X194709890Y-131037708D01*
X194812292Y-131140110D01*
X194921223Y-131203001D01*
X194969438Y-131253566D01*
X194982662Y-131322173D01*
X194956694Y-131387038D01*
X194946904Y-131398068D01*
X194437005Y-131907966D01*
X194437006Y-131907966D01*
X194437006Y-131907967D01*
X194523123Y-131951846D01*
X194612588Y-131997432D01*
X194612591Y-131997433D01*
X194717376Y-132031479D01*
X194822164Y-132065526D01*
X195039819Y-132100000D01*
X195260180Y-132100000D01*
X195260181Y-132100000D01*
X195477835Y-132065526D01*
X195687410Y-131997432D01*
X195862993Y-131907967D01*
X195628733Y-131673707D01*
X195353095Y-131398068D01*
X195319610Y-131336745D01*
X195324594Y-131267053D01*
X195366466Y-131211120D01*
X195378766Y-131203006D01*
X195487708Y-131140110D01*
X195590110Y-131037708D01*
X195653002Y-130928773D01*
X195703567Y-130880560D01*
X195772173Y-130867336D01*
X195837039Y-130893303D01*
X195848069Y-130903094D01*
X196357966Y-131412992D01*
X196357966Y-131412991D01*
X196357967Y-131412992D01*
X196447432Y-131237410D01*
X196515526Y-131027835D01*
X196550000Y-130810181D01*
X196550000Y-130589818D01*
X196515526Y-130372164D01*
X196479046Y-130259887D01*
X196447433Y-130162591D01*
X196447432Y-130162588D01*
X196357966Y-129987005D01*
X195848068Y-130496904D01*
X195786745Y-130530389D01*
X195717053Y-130525405D01*
X195661120Y-130483533D01*
X195653006Y-130471233D01*
X195590110Y-130362292D01*
X195487708Y-130259890D01*
X195378775Y-130196998D01*
X195330560Y-130146432D01*
X195317336Y-130077825D01*
X195343304Y-130012960D01*
X195353083Y-130001941D01*
X195862992Y-129492031D01*
X195862988Y-129492029D01*
X195693869Y-129405858D01*
X195692255Y-129404913D01*
X195687411Y-129402567D01*
X195477836Y-129334473D01*
X195369008Y-129317236D01*
X195260181Y-129300000D01*
X195260180Y-129300000D01*
X195039814Y-129300000D01*
X194822162Y-129334473D01*
X194612587Y-129402567D01*
X194437004Y-129492029D01*
X194946905Y-130001930D01*
X194980390Y-130063253D01*
X194975406Y-130132945D01*
X194933534Y-130188878D01*
X194921224Y-130196998D01*
X194812295Y-130259887D01*
X194812290Y-130259891D01*
X194709891Y-130362290D01*
X194709887Y-130362295D01*
X194646998Y-130471224D01*
X194596431Y-130519439D01*
X194527824Y-130532663D01*
X194462959Y-130506695D01*
X194451930Y-130496905D01*
X193942029Y-129987004D01*
X193852567Y-130162587D01*
X193784473Y-130372162D01*
X193764716Y-130496904D01*
X193750000Y-130589818D01*
X159754500Y-130589818D01*
X159754500Y-124885258D01*
X212299500Y-124885258D01*
X212299500Y-125114741D01*
X212324446Y-125304215D01*
X212329452Y-125342238D01*
X212329453Y-125342240D01*
X212331744Y-125350793D01*
X212331746Y-125350801D01*
X212388842Y-125563886D01*
X212388845Y-125563896D01*
X212476652Y-125775881D01*
X212476655Y-125775887D01*
X212476657Y-125775890D01*
X212591392Y-125974617D01*
X212591395Y-125974621D01*
X212591399Y-125974627D01*
X212731079Y-126156659D01*
X212731081Y-126156661D01*
X212731089Y-126156670D01*
X212888478Y-126314059D01*
X212893325Y-126318906D01*
X212893332Y-126318913D01*
X212893338Y-126318918D01*
X213075583Y-126458762D01*
X213077149Y-126459628D01*
X213077338Y-126459737D01*
X213274112Y-126573344D01*
X213274117Y-126573346D01*
X213274123Y-126573349D01*
X213365480Y-126611190D01*
X213365481Y-126611191D01*
X213425796Y-126636174D01*
X213486113Y-126661158D01*
X213707762Y-126720548D01*
X213935266Y-126750500D01*
X213935273Y-126750500D01*
X214164727Y-126750500D01*
X214164734Y-126750500D01*
X214392238Y-126720548D01*
X214613887Y-126661158D01*
X214825888Y-126573344D01*
X215024612Y-126458611D01*
X215206661Y-126318919D01*
X215206665Y-126318914D01*
X215206670Y-126318911D01*
X215211522Y-126314059D01*
X215364070Y-126161512D01*
X215364840Y-126160822D01*
X215368422Y-126157167D01*
X215368895Y-126156689D01*
X215368905Y-126156675D01*
X215368911Y-126156670D01*
X215368914Y-126156665D01*
X215368919Y-126156661D01*
X215369028Y-126156518D01*
X215369322Y-126156143D01*
X215369322Y-126156142D01*
X215372716Y-126151795D01*
X215373216Y-126151061D01*
X215508607Y-125974617D01*
X215508606Y-125974617D01*
X215508611Y-125974612D01*
X215623344Y-125775888D01*
X215711158Y-125563887D01*
X215770548Y-125342238D01*
X215800500Y-125114734D01*
X215800500Y-124885266D01*
X215770548Y-124657762D01*
X215711158Y-124436113D01*
X215623344Y-124224112D01*
X215509691Y-124027259D01*
X215508764Y-124025587D01*
X215508598Y-124025371D01*
X215368918Y-123843338D01*
X215368911Y-123843330D01*
X215206670Y-123681089D01*
X215206661Y-123681081D01*
X215206659Y-123681079D01*
X215024627Y-123541399D01*
X215024621Y-123541395D01*
X215024617Y-123541392D01*
X214825890Y-123426657D01*
X214825887Y-123426655D01*
X214825881Y-123426652D01*
X214613896Y-123338845D01*
X214613889Y-123338843D01*
X214613887Y-123338842D01*
X214392238Y-123279452D01*
X214354215Y-123274446D01*
X214164742Y-123249500D01*
X214164741Y-123249500D01*
X214164734Y-123249500D01*
X213935266Y-123249500D01*
X213935258Y-123249500D01*
X213935250Y-123249500D01*
X213771755Y-123271025D01*
X213718715Y-123278009D01*
X213718709Y-123278009D01*
X213707764Y-123279451D01*
X213707760Y-123279452D01*
X213614076Y-123304553D01*
X213614076Y-123304554D01*
X213557651Y-123319672D01*
X213486107Y-123338843D01*
X213274117Y-123426652D01*
X213075388Y-123541388D01*
X213075371Y-123541399D01*
X212893342Y-123681077D01*
X212893332Y-123681086D01*
X212731086Y-123843332D01*
X212731077Y-123843342D01*
X212591399Y-124025371D01*
X212591388Y-124025388D01*
X212476652Y-124224117D01*
X212388845Y-124436102D01*
X212388842Y-124436112D01*
X212329453Y-124657759D01*
X212329452Y-124657763D01*
X212329450Y-124657773D01*
X212329448Y-124657789D01*
X212299500Y-124885258D01*
X159754500Y-124885258D01*
X159754500Y-118834290D01*
X212299500Y-118834290D01*
X212299500Y-121165708D01*
X212302401Y-121202565D01*
X212302403Y-121202579D01*
X212302404Y-121202583D01*
X212348252Y-121360392D01*
X212348554Y-121361041D01*
X212349959Y-121363276D01*
X212431914Y-121501856D01*
X212431918Y-121501863D01*
X212431927Y-121501874D01*
X212548132Y-121618079D01*
X212548139Y-121618083D01*
X212689603Y-121701744D01*
X212689604Y-121701744D01*
X212689607Y-121701746D01*
X212689609Y-121701746D01*
X212689630Y-121701759D01*
X212690420Y-121701982D01*
X212847426Y-121747597D01*
X212847429Y-121747597D01*
X212847431Y-121747598D01*
X212884306Y-121750500D01*
X212884314Y-121750500D01*
X215215686Y-121750500D01*
X215215694Y-121750500D01*
X215252569Y-121747598D01*
X215252571Y-121747597D01*
X215252573Y-121747597D01*
X215252575Y-121747596D01*
X215252591Y-121747595D01*
X215253293Y-121747396D01*
X215262175Y-121744927D01*
X215263367Y-121744461D01*
X215410392Y-121701746D01*
X215410392Y-121701745D01*
X215410397Y-121701744D01*
X215413277Y-121700041D01*
X215551864Y-121618081D01*
X215668081Y-121501864D01*
X215751744Y-121360397D01*
X215751745Y-121360393D01*
X215751746Y-121360392D01*
X215751748Y-121360382D01*
X215751877Y-121360072D01*
X215752383Y-121358196D01*
X215797597Y-121202573D01*
X215797598Y-121202567D01*
X215800192Y-121169594D01*
X215800275Y-121168854D01*
X215800500Y-121165692D01*
X215800500Y-118834313D01*
X215800499Y-118834298D01*
X215800498Y-118834290D01*
X215797598Y-118797431D01*
X215797597Y-118797426D01*
X215751746Y-118639607D01*
X215751744Y-118639604D01*
X215751744Y-118639603D01*
X215668081Y-118498136D01*
X215668080Y-118498135D01*
X215668079Y-118498133D01*
X215668076Y-118498129D01*
X215551874Y-118381927D01*
X215551863Y-118381918D01*
X215551856Y-118381914D01*
X215413276Y-118299959D01*
X215411041Y-118298554D01*
X215410392Y-118298252D01*
X215252583Y-118252404D01*
X215252579Y-118252403D01*
X215252573Y-118252402D01*
X215252567Y-118252401D01*
X215244374Y-118251756D01*
X215215708Y-118249500D01*
X215215701Y-118249500D01*
X215215694Y-118249500D01*
X212884306Y-118249500D01*
X212884298Y-118249500D01*
X212884290Y-118249500D01*
X212851528Y-118252078D01*
X212847432Y-118252401D01*
X212847426Y-118252402D01*
X212847419Y-118252403D01*
X212847415Y-118252404D01*
X212689606Y-118298252D01*
X212688954Y-118298556D01*
X212686722Y-118299959D01*
X212548142Y-118381914D01*
X212548135Y-118381918D01*
X212548124Y-118381927D01*
X212431927Y-118498124D01*
X212431918Y-118498135D01*
X212431914Y-118498142D01*
X212349959Y-118636722D01*
X212348556Y-118638954D01*
X212348252Y-118639606D01*
X212302404Y-118797415D01*
X212302403Y-118797419D01*
X212302401Y-118797433D01*
X212299500Y-118834290D01*
X159754500Y-118834290D01*
X159754500Y-109885258D01*
X212299500Y-109885258D01*
X212299500Y-110114741D01*
X212324446Y-110304215D01*
X212329452Y-110342238D01*
X212329453Y-110342240D01*
X212331744Y-110350793D01*
X212331746Y-110350801D01*
X212388842Y-110563886D01*
X212388845Y-110563896D01*
X212476652Y-110775881D01*
X212476655Y-110775887D01*
X212476657Y-110775890D01*
X212591392Y-110974617D01*
X212591395Y-110974621D01*
X212591399Y-110974627D01*
X212731079Y-111156659D01*
X212731081Y-111156661D01*
X212731089Y-111156670D01*
X212888478Y-111314059D01*
X212893325Y-111318906D01*
X212893332Y-111318913D01*
X212893338Y-111318918D01*
X213075583Y-111458762D01*
X213077149Y-111459628D01*
X213077338Y-111459737D01*
X213274112Y-111573344D01*
X213274117Y-111573346D01*
X213274123Y-111573349D01*
X213365480Y-111611190D01*
X213365481Y-111611191D01*
X213425796Y-111636174D01*
X213486113Y-111661158D01*
X213707762Y-111720548D01*
X213935266Y-111750500D01*
X213935273Y-111750500D01*
X214164727Y-111750500D01*
X214164734Y-111750500D01*
X214392238Y-111720548D01*
X214613887Y-111661158D01*
X214825888Y-111573344D01*
X215024612Y-111458611D01*
X215206661Y-111318919D01*
X215206665Y-111318914D01*
X215206670Y-111318911D01*
X215211522Y-111314059D01*
X215364070Y-111161512D01*
X215364840Y-111160822D01*
X215368422Y-111157167D01*
X215368895Y-111156689D01*
X215368905Y-111156675D01*
X215368911Y-111156670D01*
X215368914Y-111156665D01*
X215368919Y-111156661D01*
X215369028Y-111156518D01*
X215369322Y-111156143D01*
X215369322Y-111156142D01*
X215372716Y-111151795D01*
X215373216Y-111151061D01*
X215508607Y-110974617D01*
X215508606Y-110974617D01*
X215508611Y-110974612D01*
X215623344Y-110775888D01*
X215711158Y-110563887D01*
X215770548Y-110342238D01*
X215800500Y-110114734D01*
X215800500Y-109885266D01*
X215770548Y-109657762D01*
X215711158Y-109436113D01*
X215623344Y-109224112D01*
X215509691Y-109027259D01*
X215508764Y-109025587D01*
X215508598Y-109025371D01*
X215368918Y-108843338D01*
X215368911Y-108843330D01*
X215206670Y-108681089D01*
X215206661Y-108681081D01*
X215206659Y-108681079D01*
X215024627Y-108541399D01*
X215024621Y-108541395D01*
X215024617Y-108541392D01*
X214825890Y-108426657D01*
X214825887Y-108426655D01*
X214825881Y-108426652D01*
X214613896Y-108338845D01*
X214613889Y-108338843D01*
X214613887Y-108338842D01*
X214392238Y-108279452D01*
X214354215Y-108274446D01*
X214164742Y-108249500D01*
X214164741Y-108249500D01*
X214164734Y-108249500D01*
X213935266Y-108249500D01*
X213935258Y-108249500D01*
X213935250Y-108249500D01*
X213771755Y-108271025D01*
X213718715Y-108278009D01*
X213718709Y-108278009D01*
X213707764Y-108279451D01*
X213707760Y-108279452D01*
X213614076Y-108304553D01*
X213614076Y-108304554D01*
X213557651Y-108319672D01*
X213486107Y-108338843D01*
X213274117Y-108426652D01*
X213075388Y-108541388D01*
X213075371Y-108541399D01*
X212893342Y-108681077D01*
X212893332Y-108681086D01*
X212731086Y-108843332D01*
X212731077Y-108843342D01*
X212591399Y-109025371D01*
X212591388Y-109025388D01*
X212476652Y-109224117D01*
X212388845Y-109436102D01*
X212388842Y-109436112D01*
X212329453Y-109657759D01*
X212329452Y-109657763D01*
X212329450Y-109657773D01*
X212329448Y-109657789D01*
X212299500Y-109885258D01*
X159754500Y-109885258D01*
X159754500Y-103834290D01*
X212299500Y-103834290D01*
X212299500Y-106165708D01*
X212302401Y-106202565D01*
X212302403Y-106202579D01*
X212302404Y-106202583D01*
X212348252Y-106360392D01*
X212348554Y-106361041D01*
X212349959Y-106363276D01*
X212431914Y-106501856D01*
X212431918Y-106501863D01*
X212431927Y-106501874D01*
X212548132Y-106618079D01*
X212548139Y-106618083D01*
X212689603Y-106701744D01*
X212689604Y-106701744D01*
X212689607Y-106701746D01*
X212689609Y-106701746D01*
X212689630Y-106701759D01*
X212690420Y-106701982D01*
X212847426Y-106747597D01*
X212847429Y-106747597D01*
X212847431Y-106747598D01*
X212884306Y-106750500D01*
X212884314Y-106750500D01*
X215215686Y-106750500D01*
X215215694Y-106750500D01*
X215252569Y-106747598D01*
X215252571Y-106747597D01*
X215252573Y-106747597D01*
X215252575Y-106747596D01*
X215252591Y-106747595D01*
X215253293Y-106747396D01*
X215262175Y-106744927D01*
X215263367Y-106744461D01*
X215410392Y-106701746D01*
X215410392Y-106701745D01*
X215410397Y-106701744D01*
X215413277Y-106700041D01*
X215551864Y-106618081D01*
X215668081Y-106501864D01*
X215751744Y-106360397D01*
X215751745Y-106360393D01*
X215751746Y-106360392D01*
X215751748Y-106360382D01*
X215751877Y-106360072D01*
X215752383Y-106358196D01*
X215797597Y-106202573D01*
X215797598Y-106202567D01*
X215800192Y-106169594D01*
X215800275Y-106168854D01*
X215800500Y-106165692D01*
X215800500Y-103834313D01*
X215800499Y-103834298D01*
X215800498Y-103834290D01*
X215797598Y-103797431D01*
X215797597Y-103797426D01*
X215751746Y-103639607D01*
X215751744Y-103639604D01*
X215751744Y-103639603D01*
X215668081Y-103498136D01*
X215668080Y-103498135D01*
X215668079Y-103498133D01*
X215668076Y-103498129D01*
X215551874Y-103381927D01*
X215551863Y-103381918D01*
X215551856Y-103381914D01*
X215413276Y-103299959D01*
X215411041Y-103298554D01*
X215410392Y-103298252D01*
X215252583Y-103252404D01*
X215252579Y-103252403D01*
X215252573Y-103252402D01*
X215252567Y-103252401D01*
X215244374Y-103251756D01*
X215215708Y-103249500D01*
X215215701Y-103249500D01*
X215215694Y-103249500D01*
X212884306Y-103249500D01*
X212884298Y-103249500D01*
X212884290Y-103249500D01*
X212851528Y-103252078D01*
X212847432Y-103252401D01*
X212847426Y-103252402D01*
X212847419Y-103252403D01*
X212847415Y-103252404D01*
X212689606Y-103298252D01*
X212688954Y-103298556D01*
X212686722Y-103299959D01*
X212548142Y-103381914D01*
X212548135Y-103381918D01*
X212548124Y-103381927D01*
X212431927Y-103498124D01*
X212431918Y-103498135D01*
X212431914Y-103498142D01*
X212349959Y-103636722D01*
X212348556Y-103638954D01*
X212348252Y-103639606D01*
X212302404Y-103797415D01*
X212302403Y-103797419D01*
X212302401Y-103797433D01*
X212299500Y-103834290D01*
X159754500Y-103834290D01*
X159754500Y-97004036D01*
X159754529Y-97001372D01*
X159754589Y-96998582D01*
X159754676Y-96995968D01*
X159756710Y-96949378D01*
X159757459Y-96932211D01*
X159772205Y-96594453D01*
X159772556Y-96589111D01*
X159773031Y-96583685D01*
X159773610Y-96578406D01*
X159825542Y-96183942D01*
X159826354Y-96178670D01*
X159827296Y-96173327D01*
X159828338Y-96168086D01*
X159914449Y-95779664D01*
X159915733Y-95774419D01*
X159917120Y-95769243D01*
X159918633Y-95764052D01*
X160019230Y-95445000D01*
X160038256Y-95384653D01*
X160039980Y-95379573D01*
X160041839Y-95374466D01*
X160043768Y-95369505D01*
X160196021Y-95001932D01*
X160198188Y-94997009D01*
X160200482Y-94992088D01*
X160202843Y-94987302D01*
X160386553Y-94634399D01*
X160389132Y-94629698D01*
X160391830Y-94625028D01*
X160394623Y-94620426D01*
X160608362Y-94284924D01*
X160611353Y-94280446D01*
X160611358Y-94280439D01*
X160614448Y-94276024D01*
X160617616Y-94271701D01*
X160859836Y-93956035D01*
X160863179Y-93951872D01*
X160866670Y-93947710D01*
X160870192Y-93943694D01*
X161138970Y-93650376D01*
X161142665Y-93646516D01*
X161146516Y-93642665D01*
X161150376Y-93638970D01*
X161443694Y-93370192D01*
X161447710Y-93366670D01*
X161451876Y-93363175D01*
X161456035Y-93359836D01*
X161771701Y-93117616D01*
X161776024Y-93114448D01*
X161780449Y-93111350D01*
X161784924Y-93108362D01*
X162120426Y-92894623D01*
X162125039Y-92891823D01*
X162129698Y-92889132D01*
X162134399Y-92886553D01*
X162487302Y-92702843D01*
X162492099Y-92700478D01*
X162497024Y-92698181D01*
X162501932Y-92696021D01*
X162869505Y-92543768D01*
X162874466Y-92541839D01*
X162879573Y-92539980D01*
X162884653Y-92538256D01*
X163264069Y-92418627D01*
X163269243Y-92417120D01*
X163274419Y-92415733D01*
X163279664Y-92414449D01*
X163668086Y-92328338D01*
X163673327Y-92327296D01*
X163678671Y-92326354D01*
X163683942Y-92325542D01*
X164078406Y-92273610D01*
X164083685Y-92273031D01*
X164089137Y-92272554D01*
X164094453Y-92272205D01*
X164485134Y-92255149D01*
X164491129Y-92254887D01*
X164495979Y-92254676D01*
X164498584Y-92254589D01*
X164501419Y-92254528D01*
X164504036Y-92254500D01*
X168331000Y-92254500D01*
X168398039Y-92274185D01*
G37*
%TD.AperFunction*%
%TD*%
M02*
