%TF.GenerationSoftware,KiCad,Pcbnew,10.0.0*%
%TF.CreationDate,2026-04-14T00:47:31+02:00*%
%TF.ProjectId,Neon_2x1M_12V_V2_0,4e656f6e-5f32-4783-914d-5f3132565f56,REV 2.0*%
%TF.SameCoordinates,Original*%
%TF.FileFunction,Soldermask,Bot*%
%TF.FilePolarity,Negative*%
%FSLAX46Y46*%
G04 Gerber Fmt 4.6, Leading zero omitted, Abs format (unit mm)*
G04 Created by KiCad (PCBNEW 10.0.0) date 2026-04-14 00:47:31*
%MOMM*%
%LPD*%
G01*
G04 APERTURE LIST*
G04 Aperture macros list*
%AMRoundRect*
0 Rectangle with rounded corners*
0 $1 Rounding radius*
0 $2 $3 $4 $5 $6 $7 $8 $9 X,Y pos of 4 corners*
0 Add a 4 corners polygon primitive as box body*
4,1,4,$2,$3,$4,$5,$6,$7,$8,$9,$2,$3,0*
0 Add four circle primitives for the rounded corners*
1,1,$1+$1,$2,$3*
1,1,$1+$1,$4,$5*
1,1,$1+$1,$6,$7*
1,1,$1+$1,$8,$9*
0 Add four rect primitives between the rounded corners*
20,1,$1+$1,$2,$3,$4,$5,0*
20,1,$1+$1,$4,$5,$6,$7,0*
20,1,$1+$1,$6,$7,$8,$9,0*
20,1,$1+$1,$8,$9,$2,$3,0*%
G04 Aperture macros list end*
%ADD10RoundRect,0.250001X-1.099999X1.099999X-1.099999X-1.099999X1.099999X-1.099999X1.099999X1.099999X0*%
%ADD11C,2.700000*%
%ADD12R,1.700000X1.700000*%
%ADD13C,1.700000*%
%ADD14C,0.800000*%
%ADD15C,6.400000*%
%ADD16R,1.800000X1.800000*%
%ADD17C,1.800000*%
%ADD18R,3.500000X3.500000*%
%ADD19RoundRect,0.750000X0.750000X1.000000X-0.750000X1.000000X-0.750000X-1.000000X0.750000X-1.000000X0*%
%ADD20RoundRect,0.875000X0.875000X0.875000X-0.875000X0.875000X-0.875000X-0.875000X0.875000X-0.875000X0*%
G04 APERTURE END LIST*
D10*
%TO.C,J8*%
X214050000Y-120000000D03*
D11*
X214050000Y-125000000D03*
%TD*%
D12*
%TO.C,J6*%
X201301181Y-94095000D03*
D13*
X198761181Y-94095000D03*
X196221181Y-94095000D03*
%TD*%
D14*
%TO.C,H4*%
X212100000Y-95500000D03*
X212802944Y-93802944D03*
X212802944Y-97197056D03*
X214500000Y-93100000D03*
D15*
X214500000Y-95500000D03*
D14*
X214500000Y-97900000D03*
X216197056Y-93802944D03*
X216197056Y-97197056D03*
X216900000Y-95500000D03*
%TD*%
%TO.C,H2*%
X162100000Y-95500000D03*
X162802944Y-93802944D03*
X162802944Y-97197056D03*
X164500000Y-93100000D03*
D15*
X164500000Y-95500000D03*
D14*
X164500000Y-97900000D03*
X166197056Y-93802944D03*
X166197056Y-97197056D03*
X166900000Y-95500000D03*
%TD*%
D16*
%TO.C,U3*%
X195150000Y-137500000D03*
D17*
X191450000Y-135800000D03*
X195150000Y-134100000D03*
X191450000Y-132400000D03*
X195150000Y-130700000D03*
%TD*%
D10*
%TO.C,J7*%
X214050000Y-105000000D03*
D11*
X214050000Y-110000000D03*
%TD*%
D18*
%TO.C,J2*%
X206500000Y-138457500D03*
D19*
X212500000Y-138457500D03*
D20*
X209500000Y-133757500D03*
%TD*%
D14*
%TO.C,H3*%
X212100000Y-148000000D03*
X212802944Y-146302944D03*
X212802944Y-149697056D03*
X214500000Y-145600000D03*
D15*
X214500000Y-148000000D03*
D14*
X214500000Y-150400000D03*
X216197056Y-146302944D03*
X216197056Y-149697056D03*
X216900000Y-148000000D03*
%TD*%
%TO.C,H1*%
X162100000Y-148000000D03*
X162802944Y-146302944D03*
X162802944Y-149697056D03*
X164500000Y-145600000D03*
D15*
X164500000Y-148000000D03*
D14*
X164500000Y-150400000D03*
X166197056Y-146302944D03*
X166197056Y-149697056D03*
X166900000Y-148000000D03*
%TD*%
M02*
