%TF.GenerationSoftware,KiCad,Pcbnew,9.0.2*%
%TF.CreationDate,2025-11-11T23:34:30+02:00*%
%TF.ProjectId,Neon_2x1M_12V,4e656f6e-5f32-4783-914d-5f3132562e6b,REV1_1*%
%TF.SameCoordinates,Original*%
%TF.FileFunction,Legend,Top*%
%TF.FilePolarity,Positive*%
%FSLAX46Y46*%
G04 Gerber Fmt 4.6, Leading zero omitted, Abs format (unit mm)*
G04 Created by KiCad (PCBNEW 9.0.2) date 2025-11-11 23:34:30*
%MOMM*%
%LPD*%
G01*
G04 APERTURE LIST*
%ADD10C,0.400000*%
%ADD11C,0.127000*%
%ADD12C,0.150000*%
%ADD13C,0.120000*%
%ADD14C,0.152400*%
%ADD15C,0.000000*%
G04 APERTURE END LIST*
D10*
X166739347Y-74686819D02*
X167406014Y-74686819D01*
X167691728Y-75734438D02*
X166739347Y-75734438D01*
X166739347Y-75734438D02*
X166739347Y-73734438D01*
X166739347Y-73734438D02*
X167691728Y-73734438D01*
X169977443Y-75163009D02*
X170929824Y-75163009D01*
X169786967Y-75734438D02*
X170453633Y-73734438D01*
X170453633Y-73734438D02*
X171120300Y-75734438D01*
X172644110Y-75734438D02*
X172644110Y-73734438D01*
X172644110Y-75639200D02*
X172453634Y-75734438D01*
X172453634Y-75734438D02*
X172072681Y-75734438D01*
X172072681Y-75734438D02*
X171882205Y-75639200D01*
X171882205Y-75639200D02*
X171786967Y-75543961D01*
X171786967Y-75543961D02*
X171691729Y-75353485D01*
X171691729Y-75353485D02*
X171691729Y-74782057D01*
X171691729Y-74782057D02*
X171786967Y-74591580D01*
X171786967Y-74591580D02*
X171882205Y-74496342D01*
X171882205Y-74496342D02*
X172072681Y-74401104D01*
X172072681Y-74401104D02*
X172453634Y-74401104D01*
X172453634Y-74401104D02*
X172644110Y-74496342D01*
X174358396Y-75639200D02*
X174167920Y-75734438D01*
X174167920Y-75734438D02*
X173786967Y-75734438D01*
X173786967Y-75734438D02*
X173596491Y-75639200D01*
X173596491Y-75639200D02*
X173501253Y-75448723D01*
X173501253Y-75448723D02*
X173501253Y-74686819D01*
X173501253Y-74686819D02*
X173596491Y-74496342D01*
X173596491Y-74496342D02*
X173786967Y-74401104D01*
X173786967Y-74401104D02*
X174167920Y-74401104D01*
X174167920Y-74401104D02*
X174358396Y-74496342D01*
X174358396Y-74496342D02*
X174453634Y-74686819D01*
X174453634Y-74686819D02*
X174453634Y-74877295D01*
X174453634Y-74877295D02*
X173501253Y-75067771D01*
X175596491Y-75734438D02*
X175406015Y-75639200D01*
X175406015Y-75639200D02*
X175310777Y-75448723D01*
X175310777Y-75448723D02*
X175310777Y-73734438D01*
D11*
X139210143Y-57295911D02*
X138956143Y-56933054D01*
X138774714Y-57295911D02*
X138774714Y-56533911D01*
X138774714Y-56533911D02*
X139065000Y-56533911D01*
X139065000Y-56533911D02*
X139137571Y-56570197D01*
X139137571Y-56570197D02*
X139173857Y-56606483D01*
X139173857Y-56606483D02*
X139210143Y-56679054D01*
X139210143Y-56679054D02*
X139210143Y-56787911D01*
X139210143Y-56787911D02*
X139173857Y-56860483D01*
X139173857Y-56860483D02*
X139137571Y-56896768D01*
X139137571Y-56896768D02*
X139065000Y-56933054D01*
X139065000Y-56933054D02*
X138774714Y-56933054D01*
X139935857Y-57295911D02*
X139500428Y-57295911D01*
X139718143Y-57295911D02*
X139718143Y-56533911D01*
X139718143Y-56533911D02*
X139645571Y-56642768D01*
X139645571Y-56642768D02*
X139573000Y-56715340D01*
X139573000Y-56715340D02*
X139500428Y-56751626D01*
X140189857Y-56533911D02*
X140697857Y-56533911D01*
X140697857Y-56533911D02*
X140371285Y-57295911D01*
X129610143Y-53615911D02*
X129356143Y-53253054D01*
X129174714Y-53615911D02*
X129174714Y-52853911D01*
X129174714Y-52853911D02*
X129465000Y-52853911D01*
X129465000Y-52853911D02*
X129537571Y-52890197D01*
X129537571Y-52890197D02*
X129573857Y-52926483D01*
X129573857Y-52926483D02*
X129610143Y-52999054D01*
X129610143Y-52999054D02*
X129610143Y-53107911D01*
X129610143Y-53107911D02*
X129573857Y-53180483D01*
X129573857Y-53180483D02*
X129537571Y-53216768D01*
X129537571Y-53216768D02*
X129465000Y-53253054D01*
X129465000Y-53253054D02*
X129174714Y-53253054D01*
X130335857Y-53615911D02*
X129900428Y-53615911D01*
X130118143Y-53615911D02*
X130118143Y-52853911D01*
X130118143Y-52853911D02*
X130045571Y-52962768D01*
X130045571Y-52962768D02*
X129973000Y-53035340D01*
X129973000Y-53035340D02*
X129900428Y-53071626D01*
X130626142Y-52926483D02*
X130662428Y-52890197D01*
X130662428Y-52890197D02*
X130735000Y-52853911D01*
X130735000Y-52853911D02*
X130916428Y-52853911D01*
X130916428Y-52853911D02*
X130989000Y-52890197D01*
X130989000Y-52890197D02*
X131025285Y-52926483D01*
X131025285Y-52926483D02*
X131061571Y-52999054D01*
X131061571Y-52999054D02*
X131061571Y-53071626D01*
X131061571Y-53071626D02*
X131025285Y-53180483D01*
X131025285Y-53180483D02*
X130589857Y-53615911D01*
X130589857Y-53615911D02*
X131061571Y-53615911D01*
X129454088Y-73873000D02*
X129454088Y-73510143D01*
X129454088Y-73510143D02*
X130216088Y-73510143D01*
X129454088Y-74526143D02*
X129454088Y-74090714D01*
X129454088Y-74308429D02*
X130216088Y-74308429D01*
X130216088Y-74308429D02*
X130107231Y-74235857D01*
X130107231Y-74235857D02*
X130034659Y-74163286D01*
X130034659Y-74163286D02*
X129998374Y-74090714D01*
D12*
X171394819Y-39833333D02*
X172109104Y-39833333D01*
X172109104Y-39833333D02*
X172251961Y-39880952D01*
X172251961Y-39880952D02*
X172347200Y-39976190D01*
X172347200Y-39976190D02*
X172394819Y-40119047D01*
X172394819Y-40119047D02*
X172394819Y-40214285D01*
X171394819Y-38928571D02*
X171394819Y-39119047D01*
X171394819Y-39119047D02*
X171442438Y-39214285D01*
X171442438Y-39214285D02*
X171490057Y-39261904D01*
X171490057Y-39261904D02*
X171632914Y-39357142D01*
X171632914Y-39357142D02*
X171823390Y-39404761D01*
X171823390Y-39404761D02*
X172204342Y-39404761D01*
X172204342Y-39404761D02*
X172299580Y-39357142D01*
X172299580Y-39357142D02*
X172347200Y-39309523D01*
X172347200Y-39309523D02*
X172394819Y-39214285D01*
X172394819Y-39214285D02*
X172394819Y-39023809D01*
X172394819Y-39023809D02*
X172347200Y-38928571D01*
X172347200Y-38928571D02*
X172299580Y-38880952D01*
X172299580Y-38880952D02*
X172204342Y-38833333D01*
X172204342Y-38833333D02*
X171966247Y-38833333D01*
X171966247Y-38833333D02*
X171871009Y-38880952D01*
X171871009Y-38880952D02*
X171823390Y-38928571D01*
X171823390Y-38928571D02*
X171775771Y-39023809D01*
X171775771Y-39023809D02*
X171775771Y-39214285D01*
X171775771Y-39214285D02*
X171823390Y-39309523D01*
X171823390Y-39309523D02*
X171871009Y-39357142D01*
X171871009Y-39357142D02*
X171966247Y-39404761D01*
D11*
X134327428Y-48868483D02*
X134254857Y-48832197D01*
X134254857Y-48832197D02*
X134182285Y-48759626D01*
X134182285Y-48759626D02*
X134073428Y-48650768D01*
X134073428Y-48650768D02*
X134000857Y-48614483D01*
X134000857Y-48614483D02*
X133928285Y-48614483D01*
X133964571Y-48795911D02*
X133892000Y-48759626D01*
X133892000Y-48759626D02*
X133819428Y-48687054D01*
X133819428Y-48687054D02*
X133783142Y-48541911D01*
X133783142Y-48541911D02*
X133783142Y-48287911D01*
X133783142Y-48287911D02*
X133819428Y-48142768D01*
X133819428Y-48142768D02*
X133892000Y-48070197D01*
X133892000Y-48070197D02*
X133964571Y-48033911D01*
X133964571Y-48033911D02*
X134109714Y-48033911D01*
X134109714Y-48033911D02*
X134182285Y-48070197D01*
X134182285Y-48070197D02*
X134254857Y-48142768D01*
X134254857Y-48142768D02*
X134291142Y-48287911D01*
X134291142Y-48287911D02*
X134291142Y-48541911D01*
X134291142Y-48541911D02*
X134254857Y-48687054D01*
X134254857Y-48687054D02*
X134182285Y-48759626D01*
X134182285Y-48759626D02*
X134109714Y-48795911D01*
X134109714Y-48795911D02*
X133964571Y-48795911D01*
X134944286Y-48287911D02*
X134944286Y-48795911D01*
X134762857Y-47997626D02*
X134581428Y-48541911D01*
X134581428Y-48541911D02*
X135053143Y-48541911D01*
X171773000Y-43575911D02*
X171519000Y-43213054D01*
X171337571Y-43575911D02*
X171337571Y-42813911D01*
X171337571Y-42813911D02*
X171627857Y-42813911D01*
X171627857Y-42813911D02*
X171700428Y-42850197D01*
X171700428Y-42850197D02*
X171736714Y-42886483D01*
X171736714Y-42886483D02*
X171773000Y-42959054D01*
X171773000Y-42959054D02*
X171773000Y-43067911D01*
X171773000Y-43067911D02*
X171736714Y-43140483D01*
X171736714Y-43140483D02*
X171700428Y-43176768D01*
X171700428Y-43176768D02*
X171627857Y-43213054D01*
X171627857Y-43213054D02*
X171337571Y-43213054D01*
X172462428Y-42813911D02*
X172099571Y-42813911D01*
X172099571Y-42813911D02*
X172063285Y-43176768D01*
X172063285Y-43176768D02*
X172099571Y-43140483D01*
X172099571Y-43140483D02*
X172172143Y-43104197D01*
X172172143Y-43104197D02*
X172353571Y-43104197D01*
X172353571Y-43104197D02*
X172426143Y-43140483D01*
X172426143Y-43140483D02*
X172462428Y-43176768D01*
X172462428Y-43176768D02*
X172498714Y-43249340D01*
X172498714Y-43249340D02*
X172498714Y-43430768D01*
X172498714Y-43430768D02*
X172462428Y-43503340D01*
X172462428Y-43503340D02*
X172426143Y-43539626D01*
X172426143Y-43539626D02*
X172353571Y-43575911D01*
X172353571Y-43575911D02*
X172172143Y-43575911D01*
X172172143Y-43575911D02*
X172099571Y-43539626D01*
X172099571Y-43539626D02*
X172063285Y-43503340D01*
X168115911Y-45526999D02*
X167753054Y-45780999D01*
X168115911Y-45962428D02*
X167353911Y-45962428D01*
X167353911Y-45962428D02*
X167353911Y-45672142D01*
X167353911Y-45672142D02*
X167390197Y-45599571D01*
X167390197Y-45599571D02*
X167426483Y-45563285D01*
X167426483Y-45563285D02*
X167499054Y-45526999D01*
X167499054Y-45526999D02*
X167607911Y-45526999D01*
X167607911Y-45526999D02*
X167680483Y-45563285D01*
X167680483Y-45563285D02*
X167716768Y-45599571D01*
X167716768Y-45599571D02*
X167753054Y-45672142D01*
X167753054Y-45672142D02*
X167753054Y-45962428D01*
X167426483Y-45236714D02*
X167390197Y-45200428D01*
X167390197Y-45200428D02*
X167353911Y-45127857D01*
X167353911Y-45127857D02*
X167353911Y-44946428D01*
X167353911Y-44946428D02*
X167390197Y-44873857D01*
X167390197Y-44873857D02*
X167426483Y-44837571D01*
X167426483Y-44837571D02*
X167499054Y-44801285D01*
X167499054Y-44801285D02*
X167571626Y-44801285D01*
X167571626Y-44801285D02*
X167680483Y-44837571D01*
X167680483Y-44837571D02*
X168115911Y-45272999D01*
X168115911Y-45272999D02*
X168115911Y-44801285D01*
X122183911Y-65580571D02*
X122800768Y-65580571D01*
X122800768Y-65580571D02*
X122873340Y-65544285D01*
X122873340Y-65544285D02*
X122909626Y-65508000D01*
X122909626Y-65508000D02*
X122945911Y-65435428D01*
X122945911Y-65435428D02*
X122945911Y-65290285D01*
X122945911Y-65290285D02*
X122909626Y-65217714D01*
X122909626Y-65217714D02*
X122873340Y-65181428D01*
X122873340Y-65181428D02*
X122800768Y-65145142D01*
X122800768Y-65145142D02*
X122183911Y-65145142D01*
X122256483Y-64818571D02*
X122220197Y-64782285D01*
X122220197Y-64782285D02*
X122183911Y-64709714D01*
X122183911Y-64709714D02*
X122183911Y-64528285D01*
X122183911Y-64528285D02*
X122220197Y-64455714D01*
X122220197Y-64455714D02*
X122256483Y-64419428D01*
X122256483Y-64419428D02*
X122329054Y-64383142D01*
X122329054Y-64383142D02*
X122401626Y-64383142D01*
X122401626Y-64383142D02*
X122510483Y-64419428D01*
X122510483Y-64419428D02*
X122945911Y-64854856D01*
X122945911Y-64854856D02*
X122945911Y-64383142D01*
X126123340Y-57626999D02*
X126159626Y-57663285D01*
X126159626Y-57663285D02*
X126195911Y-57772142D01*
X126195911Y-57772142D02*
X126195911Y-57844714D01*
X126195911Y-57844714D02*
X126159626Y-57953571D01*
X126159626Y-57953571D02*
X126087054Y-58026142D01*
X126087054Y-58026142D02*
X126014483Y-58062428D01*
X126014483Y-58062428D02*
X125869340Y-58098714D01*
X125869340Y-58098714D02*
X125760483Y-58098714D01*
X125760483Y-58098714D02*
X125615340Y-58062428D01*
X125615340Y-58062428D02*
X125542768Y-58026142D01*
X125542768Y-58026142D02*
X125470197Y-57953571D01*
X125470197Y-57953571D02*
X125433911Y-57844714D01*
X125433911Y-57844714D02*
X125433911Y-57772142D01*
X125433911Y-57772142D02*
X125470197Y-57663285D01*
X125470197Y-57663285D02*
X125506483Y-57626999D01*
X126195911Y-56901285D02*
X126195911Y-57336714D01*
X126195911Y-57118999D02*
X125433911Y-57118999D01*
X125433911Y-57118999D02*
X125542768Y-57191571D01*
X125542768Y-57191571D02*
X125615340Y-57264142D01*
X125615340Y-57264142D02*
X125651626Y-57336714D01*
X130645911Y-63626999D02*
X130283054Y-63880999D01*
X130645911Y-64062428D02*
X129883911Y-64062428D01*
X129883911Y-64062428D02*
X129883911Y-63772142D01*
X129883911Y-63772142D02*
X129920197Y-63699571D01*
X129920197Y-63699571D02*
X129956483Y-63663285D01*
X129956483Y-63663285D02*
X130029054Y-63626999D01*
X130029054Y-63626999D02*
X130137911Y-63626999D01*
X130137911Y-63626999D02*
X130210483Y-63663285D01*
X130210483Y-63663285D02*
X130246768Y-63699571D01*
X130246768Y-63699571D02*
X130283054Y-63772142D01*
X130283054Y-63772142D02*
X130283054Y-64062428D01*
X130645911Y-62901285D02*
X130645911Y-63336714D01*
X130645911Y-63118999D02*
X129883911Y-63118999D01*
X129883911Y-63118999D02*
X129992768Y-63191571D01*
X129992768Y-63191571D02*
X130065340Y-63264142D01*
X130065340Y-63264142D02*
X130101626Y-63336714D01*
X137473000Y-66773340D02*
X137436714Y-66809626D01*
X137436714Y-66809626D02*
X137327857Y-66845911D01*
X137327857Y-66845911D02*
X137255285Y-66845911D01*
X137255285Y-66845911D02*
X137146428Y-66809626D01*
X137146428Y-66809626D02*
X137073857Y-66737054D01*
X137073857Y-66737054D02*
X137037571Y-66664483D01*
X137037571Y-66664483D02*
X137001285Y-66519340D01*
X137001285Y-66519340D02*
X137001285Y-66410483D01*
X137001285Y-66410483D02*
X137037571Y-66265340D01*
X137037571Y-66265340D02*
X137073857Y-66192768D01*
X137073857Y-66192768D02*
X137146428Y-66120197D01*
X137146428Y-66120197D02*
X137255285Y-66083911D01*
X137255285Y-66083911D02*
X137327857Y-66083911D01*
X137327857Y-66083911D02*
X137436714Y-66120197D01*
X137436714Y-66120197D02*
X137473000Y-66156483D01*
X137727000Y-66083911D02*
X138198714Y-66083911D01*
X138198714Y-66083911D02*
X137944714Y-66374197D01*
X137944714Y-66374197D02*
X138053571Y-66374197D01*
X138053571Y-66374197D02*
X138126143Y-66410483D01*
X138126143Y-66410483D02*
X138162428Y-66446768D01*
X138162428Y-66446768D02*
X138198714Y-66519340D01*
X138198714Y-66519340D02*
X138198714Y-66700768D01*
X138198714Y-66700768D02*
X138162428Y-66773340D01*
X138162428Y-66773340D02*
X138126143Y-66809626D01*
X138126143Y-66809626D02*
X138053571Y-66845911D01*
X138053571Y-66845911D02*
X137835857Y-66845911D01*
X137835857Y-66845911D02*
X137763285Y-66809626D01*
X137763285Y-66809626D02*
X137727000Y-66773340D01*
X140210143Y-50695911D02*
X139956143Y-50333054D01*
X139774714Y-50695911D02*
X139774714Y-49933911D01*
X139774714Y-49933911D02*
X140065000Y-49933911D01*
X140065000Y-49933911D02*
X140137571Y-49970197D01*
X140137571Y-49970197D02*
X140173857Y-50006483D01*
X140173857Y-50006483D02*
X140210143Y-50079054D01*
X140210143Y-50079054D02*
X140210143Y-50187911D01*
X140210143Y-50187911D02*
X140173857Y-50260483D01*
X140173857Y-50260483D02*
X140137571Y-50296768D01*
X140137571Y-50296768D02*
X140065000Y-50333054D01*
X140065000Y-50333054D02*
X139774714Y-50333054D01*
X140935857Y-50695911D02*
X140500428Y-50695911D01*
X140718143Y-50695911D02*
X140718143Y-49933911D01*
X140718143Y-49933911D02*
X140645571Y-50042768D01*
X140645571Y-50042768D02*
X140573000Y-50115340D01*
X140573000Y-50115340D02*
X140500428Y-50151626D01*
X141589000Y-49933911D02*
X141443857Y-49933911D01*
X141443857Y-49933911D02*
X141371285Y-49970197D01*
X141371285Y-49970197D02*
X141335000Y-50006483D01*
X141335000Y-50006483D02*
X141262428Y-50115340D01*
X141262428Y-50115340D02*
X141226142Y-50260483D01*
X141226142Y-50260483D02*
X141226142Y-50550768D01*
X141226142Y-50550768D02*
X141262428Y-50623340D01*
X141262428Y-50623340D02*
X141298714Y-50659626D01*
X141298714Y-50659626D02*
X141371285Y-50695911D01*
X141371285Y-50695911D02*
X141516428Y-50695911D01*
X141516428Y-50695911D02*
X141589000Y-50659626D01*
X141589000Y-50659626D02*
X141625285Y-50623340D01*
X141625285Y-50623340D02*
X141661571Y-50550768D01*
X141661571Y-50550768D02*
X141661571Y-50369340D01*
X141661571Y-50369340D02*
X141625285Y-50296768D01*
X141625285Y-50296768D02*
X141589000Y-50260483D01*
X141589000Y-50260483D02*
X141516428Y-50224197D01*
X141516428Y-50224197D02*
X141371285Y-50224197D01*
X141371285Y-50224197D02*
X141298714Y-50260483D01*
X141298714Y-50260483D02*
X141262428Y-50296768D01*
X141262428Y-50296768D02*
X141226142Y-50369340D01*
X152837571Y-57358411D02*
X152837571Y-56596411D01*
X152837571Y-56596411D02*
X153019000Y-56596411D01*
X153019000Y-56596411D02*
X153127857Y-56632697D01*
X153127857Y-56632697D02*
X153200428Y-56705268D01*
X153200428Y-56705268D02*
X153236714Y-56777840D01*
X153236714Y-56777840D02*
X153273000Y-56922983D01*
X153273000Y-56922983D02*
X153273000Y-57031840D01*
X153273000Y-57031840D02*
X153236714Y-57176983D01*
X153236714Y-57176983D02*
X153200428Y-57249554D01*
X153200428Y-57249554D02*
X153127857Y-57322126D01*
X153127857Y-57322126D02*
X153019000Y-57358411D01*
X153019000Y-57358411D02*
X152837571Y-57358411D01*
X153962428Y-56596411D02*
X153599571Y-56596411D01*
X153599571Y-56596411D02*
X153563285Y-56959268D01*
X153563285Y-56959268D02*
X153599571Y-56922983D01*
X153599571Y-56922983D02*
X153672143Y-56886697D01*
X153672143Y-56886697D02*
X153853571Y-56886697D01*
X153853571Y-56886697D02*
X153926143Y-56922983D01*
X153926143Y-56922983D02*
X153962428Y-56959268D01*
X153962428Y-56959268D02*
X153998714Y-57031840D01*
X153998714Y-57031840D02*
X153998714Y-57213268D01*
X153998714Y-57213268D02*
X153962428Y-57285840D01*
X153962428Y-57285840D02*
X153926143Y-57322126D01*
X153926143Y-57322126D02*
X153853571Y-57358411D01*
X153853571Y-57358411D02*
X153672143Y-57358411D01*
X153672143Y-57358411D02*
X153599571Y-57322126D01*
X153599571Y-57322126D02*
X153563285Y-57285840D01*
X140845311Y-41616122D02*
X140772740Y-41579836D01*
X140772740Y-41579836D02*
X140700168Y-41507265D01*
X140700168Y-41507265D02*
X140591311Y-41398407D01*
X140591311Y-41398407D02*
X140518740Y-41362122D01*
X140518740Y-41362122D02*
X140446168Y-41362122D01*
X140482454Y-41543550D02*
X140409883Y-41507265D01*
X140409883Y-41507265D02*
X140337311Y-41434693D01*
X140337311Y-41434693D02*
X140301025Y-41289550D01*
X140301025Y-41289550D02*
X140301025Y-41035550D01*
X140301025Y-41035550D02*
X140337311Y-40890407D01*
X140337311Y-40890407D02*
X140409883Y-40817836D01*
X140409883Y-40817836D02*
X140482454Y-40781550D01*
X140482454Y-40781550D02*
X140627597Y-40781550D01*
X140627597Y-40781550D02*
X140700168Y-40817836D01*
X140700168Y-40817836D02*
X140772740Y-40890407D01*
X140772740Y-40890407D02*
X140809025Y-41035550D01*
X140809025Y-41035550D02*
X140809025Y-41289550D01*
X140809025Y-41289550D02*
X140772740Y-41434693D01*
X140772740Y-41434693D02*
X140700168Y-41507265D01*
X140700168Y-41507265D02*
X140627597Y-41543550D01*
X140627597Y-41543550D02*
X140482454Y-41543550D01*
X141063026Y-40781550D02*
X141534740Y-40781550D01*
X141534740Y-40781550D02*
X141280740Y-41071836D01*
X141280740Y-41071836D02*
X141389597Y-41071836D01*
X141389597Y-41071836D02*
X141462169Y-41108122D01*
X141462169Y-41108122D02*
X141498454Y-41144407D01*
X141498454Y-41144407D02*
X141534740Y-41216979D01*
X141534740Y-41216979D02*
X141534740Y-41398407D01*
X141534740Y-41398407D02*
X141498454Y-41470979D01*
X141498454Y-41470979D02*
X141462169Y-41507265D01*
X141462169Y-41507265D02*
X141389597Y-41543550D01*
X141389597Y-41543550D02*
X141171883Y-41543550D01*
X141171883Y-41543550D02*
X141099311Y-41507265D01*
X141099311Y-41507265D02*
X141063026Y-41470979D01*
X123239714Y-41505911D02*
X123239714Y-40743911D01*
X123239714Y-40743911D02*
X123421143Y-40743911D01*
X123421143Y-40743911D02*
X123530000Y-40780197D01*
X123530000Y-40780197D02*
X123602571Y-40852768D01*
X123602571Y-40852768D02*
X123638857Y-40925340D01*
X123638857Y-40925340D02*
X123675143Y-41070483D01*
X123675143Y-41070483D02*
X123675143Y-41179340D01*
X123675143Y-41179340D02*
X123638857Y-41324483D01*
X123638857Y-41324483D02*
X123602571Y-41397054D01*
X123602571Y-41397054D02*
X123530000Y-41469626D01*
X123530000Y-41469626D02*
X123421143Y-41505911D01*
X123421143Y-41505911D02*
X123239714Y-41505911D01*
X124400857Y-41505911D02*
X123965428Y-41505911D01*
X124183143Y-41505911D02*
X124183143Y-40743911D01*
X124183143Y-40743911D02*
X124110571Y-40852768D01*
X124110571Y-40852768D02*
X124038000Y-40925340D01*
X124038000Y-40925340D02*
X123965428Y-40961626D01*
X125126571Y-41505911D02*
X124691142Y-41505911D01*
X124908857Y-41505911D02*
X124908857Y-40743911D01*
X124908857Y-40743911D02*
X124836285Y-40852768D01*
X124836285Y-40852768D02*
X124763714Y-40925340D01*
X124763714Y-40925340D02*
X124691142Y-40961626D01*
X180896000Y-58591411D02*
X180896000Y-59135697D01*
X180896000Y-59135697D02*
X180859715Y-59244554D01*
X180859715Y-59244554D02*
X180787143Y-59317126D01*
X180787143Y-59317126D02*
X180678286Y-59353411D01*
X180678286Y-59353411D02*
X180605715Y-59353411D01*
X181585429Y-58845411D02*
X181585429Y-59353411D01*
X181404000Y-58555126D02*
X181222571Y-59099411D01*
X181222571Y-59099411D02*
X181694286Y-59099411D01*
X131110143Y-41195911D02*
X130856143Y-40833054D01*
X130674714Y-41195911D02*
X130674714Y-40433911D01*
X130674714Y-40433911D02*
X130965000Y-40433911D01*
X130965000Y-40433911D02*
X131037571Y-40470197D01*
X131037571Y-40470197D02*
X131073857Y-40506483D01*
X131073857Y-40506483D02*
X131110143Y-40579054D01*
X131110143Y-40579054D02*
X131110143Y-40687911D01*
X131110143Y-40687911D02*
X131073857Y-40760483D01*
X131073857Y-40760483D02*
X131037571Y-40796768D01*
X131037571Y-40796768D02*
X130965000Y-40833054D01*
X130965000Y-40833054D02*
X130674714Y-40833054D01*
X131835857Y-41195911D02*
X131400428Y-41195911D01*
X131618143Y-41195911D02*
X131618143Y-40433911D01*
X131618143Y-40433911D02*
X131545571Y-40542768D01*
X131545571Y-40542768D02*
X131473000Y-40615340D01*
X131473000Y-40615340D02*
X131400428Y-40651626D01*
X132198714Y-41195911D02*
X132343857Y-41195911D01*
X132343857Y-41195911D02*
X132416428Y-41159626D01*
X132416428Y-41159626D02*
X132452714Y-41123340D01*
X132452714Y-41123340D02*
X132525285Y-41014483D01*
X132525285Y-41014483D02*
X132561571Y-40869340D01*
X132561571Y-40869340D02*
X132561571Y-40579054D01*
X132561571Y-40579054D02*
X132525285Y-40506483D01*
X132525285Y-40506483D02*
X132489000Y-40470197D01*
X132489000Y-40470197D02*
X132416428Y-40433911D01*
X132416428Y-40433911D02*
X132271285Y-40433911D01*
X132271285Y-40433911D02*
X132198714Y-40470197D01*
X132198714Y-40470197D02*
X132162428Y-40506483D01*
X132162428Y-40506483D02*
X132126142Y-40579054D01*
X132126142Y-40579054D02*
X132126142Y-40760483D01*
X132126142Y-40760483D02*
X132162428Y-40833054D01*
X132162428Y-40833054D02*
X132198714Y-40869340D01*
X132198714Y-40869340D02*
X132271285Y-40905626D01*
X132271285Y-40905626D02*
X132416428Y-40905626D01*
X132416428Y-40905626D02*
X132489000Y-40869340D01*
X132489000Y-40869340D02*
X132525285Y-40833054D01*
X132525285Y-40833054D02*
X132561571Y-40760483D01*
X116537571Y-72845911D02*
X116537571Y-72083911D01*
X116537571Y-72083911D02*
X116719000Y-72083911D01*
X116719000Y-72083911D02*
X116827857Y-72120197D01*
X116827857Y-72120197D02*
X116900428Y-72192768D01*
X116900428Y-72192768D02*
X116936714Y-72265340D01*
X116936714Y-72265340D02*
X116973000Y-72410483D01*
X116973000Y-72410483D02*
X116973000Y-72519340D01*
X116973000Y-72519340D02*
X116936714Y-72664483D01*
X116936714Y-72664483D02*
X116900428Y-72737054D01*
X116900428Y-72737054D02*
X116827857Y-72809626D01*
X116827857Y-72809626D02*
X116719000Y-72845911D01*
X116719000Y-72845911D02*
X116537571Y-72845911D01*
X117698714Y-72845911D02*
X117263285Y-72845911D01*
X117481000Y-72845911D02*
X117481000Y-72083911D01*
X117481000Y-72083911D02*
X117408428Y-72192768D01*
X117408428Y-72192768D02*
X117335857Y-72265340D01*
X117335857Y-72265340D02*
X117263285Y-72301626D01*
X136810143Y-53765911D02*
X136556143Y-53403054D01*
X136374714Y-53765911D02*
X136374714Y-53003911D01*
X136374714Y-53003911D02*
X136665000Y-53003911D01*
X136665000Y-53003911D02*
X136737571Y-53040197D01*
X136737571Y-53040197D02*
X136773857Y-53076483D01*
X136773857Y-53076483D02*
X136810143Y-53149054D01*
X136810143Y-53149054D02*
X136810143Y-53257911D01*
X136810143Y-53257911D02*
X136773857Y-53330483D01*
X136773857Y-53330483D02*
X136737571Y-53366768D01*
X136737571Y-53366768D02*
X136665000Y-53403054D01*
X136665000Y-53403054D02*
X136374714Y-53403054D01*
X137535857Y-53765911D02*
X137100428Y-53765911D01*
X137318143Y-53765911D02*
X137318143Y-53003911D01*
X137318143Y-53003911D02*
X137245571Y-53112768D01*
X137245571Y-53112768D02*
X137173000Y-53185340D01*
X137173000Y-53185340D02*
X137100428Y-53221626D01*
X138261571Y-53765911D02*
X137826142Y-53765911D01*
X138043857Y-53765911D02*
X138043857Y-53003911D01*
X138043857Y-53003911D02*
X137971285Y-53112768D01*
X137971285Y-53112768D02*
X137898714Y-53185340D01*
X137898714Y-53185340D02*
X137826142Y-53221626D01*
X129027428Y-48868483D02*
X128954857Y-48832197D01*
X128954857Y-48832197D02*
X128882285Y-48759626D01*
X128882285Y-48759626D02*
X128773428Y-48650768D01*
X128773428Y-48650768D02*
X128700857Y-48614483D01*
X128700857Y-48614483D02*
X128628285Y-48614483D01*
X128664571Y-48795911D02*
X128592000Y-48759626D01*
X128592000Y-48759626D02*
X128519428Y-48687054D01*
X128519428Y-48687054D02*
X128483142Y-48541911D01*
X128483142Y-48541911D02*
X128483142Y-48287911D01*
X128483142Y-48287911D02*
X128519428Y-48142768D01*
X128519428Y-48142768D02*
X128592000Y-48070197D01*
X128592000Y-48070197D02*
X128664571Y-48033911D01*
X128664571Y-48033911D02*
X128809714Y-48033911D01*
X128809714Y-48033911D02*
X128882285Y-48070197D01*
X128882285Y-48070197D02*
X128954857Y-48142768D01*
X128954857Y-48142768D02*
X128991142Y-48287911D01*
X128991142Y-48287911D02*
X128991142Y-48541911D01*
X128991142Y-48541911D02*
X128954857Y-48687054D01*
X128954857Y-48687054D02*
X128882285Y-48759626D01*
X128882285Y-48759626D02*
X128809714Y-48795911D01*
X128809714Y-48795911D02*
X128664571Y-48795911D01*
X129680571Y-48033911D02*
X129317714Y-48033911D01*
X129317714Y-48033911D02*
X129281428Y-48396768D01*
X129281428Y-48396768D02*
X129317714Y-48360483D01*
X129317714Y-48360483D02*
X129390286Y-48324197D01*
X129390286Y-48324197D02*
X129571714Y-48324197D01*
X129571714Y-48324197D02*
X129644286Y-48360483D01*
X129644286Y-48360483D02*
X129680571Y-48396768D01*
X129680571Y-48396768D02*
X129716857Y-48469340D01*
X129716857Y-48469340D02*
X129716857Y-48650768D01*
X129716857Y-48650768D02*
X129680571Y-48723340D01*
X129680571Y-48723340D02*
X129644286Y-48759626D01*
X129644286Y-48759626D02*
X129571714Y-48795911D01*
X129571714Y-48795911D02*
X129390286Y-48795911D01*
X129390286Y-48795911D02*
X129317714Y-48759626D01*
X129317714Y-48759626D02*
X129281428Y-48723340D01*
X180896000Y-45133911D02*
X180896000Y-45678197D01*
X180896000Y-45678197D02*
X180859715Y-45787054D01*
X180859715Y-45787054D02*
X180787143Y-45859626D01*
X180787143Y-45859626D02*
X180678286Y-45895911D01*
X180678286Y-45895911D02*
X180605715Y-45895911D01*
X181621714Y-45133911D02*
X181258857Y-45133911D01*
X181258857Y-45133911D02*
X181222571Y-45496768D01*
X181222571Y-45496768D02*
X181258857Y-45460483D01*
X181258857Y-45460483D02*
X181331429Y-45424197D01*
X181331429Y-45424197D02*
X181512857Y-45424197D01*
X181512857Y-45424197D02*
X181585429Y-45460483D01*
X181585429Y-45460483D02*
X181621714Y-45496768D01*
X181621714Y-45496768D02*
X181658000Y-45569340D01*
X181658000Y-45569340D02*
X181658000Y-45750768D01*
X181658000Y-45750768D02*
X181621714Y-45823340D01*
X181621714Y-45823340D02*
X181585429Y-45859626D01*
X181585429Y-45859626D02*
X181512857Y-45895911D01*
X181512857Y-45895911D02*
X181331429Y-45895911D01*
X181331429Y-45895911D02*
X181258857Y-45859626D01*
X181258857Y-45859626D02*
X181222571Y-45823340D01*
X135973000Y-40995911D02*
X135719000Y-40633054D01*
X135537571Y-40995911D02*
X135537571Y-40233911D01*
X135537571Y-40233911D02*
X135827857Y-40233911D01*
X135827857Y-40233911D02*
X135900428Y-40270197D01*
X135900428Y-40270197D02*
X135936714Y-40306483D01*
X135936714Y-40306483D02*
X135973000Y-40379054D01*
X135973000Y-40379054D02*
X135973000Y-40487911D01*
X135973000Y-40487911D02*
X135936714Y-40560483D01*
X135936714Y-40560483D02*
X135900428Y-40596768D01*
X135900428Y-40596768D02*
X135827857Y-40633054D01*
X135827857Y-40633054D02*
X135537571Y-40633054D01*
X136335857Y-40995911D02*
X136481000Y-40995911D01*
X136481000Y-40995911D02*
X136553571Y-40959626D01*
X136553571Y-40959626D02*
X136589857Y-40923340D01*
X136589857Y-40923340D02*
X136662428Y-40814483D01*
X136662428Y-40814483D02*
X136698714Y-40669340D01*
X136698714Y-40669340D02*
X136698714Y-40379054D01*
X136698714Y-40379054D02*
X136662428Y-40306483D01*
X136662428Y-40306483D02*
X136626143Y-40270197D01*
X136626143Y-40270197D02*
X136553571Y-40233911D01*
X136553571Y-40233911D02*
X136408428Y-40233911D01*
X136408428Y-40233911D02*
X136335857Y-40270197D01*
X136335857Y-40270197D02*
X136299571Y-40306483D01*
X136299571Y-40306483D02*
X136263285Y-40379054D01*
X136263285Y-40379054D02*
X136263285Y-40560483D01*
X136263285Y-40560483D02*
X136299571Y-40633054D01*
X136299571Y-40633054D02*
X136335857Y-40669340D01*
X136335857Y-40669340D02*
X136408428Y-40705626D01*
X136408428Y-40705626D02*
X136553571Y-40705626D01*
X136553571Y-40705626D02*
X136626143Y-40669340D01*
X136626143Y-40669340D02*
X136662428Y-40633054D01*
X136662428Y-40633054D02*
X136698714Y-40560483D01*
X143045911Y-63626999D02*
X142683054Y-63880999D01*
X143045911Y-64062428D02*
X142283911Y-64062428D01*
X142283911Y-64062428D02*
X142283911Y-63772142D01*
X142283911Y-63772142D02*
X142320197Y-63699571D01*
X142320197Y-63699571D02*
X142356483Y-63663285D01*
X142356483Y-63663285D02*
X142429054Y-63626999D01*
X142429054Y-63626999D02*
X142537911Y-63626999D01*
X142537911Y-63626999D02*
X142610483Y-63663285D01*
X142610483Y-63663285D02*
X142646768Y-63699571D01*
X142646768Y-63699571D02*
X142683054Y-63772142D01*
X142683054Y-63772142D02*
X142683054Y-64062428D01*
X142283911Y-63372999D02*
X142283911Y-62864999D01*
X142283911Y-62864999D02*
X143045911Y-63191571D01*
X135510143Y-34495911D02*
X135256143Y-34133054D01*
X135074714Y-34495911D02*
X135074714Y-33733911D01*
X135074714Y-33733911D02*
X135365000Y-33733911D01*
X135365000Y-33733911D02*
X135437571Y-33770197D01*
X135437571Y-33770197D02*
X135473857Y-33806483D01*
X135473857Y-33806483D02*
X135510143Y-33879054D01*
X135510143Y-33879054D02*
X135510143Y-33987911D01*
X135510143Y-33987911D02*
X135473857Y-34060483D01*
X135473857Y-34060483D02*
X135437571Y-34096768D01*
X135437571Y-34096768D02*
X135365000Y-34133054D01*
X135365000Y-34133054D02*
X135074714Y-34133054D01*
X136235857Y-34495911D02*
X135800428Y-34495911D01*
X136018143Y-34495911D02*
X136018143Y-33733911D01*
X136018143Y-33733911D02*
X135945571Y-33842768D01*
X135945571Y-33842768D02*
X135873000Y-33915340D01*
X135873000Y-33915340D02*
X135800428Y-33951626D01*
X136889000Y-33987911D02*
X136889000Y-34495911D01*
X136707571Y-33697626D02*
X136526142Y-34241911D01*
X136526142Y-34241911D02*
X136997857Y-34241911D01*
X134645911Y-61762428D02*
X133883911Y-61762428D01*
X133883911Y-61762428D02*
X133883911Y-61580999D01*
X133883911Y-61580999D02*
X133920197Y-61472142D01*
X133920197Y-61472142D02*
X133992768Y-61399571D01*
X133992768Y-61399571D02*
X134065340Y-61363285D01*
X134065340Y-61363285D02*
X134210483Y-61326999D01*
X134210483Y-61326999D02*
X134319340Y-61326999D01*
X134319340Y-61326999D02*
X134464483Y-61363285D01*
X134464483Y-61363285D02*
X134537054Y-61399571D01*
X134537054Y-61399571D02*
X134609626Y-61472142D01*
X134609626Y-61472142D02*
X134645911Y-61580999D01*
X134645911Y-61580999D02*
X134645911Y-61762428D01*
X134645911Y-60964142D02*
X134645911Y-60818999D01*
X134645911Y-60818999D02*
X134609626Y-60746428D01*
X134609626Y-60746428D02*
X134573340Y-60710142D01*
X134573340Y-60710142D02*
X134464483Y-60637571D01*
X134464483Y-60637571D02*
X134319340Y-60601285D01*
X134319340Y-60601285D02*
X134029054Y-60601285D01*
X134029054Y-60601285D02*
X133956483Y-60637571D01*
X133956483Y-60637571D02*
X133920197Y-60673857D01*
X133920197Y-60673857D02*
X133883911Y-60746428D01*
X133883911Y-60746428D02*
X133883911Y-60891571D01*
X133883911Y-60891571D02*
X133920197Y-60964142D01*
X133920197Y-60964142D02*
X133956483Y-61000428D01*
X133956483Y-61000428D02*
X134029054Y-61036714D01*
X134029054Y-61036714D02*
X134210483Y-61036714D01*
X134210483Y-61036714D02*
X134283054Y-61000428D01*
X134283054Y-61000428D02*
X134319340Y-60964142D01*
X134319340Y-60964142D02*
X134355626Y-60891571D01*
X134355626Y-60891571D02*
X134355626Y-60746428D01*
X134355626Y-60746428D02*
X134319340Y-60673857D01*
X134319340Y-60673857D02*
X134283054Y-60637571D01*
X134283054Y-60637571D02*
X134210483Y-60601285D01*
X178395911Y-41626999D02*
X178033054Y-41880999D01*
X178395911Y-42062428D02*
X177633911Y-42062428D01*
X177633911Y-42062428D02*
X177633911Y-41772142D01*
X177633911Y-41772142D02*
X177670197Y-41699571D01*
X177670197Y-41699571D02*
X177706483Y-41663285D01*
X177706483Y-41663285D02*
X177779054Y-41626999D01*
X177779054Y-41626999D02*
X177887911Y-41626999D01*
X177887911Y-41626999D02*
X177960483Y-41663285D01*
X177960483Y-41663285D02*
X177996768Y-41699571D01*
X177996768Y-41699571D02*
X178033054Y-41772142D01*
X178033054Y-41772142D02*
X178033054Y-42062428D01*
X177633911Y-40973857D02*
X177633911Y-41118999D01*
X177633911Y-41118999D02*
X177670197Y-41191571D01*
X177670197Y-41191571D02*
X177706483Y-41227857D01*
X177706483Y-41227857D02*
X177815340Y-41300428D01*
X177815340Y-41300428D02*
X177960483Y-41336714D01*
X177960483Y-41336714D02*
X178250768Y-41336714D01*
X178250768Y-41336714D02*
X178323340Y-41300428D01*
X178323340Y-41300428D02*
X178359626Y-41264142D01*
X178359626Y-41264142D02*
X178395911Y-41191571D01*
X178395911Y-41191571D02*
X178395911Y-41046428D01*
X178395911Y-41046428D02*
X178359626Y-40973857D01*
X178359626Y-40973857D02*
X178323340Y-40937571D01*
X178323340Y-40937571D02*
X178250768Y-40901285D01*
X178250768Y-40901285D02*
X178069340Y-40901285D01*
X178069340Y-40901285D02*
X177996768Y-40937571D01*
X177996768Y-40937571D02*
X177960483Y-40973857D01*
X177960483Y-40973857D02*
X177924197Y-41046428D01*
X177924197Y-41046428D02*
X177924197Y-41191571D01*
X177924197Y-41191571D02*
X177960483Y-41264142D01*
X177960483Y-41264142D02*
X177996768Y-41300428D01*
X177996768Y-41300428D02*
X178069340Y-41336714D01*
X131210143Y-34595911D02*
X130956143Y-34233054D01*
X130774714Y-34595911D02*
X130774714Y-33833911D01*
X130774714Y-33833911D02*
X131065000Y-33833911D01*
X131065000Y-33833911D02*
X131137571Y-33870197D01*
X131137571Y-33870197D02*
X131173857Y-33906483D01*
X131173857Y-33906483D02*
X131210143Y-33979054D01*
X131210143Y-33979054D02*
X131210143Y-34087911D01*
X131210143Y-34087911D02*
X131173857Y-34160483D01*
X131173857Y-34160483D02*
X131137571Y-34196768D01*
X131137571Y-34196768D02*
X131065000Y-34233054D01*
X131065000Y-34233054D02*
X130774714Y-34233054D01*
X131935857Y-34595911D02*
X131500428Y-34595911D01*
X131718143Y-34595911D02*
X131718143Y-33833911D01*
X131718143Y-33833911D02*
X131645571Y-33942768D01*
X131645571Y-33942768D02*
X131573000Y-34015340D01*
X131573000Y-34015340D02*
X131500428Y-34051626D01*
X132625285Y-33833911D02*
X132262428Y-33833911D01*
X132262428Y-33833911D02*
X132226142Y-34196768D01*
X132226142Y-34196768D02*
X132262428Y-34160483D01*
X132262428Y-34160483D02*
X132335000Y-34124197D01*
X132335000Y-34124197D02*
X132516428Y-34124197D01*
X132516428Y-34124197D02*
X132589000Y-34160483D01*
X132589000Y-34160483D02*
X132625285Y-34196768D01*
X132625285Y-34196768D02*
X132661571Y-34269340D01*
X132661571Y-34269340D02*
X132661571Y-34450768D01*
X132661571Y-34450768D02*
X132625285Y-34523340D01*
X132625285Y-34523340D02*
X132589000Y-34559626D01*
X132589000Y-34559626D02*
X132516428Y-34595911D01*
X132516428Y-34595911D02*
X132335000Y-34595911D01*
X132335000Y-34595911D02*
X132262428Y-34559626D01*
X132262428Y-34559626D02*
X132226142Y-34523340D01*
X130710143Y-57195911D02*
X130456143Y-56833054D01*
X130274714Y-57195911D02*
X130274714Y-56433911D01*
X130274714Y-56433911D02*
X130565000Y-56433911D01*
X130565000Y-56433911D02*
X130637571Y-56470197D01*
X130637571Y-56470197D02*
X130673857Y-56506483D01*
X130673857Y-56506483D02*
X130710143Y-56579054D01*
X130710143Y-56579054D02*
X130710143Y-56687911D01*
X130710143Y-56687911D02*
X130673857Y-56760483D01*
X130673857Y-56760483D02*
X130637571Y-56796768D01*
X130637571Y-56796768D02*
X130565000Y-56833054D01*
X130565000Y-56833054D02*
X130274714Y-56833054D01*
X131435857Y-57195911D02*
X131000428Y-57195911D01*
X131218143Y-57195911D02*
X131218143Y-56433911D01*
X131218143Y-56433911D02*
X131145571Y-56542768D01*
X131145571Y-56542768D02*
X131073000Y-56615340D01*
X131073000Y-56615340D02*
X131000428Y-56651626D01*
X131871285Y-56760483D02*
X131798714Y-56724197D01*
X131798714Y-56724197D02*
X131762428Y-56687911D01*
X131762428Y-56687911D02*
X131726142Y-56615340D01*
X131726142Y-56615340D02*
X131726142Y-56579054D01*
X131726142Y-56579054D02*
X131762428Y-56506483D01*
X131762428Y-56506483D02*
X131798714Y-56470197D01*
X131798714Y-56470197D02*
X131871285Y-56433911D01*
X131871285Y-56433911D02*
X132016428Y-56433911D01*
X132016428Y-56433911D02*
X132089000Y-56470197D01*
X132089000Y-56470197D02*
X132125285Y-56506483D01*
X132125285Y-56506483D02*
X132161571Y-56579054D01*
X132161571Y-56579054D02*
X132161571Y-56615340D01*
X132161571Y-56615340D02*
X132125285Y-56687911D01*
X132125285Y-56687911D02*
X132089000Y-56724197D01*
X132089000Y-56724197D02*
X132016428Y-56760483D01*
X132016428Y-56760483D02*
X131871285Y-56760483D01*
X131871285Y-56760483D02*
X131798714Y-56796768D01*
X131798714Y-56796768D02*
X131762428Y-56833054D01*
X131762428Y-56833054D02*
X131726142Y-56905626D01*
X131726142Y-56905626D02*
X131726142Y-57050768D01*
X131726142Y-57050768D02*
X131762428Y-57123340D01*
X131762428Y-57123340D02*
X131798714Y-57159626D01*
X131798714Y-57159626D02*
X131871285Y-57195911D01*
X131871285Y-57195911D02*
X132016428Y-57195911D01*
X132016428Y-57195911D02*
X132089000Y-57159626D01*
X132089000Y-57159626D02*
X132125285Y-57123340D01*
X132125285Y-57123340D02*
X132161571Y-57050768D01*
X132161571Y-57050768D02*
X132161571Y-56905626D01*
X132161571Y-56905626D02*
X132125285Y-56833054D01*
X132125285Y-56833054D02*
X132089000Y-56796768D01*
X132089000Y-56796768D02*
X132016428Y-56760483D01*
X156773000Y-57245911D02*
X156519000Y-56883054D01*
X156337571Y-57245911D02*
X156337571Y-56483911D01*
X156337571Y-56483911D02*
X156627857Y-56483911D01*
X156627857Y-56483911D02*
X156700428Y-56520197D01*
X156700428Y-56520197D02*
X156736714Y-56556483D01*
X156736714Y-56556483D02*
X156773000Y-56629054D01*
X156773000Y-56629054D02*
X156773000Y-56737911D01*
X156773000Y-56737911D02*
X156736714Y-56810483D01*
X156736714Y-56810483D02*
X156700428Y-56846768D01*
X156700428Y-56846768D02*
X156627857Y-56883054D01*
X156627857Y-56883054D02*
X156337571Y-56883054D01*
X157426143Y-56737911D02*
X157426143Y-57245911D01*
X157244714Y-56447626D02*
X157063285Y-56991911D01*
X157063285Y-56991911D02*
X157535000Y-56991911D01*
X164727428Y-66718483D02*
X164654857Y-66682197D01*
X164654857Y-66682197D02*
X164582285Y-66609626D01*
X164582285Y-66609626D02*
X164473428Y-66500768D01*
X164473428Y-66500768D02*
X164400857Y-66464483D01*
X164400857Y-66464483D02*
X164328285Y-66464483D01*
X164364571Y-66645911D02*
X164292000Y-66609626D01*
X164292000Y-66609626D02*
X164219428Y-66537054D01*
X164219428Y-66537054D02*
X164183142Y-66391911D01*
X164183142Y-66391911D02*
X164183142Y-66137911D01*
X164183142Y-66137911D02*
X164219428Y-65992768D01*
X164219428Y-65992768D02*
X164292000Y-65920197D01*
X164292000Y-65920197D02*
X164364571Y-65883911D01*
X164364571Y-65883911D02*
X164509714Y-65883911D01*
X164509714Y-65883911D02*
X164582285Y-65920197D01*
X164582285Y-65920197D02*
X164654857Y-65992768D01*
X164654857Y-65992768D02*
X164691142Y-66137911D01*
X164691142Y-66137911D02*
X164691142Y-66391911D01*
X164691142Y-66391911D02*
X164654857Y-66537054D01*
X164654857Y-66537054D02*
X164582285Y-66609626D01*
X164582285Y-66609626D02*
X164509714Y-66645911D01*
X164509714Y-66645911D02*
X164364571Y-66645911D01*
X165416857Y-66645911D02*
X164981428Y-66645911D01*
X165199143Y-66645911D02*
X165199143Y-65883911D01*
X165199143Y-65883911D02*
X165126571Y-65992768D01*
X165126571Y-65992768D02*
X165054000Y-66065340D01*
X165054000Y-66065340D02*
X164981428Y-66101626D01*
X140310143Y-34495911D02*
X140056143Y-34133054D01*
X139874714Y-34495911D02*
X139874714Y-33733911D01*
X139874714Y-33733911D02*
X140165000Y-33733911D01*
X140165000Y-33733911D02*
X140237571Y-33770197D01*
X140237571Y-33770197D02*
X140273857Y-33806483D01*
X140273857Y-33806483D02*
X140310143Y-33879054D01*
X140310143Y-33879054D02*
X140310143Y-33987911D01*
X140310143Y-33987911D02*
X140273857Y-34060483D01*
X140273857Y-34060483D02*
X140237571Y-34096768D01*
X140237571Y-34096768D02*
X140165000Y-34133054D01*
X140165000Y-34133054D02*
X139874714Y-34133054D01*
X141035857Y-34495911D02*
X140600428Y-34495911D01*
X140818143Y-34495911D02*
X140818143Y-33733911D01*
X140818143Y-33733911D02*
X140745571Y-33842768D01*
X140745571Y-33842768D02*
X140673000Y-33915340D01*
X140673000Y-33915340D02*
X140600428Y-33951626D01*
X141289857Y-33733911D02*
X141761571Y-33733911D01*
X141761571Y-33733911D02*
X141507571Y-34024197D01*
X141507571Y-34024197D02*
X141616428Y-34024197D01*
X141616428Y-34024197D02*
X141689000Y-34060483D01*
X141689000Y-34060483D02*
X141725285Y-34096768D01*
X141725285Y-34096768D02*
X141761571Y-34169340D01*
X141761571Y-34169340D02*
X141761571Y-34350768D01*
X141761571Y-34350768D02*
X141725285Y-34423340D01*
X141725285Y-34423340D02*
X141689000Y-34459626D01*
X141689000Y-34459626D02*
X141616428Y-34495911D01*
X141616428Y-34495911D02*
X141398714Y-34495911D01*
X141398714Y-34495911D02*
X141326142Y-34459626D01*
X141326142Y-34459626D02*
X141289857Y-34423340D01*
X160559000Y-62644626D02*
X160667858Y-62680911D01*
X160667858Y-62680911D02*
X160849286Y-62680911D01*
X160849286Y-62680911D02*
X160921858Y-62644626D01*
X160921858Y-62644626D02*
X160958143Y-62608340D01*
X160958143Y-62608340D02*
X160994429Y-62535768D01*
X160994429Y-62535768D02*
X160994429Y-62463197D01*
X160994429Y-62463197D02*
X160958143Y-62390626D01*
X160958143Y-62390626D02*
X160921858Y-62354340D01*
X160921858Y-62354340D02*
X160849286Y-62318054D01*
X160849286Y-62318054D02*
X160704143Y-62281768D01*
X160704143Y-62281768D02*
X160631572Y-62245483D01*
X160631572Y-62245483D02*
X160595286Y-62209197D01*
X160595286Y-62209197D02*
X160559000Y-62136626D01*
X160559000Y-62136626D02*
X160559000Y-62064054D01*
X160559000Y-62064054D02*
X160595286Y-61991483D01*
X160595286Y-61991483D02*
X160631572Y-61955197D01*
X160631572Y-61955197D02*
X160704143Y-61918911D01*
X160704143Y-61918911D02*
X160885572Y-61918911D01*
X160885572Y-61918911D02*
X160994429Y-61955197D01*
X161248429Y-61918911D02*
X161429857Y-62680911D01*
X161429857Y-62680911D02*
X161575000Y-62136626D01*
X161575000Y-62136626D02*
X161720143Y-62680911D01*
X161720143Y-62680911D02*
X161901572Y-61918911D01*
X162155571Y-61991483D02*
X162191857Y-61955197D01*
X162191857Y-61955197D02*
X162264429Y-61918911D01*
X162264429Y-61918911D02*
X162445857Y-61918911D01*
X162445857Y-61918911D02*
X162518429Y-61955197D01*
X162518429Y-61955197D02*
X162554714Y-61991483D01*
X162554714Y-61991483D02*
X162591000Y-62064054D01*
X162591000Y-62064054D02*
X162591000Y-62136626D01*
X162591000Y-62136626D02*
X162554714Y-62245483D01*
X162554714Y-62245483D02*
X162119286Y-62680911D01*
X162119286Y-62680911D02*
X162591000Y-62680911D01*
X113996000Y-54533911D02*
X113996000Y-55078197D01*
X113996000Y-55078197D02*
X113959715Y-55187054D01*
X113959715Y-55187054D02*
X113887143Y-55259626D01*
X113887143Y-55259626D02*
X113778286Y-55295911D01*
X113778286Y-55295911D02*
X113705715Y-55295911D01*
X114322571Y-54606483D02*
X114358857Y-54570197D01*
X114358857Y-54570197D02*
X114431429Y-54533911D01*
X114431429Y-54533911D02*
X114612857Y-54533911D01*
X114612857Y-54533911D02*
X114685429Y-54570197D01*
X114685429Y-54570197D02*
X114721714Y-54606483D01*
X114721714Y-54606483D02*
X114758000Y-54679054D01*
X114758000Y-54679054D02*
X114758000Y-54751626D01*
X114758000Y-54751626D02*
X114721714Y-54860483D01*
X114721714Y-54860483D02*
X114286286Y-55295911D01*
X114286286Y-55295911D02*
X114758000Y-55295911D01*
X161695911Y-65726999D02*
X161333054Y-65980999D01*
X161695911Y-66162428D02*
X160933911Y-66162428D01*
X160933911Y-66162428D02*
X160933911Y-65872142D01*
X160933911Y-65872142D02*
X160970197Y-65799571D01*
X160970197Y-65799571D02*
X161006483Y-65763285D01*
X161006483Y-65763285D02*
X161079054Y-65726999D01*
X161079054Y-65726999D02*
X161187911Y-65726999D01*
X161187911Y-65726999D02*
X161260483Y-65763285D01*
X161260483Y-65763285D02*
X161296768Y-65799571D01*
X161296768Y-65799571D02*
X161333054Y-65872142D01*
X161333054Y-65872142D02*
X161333054Y-66162428D01*
X161260483Y-65291571D02*
X161224197Y-65364142D01*
X161224197Y-65364142D02*
X161187911Y-65400428D01*
X161187911Y-65400428D02*
X161115340Y-65436714D01*
X161115340Y-65436714D02*
X161079054Y-65436714D01*
X161079054Y-65436714D02*
X161006483Y-65400428D01*
X161006483Y-65400428D02*
X160970197Y-65364142D01*
X160970197Y-65364142D02*
X160933911Y-65291571D01*
X160933911Y-65291571D02*
X160933911Y-65146428D01*
X160933911Y-65146428D02*
X160970197Y-65073857D01*
X160970197Y-65073857D02*
X161006483Y-65037571D01*
X161006483Y-65037571D02*
X161079054Y-65001285D01*
X161079054Y-65001285D02*
X161115340Y-65001285D01*
X161115340Y-65001285D02*
X161187911Y-65037571D01*
X161187911Y-65037571D02*
X161224197Y-65073857D01*
X161224197Y-65073857D02*
X161260483Y-65146428D01*
X161260483Y-65146428D02*
X161260483Y-65291571D01*
X161260483Y-65291571D02*
X161296768Y-65364142D01*
X161296768Y-65364142D02*
X161333054Y-65400428D01*
X161333054Y-65400428D02*
X161405626Y-65436714D01*
X161405626Y-65436714D02*
X161550768Y-65436714D01*
X161550768Y-65436714D02*
X161623340Y-65400428D01*
X161623340Y-65400428D02*
X161659626Y-65364142D01*
X161659626Y-65364142D02*
X161695911Y-65291571D01*
X161695911Y-65291571D02*
X161695911Y-65146428D01*
X161695911Y-65146428D02*
X161659626Y-65073857D01*
X161659626Y-65073857D02*
X161623340Y-65037571D01*
X161623340Y-65037571D02*
X161550768Y-65001285D01*
X161550768Y-65001285D02*
X161405626Y-65001285D01*
X161405626Y-65001285D02*
X161333054Y-65037571D01*
X161333054Y-65037571D02*
X161296768Y-65073857D01*
X161296768Y-65073857D02*
X161260483Y-65146428D01*
X140960143Y-47165911D02*
X140706143Y-46803054D01*
X140524714Y-47165911D02*
X140524714Y-46403911D01*
X140524714Y-46403911D02*
X140815000Y-46403911D01*
X140815000Y-46403911D02*
X140887571Y-46440197D01*
X140887571Y-46440197D02*
X140923857Y-46476483D01*
X140923857Y-46476483D02*
X140960143Y-46549054D01*
X140960143Y-46549054D02*
X140960143Y-46657911D01*
X140960143Y-46657911D02*
X140923857Y-46730483D01*
X140923857Y-46730483D02*
X140887571Y-46766768D01*
X140887571Y-46766768D02*
X140815000Y-46803054D01*
X140815000Y-46803054D02*
X140524714Y-46803054D01*
X141685857Y-47165911D02*
X141250428Y-47165911D01*
X141468143Y-47165911D02*
X141468143Y-46403911D01*
X141468143Y-46403911D02*
X141395571Y-46512768D01*
X141395571Y-46512768D02*
X141323000Y-46585340D01*
X141323000Y-46585340D02*
X141250428Y-46621626D01*
X142157571Y-46403911D02*
X142230142Y-46403911D01*
X142230142Y-46403911D02*
X142302714Y-46440197D01*
X142302714Y-46440197D02*
X142339000Y-46476483D01*
X142339000Y-46476483D02*
X142375285Y-46549054D01*
X142375285Y-46549054D02*
X142411571Y-46694197D01*
X142411571Y-46694197D02*
X142411571Y-46875626D01*
X142411571Y-46875626D02*
X142375285Y-47020768D01*
X142375285Y-47020768D02*
X142339000Y-47093340D01*
X142339000Y-47093340D02*
X142302714Y-47129626D01*
X142302714Y-47129626D02*
X142230142Y-47165911D01*
X142230142Y-47165911D02*
X142157571Y-47165911D01*
X142157571Y-47165911D02*
X142085000Y-47129626D01*
X142085000Y-47129626D02*
X142048714Y-47093340D01*
X142048714Y-47093340D02*
X142012428Y-47020768D01*
X142012428Y-47020768D02*
X141976142Y-46875626D01*
X141976142Y-46875626D02*
X141976142Y-46694197D01*
X141976142Y-46694197D02*
X142012428Y-46549054D01*
X142012428Y-46549054D02*
X142048714Y-46476483D01*
X142048714Y-46476483D02*
X142085000Y-46440197D01*
X142085000Y-46440197D02*
X142157571Y-46403911D01*
X115740677Y-67523340D02*
X115704391Y-67559626D01*
X115704391Y-67559626D02*
X115595534Y-67595911D01*
X115595534Y-67595911D02*
X115522962Y-67595911D01*
X115522962Y-67595911D02*
X115414105Y-67559626D01*
X115414105Y-67559626D02*
X115341534Y-67487054D01*
X115341534Y-67487054D02*
X115305248Y-67414483D01*
X115305248Y-67414483D02*
X115268962Y-67269340D01*
X115268962Y-67269340D02*
X115268962Y-67160483D01*
X115268962Y-67160483D02*
X115305248Y-67015340D01*
X115305248Y-67015340D02*
X115341534Y-66942768D01*
X115341534Y-66942768D02*
X115414105Y-66870197D01*
X115414105Y-66870197D02*
X115522962Y-66833911D01*
X115522962Y-66833911D02*
X115595534Y-66833911D01*
X115595534Y-66833911D02*
X115704391Y-66870197D01*
X115704391Y-66870197D02*
X115740677Y-66906483D01*
X116030962Y-66906483D02*
X116067248Y-66870197D01*
X116067248Y-66870197D02*
X116139820Y-66833911D01*
X116139820Y-66833911D02*
X116321248Y-66833911D01*
X116321248Y-66833911D02*
X116393820Y-66870197D01*
X116393820Y-66870197D02*
X116430105Y-66906483D01*
X116430105Y-66906483D02*
X116466391Y-66979054D01*
X116466391Y-66979054D02*
X116466391Y-67051626D01*
X116466391Y-67051626D02*
X116430105Y-67160483D01*
X116430105Y-67160483D02*
X115994677Y-67595911D01*
X115994677Y-67595911D02*
X116466391Y-67595911D01*
X182818483Y-40072571D02*
X182782197Y-40145142D01*
X182782197Y-40145142D02*
X182709626Y-40217714D01*
X182709626Y-40217714D02*
X182600768Y-40326571D01*
X182600768Y-40326571D02*
X182564483Y-40399142D01*
X182564483Y-40399142D02*
X182564483Y-40471714D01*
X182745911Y-40435428D02*
X182709626Y-40508000D01*
X182709626Y-40508000D02*
X182637054Y-40580571D01*
X182637054Y-40580571D02*
X182491911Y-40616857D01*
X182491911Y-40616857D02*
X182237911Y-40616857D01*
X182237911Y-40616857D02*
X182092768Y-40580571D01*
X182092768Y-40580571D02*
X182020197Y-40508000D01*
X182020197Y-40508000D02*
X181983911Y-40435428D01*
X181983911Y-40435428D02*
X181983911Y-40290285D01*
X181983911Y-40290285D02*
X182020197Y-40217714D01*
X182020197Y-40217714D02*
X182092768Y-40145142D01*
X182092768Y-40145142D02*
X182237911Y-40108857D01*
X182237911Y-40108857D02*
X182491911Y-40108857D01*
X182491911Y-40108857D02*
X182637054Y-40145142D01*
X182637054Y-40145142D02*
X182709626Y-40217714D01*
X182709626Y-40217714D02*
X182745911Y-40290285D01*
X182745911Y-40290285D02*
X182745911Y-40435428D01*
X182056483Y-39818571D02*
X182020197Y-39782285D01*
X182020197Y-39782285D02*
X181983911Y-39709714D01*
X181983911Y-39709714D02*
X181983911Y-39528285D01*
X181983911Y-39528285D02*
X182020197Y-39455714D01*
X182020197Y-39455714D02*
X182056483Y-39419428D01*
X182056483Y-39419428D02*
X182129054Y-39383142D01*
X182129054Y-39383142D02*
X182201626Y-39383142D01*
X182201626Y-39383142D02*
X182310483Y-39419428D01*
X182310483Y-39419428D02*
X182745911Y-39854856D01*
X182745911Y-39854856D02*
X182745911Y-39383142D01*
X146459000Y-62844626D02*
X146567858Y-62880911D01*
X146567858Y-62880911D02*
X146749286Y-62880911D01*
X146749286Y-62880911D02*
X146821858Y-62844626D01*
X146821858Y-62844626D02*
X146858143Y-62808340D01*
X146858143Y-62808340D02*
X146894429Y-62735768D01*
X146894429Y-62735768D02*
X146894429Y-62663197D01*
X146894429Y-62663197D02*
X146858143Y-62590626D01*
X146858143Y-62590626D02*
X146821858Y-62554340D01*
X146821858Y-62554340D02*
X146749286Y-62518054D01*
X146749286Y-62518054D02*
X146604143Y-62481768D01*
X146604143Y-62481768D02*
X146531572Y-62445483D01*
X146531572Y-62445483D02*
X146495286Y-62409197D01*
X146495286Y-62409197D02*
X146459000Y-62336626D01*
X146459000Y-62336626D02*
X146459000Y-62264054D01*
X146459000Y-62264054D02*
X146495286Y-62191483D01*
X146495286Y-62191483D02*
X146531572Y-62155197D01*
X146531572Y-62155197D02*
X146604143Y-62118911D01*
X146604143Y-62118911D02*
X146785572Y-62118911D01*
X146785572Y-62118911D02*
X146894429Y-62155197D01*
X147148429Y-62118911D02*
X147329857Y-62880911D01*
X147329857Y-62880911D02*
X147475000Y-62336626D01*
X147475000Y-62336626D02*
X147620143Y-62880911D01*
X147620143Y-62880911D02*
X147801572Y-62118911D01*
X148491000Y-62880911D02*
X148055571Y-62880911D01*
X148273286Y-62880911D02*
X148273286Y-62118911D01*
X148273286Y-62118911D02*
X148200714Y-62227768D01*
X148200714Y-62227768D02*
X148128143Y-62300340D01*
X148128143Y-62300340D02*
X148055571Y-62336626D01*
X144628911Y-54820571D02*
X145245768Y-54820571D01*
X145245768Y-54820571D02*
X145318340Y-54784285D01*
X145318340Y-54784285D02*
X145354626Y-54748000D01*
X145354626Y-54748000D02*
X145390911Y-54675428D01*
X145390911Y-54675428D02*
X145390911Y-54530285D01*
X145390911Y-54530285D02*
X145354626Y-54457714D01*
X145354626Y-54457714D02*
X145318340Y-54421428D01*
X145318340Y-54421428D02*
X145245768Y-54385142D01*
X145245768Y-54385142D02*
X144628911Y-54385142D01*
X145390911Y-53623142D02*
X145390911Y-54058571D01*
X145390911Y-53840856D02*
X144628911Y-53840856D01*
X144628911Y-53840856D02*
X144737768Y-53913428D01*
X144737768Y-53913428D02*
X144810340Y-53985999D01*
X144810340Y-53985999D02*
X144846626Y-54058571D01*
X167273000Y-53645911D02*
X167019000Y-53283054D01*
X166837571Y-53645911D02*
X166837571Y-52883911D01*
X166837571Y-52883911D02*
X167127857Y-52883911D01*
X167127857Y-52883911D02*
X167200428Y-52920197D01*
X167200428Y-52920197D02*
X167236714Y-52956483D01*
X167236714Y-52956483D02*
X167273000Y-53029054D01*
X167273000Y-53029054D02*
X167273000Y-53137911D01*
X167273000Y-53137911D02*
X167236714Y-53210483D01*
X167236714Y-53210483D02*
X167200428Y-53246768D01*
X167200428Y-53246768D02*
X167127857Y-53283054D01*
X167127857Y-53283054D02*
X166837571Y-53283054D01*
X167527000Y-52883911D02*
X167998714Y-52883911D01*
X167998714Y-52883911D02*
X167744714Y-53174197D01*
X167744714Y-53174197D02*
X167853571Y-53174197D01*
X167853571Y-53174197D02*
X167926143Y-53210483D01*
X167926143Y-53210483D02*
X167962428Y-53246768D01*
X167962428Y-53246768D02*
X167998714Y-53319340D01*
X167998714Y-53319340D02*
X167998714Y-53500768D01*
X167998714Y-53500768D02*
X167962428Y-53573340D01*
X167962428Y-53573340D02*
X167926143Y-53609626D01*
X167926143Y-53609626D02*
X167853571Y-53645911D01*
X167853571Y-53645911D02*
X167635857Y-53645911D01*
X167635857Y-53645911D02*
X167563285Y-53609626D01*
X167563285Y-53609626D02*
X167527000Y-53573340D01*
D13*
%TO.C,R17*%
X139472936Y-57865000D02*
X139927064Y-57865000D01*
X139472936Y-59335000D02*
X139927064Y-59335000D01*
%TO.C,R12*%
X129372936Y-54190000D02*
X130827064Y-54190000D01*
X129372936Y-56010000D02*
X130827064Y-56010000D01*
D14*
%TO.C,L1*%
X125683440Y-75920900D02*
X126516560Y-75920900D01*
X126516560Y-71679100D02*
X125683440Y-71679100D01*
X122912300Y-73800000D02*
G75*
G02*
X122759900Y-73800000I-76200J0D01*
G01*
X122759900Y-73800000D02*
G75*
G02*
X122912300Y-73800000I76200J0D01*
G01*
D13*
%TO.C,J6*%
X168680000Y-35220000D02*
X168680000Y-37980000D01*
X173870000Y-35220000D02*
X168680000Y-35220000D01*
X173870000Y-35220000D02*
X173870000Y-37980000D01*
X173870000Y-37980000D02*
X168680000Y-37980000D01*
X175140000Y-35220000D02*
X176520000Y-35220000D01*
X176520000Y-35220000D02*
X176520000Y-36600000D01*
%TO.C,Q4*%
X134640000Y-50150000D02*
X134640000Y-49500000D01*
X134640000Y-50150000D02*
X134640000Y-50800000D01*
X137760000Y-50150000D02*
X137760000Y-49500000D01*
X137760000Y-50150000D02*
X137760000Y-50800000D01*
X134690000Y-51312500D02*
X134360000Y-51552500D01*
X134360000Y-51072500D01*
X134690000Y-51312500D01*
G36*
X134690000Y-51312500D02*
G01*
X134360000Y-51552500D01*
X134360000Y-51072500D01*
X134690000Y-51312500D01*
G37*
%TO.C,R5*%
X172627064Y-40490000D02*
X171172936Y-40490000D01*
X172627064Y-42310000D02*
X171172936Y-42310000D01*
%TO.C,R2*%
X168690000Y-46127064D02*
X168690000Y-44672936D01*
X170510000Y-46127064D02*
X170510000Y-44672936D01*
%TO.C,U2*%
X123440000Y-65000000D02*
X123440000Y-63050000D01*
X123440000Y-65000000D02*
X123440000Y-66950000D01*
X128560000Y-65000000D02*
X128560000Y-63050000D01*
X128560000Y-65000000D02*
X128560000Y-66950000D01*
X123535000Y-67700000D02*
X123205000Y-67940000D01*
X123205000Y-67460000D01*
X123535000Y-67700000D01*
G36*
X123535000Y-67700000D02*
G01*
X123205000Y-67940000D01*
X123205000Y-67460000D01*
X123535000Y-67700000D01*
G37*
%TO.C,C1*%
X123090000Y-56788748D02*
X123090000Y-58211252D01*
X124910000Y-56788748D02*
X124910000Y-58211252D01*
%TO.C,R1*%
X131190000Y-62772936D02*
X131190000Y-64227064D01*
X133010000Y-62772936D02*
X133010000Y-64227064D01*
%TO.C,C3*%
X130750000Y-70040000D02*
X132000000Y-70040000D01*
X131375000Y-69415000D02*
X131375000Y-70665000D01*
X132240000Y-68504437D02*
X132240000Y-71290000D01*
X132240000Y-68504437D02*
X133304437Y-67440000D01*
X132240000Y-77095563D02*
X132240000Y-74310000D01*
X132240000Y-77095563D02*
X133304437Y-78160000D01*
X133304437Y-67440000D02*
X142960000Y-67440000D01*
X133304437Y-78160000D02*
X142960000Y-78160000D01*
X142960000Y-67440000D02*
X142960000Y-71290000D01*
X142960000Y-78160000D02*
X142960000Y-74310000D01*
%TO.C,R16*%
X140472936Y-51265000D02*
X140927064Y-51265000D01*
X140472936Y-52735000D02*
X140927064Y-52735000D01*
%TO.C,D5*%
X152265000Y-57740000D02*
X152265000Y-61800000D01*
X154535000Y-57740000D02*
X152265000Y-57740000D01*
X154535000Y-61800000D02*
X154535000Y-57740000D01*
D11*
%TO.C,Q3*%
X139139500Y-42750000D02*
X139139500Y-43804000D01*
X139901500Y-42750000D02*
X139139500Y-42750000D01*
X142060500Y-42750000D02*
X141298500Y-42750000D01*
X142060500Y-43804000D02*
X142060500Y-42750000D01*
D13*
%TO.C,D11*%
X126725000Y-36120000D02*
X126725000Y-35655000D01*
X126725000Y-38745000D02*
X126725000Y-38280000D01*
X121376864Y-36120000D02*
G75*
G02*
X126725000Y-35655170I2788136J-1080000D01*
G01*
X121910316Y-36120000D02*
G75*
G02*
X126419684Y-36120000I2254684J-1080000D01*
G01*
X126419684Y-38280000D02*
G75*
G02*
X121910316Y-38280000I-2254684J1080000D01*
G01*
X126725000Y-38744830D02*
G75*
G02*
X121376864Y-38280000I-2560000J1544830D01*
G01*
%TO.C,J4*%
X171600000Y-68507500D02*
X171600000Y-69557500D01*
X171800000Y-60157500D02*
X173700000Y-60157500D01*
X171800000Y-62857500D02*
X171800000Y-60157500D01*
X171800000Y-69357500D02*
X171800000Y-66757500D01*
X172650000Y-69557500D02*
X171600000Y-69557500D01*
X177700000Y-60157500D02*
X186500000Y-60157500D01*
X186500000Y-60157500D02*
X186500000Y-69357500D01*
X186500000Y-69357500D02*
X171800000Y-69357500D01*
%TO.C,R19*%
X130690000Y-43122936D02*
X130690000Y-44577064D01*
X132510000Y-43122936D02*
X132510000Y-44577064D01*
%TO.C,D1*%
X120610000Y-68350000D02*
X115100000Y-68350000D01*
X120610000Y-71650000D02*
X115100000Y-71650000D01*
X120610000Y-71650000D02*
X120610000Y-68350000D01*
D15*
%TO.C,G\u002A\u002A\u002A*%
G36*
X152520697Y-63067741D02*
G01*
X152620893Y-63096368D01*
X152753737Y-63137940D01*
X152836046Y-63165004D01*
X153216569Y-63321457D01*
X153545405Y-63520758D01*
X153826169Y-63766728D01*
X154062478Y-64063189D01*
X154257945Y-64413961D01*
X154416186Y-64822868D01*
X154422191Y-64841753D01*
X154542520Y-65297553D01*
X154632866Y-65798024D01*
X154691105Y-66323014D01*
X154715118Y-66852373D01*
X154702784Y-67365950D01*
X154696869Y-67450897D01*
X154681480Y-67626445D01*
X154661298Y-67821110D01*
X154638051Y-68021788D01*
X154613465Y-68215376D01*
X154589267Y-68388768D01*
X154567185Y-68528862D01*
X154548946Y-68622553D01*
X154538103Y-68655519D01*
X154536189Y-68624415D01*
X154534302Y-68533817D01*
X154532582Y-68394789D01*
X154531170Y-68218393D01*
X154530283Y-68038158D01*
X154496030Y-67320565D01*
X154398265Y-66633500D01*
X154236584Y-65975939D01*
X154010581Y-65346854D01*
X153719851Y-64745220D01*
X153363990Y-64170011D01*
X152942591Y-63620201D01*
X152661228Y-63305367D01*
X152566353Y-63200485D01*
X152499040Y-63117519D01*
X152467545Y-63067200D01*
X152470176Y-63057083D01*
X152520697Y-63067741D01*
G37*
G36*
X152264279Y-68698702D02*
G01*
X152288948Y-68785858D01*
X152315945Y-68912412D01*
X152342046Y-69063060D01*
X152364024Y-69222498D01*
X152366061Y-69240001D01*
X152378540Y-69595683D01*
X152329921Y-69918580D01*
X152218949Y-70213278D01*
X152044372Y-70484364D01*
X152016755Y-70518333D01*
X151922164Y-70649758D01*
X151836199Y-70798960D01*
X151795489Y-70888749D01*
X151737314Y-71106499D01*
X151705842Y-71377866D01*
X151700788Y-71691275D01*
X151721870Y-72035151D01*
X151768806Y-72397921D01*
X151841312Y-72768009D01*
X151841445Y-72768587D01*
X151874828Y-72922186D01*
X151890382Y-73023296D01*
X151889116Y-73087421D01*
X151872041Y-73130065D01*
X151865563Y-73139004D01*
X151702171Y-73332202D01*
X151483187Y-73565609D01*
X151209998Y-73837826D01*
X150883994Y-74147451D01*
X150679754Y-74335858D01*
X150369892Y-74623680D01*
X150110118Y-74876757D01*
X149894530Y-75103278D01*
X149717228Y-75311433D01*
X149572312Y-75509413D01*
X149453880Y-75705405D01*
X149356032Y-75907600D01*
X149272867Y-76124188D01*
X149198484Y-76363358D01*
X149185494Y-76409721D01*
X149117263Y-76656666D01*
X149136310Y-76286249D01*
X149192900Y-75779945D01*
X149307772Y-75293644D01*
X149397951Y-75031990D01*
X149445450Y-74904700D01*
X149478988Y-74805094D01*
X149493319Y-74749170D01*
X149492762Y-74742808D01*
X149466139Y-74760373D01*
X149414494Y-74827421D01*
X149345701Y-74931017D01*
X149267632Y-75058225D01*
X149188159Y-75196111D01*
X149115155Y-75331739D01*
X149056493Y-75452173D01*
X149044794Y-75478855D01*
X148979944Y-75654745D01*
X148917303Y-75865555D01*
X148862629Y-76087435D01*
X148821682Y-76296534D01*
X148800219Y-76469002D01*
X148798741Y-76497916D01*
X148793683Y-76546699D01*
X148781816Y-76541341D01*
X148760657Y-76476750D01*
X148729912Y-76356805D01*
X148630409Y-75805979D01*
X148594888Y-75238130D01*
X148622823Y-74664819D01*
X148713691Y-74097605D01*
X148855909Y-73580644D01*
X148942309Y-73351055D01*
X149055908Y-73090010D01*
X149186446Y-72818170D01*
X149323662Y-72556192D01*
X149457298Y-72324738D01*
X149551457Y-72180095D01*
X149591941Y-72116617D01*
X149594158Y-72099036D01*
X149566107Y-72119979D01*
X149515784Y-72172073D01*
X149451188Y-72247945D01*
X149385624Y-72332963D01*
X149312356Y-72426602D01*
X149256648Y-72473781D01*
X149197843Y-72487348D01*
X149143308Y-72483671D01*
X148959918Y-72482726D01*
X148741940Y-72513091D01*
X148515057Y-72569393D01*
X148304950Y-72646259D01*
X148255139Y-72669491D01*
X148035439Y-72794689D01*
X147849254Y-72942634D01*
X147670440Y-73134465D01*
X147651341Y-73157629D01*
X147541432Y-73292204D01*
X147480155Y-73139990D01*
X147429999Y-72963897D01*
X147402117Y-72756328D01*
X147397850Y-72544931D01*
X147418540Y-72357354D01*
X147438508Y-72281588D01*
X147483382Y-72167999D01*
X147540325Y-72066401D01*
X147618476Y-71966769D01*
X147726974Y-71859079D01*
X147874957Y-71733305D01*
X148071564Y-71579422D01*
X148094675Y-71561779D01*
X148257377Y-71437150D01*
X148372160Y-71345953D01*
X148447379Y-71279058D01*
X148491390Y-71227338D01*
X148512548Y-71181665D01*
X148519208Y-71132911D01*
X148519722Y-71097434D01*
X148549946Y-70897123D01*
X148637656Y-70730342D01*
X148736465Y-70634454D01*
X148795797Y-70592793D01*
X148855972Y-70557285D01*
X148928038Y-70523832D01*
X149023040Y-70488339D01*
X149152025Y-70446710D01*
X149326038Y-70394848D01*
X149556127Y-70328656D01*
X149577564Y-70322540D01*
X150103354Y-70159218D01*
X150566145Y-69986704D01*
X150970442Y-69803673D01*
X151279674Y-69637233D01*
X151533206Y-69472318D01*
X151744712Y-69297592D01*
X151927867Y-69101723D01*
X152096344Y-68873375D01*
X152100711Y-68866813D01*
X152168788Y-68766572D01*
X152220527Y-68694660D01*
X152244986Y-68666270D01*
X152245163Y-68666249D01*
X152264279Y-68698702D01*
G37*
G36*
X154896864Y-64239985D02*
G01*
X155201292Y-64620023D01*
X155494625Y-65049921D01*
X155764702Y-65508994D01*
X155999361Y-65976554D01*
X156186442Y-66431914D01*
X156188007Y-66436266D01*
X156369312Y-67041820D01*
X156485906Y-67662926D01*
X156537495Y-68291385D01*
X156523786Y-68919001D01*
X156444487Y-69537575D01*
X156318137Y-70075145D01*
X156212722Y-70402210D01*
X156074755Y-70772037D01*
X155911403Y-71169113D01*
X155729833Y-71577926D01*
X155537213Y-71982963D01*
X155340709Y-72368712D01*
X155147489Y-72719660D01*
X154964720Y-73020295D01*
X154939815Y-73058333D01*
X154399959Y-73810728D01*
X153807286Y-74516857D01*
X153163633Y-75174690D01*
X152479653Y-75775040D01*
X152360617Y-75872874D01*
X152265114Y-75953358D01*
X152204456Y-76006833D01*
X152188611Y-76023579D01*
X152216483Y-76015469D01*
X152292455Y-75976249D01*
X152405065Y-75912623D01*
X152542847Y-75831300D01*
X152694338Y-75738984D01*
X152848075Y-75642382D01*
X152924062Y-75593357D01*
X153439575Y-75227066D01*
X153950849Y-74805793D01*
X154441896Y-74344127D01*
X154896732Y-73856658D01*
X155121925Y-73587499D01*
X155404073Y-73207472D01*
X155683920Y-72777132D01*
X155953431Y-72312161D01*
X156204569Y-71828242D01*
X156429298Y-71341059D01*
X156619582Y-70866293D01*
X156767384Y-70419628D01*
X156794045Y-70324305D01*
X156829081Y-70203489D01*
X156860786Y-70110157D01*
X156881610Y-70065677D01*
X156898801Y-70083908D01*
X156922694Y-70160699D01*
X156951050Y-70284623D01*
X156981629Y-70444253D01*
X157012192Y-70628162D01*
X157040498Y-70824924D01*
X157057858Y-70964941D01*
X157089529Y-71470478D01*
X157074264Y-72000672D01*
X157014549Y-72536189D01*
X156912866Y-73057695D01*
X156771700Y-73545855D01*
X156702166Y-73733941D01*
X156481022Y-74227057D01*
X156217702Y-74693419D01*
X155906057Y-75141467D01*
X155539940Y-75579644D01*
X155113203Y-76016390D01*
X154887361Y-76225899D01*
X154277084Y-76738304D01*
X153650270Y-77187921D01*
X152994935Y-77582369D01*
X152299097Y-77929268D01*
X152012222Y-78054125D01*
X151862103Y-78118153D01*
X151742778Y-78171298D01*
X151665243Y-78208487D01*
X151640491Y-78224651D01*
X151641806Y-78224946D01*
X151711980Y-78215383D01*
X151835702Y-78187251D01*
X151999634Y-78144448D01*
X152190441Y-78090869D01*
X152394785Y-78030411D01*
X152599330Y-77966970D01*
X152790739Y-77904443D01*
X152955677Y-77846726D01*
X153021883Y-77821737D01*
X153623208Y-77558056D01*
X154187059Y-77249452D01*
X154718679Y-76891668D01*
X155223310Y-76480449D01*
X155706196Y-76011539D01*
X156172579Y-75480681D01*
X156608635Y-74910239D01*
X156633848Y-74877711D01*
X156650723Y-74868879D01*
X156660305Y-74892699D01*
X156663638Y-74958124D01*
X156661767Y-75074111D01*
X156655735Y-75249615D01*
X156653902Y-75298471D01*
X156611495Y-75786261D01*
X156520097Y-76230418D01*
X156375445Y-76640713D01*
X156173275Y-77026918D01*
X155909323Y-77398804D01*
X155579327Y-77766142D01*
X155575433Y-77770073D01*
X155115883Y-78189141D01*
X154613694Y-78560878D01*
X154063281Y-78888887D01*
X153459055Y-79176772D01*
X153279024Y-79250857D01*
X153062007Y-79338967D01*
X152897129Y-79411021D01*
X152770127Y-79474818D01*
X152666738Y-79538156D01*
X152572700Y-79608836D01*
X152483427Y-79685932D01*
X152298094Y-79899506D01*
X152204239Y-80068010D01*
X152156739Y-80179510D01*
X152126845Y-80276692D01*
X152110631Y-80382285D01*
X152104168Y-80519016D01*
X152103351Y-80651874D01*
X152103257Y-80801967D01*
X152102569Y-80921628D01*
X152101408Y-80996106D01*
X152100348Y-81013471D01*
X152070554Y-80996724D01*
X151992701Y-80951408D01*
X151879436Y-80884916D01*
X151774086Y-80822778D01*
X151383661Y-80573489D01*
X151041034Y-80312408D01*
X150723690Y-80021918D01*
X150634547Y-79931088D01*
X150423334Y-79699880D01*
X150253523Y-79485232D01*
X150108367Y-79263743D01*
X149971121Y-79012011D01*
X149957549Y-78984999D01*
X149753425Y-78508671D01*
X149618024Y-78032750D01*
X149549826Y-77551014D01*
X149540417Y-77278063D01*
X149548496Y-76977902D01*
X149573628Y-76724184D01*
X149619601Y-76494053D01*
X149690205Y-76264656D01*
X149723184Y-76175769D01*
X149814838Y-75968927D01*
X149930037Y-75769771D01*
X150076514Y-75568273D01*
X150262002Y-75354405D01*
X150494233Y-75118137D01*
X150660173Y-74960572D01*
X151108768Y-74537248D01*
X151509083Y-74146112D01*
X151869636Y-73777496D01*
X152198949Y-73421732D01*
X152505538Y-73069153D01*
X152797925Y-72710091D01*
X153084628Y-72334879D01*
X153374167Y-71933848D01*
X153548893Y-71682499D01*
X153971614Y-71005787D01*
X154329661Y-70300898D01*
X154623081Y-69567723D01*
X154851919Y-68806151D01*
X154989247Y-68172360D01*
X155077510Y-67523926D01*
X155115759Y-66843721D01*
X155104608Y-66149115D01*
X155044669Y-65457480D01*
X154936556Y-64786187D01*
X154857300Y-64434013D01*
X154773854Y-64099971D01*
X154896864Y-64239985D01*
G37*
D13*
%TO.C,R11*%
X136572936Y-54340000D02*
X138027064Y-54340000D01*
X136572936Y-56160000D02*
X138027064Y-56160000D01*
%TO.C,Q5*%
X129240000Y-50050000D02*
X129240000Y-49400000D01*
X129240000Y-50050000D02*
X129240000Y-50700000D01*
X132360000Y-50050000D02*
X132360000Y-49400000D01*
X132360000Y-50050000D02*
X132360000Y-50700000D01*
X129290000Y-51212500D02*
X128960000Y-51452500D01*
X128960000Y-50972500D01*
X129290000Y-51212500D01*
G36*
X129290000Y-51212500D02*
G01*
X128960000Y-51452500D01*
X128960000Y-50972500D01*
X129290000Y-51212500D01*
G37*
%TO.C,J5*%
X171600000Y-55050000D02*
X171600000Y-56100000D01*
X171800000Y-46700000D02*
X173700000Y-46700000D01*
X171800000Y-49400000D02*
X171800000Y-46700000D01*
X171800000Y-55900000D02*
X171800000Y-53300000D01*
X172650000Y-56100000D02*
X171600000Y-56100000D01*
X177700000Y-46700000D02*
X186500000Y-46700000D01*
X186500000Y-46700000D02*
X186500000Y-55900000D01*
X186500000Y-55900000D02*
X171800000Y-55900000D01*
%TO.C,R9*%
X135190000Y-42922936D02*
X135190000Y-44377064D01*
X137010000Y-42922936D02*
X137010000Y-44377064D01*
%TO.C,R7*%
X140365000Y-63572936D02*
X140365000Y-64027064D01*
X141835000Y-63572936D02*
X141835000Y-64027064D01*
%TO.C,R14*%
X135090000Y-36422936D02*
X135090000Y-37877064D01*
X136910000Y-36422936D02*
X136910000Y-37877064D01*
%TO.C,D9*%
X134865000Y-59700000D02*
X134865000Y-63760000D01*
X134865000Y-63760000D02*
X137135000Y-63760000D01*
X137135000Y-63760000D02*
X137135000Y-59700000D01*
%TO.C,R6*%
X175665000Y-41272936D02*
X175665000Y-41727064D01*
X177135000Y-41272936D02*
X177135000Y-41727064D01*
D15*
%TO.C,G\u002A\u002A\u002A*%
G36*
X162717834Y-72950561D02*
G01*
X162860208Y-72951268D01*
X163001343Y-72952631D01*
X163140644Y-72954642D01*
X163277514Y-72957293D01*
X163411358Y-72960578D01*
X163541580Y-72964490D01*
X163667584Y-72969021D01*
X163788775Y-72974164D01*
X163904556Y-72979912D01*
X164014332Y-72986257D01*
X164117507Y-72993194D01*
X164213331Y-73000700D01*
X164288735Y-73007524D01*
X164356748Y-73014614D01*
X164417789Y-73022036D01*
X164472277Y-73029853D01*
X164520631Y-73038128D01*
X164563270Y-73046927D01*
X164600613Y-73056313D01*
X164624233Y-73063397D01*
X164687728Y-73087993D01*
X164747982Y-73119436D01*
X164804449Y-73157240D01*
X164856581Y-73200919D01*
X164903831Y-73249985D01*
X164945650Y-73303953D01*
X164981491Y-73362336D01*
X164998291Y-73395794D01*
X165013757Y-73433061D01*
X165028308Y-73476387D01*
X165041964Y-73525918D01*
X165054747Y-73581804D01*
X165066676Y-73644192D01*
X165077772Y-73713229D01*
X165088055Y-73789063D01*
X165097547Y-73871842D01*
X165106268Y-73961713D01*
X165114238Y-74058825D01*
X165121478Y-74163324D01*
X165128008Y-74275359D01*
X165132059Y-74356026D01*
X165133244Y-74386655D01*
X165134257Y-74424048D01*
X165135100Y-74467161D01*
X165135772Y-74514948D01*
X165136274Y-74566362D01*
X165136605Y-74620357D01*
X165136765Y-74675888D01*
X165136755Y-74731909D01*
X165136574Y-74787374D01*
X165136223Y-74841236D01*
X165135702Y-74892451D01*
X165135010Y-74939972D01*
X165134148Y-74982752D01*
X165133115Y-75019748D01*
X165132029Y-75047475D01*
X165125924Y-75165316D01*
X165118999Y-75276186D01*
X165111264Y-75380001D01*
X165102729Y-75476678D01*
X165093404Y-75566135D01*
X165083300Y-75648287D01*
X165072425Y-75723052D01*
X165060791Y-75790347D01*
X165048406Y-75850088D01*
X165035282Y-75902193D01*
X165025361Y-75934991D01*
X165000000Y-76000000D01*
X164968121Y-76061011D01*
X164930131Y-76117645D01*
X164886437Y-76169525D01*
X164837444Y-76216272D01*
X164783559Y-76257510D01*
X164725189Y-76292860D01*
X164662739Y-76321945D01*
X164596615Y-76344387D01*
X164580541Y-76348667D01*
X164537246Y-76358394D01*
X164486199Y-76367653D01*
X164427396Y-76376445D01*
X164360834Y-76384770D01*
X164286510Y-76392629D01*
X164204419Y-76400021D01*
X164114560Y-76406947D01*
X164016929Y-76413408D01*
X163911522Y-76419402D01*
X163798336Y-76424931D01*
X163677368Y-76429995D01*
X163548614Y-76434594D01*
X163412071Y-76438728D01*
X163267737Y-76442397D01*
X163115607Y-76445602D01*
X163094121Y-76446006D01*
X163038461Y-76446893D01*
X162976129Y-76447633D01*
X162908265Y-76448224D01*
X162836007Y-76448668D01*
X162760495Y-76448965D01*
X162682870Y-76449115D01*
X162604270Y-76449118D01*
X162525834Y-76448976D01*
X162448703Y-76448689D01*
X162374016Y-76448256D01*
X162302912Y-76447678D01*
X162236531Y-76446956D01*
X162176013Y-76446090D01*
X162152657Y-76445684D01*
X162009286Y-76442731D01*
X161872196Y-76439276D01*
X161741497Y-76435326D01*
X161617300Y-76430888D01*
X161499716Y-76425968D01*
X161388857Y-76420574D01*
X161284832Y-76414712D01*
X161187752Y-76408391D01*
X161097730Y-76401617D01*
X161014875Y-76394397D01*
X160939298Y-76386738D01*
X160871110Y-76378648D01*
X160810422Y-76370133D01*
X160757345Y-76361200D01*
X160723525Y-76354432D01*
X160687845Y-76346062D01*
X160656645Y-76337121D01*
X160627097Y-76326617D01*
X160596375Y-76313559D01*
X160566622Y-76299414D01*
X160508306Y-76266409D01*
X160453899Y-76226981D01*
X160403942Y-76181758D01*
X160358978Y-76131369D01*
X160319549Y-76076441D01*
X160286198Y-76017603D01*
X160259467Y-75955482D01*
X160252698Y-75935925D01*
X160239435Y-75890530D01*
X160226824Y-75837631D01*
X160214893Y-75777507D01*
X160203676Y-75710443D01*
X160193203Y-75636721D01*
X160183504Y-75556624D01*
X160174612Y-75470433D01*
X160172849Y-75450296D01*
X162138985Y-75450296D01*
X162161709Y-75437373D01*
X162167416Y-75434099D01*
X162179539Y-75427118D01*
X162197730Y-75416633D01*
X162221638Y-75402846D01*
X162250915Y-75385957D01*
X162285211Y-75366169D01*
X162324176Y-75343684D01*
X162367463Y-75318702D01*
X162414720Y-75291425D01*
X162465600Y-75262056D01*
X162519751Y-75230795D01*
X162576827Y-75197845D01*
X162636476Y-75163406D01*
X162698350Y-75127681D01*
X162762099Y-75090871D01*
X162810186Y-75063103D01*
X162874726Y-75025823D01*
X162937428Y-74989584D01*
X162997959Y-74954580D01*
X163055987Y-74921002D01*
X163111177Y-74889046D01*
X163163197Y-74858905D01*
X163211714Y-74830771D01*
X163256394Y-74804838D01*
X163296905Y-74781301D01*
X163332913Y-74760351D01*
X163364085Y-74742183D01*
X163390089Y-74726990D01*
X163410590Y-74714966D01*
X163425256Y-74706303D01*
X163433754Y-74701196D01*
X163435887Y-74699800D01*
X163432566Y-74697748D01*
X163422876Y-74692020D01*
X163407214Y-74682846D01*
X163385976Y-74670455D01*
X163359560Y-74655076D01*
X163328363Y-74636941D01*
X163292783Y-74616277D01*
X163253215Y-74593316D01*
X163210058Y-74568286D01*
X163163708Y-74541418D01*
X163114562Y-74512941D01*
X163063018Y-74483085D01*
X163009472Y-74452080D01*
X162954322Y-74420155D01*
X162897964Y-74387541D01*
X162840797Y-74354466D01*
X162783216Y-74321161D01*
X162725619Y-74287856D01*
X162668404Y-74254780D01*
X162611966Y-74222162D01*
X162556704Y-74190233D01*
X162503013Y-74159223D01*
X162451293Y-74129361D01*
X162401939Y-74100876D01*
X162355348Y-74074000D01*
X162311918Y-74048960D01*
X162272045Y-74025988D01*
X162236128Y-74005312D01*
X162204562Y-73987163D01*
X162177745Y-73971770D01*
X162157915Y-73960415D01*
X162138985Y-73949593D01*
X162138985Y-74699944D01*
X162138985Y-75450296D01*
X160172849Y-75450296D01*
X160166558Y-75378432D01*
X160159372Y-75280903D01*
X160153087Y-75178129D01*
X160147732Y-75070392D01*
X160143340Y-74957975D01*
X160142744Y-74940046D01*
X160140402Y-74848704D01*
X160139219Y-74755772D01*
X160139181Y-74699944D01*
X160139155Y-74661782D01*
X160140170Y-74567269D01*
X160142225Y-74472765D01*
X160145279Y-74378803D01*
X160149293Y-74285918D01*
X160154227Y-74194641D01*
X160160041Y-74105507D01*
X160166696Y-74019048D01*
X160174151Y-73935798D01*
X160182367Y-73856291D01*
X160191304Y-73781058D01*
X160200923Y-73710634D01*
X160211183Y-73645552D01*
X160222044Y-73586345D01*
X160233468Y-73533547D01*
X160245413Y-73487690D01*
X160252927Y-73463393D01*
X160278354Y-73398948D01*
X160310367Y-73338239D01*
X160348515Y-73281713D01*
X160392348Y-73229819D01*
X160441416Y-73183006D01*
X160495267Y-73141723D01*
X160553452Y-73106417D01*
X160615520Y-73077537D01*
X160654518Y-73063454D01*
X160689546Y-73053398D01*
X160730995Y-73043834D01*
X160778984Y-73034752D01*
X160833632Y-73026140D01*
X160895056Y-73017985D01*
X160963375Y-73010276D01*
X161038708Y-73003002D01*
X161121172Y-72996150D01*
X161210887Y-72989710D01*
X161307971Y-72983668D01*
X161412542Y-72978015D01*
X161524718Y-72972737D01*
X161605749Y-72969343D01*
X161736583Y-72964552D01*
X161870945Y-72960473D01*
X162008238Y-72957100D01*
X162147868Y-72954424D01*
X162289239Y-72952440D01*
X162431754Y-72951139D01*
X162574818Y-72950515D01*
X162717834Y-72950561D01*
G37*
D13*
%TO.C,R15*%
X130690000Y-36522936D02*
X130690000Y-37977064D01*
X132510000Y-36522936D02*
X132510000Y-37977064D01*
%TO.C,R18*%
X130972936Y-57765000D02*
X131427064Y-57765000D01*
X130972936Y-59235000D02*
X131427064Y-59235000D01*
%TO.C,R4*%
X155990000Y-60827064D02*
X155990000Y-59372936D01*
X157810000Y-60827064D02*
X157810000Y-59372936D01*
D11*
%TO.C,Q1*%
X164639500Y-64546000D02*
X164639500Y-65600000D01*
X164639500Y-65600000D02*
X165401500Y-65600000D01*
X166798500Y-65600000D02*
X167560500Y-65600000D01*
X167560500Y-65600000D02*
X167560500Y-64546000D01*
D13*
%TO.C,R13*%
X139890000Y-36422936D02*
X139890000Y-37877064D01*
X141710000Y-36422936D02*
X141710000Y-37877064D01*
D11*
%TO.C,SW2*%
X160000000Y-58250000D02*
X160000000Y-58480000D01*
X160000000Y-58250000D02*
X164000000Y-58250000D01*
X160000000Y-61150000D02*
X160000000Y-60920000D01*
X164000000Y-58250000D02*
X164000000Y-58480000D01*
X164000000Y-60920000D02*
X164000000Y-61150000D01*
X164000000Y-61150000D02*
X160000000Y-61150000D01*
D13*
%TO.C,J2*%
X108900000Y-44600000D02*
X123600000Y-44600000D01*
X108900000Y-53800000D02*
X108900000Y-44600000D01*
X117700000Y-53800000D02*
X108900000Y-53800000D01*
X122750000Y-44400000D02*
X123800000Y-44400000D01*
X123600000Y-44600000D02*
X123600000Y-47200000D01*
X123600000Y-51100000D02*
X123600000Y-53800000D01*
X123600000Y-53800000D02*
X121700000Y-53800000D01*
X123800000Y-45450000D02*
X123800000Y-44400000D01*
%TO.C,R8*%
X158965000Y-65372936D02*
X158965000Y-65827064D01*
X160435000Y-65372936D02*
X160435000Y-65827064D01*
%TO.C,R10*%
X140722936Y-47740000D02*
X142177064Y-47740000D01*
X140722936Y-49560000D02*
X142177064Y-49560000D01*
%TO.C,C2*%
X110787677Y-61599000D02*
X110787677Y-60401000D01*
X110827677Y-61862000D02*
X110827677Y-60138000D01*
X110867677Y-62062000D02*
X110867677Y-59938000D01*
X110907677Y-62230000D02*
X110907677Y-59770000D01*
X110947677Y-62377000D02*
X110947677Y-59623000D01*
X110987677Y-62509000D02*
X110987677Y-59491000D01*
X111027677Y-62630000D02*
X111027677Y-59370000D01*
X111067677Y-62742000D02*
X111067677Y-59258000D01*
X111107677Y-62846000D02*
X111107677Y-59154000D01*
X111147677Y-62944000D02*
X111147677Y-59056000D01*
X111187677Y-63037000D02*
X111187677Y-58963000D01*
X111227677Y-63124000D02*
X111227677Y-58876000D01*
X111267677Y-63208000D02*
X111267677Y-58792000D01*
X111307677Y-63288000D02*
X111307677Y-58712000D01*
X111347677Y-63365000D02*
X111347677Y-58635000D01*
X111387677Y-63439000D02*
X111387677Y-58561000D01*
X111427677Y-63510000D02*
X111427677Y-58490000D01*
X111467677Y-63578000D02*
X111467677Y-58422000D01*
X111507677Y-63644000D02*
X111507677Y-58356000D01*
X111547677Y-63708000D02*
X111547677Y-58292000D01*
X111587677Y-63770000D02*
X111587677Y-58230000D01*
X111627677Y-63830000D02*
X111627677Y-58170000D01*
X111667677Y-63888000D02*
X111667677Y-58112000D01*
X111707677Y-63945000D02*
X111707677Y-58055000D01*
X111747677Y-64000000D02*
X111747677Y-58000000D01*
X111787677Y-64053000D02*
X111787677Y-57947000D01*
X111827677Y-64105000D02*
X111827677Y-57895000D01*
X111867677Y-64156000D02*
X111867677Y-57844000D01*
X111907677Y-64205000D02*
X111907677Y-57795000D01*
X111947677Y-64254000D02*
X111947677Y-57746000D01*
X111987677Y-64301000D02*
X111987677Y-57699000D01*
X112027677Y-64347000D02*
X112027677Y-57653000D01*
X112067677Y-64391000D02*
X112067677Y-57609000D01*
X112107677Y-64435000D02*
X112107677Y-57565000D01*
X112147677Y-59760000D02*
X112147677Y-57522000D01*
X112147677Y-64478000D02*
X112147677Y-62240000D01*
X112187677Y-59760000D02*
X112187677Y-57480000D01*
X112187677Y-64520000D02*
X112187677Y-62240000D01*
X112227677Y-59760000D02*
X112227677Y-57439000D01*
X112227677Y-64561000D02*
X112227677Y-62240000D01*
X112267677Y-59760000D02*
X112267677Y-57399000D01*
X112267677Y-64601000D02*
X112267677Y-62240000D01*
X112307677Y-59760000D02*
X112307677Y-57360000D01*
X112307677Y-64640000D02*
X112307677Y-62240000D01*
X112347677Y-59760000D02*
X112347677Y-57322000D01*
X112347677Y-64678000D02*
X112347677Y-62240000D01*
X112387677Y-59760000D02*
X112387677Y-57284000D01*
X112387677Y-64716000D02*
X112387677Y-62240000D01*
X112427677Y-59760000D02*
X112427677Y-57248000D01*
X112427677Y-64752000D02*
X112427677Y-62240000D01*
X112467677Y-59760000D02*
X112467677Y-57212000D01*
X112467677Y-64788000D02*
X112467677Y-62240000D01*
X112507677Y-59760000D02*
X112507677Y-57177000D01*
X112507677Y-64823000D02*
X112507677Y-62240000D01*
X112547677Y-59760000D02*
X112547677Y-57142000D01*
X112547677Y-64858000D02*
X112547677Y-62240000D01*
X112587677Y-59760000D02*
X112587677Y-57109000D01*
X112587677Y-64891000D02*
X112587677Y-62240000D01*
X112627677Y-59760000D02*
X112627677Y-57076000D01*
X112627677Y-64924000D02*
X112627677Y-62240000D01*
X112667677Y-59760000D02*
X112667677Y-57043000D01*
X112667677Y-64957000D02*
X112667677Y-62240000D01*
X112707677Y-59760000D02*
X112707677Y-57012000D01*
X112707677Y-64988000D02*
X112707677Y-62240000D01*
X112747677Y-59760000D02*
X112747677Y-56980000D01*
X112747677Y-65020000D02*
X112747677Y-62240000D01*
X112787677Y-59760000D02*
X112787677Y-56950000D01*
X112787677Y-65050000D02*
X112787677Y-62240000D01*
X112827677Y-59760000D02*
X112827677Y-56920000D01*
X112827677Y-65080000D02*
X112827677Y-62240000D01*
X112867677Y-59760000D02*
X112867677Y-56891000D01*
X112867677Y-65109000D02*
X112867677Y-62240000D01*
X112907677Y-59760000D02*
X112907677Y-56862000D01*
X112907677Y-65138000D02*
X112907677Y-62240000D01*
X112947677Y-59760000D02*
X112947677Y-56834000D01*
X112947677Y-65166000D02*
X112947677Y-62240000D01*
X112987677Y-59760000D02*
X112987677Y-56807000D01*
X112987677Y-65193000D02*
X112987677Y-62240000D01*
X113027677Y-59760000D02*
X113027677Y-56780000D01*
X113027677Y-65220000D02*
X113027677Y-62240000D01*
X113067677Y-59760000D02*
X113067677Y-56753000D01*
X113067677Y-65247000D02*
X113067677Y-62240000D01*
X113107677Y-59760000D02*
X113107677Y-56728000D01*
X113107677Y-65272000D02*
X113107677Y-62240000D01*
X113147677Y-59760000D02*
X113147677Y-56702000D01*
X113147677Y-65298000D02*
X113147677Y-62240000D01*
X113187677Y-59760000D02*
X113187677Y-56677000D01*
X113187677Y-65323000D02*
X113187677Y-62240000D01*
X113227677Y-59760000D02*
X113227677Y-56653000D01*
X113227677Y-65347000D02*
X113227677Y-62240000D01*
X113267677Y-59760000D02*
X113267677Y-56629000D01*
X113267677Y-65371000D02*
X113267677Y-62240000D01*
X113307677Y-59760000D02*
X113307677Y-56606000D01*
X113307677Y-65394000D02*
X113307677Y-62240000D01*
X113347677Y-59760000D02*
X113347677Y-56583000D01*
X113347677Y-65417000D02*
X113347677Y-62240000D01*
X113387677Y-59760000D02*
X113387677Y-56561000D01*
X113387677Y-65439000D02*
X113387677Y-62240000D01*
X113427677Y-59760000D02*
X113427677Y-56539000D01*
X113427677Y-65461000D02*
X113427677Y-62240000D01*
X113467677Y-59760000D02*
X113467677Y-56517000D01*
X113467677Y-65483000D02*
X113467677Y-62240000D01*
X113507677Y-59760000D02*
X113507677Y-56496000D01*
X113507677Y-65504000D02*
X113507677Y-62240000D01*
X113547677Y-59760000D02*
X113547677Y-56476000D01*
X113547677Y-65524000D02*
X113547677Y-62240000D01*
X113587677Y-59760000D02*
X113587677Y-56456000D01*
X113587677Y-65544000D02*
X113587677Y-62240000D01*
X113627677Y-59760000D02*
X113627677Y-56436000D01*
X113627677Y-65564000D02*
X113627677Y-62240000D01*
X113667677Y-59760000D02*
X113667677Y-56417000D01*
X113667677Y-65583000D02*
X113667677Y-62240000D01*
X113707677Y-59760000D02*
X113707677Y-56398000D01*
X113707677Y-65602000D02*
X113707677Y-62240000D01*
X113747677Y-59760000D02*
X113747677Y-56380000D01*
X113747677Y-65620000D02*
X113747677Y-62240000D01*
X113787677Y-59760000D02*
X113787677Y-56362000D01*
X113787677Y-65638000D02*
X113787677Y-62240000D01*
X113827677Y-59760000D02*
X113827677Y-56344000D01*
X113827677Y-65656000D02*
X113827677Y-62240000D01*
X113867677Y-59760000D02*
X113867677Y-56327000D01*
X113867677Y-65673000D02*
X113867677Y-62240000D01*
X113907677Y-59760000D02*
X113907677Y-56310000D01*
X113907677Y-65690000D02*
X113907677Y-62240000D01*
X113947677Y-59760000D02*
X113947677Y-56294000D01*
X113947677Y-65706000D02*
X113947677Y-62240000D01*
X113987677Y-59760000D02*
X113987677Y-56278000D01*
X113987677Y-65722000D02*
X113987677Y-62240000D01*
X114027677Y-59760000D02*
X114027677Y-56262000D01*
X114027677Y-65738000D02*
X114027677Y-62240000D01*
X114067677Y-59760000D02*
X114067677Y-56247000D01*
X114067677Y-65753000D02*
X114067677Y-62240000D01*
X114107677Y-59760000D02*
X114107677Y-56232000D01*
X114107677Y-65768000D02*
X114107677Y-62240000D01*
X114147677Y-59760000D02*
X114147677Y-56218000D01*
X114147677Y-65782000D02*
X114147677Y-62240000D01*
X114187677Y-59760000D02*
X114187677Y-56203000D01*
X114187677Y-65797000D02*
X114187677Y-62240000D01*
X114227677Y-59760000D02*
X114227677Y-56190000D01*
X114227677Y-65810000D02*
X114227677Y-62240000D01*
X114267677Y-59760000D02*
X114267677Y-56176000D01*
X114267677Y-65824000D02*
X114267677Y-62240000D01*
X114307677Y-59760000D02*
X114307677Y-56163000D01*
X114307677Y-65837000D02*
X114307677Y-62240000D01*
X114347677Y-59760000D02*
X114347677Y-56151000D01*
X114347677Y-65849000D02*
X114347677Y-62240000D01*
X114387677Y-59760000D02*
X114387677Y-56139000D01*
X114387677Y-65861000D02*
X114387677Y-62240000D01*
X114427677Y-59760000D02*
X114427677Y-56127000D01*
X114427677Y-65873000D02*
X114427677Y-62240000D01*
X114467677Y-59760000D02*
X114467677Y-56115000D01*
X114467677Y-65885000D02*
X114467677Y-62240000D01*
X114507677Y-59760000D02*
X114507677Y-56104000D01*
X114507677Y-65896000D02*
X114507677Y-62240000D01*
X114547677Y-59760000D02*
X114547677Y-56093000D01*
X114547677Y-65907000D02*
X114547677Y-62240000D01*
X114587677Y-59760000D02*
X114587677Y-56083000D01*
X114587677Y-65917000D02*
X114587677Y-62240000D01*
X114627677Y-65928000D02*
X114627677Y-56072000D01*
X114667677Y-65937000D02*
X114667677Y-56063000D01*
X114707677Y-65947000D02*
X114707677Y-56053000D01*
X114747677Y-65956000D02*
X114747677Y-56044000D01*
X114787677Y-65965000D02*
X114787677Y-56035000D01*
X114827677Y-65973000D02*
X114827677Y-56027000D01*
X114867677Y-65981000D02*
X114867677Y-56019000D01*
X114907677Y-65989000D02*
X114907677Y-56011000D01*
X114947677Y-65997000D02*
X114947677Y-56003000D01*
X114987677Y-66004000D02*
X114987677Y-55996000D01*
X115027677Y-66011000D02*
X115027677Y-55989000D01*
X115067677Y-66017000D02*
X115067677Y-55983000D01*
X115107677Y-66023000D02*
X115107677Y-55977000D01*
X115147677Y-66029000D02*
X115147677Y-55971000D01*
X115187677Y-66035000D02*
X115187677Y-55965000D01*
X115227677Y-66040000D02*
X115227677Y-55960000D01*
X115267677Y-66045000D02*
X115267677Y-55955000D01*
X115307677Y-66049000D02*
X115307677Y-55951000D01*
X115347677Y-66054000D02*
X115347677Y-55946000D01*
X115387677Y-66057000D02*
X115387677Y-55943000D01*
X115427677Y-66061000D02*
X115427677Y-55939000D01*
X115467677Y-66064000D02*
X115467677Y-55936000D01*
X115507677Y-66067000D02*
X115507677Y-55933000D01*
X115547677Y-66070000D02*
X115547677Y-55930000D01*
X115587677Y-66072000D02*
X115587677Y-55928000D01*
X115627677Y-66074000D02*
X115627677Y-55926000D01*
X115667677Y-66076000D02*
X115667677Y-55924000D01*
X115707677Y-66077000D02*
X115707677Y-55923000D01*
X115747677Y-66079000D02*
X115747677Y-55921000D01*
X115787677Y-66079000D02*
X115787677Y-55921000D01*
X115827677Y-66080000D02*
X115827677Y-55920000D01*
X115867677Y-66080000D02*
X115867677Y-55920000D01*
X120847323Y-64375000D02*
X120847323Y-63375000D01*
X121347323Y-63875000D02*
X120347323Y-63875000D01*
X120987677Y-61000000D02*
G75*
G02*
X110747677Y-61000000I-5120000J0D01*
G01*
X110747677Y-61000000D02*
G75*
G02*
X120987677Y-61000000I5120000J0D01*
G01*
D11*
%TO.C,Q2*%
X180646000Y-42960500D02*
X181700000Y-42960500D01*
X181700000Y-40039500D02*
X180646000Y-40039500D01*
X181700000Y-40801500D02*
X181700000Y-40039500D01*
X181700000Y-42960500D02*
X181700000Y-42198500D01*
%TO.C,SW1*%
X145900000Y-58450000D02*
X145900000Y-58680000D01*
X145900000Y-58450000D02*
X149900000Y-58450000D01*
X145900000Y-61350000D02*
X145900000Y-61120000D01*
X149900000Y-58450000D02*
X149900000Y-58680000D01*
X149900000Y-61120000D02*
X149900000Y-61350000D01*
X149900000Y-61350000D02*
X145900000Y-61350000D01*
D13*
%TO.C,U1*%
X146535000Y-29950000D02*
X146535000Y-36110000D01*
X146535000Y-29950000D02*
X164775000Y-29950000D01*
X146535000Y-54910000D02*
X146535000Y-55690000D01*
X146535000Y-55690000D02*
X147535000Y-55690000D01*
X164775000Y-29950000D02*
X164775000Y-36365000D01*
X164775000Y-54910000D02*
X164775000Y-55690000D01*
X164775000Y-55690000D02*
X163775000Y-55690000D01*
X146530000Y-36835000D02*
X146030000Y-36835000D01*
X146530000Y-36335000D01*
X146530000Y-36835000D01*
G36*
X146530000Y-36835000D02*
G01*
X146030000Y-36835000D01*
X146530000Y-36335000D01*
X146530000Y-36835000D01*
G37*
%TO.C,R3*%
X166665000Y-50772936D02*
X166665000Y-51227064D01*
X168135000Y-50772936D02*
X168135000Y-51227064D01*
%TD*%
M02*
