%TF.GenerationSoftware,KiCad,Pcbnew,9.0.2*%
%TF.CreationDate,2025-11-11T23:34:29+02:00*%
%TF.ProjectId,Neon_2x1M_12V,4e656f6e-5f32-4783-914d-5f3132562e6b,REV1_1*%
%TF.SameCoordinates,Original*%
%TF.FileFunction,Copper,L1,Top*%
%TF.FilePolarity,Positive*%
%FSLAX46Y46*%
G04 Gerber Fmt 4.6, Leading zero omitted, Abs format (unit mm)*
G04 Created by KiCad (PCBNEW 9.0.2) date 2025-11-11 23:34:29*
%MOMM*%
%LPD*%
G01*
G04 APERTURE LIST*
G04 Aperture macros list*
%AMRoundRect*
0 Rectangle with rounded corners*
0 $1 Rounding radius*
0 $2 $3 $4 $5 $6 $7 $8 $9 X,Y pos of 4 corners*
0 Add a 4 corners polygon primitive as box body*
4,1,4,$2,$3,$4,$5,$6,$7,$8,$9,$2,$3,0*
0 Add four circle primitives for the rounded corners*
1,1,$1+$1,$2,$3*
1,1,$1+$1,$4,$5*
1,1,$1+$1,$6,$7*
1,1,$1+$1,$8,$9*
0 Add four rect primitives between the rounded corners*
20,1,$1+$1,$2,$3,$4,$5,0*
20,1,$1+$1,$4,$5,$6,$7,0*
20,1,$1+$1,$6,$7,$8,$9,0*
20,1,$1+$1,$8,$9,$2,$3,0*%
G04 Aperture macros list end*
%TA.AperFunction,SMDPad,CuDef*%
%ADD10RoundRect,0.250000X-0.350000X-0.450000X0.350000X-0.450000X0.350000X0.450000X-0.350000X0.450000X0*%
%TD*%
%TA.AperFunction,SMDPad,CuDef*%
%ADD11RoundRect,0.250000X-0.400000X-0.625000X0.400000X-0.625000X0.400000X0.625000X-0.400000X0.625000X0*%
%TD*%
%TA.AperFunction,SMDPad,CuDef*%
%ADD12R,1.752600X4.495800*%
%TD*%
%TA.AperFunction,ComponentPad*%
%ADD13R,1.700000X1.700000*%
%TD*%
%TA.AperFunction,ComponentPad*%
%ADD14C,1.700000*%
%TD*%
%TA.AperFunction,SMDPad,CuDef*%
%ADD15RoundRect,0.150000X0.150000X-0.750000X0.150000X0.750000X-0.150000X0.750000X-0.150000X-0.750000X0*%
%TD*%
%TA.AperFunction,SMDPad,CuDef*%
%ADD16RoundRect,0.250000X0.400000X0.625000X-0.400000X0.625000X-0.400000X-0.625000X0.400000X-0.625000X0*%
%TD*%
%TA.AperFunction,ComponentPad*%
%ADD17C,0.800000*%
%TD*%
%TA.AperFunction,ComponentPad*%
%ADD18C,6.400000*%
%TD*%
%TA.AperFunction,SMDPad,CuDef*%
%ADD19RoundRect,0.250000X0.625000X-0.400000X0.625000X0.400000X-0.625000X0.400000X-0.625000X-0.400000X0*%
%TD*%
%TA.AperFunction,SMDPad,CuDef*%
%ADD20RoundRect,0.150000X0.150000X-0.825000X0.150000X0.825000X-0.150000X0.825000X-0.150000X-0.825000X0*%
%TD*%
%TA.AperFunction,SMDPad,CuDef*%
%ADD21RoundRect,0.250000X-0.650000X0.325000X-0.650000X-0.325000X0.650000X-0.325000X0.650000X0.325000X0*%
%TD*%
%TA.AperFunction,SMDPad,CuDef*%
%ADD22RoundRect,0.250000X-0.625000X0.400000X-0.625000X-0.400000X0.625000X-0.400000X0.625000X0.400000X0*%
%TD*%
%TA.AperFunction,SMDPad,CuDef*%
%ADD23RoundRect,0.250000X-1.950000X-1.000000X1.950000X-1.000000X1.950000X1.000000X-1.950000X1.000000X0*%
%TD*%
%TA.AperFunction,SMDPad,CuDef*%
%ADD24RoundRect,0.250001X-0.624999X0.462499X-0.624999X-0.462499X0.624999X-0.462499X0.624999X0.462499X0*%
%TD*%
%TA.AperFunction,SMDPad,CuDef*%
%ADD25R,1.016000X1.200000*%
%TD*%
%TA.AperFunction,ComponentPad*%
%ADD26R,1.070000X1.800000*%
%TD*%
%TA.AperFunction,ComponentPad*%
%ADD27O,1.070000X1.800000*%
%TD*%
%TA.AperFunction,ComponentPad*%
%ADD28R,3.500000X3.500000*%
%TD*%
%TA.AperFunction,ComponentPad*%
%ADD29RoundRect,0.750000X0.750000X1.000000X-0.750000X1.000000X-0.750000X-1.000000X0.750000X-1.000000X0*%
%TD*%
%TA.AperFunction,ComponentPad*%
%ADD30RoundRect,0.875000X0.875000X0.875000X-0.875000X0.875000X-0.875000X-0.875000X0.875000X-0.875000X0*%
%TD*%
%TA.AperFunction,SMDPad,CuDef*%
%ADD31RoundRect,0.250000X1.000000X0.650000X-1.000000X0.650000X-1.000000X-0.650000X1.000000X-0.650000X0*%
%TD*%
%TA.AperFunction,SMDPad,CuDef*%
%ADD32RoundRect,0.250000X-0.450000X0.350000X-0.450000X-0.350000X0.450000X-0.350000X0.450000X0.350000X0*%
%TD*%
%TA.AperFunction,SMDPad,CuDef*%
%ADD33RoundRect,0.250001X0.624999X-0.462499X0.624999X0.462499X-0.624999X0.462499X-0.624999X-0.462499X0*%
%TD*%
%TA.AperFunction,SMDPad,CuDef*%
%ADD34R,1.350000X1.800000*%
%TD*%
%TA.AperFunction,ComponentPad*%
%ADD35RoundRect,0.750000X-0.750000X-1.000000X0.750000X-1.000000X0.750000X1.000000X-0.750000X1.000000X0*%
%TD*%
%TA.AperFunction,ComponentPad*%
%ADD36RoundRect,0.875000X-0.875000X-0.875000X0.875000X-0.875000X0.875000X0.875000X-0.875000X0.875000X0*%
%TD*%
%TA.AperFunction,ComponentPad*%
%ADD37RoundRect,0.250000X0.750000X0.750000X-0.750000X0.750000X-0.750000X-0.750000X0.750000X-0.750000X0*%
%TD*%
%TA.AperFunction,ComponentPad*%
%ADD38C,2.000000*%
%TD*%
%TA.AperFunction,SMDPad,CuDef*%
%ADD39R,1.200000X1.016000*%
%TD*%
%TA.AperFunction,SMDPad,CuDef*%
%ADD40R,1.500000X0.900000*%
%TD*%
%TA.AperFunction,SMDPad,CuDef*%
%ADD41R,0.900000X1.500000*%
%TD*%
%TA.AperFunction,SMDPad,CuDef*%
%ADD42R,1.050000X1.050000*%
%TD*%
%TA.AperFunction,HeatsinkPad*%
%ADD43C,0.600000*%
%TD*%
%TA.AperFunction,HeatsinkPad*%
%ADD44R,4.200000X4.200000*%
%TD*%
%TA.AperFunction,ViaPad*%
%ADD45C,1.500000*%
%TD*%
%TA.AperFunction,ViaPad*%
%ADD46C,0.800000*%
%TD*%
%TA.AperFunction,Conductor*%
%ADD47C,1.270000*%
%TD*%
%TA.AperFunction,Conductor*%
%ADD48C,0.635000*%
%TD*%
%TA.AperFunction,Conductor*%
%ADD49C,0.508000*%
%TD*%
%TA.AperFunction,Conductor*%
%ADD50C,0.254000*%
%TD*%
G04 APERTURE END LIST*
D10*
%TO.P,R17,1*%
%TO.N,Net-(Q4-G)*%
X138700000Y-58600000D03*
%TO.P,R17,2*%
%TO.N,GND*%
X140700000Y-58600000D03*
%TD*%
D11*
%TO.P,R12,1*%
%TO.N,Net-(Q5-G)*%
X128550000Y-55100000D03*
%TO.P,R12,2*%
%TO.N,ESP_IO27*%
X131650000Y-55100000D03*
%TD*%
D12*
%TO.P,L1,1*%
%TO.N,Net-(D1-K)*%
X124474400Y-73800000D03*
%TO.P,L1,2*%
%TO.N,+3V3*%
X127725600Y-73800000D03*
%TD*%
D13*
%TO.P,J6,1,Pin_1*%
%TO.N,ESP_U0RX*%
X175140000Y-36600000D03*
D14*
%TO.P,J6,2,Pin_2*%
%TO.N,ESP_U0TX*%
X172600000Y-36600000D03*
%TO.P,J6,3,Pin_3*%
%TO.N,GND*%
X170060000Y-36600000D03*
%TD*%
D15*
%TO.P,Q4,1,G*%
%TO.N,Net-(Q4-G)*%
X135250000Y-51250000D03*
%TO.P,Q4,2,S*%
%TO.N,GND*%
X137150000Y-51250000D03*
%TO.P,Q4,3,D*%
%TO.N,Net-(Q4-D)*%
X136200000Y-49050000D03*
%TD*%
D16*
%TO.P,R5,1*%
%TO.N,Net-(Q2-G)*%
X173450000Y-41400000D03*
%TO.P,R5,2*%
%TO.N,ESP_IO19*%
X170350000Y-41400000D03*
%TD*%
D17*
%TO.P,H4,1,1*%
%TO.N,GND*%
X111600000Y-76500000D03*
X112302944Y-74802944D03*
X112302944Y-78197056D03*
X114000000Y-74100000D03*
D18*
X114000000Y-76500000D03*
D17*
X114000000Y-78900000D03*
X115697056Y-74802944D03*
X115697056Y-78197056D03*
X116400000Y-76500000D03*
%TD*%
D19*
%TO.P,R2,1*%
%TO.N,Net-(Q1-G)*%
X169600000Y-46950000D03*
%TO.P,R2,2*%
%TO.N,ESP_IO18*%
X169600000Y-43850000D03*
%TD*%
D20*
%TO.P,U2,1,VIN*%
%TO.N,+12V*%
X124095000Y-67475000D03*
%TO.P,U2,2,OUT*%
%TO.N,Net-(D1-K)*%
X125365000Y-67475000D03*
%TO.P,U2,3,FB*%
%TO.N,+3V3*%
X126635000Y-67475000D03*
%TO.P,U2,4,~{EN}*%
%TO.N,GND*%
X127905000Y-67475000D03*
%TO.P,U2,5,GND*%
X127905000Y-62525000D03*
%TO.P,U2,6,GND*%
X126635000Y-62525000D03*
%TO.P,U2,7,GND*%
X125365000Y-62525000D03*
%TO.P,U2,8,GND*%
X124095000Y-62525000D03*
%TD*%
D21*
%TO.P,C1,1*%
%TO.N,+12V*%
X124000000Y-56025000D03*
%TO.P,C1,2*%
%TO.N,GND*%
X124000000Y-58975000D03*
%TD*%
D22*
%TO.P,R1,1*%
%TO.N,Net-(D9-A)*%
X132100000Y-61950000D03*
%TO.P,R1,2*%
%TO.N,+3V3*%
X132100000Y-65050000D03*
%TD*%
D23*
%TO.P,C3,1*%
%TO.N,+3V3*%
X133400000Y-72800000D03*
%TO.P,C3,2*%
%TO.N,GND*%
X141800000Y-72800000D03*
%TD*%
D10*
%TO.P,R16,1*%
%TO.N,Net-(Q3-G)*%
X139700000Y-52000000D03*
%TO.P,R16,2*%
%TO.N,GND*%
X141700000Y-52000000D03*
%TD*%
D24*
%TO.P,D5,1,K*%
%TO.N,GND*%
X153400000Y-58712500D03*
%TO.P,D5,2,A*%
%TO.N,Net-(D5-A)*%
X153400000Y-61687500D03*
%TD*%
D25*
%TO.P,Q3,1,G*%
%TO.N,Net-(Q3-G)*%
X139650000Y-44610000D03*
%TO.P,Q3,2,S*%
%TO.N,GND*%
X141550000Y-44610000D03*
%TO.P,Q3,3,D*%
%TO.N,Net-(Q3-D)*%
X140600000Y-42490000D03*
%TD*%
D26*
%TO.P,D11,1,BK*%
%TO.N,Net-(D11-BK)*%
X126070000Y-37200000D03*
D27*
%TO.P,D11,2,GK*%
%TO.N,Net-(D11-GK)*%
X124800000Y-37200000D03*
%TO.P,D11,3,A*%
%TO.N,+12V*%
X123530000Y-37200000D03*
%TO.P,D11,4,RK*%
%TO.N,Net-(D11-RK)*%
X122260000Y-37200000D03*
%TD*%
D17*
%TO.P,H2,1,1*%
%TO.N,GND*%
X111600000Y-35000000D03*
X112302944Y-33302944D03*
X112302944Y-36697056D03*
X114000000Y-32600000D03*
D18*
X114000000Y-35000000D03*
D17*
X114000000Y-37400000D03*
X115697056Y-33302944D03*
X115697056Y-36697056D03*
X116400000Y-35000000D03*
%TD*%
D28*
%TO.P,J4,1*%
%TO.N,+12V*%
X172700000Y-64757500D03*
D29*
%TO.P,J4,2*%
%TO.N,B_Jack*%
X178700000Y-64757500D03*
D30*
%TO.P,J4,3,MountPin*%
%TO.N,unconnected-(J4-MountPin-Pad3)*%
X175700000Y-60057500D03*
%TD*%
D22*
%TO.P,R19,1*%
%TO.N,Net-(R15-Pad2)*%
X131600000Y-42300000D03*
%TO.P,R19,2*%
%TO.N,Net-(Q5-D)*%
X131600000Y-45400000D03*
%TD*%
D31*
%TO.P,D1,1,K*%
%TO.N,Net-(D1-K)*%
X119100000Y-70000000D03*
%TO.P,D1,2,A*%
%TO.N,GND*%
X115100000Y-70000000D03*
%TD*%
D11*
%TO.P,R11,1*%
%TO.N,Net-(Q4-G)*%
X135750000Y-55250000D03*
%TO.P,R11,2*%
%TO.N,ESP_IO26*%
X138850000Y-55250000D03*
%TD*%
D15*
%TO.P,Q5,1,G*%
%TO.N,Net-(Q5-G)*%
X129850000Y-51150000D03*
%TO.P,Q5,2,S*%
%TO.N,GND*%
X131750000Y-51150000D03*
%TO.P,Q5,3,D*%
%TO.N,Net-(Q5-D)*%
X130800000Y-48950000D03*
%TD*%
D28*
%TO.P,J5,1*%
%TO.N,+12V*%
X172700000Y-51300000D03*
D29*
%TO.P,J5,2*%
%TO.N,P_Jack*%
X178700000Y-51300000D03*
D30*
%TO.P,J5,3,MountPin*%
%TO.N,unconnected-(J5-MountPin-Pad3)*%
X175700000Y-46600000D03*
%TD*%
D22*
%TO.P,R9,1*%
%TO.N,Net-(R14-Pad2)*%
X136100000Y-42100000D03*
%TO.P,R9,2*%
%TO.N,Net-(Q4-D)*%
X136100000Y-45200000D03*
%TD*%
D32*
%TO.P,R7,1*%
%TO.N,ESP_EN*%
X141100000Y-62800000D03*
%TO.P,R7,2*%
%TO.N,+3V3*%
X141100000Y-64800000D03*
%TD*%
D22*
%TO.P,R14,1*%
%TO.N,Net-(D11-GK)*%
X136000000Y-35600000D03*
%TO.P,R14,2*%
%TO.N,Net-(R14-Pad2)*%
X136000000Y-38700000D03*
%TD*%
D33*
%TO.P,D9,1,K*%
%TO.N,GND*%
X136000000Y-62787500D03*
%TO.P,D9,2,A*%
%TO.N,Net-(D9-A)*%
X136000000Y-59812500D03*
%TD*%
D32*
%TO.P,R6,1*%
%TO.N,Net-(Q2-G)*%
X176400000Y-40500000D03*
%TO.P,R6,2*%
%TO.N,GND*%
X176400000Y-42500000D03*
%TD*%
D22*
%TO.P,R15,1*%
%TO.N,Net-(D11-BK)*%
X131600000Y-35700000D03*
%TO.P,R15,2*%
%TO.N,Net-(R15-Pad2)*%
X131600000Y-38800000D03*
%TD*%
D10*
%TO.P,R18,1*%
%TO.N,Net-(Q5-G)*%
X130200000Y-58500000D03*
%TO.P,R18,2*%
%TO.N,GND*%
X132200000Y-58500000D03*
%TD*%
D19*
%TO.P,R4,1*%
%TO.N,Net-(D5-A)*%
X156900000Y-61650000D03*
%TO.P,R4,2*%
%TO.N,ESP_IO2*%
X156900000Y-58550000D03*
%TD*%
D25*
%TO.P,Q1,1,G*%
%TO.N,Net-(Q1-G)*%
X167050000Y-63740000D03*
%TO.P,Q1,2,S*%
%TO.N,GND*%
X165150000Y-63740000D03*
%TO.P,Q1,3,D*%
%TO.N,B_Jack*%
X166100000Y-65860000D03*
%TD*%
D22*
%TO.P,R13,1*%
%TO.N,Net-(D11-RK)*%
X140800000Y-35600000D03*
%TO.P,R13,2*%
%TO.N,Net-(Q3-D)*%
X140800000Y-38700000D03*
%TD*%
D34*
%TO.P,SW2,1,1*%
%TO.N,GND*%
X164075000Y-59700000D03*
%TO.P,SW2,2,2*%
%TO.N,ESP_IO0*%
X159925000Y-59700000D03*
%TD*%
D28*
%TO.P,J2,1*%
%TO.N,+12V*%
X122700000Y-49200000D03*
D35*
%TO.P,J2,2*%
%TO.N,GND*%
X116700000Y-49200000D03*
D36*
%TO.P,J2,3,MountPin*%
%TO.N,unconnected-(J2-MountPin-Pad3)*%
X119700000Y-53900000D03*
%TD*%
D32*
%TO.P,R8,1*%
%TO.N,ESP_IO0*%
X159700000Y-64600000D03*
%TO.P,R8,2*%
%TO.N,+3V3*%
X159700000Y-66600000D03*
%TD*%
D17*
%TO.P,H3,1,1*%
%TO.N,GND*%
X179100000Y-76500000D03*
X179802944Y-74802944D03*
X179802944Y-78197056D03*
X181500000Y-74100000D03*
D18*
X181500000Y-76500000D03*
D17*
X181500000Y-78900000D03*
X183197056Y-74802944D03*
X183197056Y-78197056D03*
X183900000Y-76500000D03*
%TD*%
D11*
%TO.P,R10,1*%
%TO.N,Net-(Q3-G)*%
X139900000Y-48650000D03*
%TO.P,R10,2*%
%TO.N,ESP_IO25*%
X143000000Y-48650000D03*
%TD*%
D37*
%TO.P,C2,1*%
%TO.N,+12V*%
X118367677Y-61000000D03*
D38*
%TO.P,C2,2*%
%TO.N,GND*%
X113367677Y-61000000D03*
%TD*%
D39*
%TO.P,Q2,1,G*%
%TO.N,Net-(Q2-G)*%
X179840000Y-40550000D03*
%TO.P,Q2,2,S*%
%TO.N,GND*%
X179840000Y-42450000D03*
%TO.P,Q2,3,D*%
%TO.N,P_Jack*%
X181960000Y-41500000D03*
%TD*%
D34*
%TO.P,SW1,1,1*%
%TO.N,GND*%
X149975000Y-59900000D03*
%TO.P,SW1,2,2*%
%TO.N,ESP_EN*%
X145825000Y-59900000D03*
%TD*%
D17*
%TO.P,H1,1,1*%
%TO.N,GND*%
X179100000Y-35000000D03*
X179802944Y-33302944D03*
X179802944Y-36697056D03*
X181500000Y-32600000D03*
D18*
X181500000Y-35000000D03*
D17*
X181500000Y-37400000D03*
X183197056Y-33302944D03*
X183197056Y-36697056D03*
X183900000Y-35000000D03*
%TD*%
D40*
%TO.P,U1,1,GND*%
%TO.N,GND*%
X146905000Y-37560000D03*
%TO.P,U1,2,VDD*%
%TO.N,+3V3*%
X146905000Y-38830000D03*
%TO.P,U1,3,EN*%
%TO.N,ESP_EN*%
X146905000Y-40100000D03*
%TO.P,U1,4,SENSOR_VP*%
%TO.N,ESP_SVP*%
X146905000Y-41370000D03*
%TO.P,U1,5,SENSOR_VN*%
%TO.N,ESP_SVN*%
X146905000Y-42640000D03*
%TO.P,U1,6,IO34*%
%TO.N,ESP_IO34*%
X146905000Y-43910000D03*
%TO.P,U1,7,IO35*%
%TO.N,ESP_IO35*%
X146905000Y-45180000D03*
%TO.P,U1,8,IO32*%
%TO.N,ESP_IO32*%
X146905000Y-46450000D03*
%TO.P,U1,9,IO33*%
%TO.N,ESP_IO33*%
X146905000Y-47720000D03*
%TO.P,U1,10,IO25*%
%TO.N,ESP_IO25*%
X146905000Y-48990000D03*
%TO.P,U1,11,IO26*%
%TO.N,ESP_IO26*%
X146905000Y-50260000D03*
%TO.P,U1,12,IO27*%
%TO.N,ESP_IO27*%
X146905000Y-51530000D03*
%TO.P,U1,13,IO14*%
%TO.N,ESP_IO14*%
X146905000Y-52800000D03*
%TO.P,U1,14,IO12*%
%TO.N,ESP_IO12*%
X146905000Y-54070000D03*
D41*
%TO.P,U1,15,GND*%
%TO.N,GND*%
X149945000Y-55320000D03*
%TO.P,U1,16,IO13*%
%TO.N,ESP_IO13*%
X151215000Y-55320000D03*
%TO.P,U1,17,SHD/SD2*%
%TO.N,unconnected-(U1-SHD{slash}SD2-Pad17)*%
X152485000Y-55320000D03*
%TO.P,U1,18,SWP/SD3*%
%TO.N,unconnected-(U1-SWP{slash}SD3-Pad18)*%
X153755000Y-55320000D03*
%TO.P,U1,19,SCS/CMD*%
%TO.N,unconnected-(U1-SCS{slash}CMD-Pad19)*%
X155025000Y-55320000D03*
%TO.P,U1,20,SCK/CLK*%
%TO.N,unconnected-(U1-SCK{slash}CLK-Pad20)*%
X156295000Y-55320000D03*
%TO.P,U1,21,SDO/SD0*%
%TO.N,unconnected-(U1-SDO{slash}SD0-Pad21)*%
X157565000Y-55320000D03*
%TO.P,U1,22,SDI/SD1*%
%TO.N,unconnected-(U1-SDI{slash}SD1-Pad22)*%
X158835000Y-55320000D03*
%TO.P,U1,23,IO15*%
%TO.N,ESP_IO15*%
X160105000Y-55320000D03*
%TO.P,U1,24,IO2*%
%TO.N,ESP_IO2*%
X161375000Y-55320000D03*
D40*
%TO.P,U1,25,IO0*%
%TO.N,ESP_IO0*%
X164405000Y-54070000D03*
%TO.P,U1,26,IO4*%
%TO.N,ESP_IO4*%
X164405000Y-52800000D03*
%TO.P,U1,27,IO16*%
%TO.N,ESP_IO16*%
X164405000Y-51530000D03*
%TO.P,U1,28,IO17*%
%TO.N,ESP_IO17*%
X164405000Y-50260000D03*
%TO.P,U1,29,IO5*%
%TO.N,ESP_IO5*%
X164405000Y-48990000D03*
%TO.P,U1,30,IO18*%
%TO.N,ESP_IO18*%
X164405000Y-47720000D03*
%TO.P,U1,31,IO19*%
%TO.N,ESP_IO19*%
X164405000Y-46450000D03*
%TO.P,U1,32,NC*%
%TO.N,unconnected-(U1-NC-Pad32)*%
X164405000Y-45180000D03*
%TO.P,U1,33,IO21*%
%TO.N,ESP_IO21*%
X164405000Y-43910000D03*
%TO.P,U1,34,RXD0/IO3*%
%TO.N,ESP_U0RX*%
X164405000Y-42640000D03*
%TO.P,U1,35,TXD0/IO1*%
%TO.N,ESP_U0TX*%
X164405000Y-41370000D03*
%TO.P,U1,36,IO22*%
%TO.N,ESP_IO22*%
X164405000Y-40100000D03*
%TO.P,U1,37,IO23*%
%TO.N,ESP_IO23*%
X164405000Y-38830000D03*
%TO.P,U1,38,GND*%
%TO.N,GND*%
X164405000Y-37560000D03*
D42*
%TO.P,U1,39,GND*%
X153450000Y-43375000D03*
D43*
X153450000Y-44137500D03*
D42*
X153450000Y-44900000D03*
D43*
X153450000Y-45662500D03*
D42*
X153450000Y-46425000D03*
D43*
X154212500Y-43375000D03*
X154212500Y-44900000D03*
X154212500Y-46425000D03*
D42*
X154975000Y-43375000D03*
D43*
X154975000Y-44137500D03*
D42*
X154975000Y-44900000D03*
D44*
X154975000Y-44900000D03*
D43*
X154975000Y-45662500D03*
D42*
X154975000Y-46425000D03*
D43*
X155737500Y-43375000D03*
X155737500Y-44900000D03*
X155737500Y-46425000D03*
D42*
X156500000Y-43375000D03*
D43*
X156500000Y-44137500D03*
D42*
X156500000Y-44900000D03*
D43*
X156500000Y-45662500D03*
D42*
X156500000Y-46425000D03*
%TD*%
D32*
%TO.P,R3,1*%
%TO.N,Net-(Q1-G)*%
X167400000Y-50000000D03*
%TO.P,R3,2*%
%TO.N,GND*%
X167400000Y-52000000D03*
%TD*%
D45*
%TO.N,+12V*%
X146200000Y-72600000D03*
X124200000Y-53300000D03*
X171900000Y-55800000D03*
X159000000Y-72600000D03*
X121683838Y-57683838D03*
X170800000Y-72600000D03*
X119990000Y-64490000D03*
D46*
%TO.N,+3V3*%
X144900000Y-39900000D03*
X139100000Y-63300000D03*
%TO.N,ESP_IO27*%
X134000000Y-57200000D03*
X141700000Y-56200000D03*
%TO.N,ESP_EN*%
X144700000Y-56000000D03*
X144700000Y-42300000D03*
D45*
%TO.N,B_Jack*%
X169600000Y-69700000D03*
X166100000Y-68500000D03*
X176000000Y-69700000D03*
%TO.N,P_Jack*%
X182600000Y-45200000D03*
%TD*%
D47*
%TO.N,+12V*%
X119990000Y-64490000D02*
X122800000Y-67300000D01*
X124200000Y-55825000D02*
X124000000Y-56025000D01*
X119716162Y-57683838D02*
X121683838Y-57683838D01*
X171900000Y-55800000D02*
X179200000Y-55800000D01*
D48*
X123530000Y-37200000D02*
X123530000Y-48370000D01*
D47*
X122700000Y-50500000D02*
X124200000Y-52000000D01*
X118367677Y-59032323D02*
X119716162Y-57683838D01*
X119990000Y-64490000D02*
X118367677Y-62867677D01*
X118367677Y-61000000D02*
X118367677Y-59032323D01*
X123700000Y-67300000D02*
X123700000Y-67900000D01*
X122700000Y-49200000D02*
X122700000Y-50500000D01*
X171900000Y-63957500D02*
X172700000Y-64757500D01*
X171900000Y-52100000D02*
X172700000Y-51300000D01*
X179200000Y-55800000D02*
X183300000Y-59900000D01*
X171900000Y-55800000D02*
X171900000Y-52100000D01*
X118367677Y-61000000D02*
X118400000Y-61000000D01*
X124200000Y-52000000D02*
X124200000Y-55825000D01*
X118367677Y-62867677D02*
X118367677Y-61000000D01*
X171900000Y-55800000D02*
X171900000Y-63957500D01*
X183300000Y-59900000D02*
X183300000Y-67500000D01*
X122800000Y-67300000D02*
X123700000Y-67300000D01*
X159000000Y-72600000D02*
X170800000Y-72600000D01*
X123342676Y-56025000D02*
X121683838Y-57683838D01*
X124000000Y-56025000D02*
X123342676Y-56025000D01*
X183300000Y-67500000D02*
X178200000Y-72600000D01*
X178200000Y-72600000D02*
X170800000Y-72600000D01*
X146200000Y-72600000D02*
X159000000Y-72600000D01*
D48*
X123530000Y-48370000D02*
X122700000Y-49200000D01*
D49*
%TO.N,+3V3*%
X126635000Y-68449999D02*
X127725600Y-69540599D01*
X138700000Y-65000000D02*
X138700000Y-63700000D01*
X146835000Y-38900000D02*
X146905000Y-38830000D01*
X144900000Y-39900000D02*
X145900000Y-38900000D01*
X138700000Y-63700000D02*
X139100000Y-63300000D01*
X126635000Y-67475000D02*
X126635000Y-68449999D01*
X127725600Y-69540599D02*
X127725600Y-73800000D01*
X145900000Y-38900000D02*
X146835000Y-38900000D01*
X149300000Y-66600000D02*
X147500000Y-64800000D01*
X138700000Y-65000000D02*
X140900000Y-65000000D01*
X147500000Y-64800000D02*
X141100000Y-64800000D01*
X130200000Y-73800000D02*
X131200000Y-72800000D01*
X131200000Y-72800000D02*
X133400000Y-72800000D01*
X129700000Y-67450000D02*
X132100000Y-65050000D01*
X132100000Y-65050000D02*
X132150000Y-65000000D01*
X159700000Y-66600000D02*
X149300000Y-66600000D01*
X129700000Y-73800000D02*
X129700000Y-67450000D01*
X127725600Y-73800000D02*
X129700000Y-73800000D01*
X140900000Y-65000000D02*
X141100000Y-64800000D01*
X127725600Y-73800000D02*
X130200000Y-73800000D01*
X132150000Y-65000000D02*
X138700000Y-65000000D01*
%TO.N,Net-(D1-K)*%
X124100000Y-70000000D02*
X125365000Y-68735000D01*
X124474400Y-73800000D02*
X124474400Y-70374400D01*
X125365000Y-68735000D02*
X125365000Y-67475000D01*
X124474400Y-70374400D02*
X124100000Y-70000000D01*
X119100000Y-70000000D02*
X124100000Y-70000000D01*
D50*
%TO.N,Net-(D5-A)*%
X153400000Y-61687500D02*
X156862500Y-61687500D01*
X156862500Y-61687500D02*
X156900000Y-61650000D01*
%TO.N,Net-(D9-A)*%
X133687500Y-59812500D02*
X136000000Y-59812500D01*
X132100000Y-61400000D02*
X133687500Y-59812500D01*
X132100000Y-61950000D02*
X132100000Y-61400000D01*
%TO.N,Net-(D11-BK)*%
X126070000Y-37200000D02*
X128900000Y-37200000D01*
X130400000Y-35700000D02*
X131600000Y-35700000D01*
X128900000Y-37200000D02*
X130400000Y-35700000D01*
%TO.N,Net-(D11-RK)*%
X122260000Y-37200000D02*
X122260000Y-35640000D01*
X122260000Y-35640000D02*
X126200000Y-31700000D01*
X126200000Y-31700000D02*
X136900000Y-31700000D01*
X136900000Y-31700000D02*
X140800000Y-35600000D01*
%TO.N,Net-(D11-GK)*%
X133700000Y-33300000D02*
X136000000Y-35600000D01*
X124800000Y-35800000D02*
X127300000Y-33300000D01*
X127300000Y-33300000D02*
X133700000Y-33300000D01*
X124800000Y-37200000D02*
X124800000Y-35800000D01*
%TO.N,ESP_IO27*%
X133750000Y-57200000D02*
X131650000Y-55100000D01*
X141700000Y-56200000D02*
X146370000Y-51530000D01*
X146370000Y-51530000D02*
X146905000Y-51530000D01*
X134000000Y-57200000D02*
X133750000Y-57200000D01*
%TO.N,ESP_IO25*%
X146905000Y-48990000D02*
X143340000Y-48990000D01*
X143340000Y-48990000D02*
X143000000Y-48650000D01*
%TO.N,ESP_IO26*%
X145840000Y-50260000D02*
X146905000Y-50260000D01*
X140850000Y-55250000D02*
X145840000Y-50260000D01*
X138850000Y-55250000D02*
X140850000Y-55250000D01*
%TO.N,ESP_EN*%
X141100000Y-62800000D02*
X141200000Y-62800000D01*
X144700000Y-56700000D02*
X144700000Y-56000000D01*
X144700000Y-41600000D02*
X146200000Y-40100000D01*
X144700000Y-42300000D02*
X144700000Y-41600000D01*
X145825000Y-59900000D02*
X145825000Y-57825000D01*
X141200000Y-62800000D02*
X144100000Y-59900000D01*
X145825000Y-57825000D02*
X145000000Y-57000000D01*
X145000000Y-57000000D02*
X144700000Y-56700000D01*
X146200000Y-40100000D02*
X146905000Y-40100000D01*
X144100000Y-59900000D02*
X145825000Y-59900000D01*
%TO.N,ESP_IO2*%
X157993700Y-58550000D02*
X159543700Y-57000000D01*
X156900000Y-58550000D02*
X157993700Y-58550000D01*
X161300000Y-55396300D02*
X161223700Y-55320000D01*
X159543700Y-57000000D02*
X160400000Y-57000000D01*
X161223700Y-55320000D02*
X161375000Y-55320000D01*
X161300000Y-56100000D02*
X161300000Y-55396300D01*
X160400000Y-57000000D02*
X161300000Y-56100000D01*
%TO.N,ESP_U0TX*%
X168500000Y-38400000D02*
X171700000Y-38400000D01*
X164405000Y-41370000D02*
X165530000Y-41370000D01*
X171700000Y-38400000D02*
X172600000Y-37500000D01*
X165530000Y-41370000D02*
X168500000Y-38400000D01*
X172600000Y-37500000D02*
X172600000Y-36600000D01*
%TO.N,ESP_IO18*%
X169350000Y-43850000D02*
X165480000Y-47720000D01*
X169600000Y-43850000D02*
X169350000Y-43850000D01*
X165480000Y-47720000D02*
X164405000Y-47720000D01*
%TO.N,ESP_IO19*%
X166400000Y-45459000D02*
X166400000Y-43600000D01*
X168600000Y-41400000D02*
X170350000Y-41400000D01*
X166400000Y-43600000D02*
X168600000Y-41400000D01*
X164405000Y-46450000D02*
X165409000Y-46450000D01*
X165409000Y-46450000D02*
X166400000Y-45459000D01*
%TO.N,ESP_IO0*%
X164405000Y-54795000D02*
X159925000Y-59275000D01*
X159925000Y-59700000D02*
X159925000Y-64375000D01*
X159925000Y-64375000D02*
X159700000Y-64600000D01*
X159925000Y-59275000D02*
X159925000Y-59700000D01*
X164405000Y-54070000D02*
X164405000Y-54795000D01*
%TO.N,ESP_U0RX*%
X173300000Y-39300000D02*
X169200000Y-39300000D01*
X175140000Y-37460000D02*
X173300000Y-39300000D01*
X169200000Y-39300000D02*
X165860000Y-42640000D01*
X165860000Y-42640000D02*
X164405000Y-42640000D01*
X175140000Y-36600000D02*
X175140000Y-37460000D01*
D47*
%TO.N,B_Jack*%
X178700000Y-64757500D02*
X178700000Y-68000000D01*
X178700000Y-68000000D02*
X177000000Y-69700000D01*
X177000000Y-69700000D02*
X176000000Y-69700000D01*
X167300000Y-69700000D02*
X166100000Y-68500000D01*
X166100000Y-68500000D02*
X166100000Y-65860000D01*
X176000000Y-69700000D02*
X169600000Y-69700000D01*
X169600000Y-69700000D02*
X167300000Y-69700000D01*
%TO.N,P_Jack*%
X178700000Y-49100000D02*
X178700000Y-51300000D01*
X181960000Y-41500000D02*
X182000000Y-41500000D01*
X182600000Y-42100000D02*
X182600000Y-45200000D01*
X182600000Y-45200000D02*
X178700000Y-49100000D01*
X182000000Y-41500000D02*
X182600000Y-42100000D01*
D50*
%TO.N,Net-(Q1-G)*%
X167050000Y-58850000D02*
X167050000Y-63740000D01*
X167400000Y-50000000D02*
X168200000Y-50000000D01*
X168900000Y-50700000D02*
X168900000Y-57000000D01*
X167400000Y-48200000D02*
X167400000Y-50000000D01*
X169600000Y-46950000D02*
X168650000Y-46950000D01*
X168200000Y-50000000D02*
X168900000Y-50700000D01*
X168900000Y-57000000D02*
X167050000Y-58850000D01*
X168650000Y-46950000D02*
X167400000Y-48200000D01*
%TO.N,Net-(Q2-G)*%
X174600000Y-41400000D02*
X175500000Y-40500000D01*
X176450000Y-40550000D02*
X176400000Y-40500000D01*
X175500000Y-40500000D02*
X176400000Y-40500000D01*
X173450000Y-41400000D02*
X174600000Y-41400000D01*
X179840000Y-40550000D02*
X176450000Y-40550000D01*
%TO.N,Net-(Q3-D)*%
X140600000Y-42490000D02*
X140600000Y-38900000D01*
X140600000Y-38900000D02*
X140800000Y-38700000D01*
%TO.N,Net-(Q3-G)*%
X139600000Y-48350000D02*
X139600000Y-44660000D01*
X139600000Y-44660000D02*
X139650000Y-44610000D01*
X139700000Y-52000000D02*
X139700000Y-50600000D01*
X139900000Y-50400000D02*
X139900000Y-48650000D01*
X139700000Y-50600000D02*
X139900000Y-50400000D01*
X139650000Y-44610000D02*
X139650000Y-44650000D01*
X139900000Y-48650000D02*
X139600000Y-48350000D01*
%TO.N,Net-(Q4-D)*%
X136100000Y-48950000D02*
X136200000Y-49050000D01*
X136100000Y-45200000D02*
X136100000Y-48950000D01*
%TO.N,Net-(Q4-G)*%
X138700000Y-58600000D02*
X138000000Y-58600000D01*
X138000000Y-58600000D02*
X135750000Y-56350000D01*
X135750000Y-53550000D02*
X135250000Y-53050000D01*
X135750000Y-55250000D02*
X135750000Y-53550000D01*
X135750000Y-56350000D02*
X135750000Y-55250000D01*
X135250000Y-53050000D02*
X135250000Y-51250000D01*
%TO.N,Net-(Q5-G)*%
X128550000Y-53550000D02*
X128550000Y-55100000D01*
X129200000Y-58500000D02*
X128500000Y-57800000D01*
X129850000Y-51150000D02*
X129850000Y-52250000D01*
X128500000Y-55150000D02*
X128550000Y-55100000D01*
X128500000Y-57800000D02*
X128500000Y-55150000D01*
X129850000Y-52250000D02*
X128550000Y-53550000D01*
X130200000Y-58500000D02*
X129200000Y-58500000D01*
%TO.N,Net-(Q5-D)*%
X131600000Y-48150000D02*
X130800000Y-48950000D01*
X131600000Y-45400000D02*
X131600000Y-48150000D01*
%TO.N,Net-(R14-Pad2)*%
X136100000Y-38800000D02*
X136000000Y-38700000D01*
X136100000Y-42100000D02*
X136100000Y-38800000D01*
%TO.N,Net-(R15-Pad2)*%
X131600000Y-42300000D02*
X131600000Y-38800000D01*
%TD*%
%TA.AperFunction,Conductor*%
%TO.N,GND*%
G36*
X143397121Y-30274502D02*
G01*
X143443614Y-30328158D01*
X143455000Y-30380500D01*
X143455000Y-36010000D01*
X166955000Y-36010000D01*
X166955000Y-35547676D01*
X169726097Y-35547676D01*
X169726097Y-35547678D01*
X170059999Y-35881580D01*
X170060000Y-35881580D01*
X170393901Y-35547677D01*
X170393901Y-35547676D01*
X170318524Y-35523185D01*
X170318528Y-35523185D01*
X170146884Y-35496000D01*
X169973116Y-35496000D01*
X169801473Y-35523185D01*
X169726097Y-35547676D01*
X166955000Y-35547676D01*
X166955000Y-30380500D01*
X166975002Y-30312379D01*
X167028658Y-30265886D01*
X167081000Y-30254500D01*
X181455125Y-30254500D01*
X181497252Y-30254500D01*
X181502748Y-30254620D01*
X181908102Y-30272318D01*
X181919051Y-30273275D01*
X182318600Y-30325877D01*
X182329416Y-30327785D01*
X182526136Y-30371397D01*
X182722853Y-30415008D01*
X182733471Y-30417853D01*
X183117805Y-30539033D01*
X183128134Y-30542792D01*
X183500458Y-30697013D01*
X183510420Y-30701659D01*
X183867875Y-30887738D01*
X183877378Y-30893224D01*
X184217274Y-31109762D01*
X184226266Y-31116059D01*
X184545983Y-31361387D01*
X184554403Y-31368452D01*
X184851518Y-31640708D01*
X184859291Y-31648481D01*
X185131547Y-31945596D01*
X185138612Y-31954016D01*
X185383940Y-32273733D01*
X185390245Y-32282737D01*
X185606770Y-32622613D01*
X185612266Y-32632133D01*
X185798340Y-32989579D01*
X185802986Y-32999541D01*
X185957207Y-33371865D01*
X185960966Y-33382194D01*
X186082146Y-33766528D01*
X186084991Y-33777146D01*
X186172213Y-34170579D01*
X186174122Y-34181404D01*
X186226723Y-34580947D01*
X186227681Y-34591897D01*
X186245380Y-34997251D01*
X186245500Y-35002747D01*
X186245500Y-76497252D01*
X186245380Y-76502748D01*
X186227681Y-76908102D01*
X186226723Y-76919052D01*
X186174122Y-77318595D01*
X186172213Y-77329420D01*
X186084991Y-77722853D01*
X186082146Y-77733471D01*
X185960966Y-78117805D01*
X185957207Y-78128134D01*
X185802986Y-78500458D01*
X185798340Y-78510420D01*
X185612266Y-78867866D01*
X185606770Y-78877386D01*
X185390245Y-79217262D01*
X185383940Y-79226266D01*
X185138612Y-79545983D01*
X185131547Y-79554403D01*
X184859291Y-79851518D01*
X184851518Y-79859291D01*
X184554403Y-80131547D01*
X184545983Y-80138612D01*
X184226266Y-80383940D01*
X184217262Y-80390245D01*
X183877386Y-80606770D01*
X183867866Y-80612266D01*
X183510420Y-80798340D01*
X183500458Y-80802986D01*
X183128134Y-80957207D01*
X183117805Y-80960966D01*
X182733471Y-81082146D01*
X182722853Y-81084991D01*
X182329420Y-81172213D01*
X182318595Y-81174122D01*
X181919052Y-81226723D01*
X181908102Y-81227681D01*
X181502748Y-81245380D01*
X181497252Y-81245500D01*
X114002748Y-81245500D01*
X113997252Y-81245380D01*
X113591897Y-81227681D01*
X113580947Y-81226723D01*
X113181404Y-81174122D01*
X113170579Y-81172213D01*
X112777146Y-81084991D01*
X112766528Y-81082146D01*
X112382194Y-80960966D01*
X112371865Y-80957207D01*
X111999541Y-80802986D01*
X111989579Y-80798340D01*
X111632133Y-80612266D01*
X111622613Y-80606770D01*
X111475507Y-80513053D01*
X111282730Y-80390240D01*
X111273733Y-80383940D01*
X110954016Y-80138612D01*
X110945596Y-80131547D01*
X110648481Y-79859291D01*
X110640708Y-79851518D01*
X110368452Y-79554403D01*
X110361387Y-79545983D01*
X110116059Y-79226266D01*
X110109762Y-79217274D01*
X109893224Y-78877378D01*
X109887738Y-78867875D01*
X109701659Y-78510420D01*
X109697013Y-78500458D01*
X109542792Y-78128134D01*
X109539033Y-78117805D01*
X109417853Y-77733471D01*
X109415008Y-77722853D01*
X109327786Y-77329420D01*
X109325877Y-77318595D01*
X109273276Y-76919052D01*
X109272318Y-76908102D01*
X109254620Y-76502748D01*
X109254500Y-76497252D01*
X109254500Y-70698202D01*
X113596001Y-70698202D01*
X113596002Y-70698226D01*
X113602452Y-70758232D01*
X113602452Y-70758234D01*
X113653100Y-70894023D01*
X113739952Y-71010047D01*
X113855976Y-71096899D01*
X113855975Y-71096899D01*
X113991761Y-71147546D01*
X113991769Y-71147548D01*
X114051785Y-71153999D01*
X114592000Y-71153999D01*
X115608000Y-71153999D01*
X116148203Y-71153999D01*
X116148226Y-71153997D01*
X116208232Y-71147547D01*
X116208234Y-71147547D01*
X116344023Y-71096899D01*
X116460047Y-71010047D01*
X116546899Y-70894023D01*
X116597546Y-70758238D01*
X116597548Y-70758230D01*
X116603999Y-70698222D01*
X116604000Y-70698205D01*
X116604000Y-70508000D01*
X115608000Y-70508000D01*
X115608000Y-71153999D01*
X114592000Y-71153999D01*
X114592000Y-70508000D01*
X113596001Y-70508000D01*
X113596001Y-70698202D01*
X109254500Y-70698202D01*
X109254500Y-69301777D01*
X113596000Y-69301777D01*
X113596000Y-69492000D01*
X114592000Y-69492000D01*
X115608000Y-69492000D01*
X116603999Y-69492000D01*
X116603999Y-69301797D01*
X116603997Y-69301773D01*
X116597547Y-69241767D01*
X116597547Y-69241765D01*
X116546899Y-69105976D01*
X116460047Y-68989952D01*
X116344023Y-68903100D01*
X116344024Y-68903100D01*
X116208238Y-68852453D01*
X116208230Y-68852451D01*
X116148222Y-68846000D01*
X115608000Y-68846000D01*
X115608000Y-69492000D01*
X114592000Y-69492000D01*
X114592000Y-68846000D01*
X114051797Y-68846000D01*
X114051773Y-68846002D01*
X113991767Y-68852452D01*
X113991765Y-68852452D01*
X113855976Y-68903100D01*
X113739952Y-68989952D01*
X113653100Y-69105976D01*
X113602453Y-69241761D01*
X113602451Y-69241769D01*
X113596000Y-69301777D01*
X109254500Y-69301777D01*
X109254500Y-62171362D01*
X112914733Y-62171362D01*
X113074028Y-62223122D01*
X113268987Y-62254000D01*
X113466367Y-62254000D01*
X113661325Y-62223122D01*
X113820619Y-62171362D01*
X113820619Y-62171361D01*
X113367678Y-61718420D01*
X113367677Y-61718420D01*
X112914733Y-62171362D01*
X109254500Y-62171362D01*
X109254500Y-60901310D01*
X112113677Y-60901310D01*
X112113677Y-61098689D01*
X112144555Y-61293650D01*
X112196312Y-61452942D01*
X112196313Y-61452942D01*
X112649257Y-60999999D01*
X112583432Y-60934174D01*
X112867677Y-60934174D01*
X112867677Y-61065826D01*
X112901752Y-61192993D01*
X112967578Y-61307007D01*
X113060670Y-61400099D01*
X113174684Y-61465925D01*
X113301851Y-61500000D01*
X113433503Y-61500000D01*
X113560670Y-61465925D01*
X113674684Y-61400099D01*
X113767776Y-61307007D01*
X113833602Y-61192993D01*
X113867677Y-61065826D01*
X113867677Y-60999999D01*
X114086097Y-60999999D01*
X114086097Y-61000001D01*
X114539038Y-61452942D01*
X114539039Y-61452942D01*
X114590799Y-61293648D01*
X114621677Y-61098689D01*
X114621677Y-60901310D01*
X114590799Y-60706351D01*
X114539039Y-60547056D01*
X114086097Y-60999999D01*
X113867677Y-60999999D01*
X113867677Y-60934174D01*
X113833602Y-60807007D01*
X113767776Y-60692993D01*
X113674684Y-60599901D01*
X113560670Y-60534075D01*
X113433503Y-60500000D01*
X113301851Y-60500000D01*
X113174684Y-60534075D01*
X113060670Y-60599901D01*
X112967578Y-60692993D01*
X112901752Y-60807007D01*
X112867677Y-60934174D01*
X112583432Y-60934174D01*
X112196314Y-60547056D01*
X112196312Y-60547056D01*
X112144555Y-60706349D01*
X112113677Y-60901310D01*
X109254500Y-60901310D01*
X109254500Y-59828635D01*
X112914733Y-59828635D01*
X112914733Y-59828637D01*
X113367676Y-60281580D01*
X113367678Y-60281580D01*
X113447521Y-60201737D01*
X117113177Y-60201737D01*
X117113177Y-61798246D01*
X117113179Y-61798270D01*
X117119636Y-61858339D01*
X117119636Y-61858341D01*
X117170334Y-61994266D01*
X117176616Y-62002658D01*
X117257273Y-62110404D01*
X117373410Y-62197342D01*
X117396210Y-62205846D01*
X117453045Y-62248392D01*
X117477856Y-62314912D01*
X117478177Y-62323901D01*
X117478177Y-62955287D01*
X117508769Y-63109083D01*
X117512360Y-63127135D01*
X117579412Y-63289013D01*
X117676757Y-63434700D01*
X117676759Y-63434702D01*
X119005703Y-64763646D01*
X119033017Y-64804523D01*
X119099824Y-64965809D01*
X119209754Y-65130331D01*
X119349669Y-65270246D01*
X119514191Y-65380176D01*
X119675477Y-65446982D01*
X119716353Y-65474296D01*
X122109080Y-67867023D01*
X122232977Y-67990920D01*
X122378664Y-68088265D01*
X122540542Y-68155317D01*
X122712392Y-68189500D01*
X122772936Y-68189500D01*
X122841057Y-68209502D01*
X122887550Y-68263158D01*
X122889345Y-68267282D01*
X122911735Y-68321336D01*
X123009080Y-68467023D01*
X123132977Y-68590920D01*
X123278664Y-68688265D01*
X123440542Y-68755317D01*
X123612392Y-68789500D01*
X123612393Y-68789500D01*
X123787607Y-68789500D01*
X123787608Y-68789500D01*
X123959458Y-68755317D01*
X124058986Y-68714090D01*
X124107204Y-68704500D01*
X124276832Y-68704500D01*
X124276834Y-68704500D01*
X124368548Y-68689974D01*
X124438959Y-68699074D01*
X124493273Y-68744796D01*
X124514245Y-68812624D01*
X124495218Y-68881024D01*
X124477354Y-68903518D01*
X123926275Y-69454596D01*
X123863965Y-69488620D01*
X123837182Y-69491500D01*
X120730499Y-69491500D01*
X120662378Y-69471498D01*
X120615885Y-69417842D01*
X120604499Y-69365500D01*
X120604499Y-69301753D01*
X120604499Y-69301746D01*
X120598040Y-69241658D01*
X120547342Y-69105733D01*
X120460404Y-68989596D01*
X120344267Y-68902658D01*
X120344265Y-68902657D01*
X120344266Y-68902657D01*
X120208349Y-68851962D01*
X120208344Y-68851960D01*
X120208342Y-68851960D01*
X120178298Y-68848730D01*
X120148256Y-68845500D01*
X118051753Y-68845500D01*
X118051729Y-68845502D01*
X117991660Y-68851959D01*
X117991658Y-68851959D01*
X117855733Y-68902657D01*
X117739596Y-68989596D01*
X117652657Y-69105734D01*
X117601962Y-69241650D01*
X117601960Y-69241658D01*
X117595500Y-69301737D01*
X117595500Y-70698246D01*
X117595502Y-70698270D01*
X117601959Y-70758339D01*
X117601959Y-70758341D01*
X117652657Y-70894266D01*
X117652658Y-70894267D01*
X117739596Y-71010404D01*
X117855733Y-71097342D01*
X117991658Y-71148040D01*
X118051745Y-71154500D01*
X120148254Y-71154499D01*
X120208342Y-71148040D01*
X120344267Y-71097342D01*
X120460404Y-71010404D01*
X120547342Y-70894267D01*
X120598040Y-70758342D01*
X120604500Y-70698255D01*
X120604500Y-70634500D01*
X120624502Y-70566379D01*
X120678158Y-70519886D01*
X120730500Y-70508500D01*
X123837181Y-70508500D01*
X123867088Y-70517281D01*
X123897546Y-70523901D01*
X123902656Y-70527725D01*
X123905302Y-70528502D01*
X123926260Y-70545388D01*
X123928979Y-70548106D01*
X123963016Y-70610412D01*
X123965900Y-70637218D01*
X123965900Y-71171600D01*
X123945898Y-71239721D01*
X123892242Y-71286214D01*
X123839900Y-71297600D01*
X123573036Y-71297600D01*
X123573026Y-71297601D01*
X123498799Y-71312365D01*
X123414615Y-71368616D01*
X123358366Y-71452797D01*
X123343600Y-71527030D01*
X123343600Y-76072963D01*
X123343601Y-76072972D01*
X123358365Y-76147200D01*
X123414616Y-76231384D01*
X123498797Y-76287633D01*
X123498799Y-76287634D01*
X123573033Y-76302400D01*
X125375766Y-76302399D01*
X125375769Y-76302398D01*
X125375773Y-76302398D01*
X125425026Y-76292601D01*
X125450001Y-76287634D01*
X125534184Y-76231384D01*
X125590434Y-76147201D01*
X125596952Y-76114431D01*
X125600118Y-76098518D01*
X125633026Y-76035608D01*
X125694721Y-76000477D01*
X125723697Y-75997100D01*
X126476304Y-75997100D01*
X126544425Y-76017102D01*
X126590918Y-76070758D01*
X126599883Y-76098519D01*
X126609566Y-76147201D01*
X126665816Y-76231384D01*
X126749997Y-76287633D01*
X126749999Y-76287634D01*
X126824233Y-76302400D01*
X128626966Y-76302399D01*
X128626969Y-76302398D01*
X128626973Y-76302398D01*
X128676226Y-76292601D01*
X128701201Y-76287634D01*
X128785384Y-76231384D01*
X128841634Y-76147201D01*
X128856400Y-76072967D01*
X128856400Y-74434500D01*
X128876402Y-74366379D01*
X128930058Y-74319886D01*
X128982400Y-74308500D01*
X130266943Y-74308500D01*
X130266945Y-74308500D01*
X130396274Y-74273847D01*
X130512227Y-74206901D01*
X130774974Y-73944152D01*
X130837285Y-73910128D01*
X130908101Y-73915192D01*
X130964937Y-73957739D01*
X130982124Y-73989215D01*
X131002658Y-74044267D01*
X131089596Y-74160404D01*
X131205733Y-74247342D01*
X131341658Y-74298040D01*
X131401745Y-74304500D01*
X135398254Y-74304499D01*
X135458342Y-74298040D01*
X135594267Y-74247342D01*
X135710404Y-74160404D01*
X135797342Y-74044267D01*
X135848040Y-73908342D01*
X135854500Y-73848255D01*
X135854500Y-73848202D01*
X139346001Y-73848202D01*
X139346002Y-73848226D01*
X139352452Y-73908232D01*
X139352452Y-73908234D01*
X139403100Y-74044023D01*
X139489952Y-74160047D01*
X139605976Y-74246899D01*
X139605975Y-74246899D01*
X139741761Y-74297546D01*
X139741769Y-74297548D01*
X139801785Y-74303999D01*
X141292000Y-74303999D01*
X142308000Y-74303999D01*
X143798203Y-74303999D01*
X143798226Y-74303997D01*
X143858232Y-74297547D01*
X143858234Y-74297547D01*
X143994023Y-74246899D01*
X144110047Y-74160047D01*
X144196899Y-74044023D01*
X144247546Y-73908238D01*
X144247548Y-73908230D01*
X144253999Y-73848222D01*
X144254000Y-73848205D01*
X144254000Y-73308000D01*
X142308000Y-73308000D01*
X142308000Y-74303999D01*
X141292000Y-74303999D01*
X141292000Y-73308000D01*
X139346001Y-73308000D01*
X139346001Y-73848202D01*
X135854500Y-73848202D01*
X135854499Y-72501061D01*
X145195500Y-72501061D01*
X145195500Y-72698938D01*
X145209274Y-72768181D01*
X145234103Y-72893002D01*
X145309824Y-73075809D01*
X145419754Y-73240331D01*
X145559669Y-73380246D01*
X145724191Y-73490176D01*
X145906998Y-73565897D01*
X146101065Y-73604500D01*
X146298935Y-73604500D01*
X146493002Y-73565897D01*
X146607226Y-73518583D01*
X146654287Y-73499091D01*
X146702505Y-73489500D01*
X158497495Y-73489500D01*
X158545713Y-73499091D01*
X158622524Y-73530907D01*
X158706998Y-73565897D01*
X158901065Y-73604500D01*
X159098935Y-73604500D01*
X159293002Y-73565897D01*
X159407226Y-73518583D01*
X159454287Y-73499091D01*
X159502505Y-73489500D01*
X170297495Y-73489500D01*
X170345713Y-73499091D01*
X170422524Y-73530907D01*
X170506998Y-73565897D01*
X170701065Y-73604500D01*
X170898935Y-73604500D01*
X171093002Y-73565897D01*
X171207226Y-73518583D01*
X171254287Y-73499091D01*
X171302505Y-73489500D01*
X178287607Y-73489500D01*
X178287608Y-73489500D01*
X178459458Y-73455317D01*
X178621336Y-73388265D01*
X178767023Y-73290920D01*
X183990920Y-68067023D01*
X184088265Y-67921336D01*
X184155317Y-67759458D01*
X184189500Y-67587609D01*
X184189500Y-67412392D01*
X184189500Y-59812392D01*
X184155317Y-59640542D01*
X184088265Y-59478664D01*
X183990920Y-59332977D01*
X183867023Y-59209080D01*
X179767023Y-55109080D01*
X179621336Y-55011735D01*
X179459458Y-54944683D01*
X179418269Y-54936490D01*
X179287610Y-54910500D01*
X179287608Y-54910500D01*
X172915500Y-54910500D01*
X172847379Y-54890498D01*
X172800886Y-54836842D01*
X172789500Y-54784500D01*
X172789500Y-53430499D01*
X172809502Y-53362378D01*
X172863158Y-53315885D01*
X172915500Y-53304499D01*
X174475064Y-53304499D01*
X174475066Y-53304499D01*
X174475069Y-53304498D01*
X174475072Y-53304498D01*
X174511663Y-53297219D01*
X174549301Y-53289734D01*
X174633484Y-53233484D01*
X174689734Y-53149301D01*
X174704500Y-53075067D01*
X174704499Y-50241738D01*
X176945500Y-50241738D01*
X176945500Y-52358262D01*
X176956157Y-52478128D01*
X176964705Y-52508000D01*
X177012358Y-52674542D01*
X177012359Y-52674544D01*
X177106944Y-52855618D01*
X177236047Y-53013952D01*
X177394381Y-53143055D01*
X177394380Y-53143055D01*
X177575455Y-53237640D01*
X177575457Y-53237641D01*
X177575459Y-53237641D01*
X177575460Y-53237642D01*
X177771872Y-53293843D01*
X177891738Y-53304500D01*
X177891745Y-53304500D01*
X179508255Y-53304500D01*
X179508262Y-53304500D01*
X179628128Y-53293843D01*
X179824540Y-53237642D01*
X179901852Y-53197258D01*
X180005618Y-53143055D01*
X180005617Y-53143055D01*
X180005620Y-53143054D01*
X180163952Y-53013952D01*
X180293054Y-52855620D01*
X180377465Y-52694023D01*
X180387640Y-52674544D01*
X180387641Y-52674542D01*
X180387642Y-52674540D01*
X180443843Y-52478128D01*
X180454500Y-52358262D01*
X180454500Y-50241738D01*
X180443843Y-50121872D01*
X180387642Y-49925460D01*
X180387641Y-49925459D01*
X180387641Y-49925457D01*
X180387640Y-49925455D01*
X180293055Y-49744381D01*
X180163952Y-49586047D01*
X180005618Y-49456944D01*
X180005619Y-49456944D01*
X179891921Y-49397554D01*
X179840802Y-49348286D01*
X179824435Y-49279202D01*
X179848016Y-49212235D01*
X179861157Y-49196784D01*
X182873647Y-46184294D01*
X182914518Y-46156984D01*
X183075809Y-46090176D01*
X183240331Y-45980246D01*
X183380246Y-45840331D01*
X183490176Y-45675809D01*
X183565897Y-45493002D01*
X183604500Y-45298935D01*
X183604500Y-45101065D01*
X183565897Y-44906998D01*
X183530907Y-44822524D01*
X183499091Y-44745713D01*
X183489500Y-44697495D01*
X183489500Y-42012396D01*
X183489500Y-42012392D01*
X183477142Y-41950266D01*
X183455317Y-41840542D01*
X183388265Y-41678664D01*
X183290920Y-41532977D01*
X182851404Y-41093461D01*
X182817378Y-41031149D01*
X182814499Y-41004366D01*
X182814499Y-40966936D01*
X182814498Y-40966927D01*
X182799734Y-40892699D01*
X182751625Y-40820700D01*
X182743484Y-40808516D01*
X182743483Y-40808515D01*
X182659302Y-40752266D01*
X182585069Y-40737500D01*
X182585067Y-40737500D01*
X182498117Y-40737500D01*
X182429996Y-40717498D01*
X182428171Y-40716302D01*
X182421336Y-40711735D01*
X182312510Y-40666658D01*
X182259463Y-40644685D01*
X182259458Y-40644683D01*
X182087610Y-40610500D01*
X182087608Y-40610500D01*
X181872392Y-40610500D01*
X181872389Y-40610500D01*
X181700541Y-40644683D01*
X181700536Y-40644685D01*
X181538663Y-40711735D01*
X181531880Y-40716268D01*
X181464126Y-40737480D01*
X181461883Y-40737500D01*
X181334937Y-40737500D01*
X181334926Y-40737501D01*
X181260699Y-40752265D01*
X181176515Y-40808516D01*
X181120266Y-40892697D01*
X181105500Y-40966930D01*
X181105500Y-41224024D01*
X181103079Y-41248605D01*
X181070500Y-41412386D01*
X181070500Y-41587610D01*
X181083258Y-41651746D01*
X181095427Y-41712927D01*
X181103079Y-41751393D01*
X181105500Y-41775975D01*
X181105500Y-42033063D01*
X181105501Y-42033073D01*
X181120265Y-42107300D01*
X181176516Y-42191484D01*
X181260697Y-42247733D01*
X181260699Y-42247734D01*
X181334933Y-42262500D01*
X181452365Y-42262499D01*
X181482277Y-42271282D01*
X181512751Y-42277911D01*
X181517847Y-42281726D01*
X181520486Y-42282501D01*
X181541461Y-42299404D01*
X181673595Y-42431538D01*
X181707621Y-42493850D01*
X181710500Y-42520633D01*
X181710500Y-44697495D01*
X181700909Y-44745713D01*
X181696078Y-44757378D01*
X181643017Y-44885476D01*
X181615703Y-44926352D01*
X178132977Y-48409080D01*
X178009082Y-48532974D01*
X178009077Y-48532981D01*
X177911735Y-48678664D01*
X177844685Y-48840536D01*
X177844683Y-48840541D01*
X177810500Y-49012389D01*
X177810500Y-49200100D01*
X177790498Y-49268221D01*
X177736842Y-49314714D01*
X177719163Y-49321238D01*
X177575464Y-49362356D01*
X177575455Y-49362359D01*
X177394381Y-49456944D01*
X177236047Y-49586047D01*
X177106944Y-49744381D01*
X177012359Y-49925455D01*
X177012358Y-49925457D01*
X176975046Y-50055858D01*
X176956157Y-50121872D01*
X176945500Y-50241738D01*
X174704499Y-50241738D01*
X174704499Y-49524934D01*
X174703371Y-49519265D01*
X174689734Y-49450699D01*
X174672956Y-49425589D01*
X174633484Y-49366516D01*
X174627263Y-49362359D01*
X174549302Y-49310266D01*
X174475067Y-49295500D01*
X170924936Y-49295500D01*
X170924927Y-49295501D01*
X170850699Y-49310265D01*
X170766515Y-49366516D01*
X170710266Y-49450697D01*
X170695500Y-49524930D01*
X170695500Y-53075063D01*
X170695501Y-53075072D01*
X170710265Y-53149300D01*
X170766516Y-53233484D01*
X170850697Y-53289733D01*
X170850699Y-53289734D01*
X170897694Y-53299082D01*
X170909081Y-53301347D01*
X170971991Y-53334254D01*
X171007123Y-53395949D01*
X171010500Y-53424926D01*
X171010500Y-55297495D01*
X171000909Y-55345713D01*
X170934104Y-55506994D01*
X170934103Y-55506997D01*
X170895500Y-55701061D01*
X170895500Y-55898938D01*
X170934103Y-56093002D01*
X170934104Y-56093005D01*
X170952415Y-56137211D01*
X171000909Y-56254287D01*
X171010500Y-56302503D01*
X171010500Y-62632574D01*
X170990498Y-62700695D01*
X170936842Y-62747188D01*
X170909082Y-62756153D01*
X170850698Y-62767766D01*
X170766515Y-62824016D01*
X170710266Y-62908197D01*
X170695500Y-62982430D01*
X170695500Y-66532563D01*
X170695501Y-66532572D01*
X170710265Y-66606800D01*
X170766516Y-66690984D01*
X170850697Y-66747233D01*
X170850699Y-66747234D01*
X170924933Y-66762000D01*
X174475066Y-66761999D01*
X174475069Y-66761998D01*
X174475072Y-66761998D01*
X174511663Y-66754719D01*
X174549301Y-66747234D01*
X174633484Y-66690984D01*
X174689734Y-66606801D01*
X174704500Y-66532567D01*
X174704499Y-62982434D01*
X174699415Y-62956875D01*
X174689734Y-62908199D01*
X174653851Y-62854497D01*
X174633484Y-62824016D01*
X174627263Y-62819859D01*
X174549302Y-62767766D01*
X174475069Y-62753000D01*
X174475067Y-62753000D01*
X172915500Y-62753000D01*
X172847379Y-62732998D01*
X172800886Y-62679342D01*
X172789500Y-62627000D01*
X172789500Y-59096241D01*
X173695500Y-59096241D01*
X173695500Y-61018758D01*
X173698385Y-61067201D01*
X173744237Y-61277980D01*
X173819160Y-61452942D01*
X173829152Y-61476274D01*
X173829155Y-61476278D01*
X173950052Y-61654906D01*
X173950061Y-61654917D01*
X174102582Y-61807438D01*
X174102593Y-61807447D01*
X174177802Y-61858349D01*
X174281226Y-61928348D01*
X174479518Y-62013262D01*
X174690297Y-62059114D01*
X174738746Y-62062000D01*
X174738763Y-62062000D01*
X176661237Y-62062000D01*
X176661254Y-62062000D01*
X176709703Y-62059114D01*
X176920482Y-62013262D01*
X177118774Y-61928348D01*
X177297413Y-61807442D01*
X177449942Y-61654913D01*
X177570848Y-61476274D01*
X177655762Y-61277982D01*
X177701614Y-61067203D01*
X177704500Y-61018754D01*
X177704500Y-59096246D01*
X177701614Y-59047797D01*
X177655762Y-58837018D01*
X177570848Y-58638726D01*
X177508090Y-58546001D01*
X177449947Y-58460093D01*
X177449938Y-58460082D01*
X177297417Y-58307561D01*
X177297406Y-58307552D01*
X177118778Y-58186655D01*
X177118774Y-58186652D01*
X177118771Y-58186650D01*
X177118770Y-58186650D01*
X176920480Y-58101737D01*
X176709701Y-58055885D01*
X176661258Y-58053000D01*
X176661254Y-58053000D01*
X174738746Y-58053000D01*
X174738741Y-58053000D01*
X174690298Y-58055885D01*
X174479519Y-58101737D01*
X174281229Y-58186650D01*
X174281221Y-58186655D01*
X174102593Y-58307552D01*
X174102582Y-58307561D01*
X173950061Y-58460082D01*
X173950052Y-58460093D01*
X173829155Y-58638721D01*
X173829150Y-58638729D01*
X173744237Y-58837019D01*
X173698385Y-59047798D01*
X173695500Y-59096241D01*
X172789500Y-59096241D01*
X172789500Y-56815500D01*
X172809502Y-56747379D01*
X172863158Y-56700886D01*
X172915500Y-56689500D01*
X178779367Y-56689500D01*
X178847488Y-56709502D01*
X178868462Y-56726405D01*
X182373595Y-60231538D01*
X182407621Y-60293850D01*
X182410500Y-60320633D01*
X182410500Y-67079367D01*
X182390498Y-67147488D01*
X182373595Y-67168462D01*
X177868462Y-71673595D01*
X177806150Y-71707621D01*
X177779367Y-71710500D01*
X171302505Y-71710500D01*
X171254287Y-71700909D01*
X171093005Y-71634104D01*
X171093002Y-71634103D01*
X170898938Y-71595500D01*
X170898935Y-71595500D01*
X170701065Y-71595500D01*
X170701061Y-71595500D01*
X170506997Y-71634103D01*
X170506994Y-71634104D01*
X170345713Y-71700909D01*
X170297495Y-71710500D01*
X159502505Y-71710500D01*
X159454287Y-71700909D01*
X159293005Y-71634104D01*
X159293002Y-71634103D01*
X159098938Y-71595500D01*
X159098935Y-71595500D01*
X158901065Y-71595500D01*
X158901061Y-71595500D01*
X158706997Y-71634103D01*
X158706994Y-71634104D01*
X158545713Y-71700909D01*
X158497495Y-71710500D01*
X146702505Y-71710500D01*
X146654287Y-71700909D01*
X146493005Y-71634104D01*
X146493002Y-71634103D01*
X146298938Y-71595500D01*
X146298935Y-71595500D01*
X146101065Y-71595500D01*
X146101061Y-71595500D01*
X145906997Y-71634103D01*
X145906994Y-71634104D01*
X145724190Y-71709824D01*
X145559673Y-71819751D01*
X145559666Y-71819756D01*
X145419756Y-71959666D01*
X145419751Y-71959673D01*
X145309824Y-72124190D01*
X145234104Y-72306994D01*
X145234103Y-72306997D01*
X145195500Y-72501061D01*
X135854499Y-72501061D01*
X135854499Y-71751777D01*
X139346000Y-71751777D01*
X139346000Y-72292000D01*
X141292000Y-72292000D01*
X142308000Y-72292000D01*
X144253999Y-72292000D01*
X144253999Y-71751797D01*
X144253997Y-71751773D01*
X144247547Y-71691767D01*
X144247547Y-71691765D01*
X144196899Y-71555976D01*
X144110047Y-71439952D01*
X143994023Y-71353100D01*
X143994024Y-71353100D01*
X143858238Y-71302453D01*
X143858230Y-71302451D01*
X143798222Y-71296000D01*
X142308000Y-71296000D01*
X142308000Y-72292000D01*
X141292000Y-72292000D01*
X141292000Y-71296000D01*
X139801797Y-71296000D01*
X139801773Y-71296002D01*
X139741767Y-71302452D01*
X139741765Y-71302452D01*
X139605976Y-71353100D01*
X139489952Y-71439952D01*
X139403100Y-71555976D01*
X139352453Y-71691761D01*
X139352451Y-71691769D01*
X139346000Y-71751777D01*
X135854499Y-71751777D01*
X135854499Y-71751746D01*
X135848040Y-71691658D01*
X135797342Y-71555733D01*
X135710404Y-71439596D01*
X135594267Y-71352658D01*
X135594265Y-71352657D01*
X135594266Y-71352657D01*
X135458349Y-71301962D01*
X135458344Y-71301960D01*
X135458342Y-71301960D01*
X135428298Y-71298730D01*
X135398256Y-71295500D01*
X131401753Y-71295500D01*
X131401729Y-71295502D01*
X131341660Y-71301959D01*
X131341658Y-71301959D01*
X131205733Y-71352657D01*
X131089596Y-71439596D01*
X131002657Y-71555734D01*
X130951962Y-71691650D01*
X130951960Y-71691658D01*
X130945500Y-71751737D01*
X130945500Y-72287025D01*
X130925498Y-72355146D01*
X130892905Y-72386224D01*
X130894324Y-72388074D01*
X130887770Y-72393102D01*
X130423595Y-72857277D01*
X130361283Y-72891302D01*
X130290467Y-72886237D01*
X130233632Y-72843690D01*
X130208821Y-72777170D01*
X130208500Y-72768181D01*
X130208500Y-68401061D01*
X165095500Y-68401061D01*
X165095500Y-68598938D01*
X165134103Y-68793002D01*
X165134104Y-68793005D01*
X165179524Y-68902658D01*
X165209824Y-68975809D01*
X165319754Y-69140331D01*
X165459669Y-69280246D01*
X165624191Y-69390176D01*
X165690983Y-69417842D01*
X165785475Y-69456982D01*
X165826352Y-69484295D01*
X166604674Y-70262616D01*
X166604679Y-70262622D01*
X166609079Y-70267022D01*
X166609080Y-70267023D01*
X166732977Y-70390920D01*
X166857086Y-70473847D01*
X166878664Y-70488265D01*
X167040542Y-70555317D01*
X167212391Y-70589500D01*
X167212392Y-70589500D01*
X169097495Y-70589500D01*
X169145713Y-70599091D01*
X169173045Y-70610412D01*
X169306998Y-70665897D01*
X169501065Y-70704500D01*
X169698935Y-70704500D01*
X169893002Y-70665897D01*
X170026955Y-70610412D01*
X170054287Y-70599091D01*
X170102505Y-70589500D01*
X175497495Y-70589500D01*
X175545713Y-70599091D01*
X175573045Y-70610412D01*
X175706998Y-70665897D01*
X175901065Y-70704500D01*
X176098935Y-70704500D01*
X176293002Y-70665897D01*
X176426955Y-70610412D01*
X176454287Y-70599091D01*
X176502505Y-70589500D01*
X177087607Y-70589500D01*
X177087608Y-70589500D01*
X177259458Y-70555317D01*
X177421336Y-70488265D01*
X177567023Y-70390920D01*
X179390920Y-68567023D01*
X179488265Y-68421336D01*
X179555317Y-68259458D01*
X179589500Y-68087608D01*
X179589500Y-67912392D01*
X179589500Y-66857399D01*
X179609502Y-66789278D01*
X179663158Y-66742785D01*
X179680830Y-66736262D01*
X179824540Y-66695142D01*
X180005620Y-66600554D01*
X180163952Y-66471452D01*
X180293054Y-66313120D01*
X180387642Y-66132040D01*
X180443843Y-65935628D01*
X180454500Y-65815762D01*
X180454500Y-63699238D01*
X180443843Y-63579372D01*
X180387642Y-63382960D01*
X180387641Y-63382959D01*
X180387641Y-63382957D01*
X180387640Y-63382955D01*
X180293055Y-63201881D01*
X180163952Y-63043547D01*
X180005618Y-62914444D01*
X180005619Y-62914444D01*
X179824544Y-62819859D01*
X179824542Y-62819858D01*
X179725839Y-62791616D01*
X179628128Y-62763657D01*
X179508262Y-62753000D01*
X177891738Y-62753000D01*
X177771872Y-62763657D01*
X177575457Y-62819858D01*
X177575455Y-62819859D01*
X177394381Y-62914444D01*
X177236047Y-63043547D01*
X177106944Y-63201881D01*
X177012359Y-63382955D01*
X177012358Y-63382957D01*
X176969421Y-63533017D01*
X176956157Y-63579372D01*
X176945500Y-63699238D01*
X176945500Y-65815762D01*
X176952064Y-65889596D01*
X176956157Y-65935624D01*
X176956157Y-65935627D01*
X177012358Y-66132042D01*
X177012359Y-66132044D01*
X177106944Y-66313118D01*
X177236047Y-66471452D01*
X177394381Y-66600555D01*
X177394380Y-66600555D01*
X177575455Y-66695140D01*
X177575457Y-66695141D01*
X177575459Y-66695141D01*
X177575460Y-66695142D01*
X177719163Y-66736261D01*
X177779152Y-66774230D01*
X177809091Y-66838606D01*
X177810500Y-66857399D01*
X177810500Y-67579367D01*
X177790498Y-67647488D01*
X177773595Y-67668462D01*
X176668462Y-68773595D01*
X176641093Y-68788539D01*
X176614865Y-68805396D01*
X176608566Y-68806301D01*
X176606150Y-68807621D01*
X176579367Y-68810500D01*
X176502505Y-68810500D01*
X176454287Y-68800909D01*
X176293005Y-68734104D01*
X176293002Y-68734103D01*
X176098938Y-68695500D01*
X176098935Y-68695500D01*
X175901065Y-68695500D01*
X175901061Y-68695500D01*
X175706997Y-68734103D01*
X175706994Y-68734104D01*
X175545713Y-68800909D01*
X175497495Y-68810500D01*
X170102505Y-68810500D01*
X170054287Y-68800909D01*
X169893005Y-68734104D01*
X169893002Y-68734103D01*
X169698938Y-68695500D01*
X169698935Y-68695500D01*
X169501065Y-68695500D01*
X169501061Y-68695500D01*
X169306997Y-68734103D01*
X169306994Y-68734104D01*
X169145713Y-68800909D01*
X169097495Y-68810500D01*
X167720633Y-68810500D01*
X167652512Y-68790498D01*
X167631537Y-68773595D01*
X167366831Y-68508889D01*
X167084295Y-68226352D01*
X167079588Y-68219307D01*
X167075282Y-68216318D01*
X167056982Y-68185475D01*
X166999091Y-68045713D01*
X166989500Y-67997495D01*
X166989500Y-65772393D01*
X166989499Y-65772389D01*
X166985436Y-65751962D01*
X166955317Y-65600542D01*
X166888265Y-65438664D01*
X166884507Y-65433040D01*
X166883731Y-65431878D01*
X166862519Y-65364124D01*
X166862499Y-65361880D01*
X166862499Y-65234936D01*
X166862498Y-65234927D01*
X166847734Y-65160699D01*
X166791483Y-65076515D01*
X166707302Y-65020266D01*
X166633069Y-65005500D01*
X166633067Y-65005500D01*
X166375975Y-65005500D01*
X166351395Y-65003079D01*
X166292392Y-64991342D01*
X166187610Y-64970500D01*
X166187608Y-64970500D01*
X166012392Y-64970500D01*
X166012389Y-64970500D01*
X165893307Y-64994187D01*
X165848604Y-65003079D01*
X165824025Y-65005500D01*
X165566936Y-65005500D01*
X165566926Y-65005501D01*
X165492699Y-65020265D01*
X165408515Y-65076516D01*
X165352266Y-65160697D01*
X165337500Y-65234930D01*
X165337500Y-65361881D01*
X165317498Y-65430002D01*
X165316268Y-65431879D01*
X165311735Y-65438662D01*
X165244685Y-65600536D01*
X165244683Y-65600541D01*
X165210500Y-65772389D01*
X165210500Y-67997495D01*
X165200909Y-68045713D01*
X165134104Y-68206994D01*
X165134103Y-68206997D01*
X165095500Y-68401061D01*
X130208500Y-68401061D01*
X130208500Y-67712816D01*
X130228502Y-67644695D01*
X130245400Y-67623726D01*
X131877722Y-65991403D01*
X131940034Y-65957378D01*
X131966817Y-65954499D01*
X132773247Y-65954499D01*
X132773254Y-65954499D01*
X132833342Y-65948040D01*
X132969267Y-65897342D01*
X133085404Y-65810404D01*
X133172342Y-65694267D01*
X133211058Y-65590467D01*
X133253604Y-65533631D01*
X133320125Y-65508821D01*
X133329113Y-65508500D01*
X138633055Y-65508500D01*
X140245116Y-65508500D01*
X140313237Y-65528502D01*
X140320624Y-65533631D01*
X140405733Y-65597342D01*
X140541658Y-65648040D01*
X140601745Y-65654500D01*
X141598254Y-65654499D01*
X141658342Y-65648040D01*
X141794267Y-65597342D01*
X141910404Y-65510404D01*
X141997342Y-65394267D01*
X141998758Y-65390468D01*
X142001188Y-65387223D01*
X142001660Y-65386359D01*
X142001784Y-65386426D01*
X142041302Y-65333634D01*
X142107822Y-65308821D01*
X142116814Y-65308500D01*
X147237182Y-65308500D01*
X147305303Y-65328502D01*
X147326277Y-65345405D01*
X148987766Y-67006895D01*
X148987771Y-67006899D01*
X148987773Y-67006901D01*
X149076871Y-67058342D01*
X149103726Y-67073847D01*
X149233055Y-67108500D01*
X158683186Y-67108500D01*
X158751307Y-67128502D01*
X158797800Y-67182158D01*
X158801234Y-67190450D01*
X158802658Y-67194267D01*
X158889596Y-67310404D01*
X159005733Y-67397342D01*
X159141658Y-67448040D01*
X159201745Y-67454500D01*
X160198254Y-67454499D01*
X160258342Y-67448040D01*
X160394267Y-67397342D01*
X160510404Y-67310404D01*
X160597342Y-67194267D01*
X160648040Y-67058342D01*
X160654500Y-66998255D01*
X160654499Y-66201746D01*
X160648040Y-66141658D01*
X160597342Y-66005733D01*
X160510404Y-65889596D01*
X160394267Y-65802658D01*
X160394265Y-65802657D01*
X160394266Y-65802657D01*
X160258349Y-65751962D01*
X160258344Y-65751960D01*
X160258342Y-65751960D01*
X160228298Y-65748730D01*
X160198256Y-65745500D01*
X159201753Y-65745500D01*
X159201729Y-65745502D01*
X159141660Y-65751959D01*
X159141658Y-65751959D01*
X159005733Y-65802657D01*
X158889596Y-65889596D01*
X158838856Y-65957378D01*
X158802658Y-66005733D01*
X158801241Y-66009531D01*
X158798811Y-66012776D01*
X158798340Y-66013641D01*
X158798215Y-66013573D01*
X158758698Y-66066366D01*
X158692178Y-66091179D01*
X158683186Y-66091500D01*
X149562818Y-66091500D01*
X149494697Y-66071498D01*
X149473723Y-66054595D01*
X147812233Y-64393104D01*
X147812223Y-64393096D01*
X147696278Y-64326155D01*
X147696276Y-64326154D01*
X147696274Y-64326153D01*
X147566945Y-64291500D01*
X147566943Y-64291500D01*
X142116814Y-64291500D01*
X142048693Y-64271498D01*
X142002200Y-64217842D01*
X141998765Y-64209549D01*
X141997342Y-64205733D01*
X141994351Y-64201737D01*
X158745500Y-64201737D01*
X158745500Y-64998246D01*
X158745502Y-64998270D01*
X158751959Y-65058339D01*
X158751959Y-65058341D01*
X158802657Y-65194266D01*
X158802658Y-65194267D01*
X158889596Y-65310404D01*
X159005733Y-65397342D01*
X159141658Y-65448040D01*
X159201745Y-65454500D01*
X160198254Y-65454499D01*
X160258342Y-65448040D01*
X160394267Y-65397342D01*
X160510404Y-65310404D01*
X160597342Y-65194267D01*
X160648040Y-65058342D01*
X160654500Y-64998255D01*
X160654499Y-64365022D01*
X164388001Y-64365022D01*
X164402737Y-64439105D01*
X164402737Y-64439107D01*
X164458875Y-64523124D01*
X164542893Y-64579262D01*
X164542894Y-64579263D01*
X164616980Y-64593999D01*
X164616981Y-64593999D01*
X165658000Y-64593999D01*
X165683014Y-64593999D01*
X165683022Y-64593998D01*
X165757105Y-64579262D01*
X165757107Y-64579262D01*
X165841124Y-64523124D01*
X165897262Y-64439106D01*
X165897263Y-64439105D01*
X165911999Y-64365022D01*
X165912000Y-64365015D01*
X165912000Y-64248000D01*
X165658000Y-64248000D01*
X165658000Y-64593999D01*
X164616981Y-64593999D01*
X164641999Y-64593998D01*
X164642000Y-64593998D01*
X164642000Y-64248000D01*
X164388001Y-64248000D01*
X164388001Y-64365022D01*
X160654499Y-64365022D01*
X160654499Y-64201746D01*
X160654499Y-64201745D01*
X160654499Y-64201741D01*
X160648040Y-64141660D01*
X160648040Y-64141658D01*
X160597342Y-64005733D01*
X160557090Y-63951962D01*
X160510404Y-63889596D01*
X160394267Y-63802658D01*
X160394266Y-63802657D01*
X160388463Y-63800493D01*
X160331629Y-63757944D01*
X160306821Y-63691423D01*
X160306500Y-63682439D01*
X160306500Y-63114977D01*
X164388000Y-63114977D01*
X164388000Y-63232000D01*
X164642000Y-63232000D01*
X165658000Y-63232000D01*
X165911999Y-63232000D01*
X165911999Y-63114986D01*
X165911998Y-63114976D01*
X165911989Y-63114930D01*
X166287500Y-63114930D01*
X166287500Y-64365063D01*
X166287501Y-64365073D01*
X166302265Y-64439300D01*
X166358516Y-64523484D01*
X166442697Y-64579733D01*
X166442699Y-64579734D01*
X166516933Y-64594500D01*
X167583066Y-64594499D01*
X167583069Y-64594498D01*
X167583073Y-64594498D01*
X167632326Y-64584701D01*
X167657301Y-64579734D01*
X167741484Y-64523484D01*
X167797734Y-64439301D01*
X167812500Y-64365067D01*
X167812499Y-63114934D01*
X167812498Y-63114930D01*
X167812498Y-63114926D01*
X167797734Y-63040699D01*
X167741483Y-62956515D01*
X167657302Y-62900266D01*
X167583069Y-62885500D01*
X167583067Y-62885500D01*
X167557500Y-62885500D01*
X167489379Y-62865498D01*
X167442886Y-62811842D01*
X167431500Y-62759500D01*
X167431500Y-59060213D01*
X167451502Y-58992092D01*
X167468405Y-58971118D01*
X169205272Y-57234251D01*
X169205276Y-57234247D01*
X169228008Y-57194873D01*
X169255501Y-57147254D01*
X169281500Y-57050225D01*
X169281500Y-50649775D01*
X169255501Y-50552746D01*
X169255499Y-50552743D01*
X169255499Y-50552741D01*
X169205278Y-50465756D01*
X169205270Y-50465746D01*
X169129863Y-50390339D01*
X169129840Y-50390318D01*
X168434250Y-49694727D01*
X168434249Y-49694726D01*
X168434247Y-49694724D01*
X168434243Y-49694722D01*
X168434241Y-49694720D01*
X168415312Y-49683791D01*
X168366320Y-49632407D01*
X168353037Y-49588140D01*
X168348040Y-49541660D01*
X168348040Y-49541658D01*
X168297342Y-49405733D01*
X168286689Y-49391502D01*
X168210404Y-49289596D01*
X168094267Y-49202658D01*
X168094265Y-49202657D01*
X168094266Y-49202657D01*
X167958349Y-49151962D01*
X167958344Y-49151960D01*
X167958342Y-49151960D01*
X167935706Y-49149526D01*
X167894899Y-49145139D01*
X167895060Y-49143639D01*
X167833754Y-49121978D01*
X167790227Y-49065890D01*
X167781500Y-49019814D01*
X167781500Y-48410213D01*
X167801502Y-48342092D01*
X167818405Y-48321118D01*
X168432762Y-47706761D01*
X168495074Y-47672735D01*
X168565889Y-47677800D01*
X168610952Y-47706761D01*
X168614592Y-47710401D01*
X168614595Y-47710403D01*
X168614596Y-47710404D01*
X168730733Y-47797342D01*
X168866658Y-47848040D01*
X168926745Y-47854500D01*
X170273254Y-47854499D01*
X170333342Y-47848040D01*
X170469267Y-47797342D01*
X170585404Y-47710404D01*
X170672342Y-47594267D01*
X170723040Y-47458342D01*
X170729500Y-47398255D01*
X170729499Y-46501746D01*
X170723040Y-46441658D01*
X170672342Y-46305733D01*
X170585404Y-46189596D01*
X170469267Y-46102658D01*
X170469265Y-46102657D01*
X170469266Y-46102657D01*
X170333349Y-46051962D01*
X170333344Y-46051960D01*
X170333342Y-46051960D01*
X170303298Y-46048730D01*
X170273256Y-46045500D01*
X168926753Y-46045500D01*
X168926729Y-46045502D01*
X168866660Y-46051959D01*
X168866658Y-46051959D01*
X168730733Y-46102657D01*
X168614596Y-46189596D01*
X168527657Y-46305734D01*
X168476962Y-46441650D01*
X168476960Y-46441658D01*
X168470500Y-46501737D01*
X168470500Y-46540579D01*
X168450498Y-46608700D01*
X168421203Y-46640542D01*
X168415749Y-46644726D01*
X167466212Y-47594265D01*
X167165753Y-47894724D01*
X167147456Y-47913021D01*
X167094725Y-47965751D01*
X167094721Y-47965756D01*
X167044500Y-48052741D01*
X167018500Y-48149776D01*
X167018500Y-49019815D01*
X166998498Y-49087936D01*
X166944842Y-49134429D01*
X166905002Y-49144233D01*
X166905100Y-49145140D01*
X166841660Y-49151959D01*
X166841658Y-49151959D01*
X166705733Y-49202657D01*
X166589596Y-49289596D01*
X166502657Y-49405734D01*
X166451962Y-49541650D01*
X166451960Y-49541658D01*
X166445500Y-49601737D01*
X166445500Y-50398246D01*
X166445502Y-50398270D01*
X166451959Y-50458339D01*
X166451959Y-50458341D01*
X166502657Y-50594266D01*
X166502658Y-50594267D01*
X166589596Y-50710404D01*
X166705733Y-50797342D01*
X166841658Y-50848040D01*
X166901745Y-50854500D01*
X167898254Y-50854499D01*
X167958342Y-50848040D01*
X168094267Y-50797342D01*
X168210404Y-50710404D01*
X168210404Y-50710402D01*
X168214777Y-50707130D01*
X168272784Y-50685495D01*
X168281296Y-50682320D01*
X168281297Y-50682320D01*
X168295892Y-50685495D01*
X168350670Y-50697411D01*
X168379380Y-50718903D01*
X168481595Y-50821117D01*
X168515620Y-50883429D01*
X168518500Y-50910213D01*
X168518500Y-51323430D01*
X168498498Y-51391551D01*
X168444842Y-51438044D01*
X168374568Y-51448148D01*
X168309988Y-51418654D01*
X168291631Y-51398938D01*
X168210047Y-51289952D01*
X168094023Y-51203100D01*
X168094024Y-51203100D01*
X167958242Y-51152455D01*
X167958234Y-51152453D01*
X167908000Y-51147052D01*
X167908000Y-52852945D01*
X167908001Y-52852946D01*
X167958228Y-52847548D01*
X167958239Y-52847545D01*
X168094023Y-52796899D01*
X168210046Y-52710047D01*
X168291631Y-52601061D01*
X168348466Y-52558514D01*
X168419282Y-52553448D01*
X168481594Y-52587473D01*
X168515620Y-52649784D01*
X168518500Y-52676569D01*
X168518500Y-56789787D01*
X168498498Y-56857908D01*
X168481595Y-56878882D01*
X166815753Y-58544724D01*
X166787139Y-58573338D01*
X166744725Y-58615751D01*
X166744721Y-58615756D01*
X166694500Y-58702741D01*
X166687239Y-58729840D01*
X166675157Y-58774933D01*
X166668500Y-58799776D01*
X166668500Y-62759500D01*
X166648498Y-62827621D01*
X166594842Y-62874114D01*
X166542504Y-62885500D01*
X166516938Y-62885500D01*
X166516926Y-62885501D01*
X166442699Y-62900265D01*
X166358515Y-62956516D01*
X166302266Y-63040697D01*
X166287500Y-63114930D01*
X165911989Y-63114930D01*
X165897262Y-63040894D01*
X165897262Y-63040892D01*
X165841124Y-62956875D01*
X165757106Y-62900737D01*
X165757105Y-62900736D01*
X165683022Y-62886000D01*
X165658000Y-62886000D01*
X165658000Y-63232000D01*
X164642000Y-63232000D01*
X164642000Y-62886000D01*
X164641999Y-62885999D01*
X164616981Y-62886000D01*
X164542894Y-62900737D01*
X164542892Y-62900737D01*
X164458875Y-62956875D01*
X164402737Y-63040893D01*
X164402736Y-63040894D01*
X164388000Y-63114977D01*
X160306500Y-63114977D01*
X160306500Y-60980499D01*
X160326502Y-60912378D01*
X160380158Y-60865885D01*
X160432500Y-60854499D01*
X160625064Y-60854499D01*
X160625066Y-60854499D01*
X160625069Y-60854498D01*
X160625072Y-60854498D01*
X160661663Y-60847219D01*
X160699301Y-60839734D01*
X160783484Y-60783484D01*
X160839734Y-60699301D01*
X160854500Y-60625067D01*
X160854500Y-60625022D01*
X163146001Y-60625022D01*
X163160737Y-60699105D01*
X163160737Y-60699107D01*
X163216875Y-60783124D01*
X163300893Y-60839262D01*
X163300894Y-60839263D01*
X163374980Y-60853999D01*
X163567000Y-60853999D01*
X164583000Y-60853999D01*
X164775014Y-60853999D01*
X164775022Y-60853998D01*
X164849105Y-60839262D01*
X164849107Y-60839262D01*
X164933124Y-60783124D01*
X164989262Y-60699106D01*
X164989263Y-60699105D01*
X165003999Y-60625022D01*
X165004000Y-60625015D01*
X165004000Y-60208000D01*
X164583000Y-60208000D01*
X164583000Y-60853999D01*
X163567000Y-60853999D01*
X163567000Y-60208000D01*
X163146001Y-60208000D01*
X163146001Y-60625022D01*
X160854500Y-60625022D01*
X160854499Y-59751604D01*
X160854499Y-58937212D01*
X160863282Y-58907296D01*
X160869911Y-58876827D01*
X160873725Y-58871731D01*
X160874501Y-58869091D01*
X160891399Y-58848122D01*
X160964544Y-58774977D01*
X163146000Y-58774977D01*
X163146000Y-59192000D01*
X163567000Y-59192000D01*
X164583000Y-59192000D01*
X165003999Y-59192000D01*
X165003999Y-58774986D01*
X165003998Y-58774977D01*
X164989262Y-58700894D01*
X164989262Y-58700892D01*
X164933124Y-58616875D01*
X164849106Y-58560737D01*
X164849105Y-58560736D01*
X164775022Y-58546000D01*
X164583000Y-58546000D01*
X164583000Y-59192000D01*
X163567000Y-59192000D01*
X163567000Y-58546000D01*
X163374986Y-58546000D01*
X163374976Y-58546001D01*
X163300894Y-58560737D01*
X163300892Y-58560737D01*
X163216875Y-58616875D01*
X163160737Y-58700893D01*
X163160736Y-58700894D01*
X163146000Y-58774977D01*
X160964544Y-58774977D01*
X164710276Y-55029247D01*
X164760502Y-54942253D01*
X164780429Y-54867885D01*
X164817380Y-54807265D01*
X164881241Y-54776243D01*
X164902135Y-54774499D01*
X165180064Y-54774499D01*
X165180066Y-54774499D01*
X165180069Y-54774498D01*
X165180072Y-54774498D01*
X165216663Y-54767219D01*
X165254301Y-54759734D01*
X165338484Y-54703484D01*
X165394734Y-54619301D01*
X165409500Y-54545067D01*
X165409499Y-53594934D01*
X165409498Y-53594930D01*
X165409498Y-53594926D01*
X165394734Y-53520700D01*
X165394734Y-53520699D01*
X165384245Y-53505001D01*
X165363030Y-53437251D01*
X165381812Y-53368784D01*
X165384218Y-53365038D01*
X165394734Y-53349301D01*
X165409500Y-53275067D01*
X165409499Y-52508000D01*
X166471015Y-52508000D01*
X166503100Y-52594023D01*
X166589952Y-52710047D01*
X166705976Y-52796899D01*
X166705975Y-52796899D01*
X166841766Y-52847547D01*
X166891998Y-52852947D01*
X166892000Y-52852946D01*
X166892000Y-52508000D01*
X166471015Y-52508000D01*
X165409499Y-52508000D01*
X165409499Y-52324934D01*
X165409498Y-52324930D01*
X165409498Y-52324926D01*
X165394734Y-52250700D01*
X165394734Y-52250699D01*
X165384245Y-52235001D01*
X165363030Y-52167251D01*
X165381812Y-52098784D01*
X165384218Y-52095038D01*
X165394734Y-52079301D01*
X165409500Y-52005067D01*
X165409499Y-51492000D01*
X166471015Y-51492000D01*
X166892000Y-51492000D01*
X166892000Y-51147053D01*
X166891998Y-51147052D01*
X166841767Y-51152452D01*
X166841765Y-51152452D01*
X166705976Y-51203100D01*
X166589952Y-51289952D01*
X166503100Y-51405976D01*
X166471015Y-51492000D01*
X165409499Y-51492000D01*
X165409499Y-51054934D01*
X165409498Y-51054930D01*
X165409498Y-51054926D01*
X165394734Y-50980700D01*
X165394734Y-50980699D01*
X165384245Y-50965001D01*
X165363030Y-50897251D01*
X165381812Y-50828784D01*
X165384218Y-50825038D01*
X165394734Y-50809301D01*
X165409500Y-50735067D01*
X165409499Y-49784934D01*
X165409498Y-49784931D01*
X165409498Y-49784926D01*
X165394734Y-49710700D01*
X165394734Y-49710699D01*
X165384245Y-49695001D01*
X165363030Y-49627251D01*
X165381812Y-49558784D01*
X165384218Y-49555038D01*
X165394734Y-49539301D01*
X165409500Y-49465067D01*
X165409499Y-48514934D01*
X165409498Y-48514930D01*
X165409498Y-48514926D01*
X165394734Y-48440700D01*
X165394734Y-48440699D01*
X165384245Y-48425001D01*
X165363030Y-48357251D01*
X165369478Y-48315149D01*
X165374834Y-48299082D01*
X165394734Y-48269301D01*
X165409480Y-48195162D01*
X165411986Y-48187649D01*
X165427911Y-48164737D01*
X165440847Y-48140008D01*
X165447885Y-48136000D01*
X165452507Y-48129351D01*
X165478291Y-48118686D01*
X165502542Y-48104877D01*
X165515260Y-48103394D01*
X165518113Y-48102215D01*
X165520961Y-48102730D01*
X165522039Y-48102604D01*
X165522036Y-48102578D01*
X165530223Y-48101500D01*
X165530225Y-48101500D01*
X165627254Y-48075501D01*
X165627257Y-48075499D01*
X165627258Y-48075499D01*
X165707161Y-48029367D01*
X165714247Y-48025276D01*
X165785276Y-47954247D01*
X165802996Y-47936527D01*
X165802998Y-47936523D01*
X168100779Y-45638741D01*
X173695500Y-45638741D01*
X173695500Y-47561258D01*
X173698385Y-47609701D01*
X173744237Y-47820480D01*
X173811150Y-47976737D01*
X173829152Y-48018774D01*
X173829155Y-48018778D01*
X173950052Y-48197406D01*
X173950061Y-48197417D01*
X174102582Y-48349938D01*
X174102593Y-48349947D01*
X174207895Y-48421216D01*
X174281226Y-48470848D01*
X174479518Y-48555762D01*
X174690297Y-48601614D01*
X174738746Y-48604500D01*
X174738763Y-48604500D01*
X176661237Y-48604500D01*
X176661254Y-48604500D01*
X176709703Y-48601614D01*
X176920482Y-48555762D01*
X177118774Y-48470848D01*
X177267277Y-48370338D01*
X177297406Y-48349947D01*
X177297407Y-48349945D01*
X177297413Y-48349942D01*
X177449942Y-48197413D01*
X177451529Y-48195069D01*
X177472058Y-48164737D01*
X177570848Y-48018774D01*
X177655762Y-47820482D01*
X177701614Y-47609703D01*
X177704500Y-47561254D01*
X177704500Y-45638746D01*
X177701614Y-45590297D01*
X177655762Y-45379518D01*
X177570848Y-45181226D01*
X177492732Y-45065809D01*
X177449947Y-45002593D01*
X177449938Y-45002582D01*
X177297417Y-44850061D01*
X177297406Y-44850052D01*
X177118778Y-44729155D01*
X177118774Y-44729152D01*
X177118771Y-44729150D01*
X177118770Y-44729150D01*
X176920480Y-44644237D01*
X176709701Y-44598385D01*
X176661258Y-44595500D01*
X176661254Y-44595500D01*
X174738746Y-44595500D01*
X174738741Y-44595500D01*
X174690298Y-44598385D01*
X174479519Y-44644237D01*
X174281229Y-44729150D01*
X174281221Y-44729155D01*
X174102593Y-44850052D01*
X174102582Y-44850061D01*
X173950061Y-45002582D01*
X173950052Y-45002593D01*
X173829155Y-45181221D01*
X173829150Y-45181229D01*
X173744237Y-45379519D01*
X173698385Y-45590298D01*
X173695500Y-45638741D01*
X168100779Y-45638741D01*
X168948117Y-44791403D01*
X169010429Y-44757378D01*
X169037212Y-44754499D01*
X170273247Y-44754499D01*
X170273254Y-44754499D01*
X170333342Y-44748040D01*
X170469267Y-44697342D01*
X170585404Y-44610404D01*
X170672342Y-44494267D01*
X170723040Y-44358342D01*
X170729500Y-44298255D01*
X170729499Y-43401746D01*
X170723040Y-43341658D01*
X170672342Y-43205733D01*
X170585404Y-43089596D01*
X170476403Y-43008000D01*
X175471015Y-43008000D01*
X175503100Y-43094023D01*
X175589952Y-43210047D01*
X175705976Y-43296899D01*
X175705975Y-43296899D01*
X175841766Y-43347547D01*
X175891998Y-43352947D01*
X175892000Y-43352946D01*
X175892000Y-43352945D01*
X176908000Y-43352945D01*
X176908001Y-43352946D01*
X176958228Y-43347548D01*
X176958239Y-43347545D01*
X177094023Y-43296899D01*
X177210047Y-43210047D01*
X177296899Y-43094023D01*
X177328985Y-43008000D01*
X176908000Y-43008000D01*
X176908000Y-43352945D01*
X175892000Y-43352945D01*
X175892000Y-43008000D01*
X175471015Y-43008000D01*
X170476403Y-43008000D01*
X170469267Y-43002658D01*
X170469265Y-43002657D01*
X170469266Y-43002657D01*
X170416623Y-42983022D01*
X178986001Y-42983022D01*
X179000737Y-43057105D01*
X179000737Y-43057107D01*
X179056875Y-43141124D01*
X179140893Y-43197262D01*
X179140894Y-43197263D01*
X179214980Y-43211999D01*
X179332000Y-43211999D01*
X180348000Y-43211999D01*
X180465014Y-43211999D01*
X180465022Y-43211998D01*
X180539105Y-43197262D01*
X180539107Y-43197262D01*
X180623124Y-43141124D01*
X180679262Y-43057106D01*
X180679263Y-43057105D01*
X180693999Y-42983022D01*
X180694000Y-42983015D01*
X180694000Y-42958000D01*
X180348000Y-42958000D01*
X180348000Y-43211999D01*
X179332000Y-43211999D01*
X179332000Y-42958000D01*
X178986001Y-42958000D01*
X178986001Y-42983022D01*
X170416623Y-42983022D01*
X170333349Y-42951962D01*
X170333344Y-42951960D01*
X170333342Y-42951960D01*
X170303298Y-42948730D01*
X170273256Y-42945500D01*
X168926753Y-42945500D01*
X168926729Y-42945502D01*
X168866660Y-42951959D01*
X168866658Y-42951959D01*
X168730733Y-43002657D01*
X168614596Y-43089596D01*
X168527657Y-43205734D01*
X168476962Y-43341650D01*
X168476960Y-43341658D01*
X168470500Y-43401737D01*
X168470500Y-44137786D01*
X168450498Y-44205907D01*
X168433595Y-44226881D01*
X166978670Y-45681805D01*
X166916358Y-45715831D01*
X166845542Y-45710766D01*
X166788707Y-45668219D01*
X166763896Y-45601699D01*
X166764122Y-45580978D01*
X166765112Y-45570386D01*
X166781501Y-45509225D01*
X166781501Y-45408775D01*
X166781500Y-45408771D01*
X166781500Y-43810213D01*
X166801502Y-43742092D01*
X166818405Y-43721118D01*
X168721118Y-41818405D01*
X168783430Y-41784379D01*
X168810213Y-41781500D01*
X169319501Y-41781500D01*
X169387622Y-41801502D01*
X169434115Y-41855158D01*
X169445501Y-41907500D01*
X169445501Y-42073246D01*
X169445502Y-42073270D01*
X169451959Y-42133339D01*
X169451959Y-42133341D01*
X169502657Y-42269266D01*
X169512565Y-42282501D01*
X169589596Y-42385404D01*
X169705733Y-42472342D01*
X169841658Y-42523040D01*
X169901745Y-42529500D01*
X170798254Y-42529499D01*
X170858342Y-42523040D01*
X170994267Y-42472342D01*
X171110404Y-42385404D01*
X171197342Y-42269267D01*
X171248040Y-42133342D01*
X171254500Y-42073255D01*
X171254499Y-40726746D01*
X171254499Y-40726745D01*
X171254499Y-40726741D01*
X171254499Y-40726737D01*
X172545500Y-40726737D01*
X172545500Y-42073246D01*
X172545502Y-42073270D01*
X172551959Y-42133339D01*
X172551959Y-42133341D01*
X172602657Y-42269266D01*
X172612565Y-42282501D01*
X172689596Y-42385404D01*
X172805733Y-42472342D01*
X172941658Y-42523040D01*
X173001745Y-42529500D01*
X173898254Y-42529499D01*
X173958342Y-42523040D01*
X174094267Y-42472342D01*
X174210404Y-42385404D01*
X174297342Y-42269267D01*
X174348040Y-42133342D01*
X174354500Y-42073255D01*
X174354500Y-41992000D01*
X175471015Y-41992000D01*
X175892000Y-41992000D01*
X176908000Y-41992000D01*
X177328985Y-41992000D01*
X177315120Y-41954826D01*
X177301002Y-41916977D01*
X178986000Y-41916977D01*
X178986000Y-41942000D01*
X179332000Y-41942000D01*
X180348000Y-41942000D01*
X180693999Y-41942000D01*
X180693999Y-41916986D01*
X180693998Y-41916977D01*
X180679262Y-41842894D01*
X180679262Y-41842892D01*
X180623124Y-41758875D01*
X180539106Y-41702737D01*
X180539105Y-41702736D01*
X180465022Y-41688000D01*
X180348000Y-41688000D01*
X180348000Y-41942000D01*
X179332000Y-41942000D01*
X179332000Y-41688000D01*
X179214986Y-41688000D01*
X179214976Y-41688001D01*
X179140894Y-41702737D01*
X179140892Y-41702737D01*
X179056875Y-41758875D01*
X179000737Y-41842893D01*
X179000736Y-41842894D01*
X178986000Y-41916977D01*
X177301002Y-41916977D01*
X177296899Y-41905976D01*
X177210047Y-41789952D01*
X177094023Y-41703100D01*
X177094024Y-41703100D01*
X176958242Y-41652455D01*
X176958234Y-41652453D01*
X176908000Y-41647052D01*
X176908000Y-41992000D01*
X175892000Y-41992000D01*
X175892000Y-41647053D01*
X175891999Y-41647052D01*
X175841767Y-41652452D01*
X175841765Y-41652452D01*
X175705976Y-41703100D01*
X175589952Y-41789952D01*
X175503100Y-41905976D01*
X175471015Y-41992000D01*
X174354500Y-41992000D01*
X174354500Y-41907500D01*
X174374502Y-41839379D01*
X174428158Y-41792886D01*
X174480500Y-41781500D01*
X174650223Y-41781500D01*
X174650225Y-41781500D01*
X174747254Y-41755501D01*
X174747257Y-41755499D01*
X174747258Y-41755499D01*
X174832099Y-41706516D01*
X174834247Y-41705276D01*
X174905276Y-41634247D01*
X175375262Y-41164259D01*
X175437573Y-41130236D01*
X175508388Y-41135300D01*
X175565224Y-41177847D01*
X175583274Y-41201959D01*
X175589596Y-41210404D01*
X175705733Y-41297342D01*
X175841658Y-41348040D01*
X175901745Y-41354500D01*
X176898254Y-41354499D01*
X176958342Y-41348040D01*
X177094267Y-41297342D01*
X177210404Y-41210404D01*
X177297342Y-41094267D01*
X177327480Y-41013466D01*
X177370027Y-40956631D01*
X177436548Y-40931821D01*
X177445535Y-40931500D01*
X178859501Y-40931500D01*
X178927622Y-40951502D01*
X178974115Y-41005158D01*
X178985501Y-41057500D01*
X178985501Y-41083072D01*
X179000265Y-41157300D01*
X179056516Y-41241484D01*
X179140697Y-41297733D01*
X179140699Y-41297734D01*
X179214933Y-41312500D01*
X180465066Y-41312499D01*
X180465069Y-41312498D01*
X180465073Y-41312498D01*
X180514326Y-41302701D01*
X180539301Y-41297734D01*
X180623484Y-41241484D01*
X180679734Y-41157301D01*
X180694500Y-41083067D01*
X180694499Y-40016934D01*
X180694498Y-40016930D01*
X180694498Y-40016926D01*
X180679734Y-39942699D01*
X180628321Y-39865755D01*
X180623484Y-39858516D01*
X180623483Y-39858515D01*
X180539302Y-39802266D01*
X180465067Y-39787500D01*
X179214936Y-39787500D01*
X179214926Y-39787501D01*
X179140699Y-39802265D01*
X179056515Y-39858516D01*
X179000266Y-39942697D01*
X178985500Y-40016930D01*
X178985500Y-40042500D01*
X178965498Y-40110621D01*
X178911842Y-40157114D01*
X178859500Y-40168500D01*
X177474857Y-40168500D01*
X177406736Y-40148498D01*
X177360243Y-40094842D01*
X177349579Y-40055969D01*
X177348250Y-40043619D01*
X177348040Y-40041658D01*
X177297342Y-39905733D01*
X177210404Y-39789596D01*
X177094267Y-39702658D01*
X177094265Y-39702657D01*
X177094266Y-39702657D01*
X176958349Y-39651962D01*
X176958344Y-39651960D01*
X176958342Y-39651960D01*
X176928298Y-39648730D01*
X176898256Y-39645500D01*
X175901753Y-39645500D01*
X175901729Y-39645502D01*
X175841660Y-39651959D01*
X175841658Y-39651959D01*
X175705733Y-39702657D01*
X175589596Y-39789596D01*
X175502657Y-39905734D01*
X175451962Y-40041650D01*
X175450149Y-40049325D01*
X175446855Y-40048546D01*
X175425559Y-40099916D01*
X175367228Y-40140389D01*
X175360091Y-40142530D01*
X175352749Y-40144497D01*
X175311175Y-40168500D01*
X175311174Y-40168499D01*
X175265756Y-40194721D01*
X175265746Y-40194729D01*
X174569594Y-40890882D01*
X174507282Y-40924908D01*
X174436467Y-40919843D01*
X174379631Y-40877296D01*
X174354820Y-40810776D01*
X174354499Y-40801787D01*
X174354499Y-40726753D01*
X174354499Y-40726746D01*
X174348040Y-40666658D01*
X174297342Y-40530733D01*
X174210404Y-40414596D01*
X174094267Y-40327658D01*
X174094265Y-40327657D01*
X174094266Y-40327657D01*
X173958349Y-40276962D01*
X173958344Y-40276960D01*
X173958342Y-40276960D01*
X173928298Y-40273730D01*
X173898256Y-40270500D01*
X173001753Y-40270500D01*
X173001729Y-40270502D01*
X172941660Y-40276959D01*
X172941658Y-40276959D01*
X172805733Y-40327657D01*
X172689596Y-40414596D01*
X172602657Y-40530734D01*
X172551962Y-40666650D01*
X172551960Y-40666658D01*
X172545500Y-40726737D01*
X171254499Y-40726737D01*
X171248453Y-40670502D01*
X171248040Y-40666658D01*
X171197342Y-40530733D01*
X171110404Y-40414596D01*
X170994267Y-40327658D01*
X170994265Y-40327657D01*
X170994266Y-40327657D01*
X170858349Y-40276962D01*
X170858344Y-40276960D01*
X170858342Y-40276960D01*
X170828298Y-40273730D01*
X170798256Y-40270500D01*
X169901753Y-40270500D01*
X169901729Y-40270502D01*
X169841660Y-40276959D01*
X169841658Y-40276959D01*
X169705733Y-40327657D01*
X169589596Y-40414596D01*
X169502657Y-40530734D01*
X169451962Y-40666650D01*
X169451960Y-40666658D01*
X169445500Y-40726737D01*
X169445500Y-40892500D01*
X169425498Y-40960621D01*
X169371842Y-41007114D01*
X169319500Y-41018500D01*
X168650225Y-41018500D01*
X168549775Y-41018500D01*
X168506989Y-41029964D01*
X168452742Y-41044499D01*
X168365756Y-41094721D01*
X168365746Y-41094729D01*
X166712231Y-42748246D01*
X166165753Y-43294724D01*
X166130744Y-43329733D01*
X166094725Y-43365751D01*
X166094721Y-43365756D01*
X166044500Y-43452741D01*
X166018500Y-43549776D01*
X166018500Y-45248785D01*
X165998498Y-45316906D01*
X165981595Y-45337881D01*
X165624594Y-45694881D01*
X165562282Y-45728906D01*
X165491466Y-45723841D01*
X165434631Y-45681294D01*
X165409820Y-45614774D01*
X165409499Y-45605811D01*
X165409499Y-44704934D01*
X165409498Y-44704930D01*
X165409498Y-44704926D01*
X165397427Y-44644237D01*
X165394734Y-44630699D01*
X165384245Y-44615001D01*
X165363030Y-44547251D01*
X165381812Y-44478784D01*
X165384218Y-44475038D01*
X165394734Y-44459301D01*
X165409500Y-44385067D01*
X165409499Y-43434934D01*
X165409498Y-43434930D01*
X165409498Y-43434926D01*
X165394734Y-43360700D01*
X165394734Y-43360699D01*
X165384245Y-43345001D01*
X165363030Y-43277251D01*
X165369478Y-43235149D01*
X165374834Y-43219082D01*
X165394734Y-43189301D01*
X165409480Y-43115162D01*
X165411986Y-43107649D01*
X165427911Y-43084737D01*
X165440847Y-43060008D01*
X165447885Y-43056000D01*
X165452507Y-43049351D01*
X165478291Y-43038686D01*
X165502542Y-43024877D01*
X165515260Y-43023394D01*
X165518113Y-43022215D01*
X165520961Y-43022730D01*
X165531518Y-43021500D01*
X165910223Y-43021500D01*
X165910225Y-43021500D01*
X166007254Y-42995501D01*
X166007257Y-42995499D01*
X166007258Y-42995499D01*
X166082666Y-42951962D01*
X166094247Y-42945276D01*
X166165276Y-42874247D01*
X166182996Y-42856527D01*
X166182998Y-42856524D01*
X169321117Y-39718405D01*
X169383429Y-39684379D01*
X169410212Y-39681500D01*
X173350223Y-39681500D01*
X173350225Y-39681500D01*
X173447254Y-39655501D01*
X173447257Y-39655499D01*
X173447258Y-39655499D01*
X173492402Y-39629435D01*
X173534247Y-39605276D01*
X173605276Y-39534247D01*
X175398118Y-37741403D01*
X175460430Y-37707379D01*
X175487213Y-37704499D01*
X176015064Y-37704499D01*
X176015066Y-37704499D01*
X176015069Y-37704498D01*
X176015072Y-37704498D01*
X176051663Y-37697219D01*
X176089301Y-37689734D01*
X176173484Y-37633484D01*
X176229734Y-37549301D01*
X176244500Y-37475067D01*
X176244499Y-36599999D01*
X176244499Y-35724936D01*
X176244498Y-35724926D01*
X176229734Y-35650699D01*
X176180102Y-35576421D01*
X176173484Y-35566516D01*
X176172347Y-35565756D01*
X176089302Y-35510266D01*
X176015067Y-35495500D01*
X174264936Y-35495500D01*
X174264926Y-35495501D01*
X174190699Y-35510265D01*
X174106515Y-35566516D01*
X174050266Y-35650697D01*
X174035500Y-35724930D01*
X174035500Y-35724933D01*
X174035500Y-36599999D01*
X174035501Y-37475061D01*
X174035501Y-37475073D01*
X174050265Y-37549300D01*
X174106516Y-37633484D01*
X174170971Y-37676553D01*
X174216498Y-37731030D01*
X174225345Y-37801473D01*
X174194704Y-37865517D01*
X174190064Y-37870412D01*
X173178880Y-38881596D01*
X173116570Y-38915620D01*
X173089787Y-38918500D01*
X172025214Y-38918500D01*
X172003624Y-38912160D01*
X171981182Y-38910556D01*
X171970225Y-38902353D01*
X171957093Y-38898498D01*
X171942359Y-38881494D01*
X171924346Y-38868010D01*
X171919562Y-38855185D01*
X171910600Y-38844842D01*
X171907397Y-38822570D01*
X171899535Y-38801490D01*
X171902444Y-38788116D01*
X171900496Y-38774568D01*
X171909843Y-38754100D01*
X171914626Y-38732115D01*
X171928112Y-38714099D01*
X171929990Y-38709988D01*
X171936118Y-38703405D01*
X172005276Y-38634247D01*
X172905276Y-37734247D01*
X172932329Y-37687388D01*
X172983709Y-37638396D01*
X173002504Y-37630557D01*
X173023981Y-37623580D01*
X173178884Y-37544653D01*
X173319533Y-37442465D01*
X173442465Y-37319533D01*
X173544653Y-37178884D01*
X173623580Y-37023981D01*
X173677303Y-36858638D01*
X173704500Y-36686926D01*
X173704500Y-36513074D01*
X173677303Y-36341362D01*
X173623580Y-36176019D01*
X173544653Y-36021116D01*
X173490668Y-35946812D01*
X173442463Y-35880464D01*
X173319535Y-35757536D01*
X173178887Y-35655349D01*
X173178886Y-35655348D01*
X173178884Y-35655347D01*
X173023981Y-35576420D01*
X173023978Y-35576419D01*
X173023976Y-35576418D01*
X172858642Y-35522698D01*
X172858640Y-35522697D01*
X172858638Y-35522697D01*
X172686926Y-35495500D01*
X172513074Y-35495500D01*
X172341362Y-35522697D01*
X172341360Y-35522697D01*
X172341357Y-35522698D01*
X172176023Y-35576418D01*
X172176017Y-35576421D01*
X172021112Y-35655349D01*
X171880464Y-35757536D01*
X171757536Y-35880464D01*
X171655349Y-36021112D01*
X171576421Y-36176017D01*
X171576418Y-36176023D01*
X171522698Y-36341357D01*
X171522697Y-36341360D01*
X171522697Y-36341362D01*
X171495500Y-36513074D01*
X171495500Y-36686926D01*
X171522680Y-36858529D01*
X171522698Y-36858642D01*
X171572167Y-37010894D01*
X171576420Y-37023981D01*
X171607504Y-37084986D01*
X171655349Y-37178887D01*
X171757536Y-37319535D01*
X171880461Y-37442460D01*
X171880464Y-37442462D01*
X171880467Y-37442465D01*
X171898700Y-37455712D01*
X171942053Y-37511935D01*
X171948127Y-37582672D01*
X171914994Y-37645463D01*
X171913733Y-37646742D01*
X171578882Y-37981595D01*
X171516570Y-38015620D01*
X171489786Y-38018500D01*
X168449775Y-38018500D01*
X168390390Y-38034412D01*
X168352741Y-38044500D01*
X168265756Y-38094721D01*
X168265751Y-38094725D01*
X168235932Y-38124545D01*
X168194724Y-38165753D01*
X168194722Y-38165755D01*
X165609868Y-40750608D01*
X165547556Y-40784634D01*
X165476740Y-40779569D01*
X165419905Y-40737022D01*
X165395094Y-40670502D01*
X165397193Y-40636935D01*
X165409500Y-40575067D01*
X165409499Y-39624934D01*
X165409498Y-39624930D01*
X165409498Y-39624926D01*
X165394734Y-39550700D01*
X165394734Y-39550699D01*
X165384245Y-39535001D01*
X165363030Y-39467251D01*
X165381812Y-39398784D01*
X165384218Y-39395038D01*
X165394734Y-39379301D01*
X165409500Y-39305067D01*
X165409499Y-38354934D01*
X165409498Y-38354930D01*
X165409498Y-38354926D01*
X165394734Y-38280699D01*
X165390732Y-38274710D01*
X165383945Y-38264552D01*
X165362729Y-38196802D01*
X165381510Y-38128335D01*
X165383946Y-38124545D01*
X165394263Y-38109104D01*
X165408999Y-38035022D01*
X165409000Y-38035015D01*
X165409000Y-38010000D01*
X163401001Y-38010000D01*
X163401001Y-38035022D01*
X163415737Y-38109105D01*
X163415737Y-38109106D01*
X163426055Y-38124548D01*
X163447269Y-38192301D01*
X163428485Y-38260768D01*
X163426056Y-38264548D01*
X163415266Y-38280696D01*
X163400500Y-38354930D01*
X163400500Y-39305063D01*
X163400501Y-39305073D01*
X163415265Y-39379299D01*
X163415265Y-39379300D01*
X163415266Y-39379301D01*
X163425754Y-39394998D01*
X163446969Y-39462749D01*
X163428187Y-39531216D01*
X163425755Y-39535000D01*
X163415266Y-39550697D01*
X163400500Y-39624930D01*
X163400500Y-40575063D01*
X163400501Y-40575073D01*
X163415265Y-40649299D01*
X163415265Y-40649300D01*
X163415266Y-40649301D01*
X163425754Y-40664998D01*
X163446969Y-40732749D01*
X163428187Y-40801216D01*
X163425755Y-40805000D01*
X163415266Y-40820697D01*
X163400500Y-40894930D01*
X163400500Y-41845063D01*
X163400501Y-41845073D01*
X163415265Y-41919299D01*
X163415265Y-41919300D01*
X163415266Y-41919301D01*
X163425754Y-41934998D01*
X163446969Y-42002749D01*
X163428187Y-42071216D01*
X163425755Y-42075000D01*
X163415266Y-42090697D01*
X163400500Y-42164930D01*
X163400500Y-43115063D01*
X163400501Y-43115073D01*
X163415265Y-43189299D01*
X163415265Y-43189300D01*
X163415266Y-43189301D01*
X163425754Y-43204998D01*
X163446969Y-43272749D01*
X163428187Y-43341216D01*
X163425755Y-43345000D01*
X163415266Y-43360697D01*
X163400500Y-43434930D01*
X163400500Y-44385063D01*
X163400501Y-44385073D01*
X163415265Y-44459299D01*
X163415265Y-44459300D01*
X163415266Y-44459301D01*
X163425754Y-44474998D01*
X163446969Y-44542749D01*
X163428187Y-44611216D01*
X163425755Y-44615000D01*
X163415266Y-44630697D01*
X163400500Y-44704930D01*
X163400500Y-45655063D01*
X163400501Y-45655073D01*
X163415265Y-45729299D01*
X163415265Y-45729300D01*
X163415266Y-45729301D01*
X163425754Y-45744998D01*
X163446969Y-45812749D01*
X163428187Y-45881216D01*
X163425755Y-45885000D01*
X163415266Y-45900697D01*
X163400500Y-45974930D01*
X163400500Y-46925063D01*
X163400501Y-46925073D01*
X163415265Y-46999299D01*
X163415265Y-46999300D01*
X163415266Y-46999301D01*
X163425754Y-47014998D01*
X163446969Y-47082749D01*
X163428187Y-47151216D01*
X163425755Y-47155000D01*
X163415266Y-47170697D01*
X163400500Y-47244930D01*
X163400500Y-48195063D01*
X163400501Y-48195073D01*
X163415265Y-48269299D01*
X163415265Y-48269300D01*
X163415266Y-48269301D01*
X163425754Y-48284998D01*
X163446969Y-48352749D01*
X163428187Y-48421216D01*
X163425755Y-48425000D01*
X163415266Y-48440697D01*
X163400500Y-48514930D01*
X163400500Y-49465063D01*
X163400501Y-49465073D01*
X163415265Y-49539299D01*
X163415265Y-49539300D01*
X163415266Y-49539301D01*
X163425754Y-49554998D01*
X163446969Y-49622749D01*
X163428187Y-49691216D01*
X163425755Y-49695000D01*
X163415266Y-49710697D01*
X163400500Y-49784932D01*
X163400500Y-50735063D01*
X163400501Y-50735073D01*
X163415265Y-50809299D01*
X163415265Y-50809300D01*
X163415266Y-50809301D01*
X163425754Y-50824998D01*
X163446969Y-50892749D01*
X163428187Y-50961216D01*
X163425755Y-50965000D01*
X163415266Y-50980697D01*
X163400500Y-51054930D01*
X163400500Y-52005063D01*
X163400501Y-52005073D01*
X163415265Y-52079299D01*
X163415265Y-52079300D01*
X163415266Y-52079301D01*
X163425754Y-52094998D01*
X163446969Y-52162749D01*
X163428187Y-52231216D01*
X163425755Y-52235000D01*
X163415266Y-52250697D01*
X163400500Y-52324930D01*
X163400500Y-53275063D01*
X163400501Y-53275073D01*
X163415265Y-53349299D01*
X163415265Y-53349300D01*
X163415266Y-53349301D01*
X163425754Y-53364998D01*
X163446969Y-53432749D01*
X163428187Y-53501216D01*
X163425755Y-53505000D01*
X163415266Y-53520697D01*
X163400500Y-53594930D01*
X163400500Y-54545063D01*
X163400501Y-54545073D01*
X163415265Y-54619300D01*
X163471516Y-54703484D01*
X163555697Y-54759733D01*
X163555699Y-54759734D01*
X163598025Y-54768153D01*
X163612296Y-54770992D01*
X163675205Y-54803900D01*
X163710337Y-54865595D01*
X163706537Y-54936490D01*
X163676809Y-54983666D01*
X160151880Y-58508595D01*
X160089568Y-58542621D01*
X160062785Y-58545500D01*
X159224936Y-58545500D01*
X159224926Y-58545501D01*
X159150699Y-58560265D01*
X159066515Y-58616516D01*
X159010266Y-58700697D01*
X158995500Y-58774930D01*
X158995500Y-60625063D01*
X158995501Y-60625073D01*
X159010265Y-60699300D01*
X159066516Y-60783484D01*
X159150697Y-60839733D01*
X159150699Y-60839734D01*
X159224933Y-60854500D01*
X159417500Y-60854499D01*
X159485620Y-60874501D01*
X159532113Y-60928156D01*
X159543500Y-60980499D01*
X159543500Y-63619500D01*
X159523498Y-63687621D01*
X159469842Y-63734114D01*
X159417501Y-63745500D01*
X159201753Y-63745500D01*
X159201729Y-63745502D01*
X159141660Y-63751959D01*
X159141658Y-63751959D01*
X159005733Y-63802657D01*
X158889596Y-63889596D01*
X158802657Y-64005734D01*
X158751962Y-64141650D01*
X158751960Y-64141658D01*
X158745500Y-64201737D01*
X141994351Y-64201737D01*
X141910404Y-64089596D01*
X141794267Y-64002658D01*
X141794265Y-64002657D01*
X141794266Y-64002657D01*
X141658349Y-63951962D01*
X141658344Y-63951960D01*
X141658342Y-63951960D01*
X141628298Y-63948730D01*
X141598256Y-63945500D01*
X140601753Y-63945500D01*
X140601729Y-63945502D01*
X140541660Y-63951959D01*
X140541658Y-63951959D01*
X140405733Y-64002657D01*
X140289596Y-64089596D01*
X140202657Y-64205734D01*
X140151962Y-64341650D01*
X140151960Y-64341656D01*
X140151960Y-64341658D01*
X140149444Y-64365067D01*
X140147949Y-64378969D01*
X140120780Y-64444561D01*
X140062462Y-64485052D01*
X140022671Y-64491500D01*
X139334500Y-64491500D01*
X139266379Y-64471498D01*
X139219886Y-64417842D01*
X139208500Y-64365500D01*
X139208500Y-64047674D01*
X139228502Y-63979553D01*
X139282158Y-63933060D01*
X139286282Y-63931265D01*
X139290909Y-63929348D01*
X139290911Y-63929348D01*
X139410022Y-63880011D01*
X139517220Y-63808383D01*
X139608383Y-63717220D01*
X139680011Y-63610022D01*
X139729348Y-63490911D01*
X139754500Y-63364463D01*
X139754500Y-63235537D01*
X139729348Y-63109089D01*
X139680011Y-62989978D01*
X139608383Y-62882780D01*
X139608378Y-62882774D01*
X139517225Y-62791621D01*
X139517219Y-62791616D01*
X139464145Y-62756153D01*
X139410022Y-62719989D01*
X139290911Y-62670652D01*
X139164465Y-62645500D01*
X139164463Y-62645500D01*
X139035537Y-62645500D01*
X139035534Y-62645500D01*
X138909088Y-62670652D01*
X138909083Y-62670654D01*
X138789978Y-62719989D01*
X138682780Y-62791616D01*
X138682774Y-62791621D01*
X138591621Y-62882774D01*
X138591616Y-62882780D01*
X138519989Y-62989978D01*
X138470653Y-63109085D01*
X138470650Y-63109094D01*
X138452995Y-63197846D01*
X138420087Y-63260755D01*
X138418513Y-63262357D01*
X138293101Y-63387770D01*
X138293096Y-63387776D01*
X138242489Y-63475431D01*
X138242488Y-63475433D01*
X138226154Y-63503722D01*
X138226153Y-63503726D01*
X138197666Y-63610045D01*
X138191500Y-63633056D01*
X138191500Y-64365500D01*
X138171498Y-64433621D01*
X138117842Y-64480114D01*
X138065500Y-64491500D01*
X133291814Y-64491500D01*
X133223693Y-64471498D01*
X133177200Y-64417842D01*
X133173765Y-64409549D01*
X133172342Y-64405733D01*
X133085404Y-64289596D01*
X132969267Y-64202658D01*
X132969265Y-64202657D01*
X132969266Y-64202657D01*
X132833349Y-64151962D01*
X132833344Y-64151960D01*
X132833342Y-64151960D01*
X132803298Y-64148730D01*
X132773256Y-64145500D01*
X131426753Y-64145500D01*
X131426729Y-64145502D01*
X131366660Y-64151959D01*
X131366658Y-64151959D01*
X131230733Y-64202657D01*
X131114596Y-64289596D01*
X131027657Y-64405734D01*
X130976962Y-64541650D01*
X130976960Y-64541658D01*
X130970500Y-64601737D01*
X130970500Y-65408181D01*
X130950498Y-65476302D01*
X130933595Y-65497276D01*
X129293104Y-67137766D01*
X129293096Y-67137776D01*
X129260483Y-67194265D01*
X129233765Y-67240542D01*
X129230810Y-67245658D01*
X129226153Y-67253724D01*
X129226153Y-67253725D01*
X129191500Y-67383056D01*
X129191500Y-73165500D01*
X129188908Y-73174325D01*
X129190218Y-73183432D01*
X129179062Y-73207857D01*
X129171498Y-73233621D01*
X129164544Y-73239645D01*
X129160724Y-73248012D01*
X129138138Y-73262526D01*
X129117842Y-73280114D01*
X129107155Y-73282438D01*
X129100998Y-73286396D01*
X129065500Y-73291500D01*
X128982399Y-73291500D01*
X128914278Y-73271498D01*
X128867785Y-73217842D01*
X128856399Y-73165500D01*
X128856399Y-71527036D01*
X128856398Y-71527027D01*
X128841634Y-71452799D01*
X128785383Y-71368615D01*
X128701202Y-71312366D01*
X128626969Y-71297600D01*
X128626967Y-71297600D01*
X128360100Y-71297600D01*
X128291979Y-71277598D01*
X128245486Y-71223942D01*
X128234100Y-71171600D01*
X128234100Y-69473655D01*
X128232085Y-69466134D01*
X128199447Y-69344325D01*
X128173115Y-69298717D01*
X128132501Y-69228372D01*
X128132499Y-69228370D01*
X128132495Y-69228365D01*
X127641905Y-68737775D01*
X127608712Y-68676989D01*
X128205000Y-68676989D01*
X128295424Y-68630917D01*
X128385917Y-68540423D01*
X128444015Y-68426400D01*
X128459000Y-68331791D01*
X128459000Y-67775000D01*
X128205000Y-67775000D01*
X128205000Y-68676989D01*
X127608712Y-68676989D01*
X127607879Y-68675463D01*
X127605000Y-68648680D01*
X127605000Y-67175000D01*
X128205000Y-67175000D01*
X128458999Y-67175000D01*
X128458999Y-66618207D01*
X128444016Y-66523602D01*
X128385917Y-66409576D01*
X128295424Y-66319082D01*
X128295425Y-66319082D01*
X128205000Y-66273009D01*
X128205000Y-67175000D01*
X127605000Y-67175000D01*
X127605000Y-66273009D01*
X127604999Y-66273009D01*
X127514575Y-66319082D01*
X127424082Y-66409576D01*
X127424080Y-66409578D01*
X127382546Y-66491094D01*
X127333798Y-66542709D01*
X127264883Y-66559774D01*
X127197681Y-66536873D01*
X127158013Y-66491092D01*
X127116327Y-66409279D01*
X127116324Y-66409274D01*
X127025723Y-66318673D01*
X126911553Y-66260501D01*
X126846836Y-66250251D01*
X126816834Y-66245500D01*
X126453166Y-66245500D01*
X126427266Y-66249602D01*
X126358446Y-66260501D01*
X126244276Y-66318673D01*
X126153675Y-66409274D01*
X126153673Y-66409277D01*
X126112267Y-66490542D01*
X126063518Y-66542157D01*
X125994604Y-66559223D01*
X125927402Y-66536322D01*
X125887733Y-66490542D01*
X125846326Y-66409277D01*
X125846324Y-66409274D01*
X125755723Y-66318673D01*
X125641553Y-66260501D01*
X125576836Y-66250251D01*
X125546834Y-66245500D01*
X125183166Y-66245500D01*
X125157266Y-66249602D01*
X125088446Y-66260501D01*
X124974276Y-66318673D01*
X124883675Y-66409274D01*
X124883673Y-66409277D01*
X124842267Y-66490542D01*
X124793518Y-66542157D01*
X124724604Y-66559223D01*
X124657402Y-66536322D01*
X124617733Y-66490542D01*
X124576326Y-66409277D01*
X124576324Y-66409274D01*
X124485723Y-66318673D01*
X124371553Y-66260501D01*
X124306836Y-66250251D01*
X124276834Y-66245500D01*
X123913166Y-66245500D01*
X123887266Y-66249602D01*
X123818446Y-66260501D01*
X123704276Y-66318673D01*
X123704274Y-66318675D01*
X123649355Y-66373595D01*
X123587043Y-66407621D01*
X123560260Y-66410500D01*
X123220633Y-66410500D01*
X123152512Y-66390498D01*
X123131538Y-66373595D01*
X120974296Y-64216353D01*
X120946982Y-64175476D01*
X120880176Y-64014191D01*
X120770246Y-63849669D01*
X120630331Y-63709754D01*
X120465809Y-63599824D01*
X120368700Y-63559600D01*
X120304523Y-63533017D01*
X120263646Y-63505703D01*
X120139735Y-63381792D01*
X123541001Y-63381792D01*
X123555983Y-63476397D01*
X123614082Y-63590423D01*
X123704575Y-63680917D01*
X123795000Y-63726990D01*
X123795000Y-63726989D01*
X124395000Y-63726989D01*
X124485424Y-63680917D01*
X124575917Y-63590423D01*
X124575918Y-63590421D01*
X124617733Y-63508356D01*
X124666481Y-63456740D01*
X124735396Y-63439674D01*
X124802597Y-63462574D01*
X124842267Y-63508356D01*
X124884081Y-63590421D01*
X124884082Y-63590423D01*
X124974575Y-63680917D01*
X125065000Y-63726990D01*
X125065000Y-63726989D01*
X125665000Y-63726989D01*
X125755424Y-63680917D01*
X125845917Y-63590423D01*
X125845918Y-63590421D01*
X125887733Y-63508356D01*
X125936481Y-63456740D01*
X126005396Y-63439674D01*
X126072597Y-63462574D01*
X126112267Y-63508356D01*
X126154081Y-63590421D01*
X126154082Y-63590423D01*
X126244575Y-63680917D01*
X126335000Y-63726990D01*
X126335000Y-63726989D01*
X126935000Y-63726989D01*
X127025424Y-63680917D01*
X127115917Y-63590423D01*
X127115918Y-63590421D01*
X127157733Y-63508356D01*
X127206481Y-63456740D01*
X127275396Y-63439674D01*
X127342597Y-63462574D01*
X127382267Y-63508356D01*
X127424081Y-63590421D01*
X127424082Y-63590423D01*
X127514575Y-63680917D01*
X127605000Y-63726990D01*
X127605000Y-63726989D01*
X128205000Y-63726989D01*
X128295424Y-63680917D01*
X128385917Y-63590423D01*
X128444015Y-63476400D01*
X128459000Y-63381791D01*
X128459000Y-63298221D01*
X134871000Y-63298221D01*
X134877452Y-63358233D01*
X134877452Y-63358234D01*
X134928099Y-63494021D01*
X135014954Y-63610045D01*
X135130978Y-63696900D01*
X135266766Y-63747547D01*
X135326778Y-63753999D01*
X135326796Y-63754000D01*
X135492000Y-63754000D01*
X136508000Y-63754000D01*
X136673204Y-63754000D01*
X136673221Y-63753999D01*
X136733233Y-63747547D01*
X136733234Y-63747547D01*
X136869021Y-63696900D01*
X136985045Y-63610045D01*
X137071900Y-63494021D01*
X137122547Y-63358234D01*
X137122547Y-63358233D01*
X137128999Y-63298221D01*
X137129000Y-63298204D01*
X137129000Y-63295500D01*
X136508000Y-63295500D01*
X136508000Y-63754000D01*
X135492000Y-63754000D01*
X135492000Y-63295500D01*
X134871000Y-63295500D01*
X134871000Y-63298221D01*
X128459000Y-63298221D01*
X128459000Y-62825000D01*
X128205000Y-62825000D01*
X128205000Y-63726989D01*
X127605000Y-63726989D01*
X127605000Y-62825000D01*
X127344270Y-62825000D01*
X127296781Y-62850930D01*
X127225965Y-62845864D01*
X127193502Y-62825000D01*
X126935000Y-62825000D01*
X126935000Y-63726989D01*
X126335000Y-63726989D01*
X126335000Y-62825000D01*
X126074270Y-62825000D01*
X126026781Y-62850930D01*
X125955965Y-62845864D01*
X125923502Y-62825000D01*
X125665000Y-62825000D01*
X125665000Y-63726989D01*
X125065000Y-63726989D01*
X125065000Y-62825000D01*
X124804270Y-62825000D01*
X124756781Y-62850930D01*
X124685965Y-62845864D01*
X124653502Y-62825000D01*
X124395000Y-62825000D01*
X124395000Y-63726989D01*
X123795000Y-63726989D01*
X123795000Y-62825000D01*
X123541001Y-62825000D01*
X123541001Y-63381792D01*
X120139735Y-63381792D01*
X119294082Y-62536139D01*
X119279137Y-62508770D01*
X119262281Y-62482542D01*
X119261375Y-62476243D01*
X119260056Y-62473827D01*
X119257177Y-62447044D01*
X119257177Y-62323901D01*
X119277179Y-62255780D01*
X119330835Y-62209287D01*
X119339131Y-62205850D01*
X119361944Y-62197342D01*
X119478081Y-62110404D01*
X119565019Y-61994267D01*
X119615717Y-61858342D01*
X119622177Y-61798255D01*
X119622177Y-61668208D01*
X123541000Y-61668208D01*
X123541000Y-62225000D01*
X123795000Y-62225000D01*
X123795000Y-61323009D01*
X124395000Y-61323009D01*
X124395000Y-62225000D01*
X124655728Y-62225000D01*
X124703214Y-62199070D01*
X124774029Y-62204134D01*
X124806498Y-62225000D01*
X125065000Y-62225000D01*
X125065000Y-61323009D01*
X125665000Y-61323009D01*
X125665000Y-62225000D01*
X125925728Y-62225000D01*
X125973214Y-62199070D01*
X126044029Y-62204134D01*
X126076498Y-62225000D01*
X126335000Y-62225000D01*
X126335000Y-61323009D01*
X126935000Y-61323009D01*
X126935000Y-62225000D01*
X127195728Y-62225000D01*
X127243214Y-62199070D01*
X127314029Y-62204134D01*
X127346498Y-62225000D01*
X127605000Y-62225000D01*
X128205000Y-62225000D01*
X128458999Y-62225000D01*
X128458999Y-61668207D01*
X128444016Y-61573600D01*
X128434832Y-61555575D01*
X128434831Y-61555574D01*
X128407399Y-61501737D01*
X130970500Y-61501737D01*
X130970500Y-62398246D01*
X130970502Y-62398270D01*
X130976959Y-62458339D01*
X130976959Y-62458341D01*
X131027657Y-62594266D01*
X131027658Y-62594267D01*
X131114596Y-62710404D01*
X131230733Y-62797342D01*
X131366658Y-62848040D01*
X131426745Y-62854500D01*
X132773254Y-62854499D01*
X132833342Y-62848040D01*
X132969267Y-62797342D01*
X133085404Y-62710404D01*
X133172342Y-62594267D01*
X133223040Y-62458342D01*
X133229126Y-62401737D01*
X140145500Y-62401737D01*
X140145500Y-63198246D01*
X140145502Y-63198270D01*
X140151959Y-63258339D01*
X140151959Y-63258341D01*
X140202657Y-63394266D01*
X140202658Y-63394267D01*
X140289596Y-63510404D01*
X140405733Y-63597342D01*
X140541658Y-63648040D01*
X140601745Y-63654500D01*
X141598254Y-63654499D01*
X141658342Y-63648040D01*
X141794267Y-63597342D01*
X141910404Y-63510404D01*
X141997342Y-63394267D01*
X142048040Y-63258342D01*
X142054500Y-63198255D01*
X142054499Y-62537211D01*
X142074501Y-62469091D01*
X142091399Y-62448122D01*
X143362789Y-61176733D01*
X152270500Y-61176733D01*
X152270500Y-62198266D01*
X152276958Y-62258335D01*
X152276959Y-62258340D01*
X152276960Y-62258341D01*
X152327658Y-62394267D01*
X152414596Y-62510404D01*
X152530733Y-62597342D01*
X152666659Y-62648040D01*
X152666662Y-62648040D01*
X152666664Y-62648041D01*
X152726733Y-62654499D01*
X152726741Y-62654499D01*
X152726746Y-62654500D01*
X152726750Y-62654500D01*
X154073250Y-62654500D01*
X154073254Y-62654500D01*
X154073259Y-62654499D01*
X154073266Y-62654499D01*
X154133335Y-62648041D01*
X154133336Y-62648040D01*
X154133341Y-62648040D01*
X154269267Y-62597342D01*
X154385404Y-62510404D01*
X154472342Y-62394267D01*
X154523040Y-62258341D01*
X154523316Y-62255780D01*
X154529499Y-62198266D01*
X154529500Y-62198249D01*
X154529500Y-62195000D01*
X154549502Y-62126879D01*
X154603158Y-62080386D01*
X154655500Y-62069000D01*
X155656154Y-62069000D01*
X155724275Y-62089002D01*
X155770768Y-62142658D01*
X155774209Y-62150967D01*
X155827657Y-62294266D01*
X155827658Y-62294267D01*
X155914596Y-62410404D01*
X156030733Y-62497342D01*
X156166658Y-62548040D01*
X156226745Y-62554500D01*
X157573254Y-62554499D01*
X157633342Y-62548040D01*
X157769267Y-62497342D01*
X157885404Y-62410404D01*
X157972342Y-62294267D01*
X158023040Y-62158342D01*
X158029500Y-62098255D01*
X158029499Y-61201746D01*
X158023040Y-61141658D01*
X157972342Y-61005733D01*
X157885404Y-60889596D01*
X157769267Y-60802658D01*
X157769265Y-60802657D01*
X157769266Y-60802657D01*
X157633349Y-60751962D01*
X157633344Y-60751960D01*
X157633342Y-60751960D01*
X157603298Y-60748730D01*
X157573256Y-60745500D01*
X156226753Y-60745500D01*
X156226729Y-60745502D01*
X156166660Y-60751959D01*
X156166658Y-60751959D01*
X156030733Y-60802657D01*
X155914596Y-60889596D01*
X155827657Y-61005734D01*
X155776962Y-61141650D01*
X155776960Y-61141656D01*
X155776960Y-61141658D01*
X155771807Y-61189594D01*
X155771390Y-61193469D01*
X155744221Y-61259061D01*
X155685902Y-61299552D01*
X155646112Y-61306000D01*
X154655500Y-61306000D01*
X154587379Y-61285998D01*
X154540886Y-61232342D01*
X154529500Y-61180000D01*
X154529500Y-61176750D01*
X154529499Y-61176733D01*
X154523041Y-61116664D01*
X154523040Y-61116662D01*
X154523040Y-61116659D01*
X154472342Y-60980733D01*
X154385404Y-60864596D01*
X154269267Y-60777658D01*
X154133341Y-60726960D01*
X154133340Y-60726959D01*
X154133335Y-60726958D01*
X154073266Y-60720500D01*
X154073254Y-60720500D01*
X152726746Y-60720500D01*
X152726733Y-60720500D01*
X152666664Y-60726958D01*
X152666659Y-60726960D01*
X152530733Y-60777658D01*
X152530732Y-60777658D01*
X152530731Y-60777659D01*
X152414596Y-60864596D01*
X152387113Y-60901310D01*
X152327658Y-60980733D01*
X152318333Y-61005734D01*
X152276958Y-61116664D01*
X152270500Y-61176733D01*
X143362789Y-61176733D01*
X144221117Y-60318405D01*
X144283429Y-60284379D01*
X144310212Y-60281500D01*
X144769501Y-60281500D01*
X144837622Y-60301502D01*
X144884115Y-60355158D01*
X144895501Y-60407500D01*
X144895501Y-60825072D01*
X144910265Y-60899300D01*
X144966516Y-60983484D01*
X145050697Y-61039733D01*
X145050699Y-61039734D01*
X145124933Y-61054500D01*
X146525066Y-61054499D01*
X146525069Y-61054498D01*
X146525073Y-61054498D01*
X146574326Y-61044701D01*
X146599301Y-61039734D01*
X146683484Y-60983484D01*
X146739734Y-60899301D01*
X146754500Y-60825067D01*
X146754500Y-60825022D01*
X149046001Y-60825022D01*
X149060737Y-60899105D01*
X149060737Y-60899107D01*
X149116875Y-60983124D01*
X149200893Y-61039262D01*
X149200894Y-61039263D01*
X149274980Y-61053999D01*
X149467000Y-61053999D01*
X150483000Y-61053999D01*
X150675014Y-61053999D01*
X150675020Y-61053998D01*
X150696163Y-61049793D01*
X150696164Y-61049792D01*
X150749106Y-61039262D01*
X150749107Y-61039262D01*
X150833124Y-60983124D01*
X150889262Y-60899106D01*
X150889263Y-60899105D01*
X150903999Y-60825022D01*
X150904000Y-60825015D01*
X150904000Y-60408000D01*
X150483000Y-60408000D01*
X150483000Y-61053999D01*
X149467000Y-61053999D01*
X149467000Y-60408000D01*
X149046001Y-60408000D01*
X149046001Y-60825022D01*
X146754500Y-60825022D01*
X146754499Y-59889596D01*
X146754499Y-58974977D01*
X149046000Y-58974977D01*
X149046000Y-59392000D01*
X149467000Y-59392000D01*
X150483000Y-59392000D01*
X150903999Y-59392000D01*
X150903999Y-59223221D01*
X152271000Y-59223221D01*
X152277452Y-59283233D01*
X152277452Y-59283234D01*
X152328099Y-59419021D01*
X152414954Y-59535045D01*
X152530978Y-59621900D01*
X152666766Y-59672547D01*
X152726778Y-59678999D01*
X152726796Y-59679000D01*
X152892000Y-59679000D01*
X153908000Y-59679000D01*
X154073204Y-59679000D01*
X154073221Y-59678999D01*
X154133233Y-59672547D01*
X154133234Y-59672547D01*
X154269021Y-59621900D01*
X154385045Y-59535045D01*
X154471900Y-59419021D01*
X154522547Y-59283234D01*
X154522547Y-59283233D01*
X154528999Y-59223221D01*
X154529000Y-59223204D01*
X154529000Y-59220500D01*
X153908000Y-59220500D01*
X153908000Y-59679000D01*
X152892000Y-59679000D01*
X152892000Y-59220500D01*
X152271000Y-59220500D01*
X152271000Y-59223221D01*
X150903999Y-59223221D01*
X150903999Y-58974986D01*
X150903998Y-58974977D01*
X150889262Y-58900894D01*
X150889262Y-58900892D01*
X150833124Y-58816875D01*
X150749106Y-58760737D01*
X150749105Y-58760736D01*
X150675022Y-58746000D01*
X150483000Y-58746000D01*
X150483000Y-59392000D01*
X149467000Y-59392000D01*
X149467000Y-58746000D01*
X149274986Y-58746000D01*
X149274976Y-58746001D01*
X149200894Y-58760737D01*
X149200892Y-58760737D01*
X149116875Y-58816875D01*
X149060737Y-58900893D01*
X149060736Y-58900894D01*
X149046000Y-58974977D01*
X146754499Y-58974977D01*
X146754499Y-58974936D01*
X146754498Y-58974926D01*
X146739734Y-58900699D01*
X146709383Y-58855276D01*
X146683484Y-58816516D01*
X146683483Y-58816515D01*
X146599302Y-58760266D01*
X146525069Y-58745500D01*
X146525067Y-58745500D01*
X146332500Y-58745500D01*
X146264379Y-58725498D01*
X146217886Y-58671842D01*
X146206500Y-58619500D01*
X146206500Y-58201778D01*
X152271000Y-58201778D01*
X152271000Y-58204500D01*
X152892000Y-58204500D01*
X153908000Y-58204500D01*
X154529000Y-58204500D01*
X154529000Y-58201795D01*
X154528999Y-58201778D01*
X154522547Y-58141766D01*
X154522547Y-58141765D01*
X154471900Y-58005978D01*
X154385045Y-57889954D01*
X154269021Y-57803099D01*
X154133233Y-57752452D01*
X154073221Y-57746000D01*
X153908000Y-57746000D01*
X153908000Y-58204500D01*
X152892000Y-58204500D01*
X152892000Y-57746000D01*
X152726778Y-57746000D01*
X152666766Y-57752452D01*
X152666765Y-57752452D01*
X152530978Y-57803099D01*
X152414954Y-57889954D01*
X152328099Y-58005978D01*
X152277452Y-58141765D01*
X152277452Y-58141766D01*
X152271000Y-58201778D01*
X146206500Y-58201778D01*
X146206500Y-57774776D01*
X146206500Y-57774775D01*
X146180501Y-57677746D01*
X146180499Y-57677743D01*
X146180499Y-57677741D01*
X146130278Y-57590756D01*
X146130274Y-57590751D01*
X146110537Y-57571014D01*
X146059247Y-57519724D01*
X145234247Y-56694724D01*
X145171658Y-56632135D01*
X145137632Y-56569823D01*
X145142697Y-56499008D01*
X145171657Y-56453945D01*
X145208383Y-56417220D01*
X145280011Y-56310022D01*
X145329348Y-56190911D01*
X145348421Y-56095022D01*
X149241001Y-56095022D01*
X149255737Y-56169105D01*
X149255737Y-56169107D01*
X149311875Y-56253124D01*
X149395893Y-56309262D01*
X149395894Y-56309263D01*
X149469980Y-56323999D01*
X149469981Y-56323999D01*
X149494999Y-56323998D01*
X149495000Y-56323998D01*
X149495000Y-55770000D01*
X149241001Y-55770000D01*
X149241001Y-56095022D01*
X145348421Y-56095022D01*
X145354500Y-56064463D01*
X145354500Y-55935537D01*
X145329348Y-55809089D01*
X145280011Y-55689978D01*
X145208383Y-55582780D01*
X145208378Y-55582774D01*
X145117225Y-55491621D01*
X145117219Y-55491616D01*
X145063516Y-55455733D01*
X145010022Y-55419989D01*
X144890911Y-55370652D01*
X144764465Y-55345500D01*
X144764463Y-55345500D01*
X144635537Y-55345500D01*
X144635534Y-55345500D01*
X144509088Y-55370652D01*
X144509083Y-55370654D01*
X144389978Y-55419989D01*
X144282780Y-55491616D01*
X144282774Y-55491621D01*
X144191621Y-55582774D01*
X144191616Y-55582780D01*
X144119989Y-55689978D01*
X144070654Y-55809083D01*
X144070652Y-55809088D01*
X144045500Y-55935534D01*
X144045500Y-56064465D01*
X144066354Y-56169302D01*
X144070652Y-56190911D01*
X144119989Y-56310022D01*
X144145845Y-56348718D01*
X144191616Y-56417219D01*
X144191621Y-56417225D01*
X144281595Y-56507199D01*
X144315621Y-56569511D01*
X144318500Y-56596294D01*
X144318500Y-56750223D01*
X144318499Y-56750223D01*
X144344500Y-56847258D01*
X144394721Y-56934243D01*
X144394723Y-56934245D01*
X144394724Y-56934247D01*
X144694724Y-57234247D01*
X145406595Y-57946118D01*
X145440621Y-58008430D01*
X145443500Y-58035213D01*
X145443500Y-58619500D01*
X145423498Y-58687621D01*
X145369842Y-58734114D01*
X145317501Y-58745500D01*
X145124936Y-58745500D01*
X145124926Y-58745501D01*
X145050699Y-58760265D01*
X144966515Y-58816516D01*
X144910266Y-58900697D01*
X144895500Y-58974930D01*
X144895500Y-59392500D01*
X144875498Y-59460621D01*
X144821842Y-59507114D01*
X144769500Y-59518500D01*
X144049775Y-59518500D01*
X144010645Y-59528985D01*
X143952741Y-59544500D01*
X143865756Y-59594721D01*
X143865751Y-59594725D01*
X143838577Y-59621900D01*
X143794724Y-59665753D01*
X143794722Y-59665755D01*
X141551881Y-61908595D01*
X141489569Y-61942621D01*
X141462786Y-61945500D01*
X140601753Y-61945500D01*
X140601729Y-61945502D01*
X140541660Y-61951959D01*
X140541658Y-61951959D01*
X140405733Y-62002657D01*
X140289596Y-62089596D01*
X140202657Y-62205734D01*
X140151962Y-62341650D01*
X140151960Y-62341658D01*
X140145500Y-62401737D01*
X133229126Y-62401737D01*
X133229500Y-62398255D01*
X133229500Y-62276778D01*
X134871000Y-62276778D01*
X134871000Y-62279500D01*
X135492000Y-62279500D01*
X136508000Y-62279500D01*
X137129000Y-62279500D01*
X137129000Y-62276795D01*
X137128999Y-62276778D01*
X137122547Y-62216766D01*
X137122547Y-62216765D01*
X137071900Y-62080978D01*
X136985045Y-61964954D01*
X136869021Y-61878099D01*
X136733233Y-61827452D01*
X136673221Y-61821000D01*
X136508000Y-61821000D01*
X136508000Y-62279500D01*
X135492000Y-62279500D01*
X135492000Y-61821000D01*
X135326778Y-61821000D01*
X135266766Y-61827452D01*
X135266765Y-61827452D01*
X135130978Y-61878099D01*
X135014954Y-61964954D01*
X134928099Y-62080978D01*
X134877452Y-62216765D01*
X134877452Y-62216766D01*
X134871000Y-62276778D01*
X133229500Y-62276778D01*
X133229499Y-61945502D01*
X133229499Y-61501753D01*
X133229499Y-61501746D01*
X133223040Y-61441658D01*
X133172342Y-61305733D01*
X133085404Y-61189596D01*
X133085402Y-61189595D01*
X133085402Y-61189594D01*
X133067146Y-61175928D01*
X133024598Y-61119093D01*
X133019532Y-61048278D01*
X133053554Y-60985967D01*
X133808619Y-60230904D01*
X133870931Y-60196879D01*
X133897714Y-60194000D01*
X134744500Y-60194000D01*
X134812621Y-60214002D01*
X134859114Y-60267658D01*
X134870500Y-60320000D01*
X134870500Y-60323266D01*
X134876958Y-60383335D01*
X134876959Y-60383340D01*
X134876960Y-60383341D01*
X134927658Y-60519267D01*
X135014596Y-60635404D01*
X135130733Y-60722342D01*
X135266659Y-60773040D01*
X135266662Y-60773040D01*
X135266664Y-60773041D01*
X135326733Y-60779499D01*
X135326741Y-60779499D01*
X135326746Y-60779500D01*
X135326750Y-60779500D01*
X136673250Y-60779500D01*
X136673254Y-60779500D01*
X136673259Y-60779499D01*
X136673266Y-60779499D01*
X136733335Y-60773041D01*
X136733336Y-60773040D01*
X136733341Y-60773040D01*
X136869267Y-60722342D01*
X136985404Y-60635404D01*
X137072342Y-60519267D01*
X137123040Y-60383341D01*
X137129500Y-60323254D01*
X137129500Y-59301746D01*
X137123040Y-59241659D01*
X137072342Y-59105733D01*
X136985404Y-58989596D01*
X136869267Y-58902658D01*
X136733341Y-58851960D01*
X136733340Y-58851959D01*
X136733335Y-58851958D01*
X136673266Y-58845500D01*
X136673254Y-58845500D01*
X135326746Y-58845500D01*
X135326733Y-58845500D01*
X135266664Y-58851958D01*
X135257165Y-58855501D01*
X135130733Y-58902658D01*
X135130732Y-58902658D01*
X135130731Y-58902659D01*
X135014596Y-58989596D01*
X134933251Y-59098262D01*
X134927658Y-59105733D01*
X134926812Y-59108001D01*
X134876958Y-59241664D01*
X134870500Y-59301733D01*
X134870500Y-59305000D01*
X134850498Y-59373121D01*
X134796842Y-59419614D01*
X134744500Y-59431000D01*
X133637275Y-59431000D01*
X133540246Y-59456999D01*
X133515232Y-59471441D01*
X133515231Y-59471440D01*
X133453255Y-59507222D01*
X133453245Y-59507230D01*
X131951880Y-61008595D01*
X131889568Y-61042621D01*
X131862785Y-61045500D01*
X131426753Y-61045500D01*
X131426729Y-61045502D01*
X131366660Y-61051959D01*
X131366658Y-61051959D01*
X131230733Y-61102657D01*
X131114596Y-61189596D01*
X131027657Y-61305734D01*
X130976962Y-61441650D01*
X130976960Y-61441658D01*
X130970500Y-61501737D01*
X128407399Y-61501737D01*
X128385917Y-61459576D01*
X128295424Y-61369082D01*
X128295425Y-61369082D01*
X128205000Y-61323009D01*
X128205000Y-62225000D01*
X127605000Y-62225000D01*
X127605000Y-61323009D01*
X127604999Y-61323009D01*
X127514575Y-61369082D01*
X127424082Y-61459576D01*
X127382267Y-61541644D01*
X127333519Y-61593259D01*
X127264604Y-61610325D01*
X127197402Y-61587424D01*
X127157733Y-61541644D01*
X127115917Y-61459576D01*
X127025424Y-61369082D01*
X127025425Y-61369082D01*
X126935000Y-61323009D01*
X126335000Y-61323009D01*
X126334999Y-61323009D01*
X126244575Y-61369082D01*
X126154082Y-61459576D01*
X126112267Y-61541644D01*
X126063519Y-61593259D01*
X125994604Y-61610325D01*
X125927402Y-61587424D01*
X125887733Y-61541644D01*
X125845917Y-61459576D01*
X125755424Y-61369082D01*
X125755425Y-61369082D01*
X125665000Y-61323009D01*
X125065000Y-61323009D01*
X125064999Y-61323009D01*
X124974575Y-61369082D01*
X124884082Y-61459576D01*
X124842267Y-61541644D01*
X124793519Y-61593259D01*
X124724604Y-61610325D01*
X124657402Y-61587424D01*
X124617733Y-61541644D01*
X124575917Y-61459576D01*
X124485424Y-61369082D01*
X124485425Y-61369082D01*
X124395000Y-61323009D01*
X123795000Y-61323009D01*
X123794999Y-61323009D01*
X123704575Y-61369082D01*
X123614082Y-61459576D01*
X123555984Y-61573599D01*
X123541000Y-61668208D01*
X119622177Y-61668208D01*
X119622176Y-60999999D01*
X119622176Y-60201753D01*
X119622176Y-60201746D01*
X119615717Y-60141658D01*
X119565019Y-60005733D01*
X119478081Y-59889596D01*
X119361944Y-59802658D01*
X119361942Y-59802657D01*
X119361943Y-59802657D01*
X119339141Y-59794152D01*
X119321130Y-59780668D01*
X119300665Y-59771322D01*
X119293265Y-59759807D01*
X119282307Y-59751604D01*
X119274444Y-59730523D01*
X119262281Y-59711596D01*
X119259078Y-59689319D01*
X119257498Y-59685083D01*
X119257177Y-59676098D01*
X119257177Y-59483000D01*
X122880339Y-59483000D01*
X122903101Y-59544026D01*
X122989952Y-59660046D01*
X123105976Y-59746899D01*
X123105975Y-59746899D01*
X123241761Y-59797546D01*
X123241769Y-59797548D01*
X123301785Y-59803999D01*
X123492000Y-59803999D01*
X124508000Y-59803999D01*
X124698203Y-59803999D01*
X124698226Y-59803997D01*
X124758232Y-59797547D01*
X124758234Y-59797547D01*
X124894023Y-59746899D01*
X125010047Y-59660046D01*
X125096898Y-59544026D01*
X125119660Y-59483000D01*
X124508000Y-59483000D01*
X124508000Y-59803999D01*
X123492000Y-59803999D01*
X123492000Y-59483000D01*
X122880339Y-59483000D01*
X119257177Y-59483000D01*
X119257177Y-59452956D01*
X119277179Y-59384835D01*
X119294082Y-59363861D01*
X120047700Y-58610243D01*
X120110012Y-58576217D01*
X120136795Y-58573338D01*
X121181333Y-58573338D01*
X121229551Y-58582929D01*
X121295494Y-58610243D01*
X121390836Y-58649735D01*
X121584903Y-58688338D01*
X121782773Y-58688338D01*
X121976840Y-58649735D01*
X122159647Y-58574014D01*
X122319806Y-58466999D01*
X122880339Y-58466999D01*
X122880339Y-58467000D01*
X123492000Y-58467000D01*
X124508000Y-58467000D01*
X125119661Y-58467000D01*
X125119660Y-58466999D01*
X125096898Y-58405973D01*
X125010047Y-58289953D01*
X124894023Y-58203100D01*
X124894024Y-58203100D01*
X124758238Y-58152453D01*
X124758230Y-58152451D01*
X124698222Y-58146000D01*
X124508000Y-58146000D01*
X124508000Y-58467000D01*
X123492000Y-58467000D01*
X123492000Y-58146000D01*
X123301797Y-58146000D01*
X123301773Y-58146002D01*
X123241767Y-58152452D01*
X123241765Y-58152452D01*
X123105976Y-58203100D01*
X122989952Y-58289953D01*
X122903101Y-58405973D01*
X122880339Y-58466999D01*
X122319806Y-58466999D01*
X122324169Y-58464084D01*
X122464084Y-58324169D01*
X122574014Y-58159647D01*
X122640822Y-57998356D01*
X122668130Y-57957487D01*
X123674216Y-56951402D01*
X123736526Y-56917379D01*
X123763309Y-56914500D01*
X124087607Y-56914500D01*
X124087608Y-56914500D01*
X124259458Y-56880317D01*
X124282434Y-56870799D01*
X124298634Y-56864090D01*
X124346851Y-56854499D01*
X124698247Y-56854499D01*
X124698254Y-56854499D01*
X124758342Y-56848040D01*
X124894267Y-56797342D01*
X125010404Y-56710404D01*
X125097342Y-56594267D01*
X125148040Y-56458342D01*
X125154500Y-56398255D01*
X125154499Y-55651746D01*
X125152323Y-55631500D01*
X125148041Y-55591663D01*
X125148040Y-55591661D01*
X125148040Y-55591658D01*
X125097443Y-55456005D01*
X125089500Y-55411975D01*
X125089500Y-54426737D01*
X127645500Y-54426737D01*
X127645500Y-55773246D01*
X127645502Y-55773270D01*
X127651959Y-55833339D01*
X127651959Y-55833341D01*
X127702657Y-55969266D01*
X127724515Y-55998465D01*
X127789596Y-56085404D01*
X127905733Y-56172342D01*
X128036536Y-56221129D01*
X128093368Y-56263674D01*
X128118179Y-56330194D01*
X128118500Y-56339183D01*
X128118500Y-57850223D01*
X128118499Y-57850223D01*
X128144498Y-57947251D01*
X128144501Y-57947258D01*
X128154163Y-57963992D01*
X128161580Y-57976840D01*
X128164569Y-57982016D01*
X128164569Y-57982017D01*
X128194721Y-58034243D01*
X128194726Y-58034249D01*
X128890318Y-58729840D01*
X128890339Y-58729863D01*
X128965746Y-58805270D01*
X128965751Y-58805274D01*
X128965753Y-58805276D01*
X128965754Y-58805277D01*
X128965756Y-58805278D01*
X129052741Y-58855499D01*
X129052743Y-58855499D01*
X129052746Y-58855501D01*
X129149775Y-58881500D01*
X129219816Y-58881500D01*
X129287937Y-58901502D01*
X129334430Y-58955158D01*
X129344210Y-58994999D01*
X129345140Y-58994900D01*
X129351959Y-59058339D01*
X129351959Y-59058341D01*
X129402657Y-59194266D01*
X129402658Y-59194267D01*
X129489596Y-59310404D01*
X129605733Y-59397342D01*
X129741658Y-59448040D01*
X129801745Y-59454500D01*
X130598254Y-59454499D01*
X130658342Y-59448040D01*
X130794267Y-59397342D01*
X130910404Y-59310404D01*
X130997342Y-59194267D01*
X131048040Y-59058342D01*
X131053452Y-59008001D01*
X131347052Y-59008001D01*
X131352452Y-59058232D01*
X131352452Y-59058234D01*
X131403100Y-59194023D01*
X131489952Y-59310047D01*
X131605976Y-59396899D01*
X131605975Y-59396899D01*
X131692000Y-59428985D01*
X131692000Y-59428984D01*
X132708000Y-59428984D01*
X132794023Y-59396899D01*
X132910047Y-59310047D01*
X132996899Y-59194023D01*
X133047544Y-59058242D01*
X133047546Y-59058234D01*
X133052948Y-59008000D01*
X132708000Y-59008000D01*
X132708000Y-59428984D01*
X131692000Y-59428984D01*
X131692000Y-59008000D01*
X131347053Y-59008000D01*
X131347052Y-59008001D01*
X131053452Y-59008001D01*
X131054500Y-58998255D01*
X131054499Y-58001746D01*
X131053451Y-57992000D01*
X131347052Y-57992000D01*
X131692000Y-57992000D01*
X132708000Y-57992000D01*
X133052947Y-57992000D01*
X133052947Y-57991998D01*
X133047547Y-57941767D01*
X133047547Y-57941765D01*
X132996899Y-57805976D01*
X132910046Y-57689952D01*
X132794026Y-57603101D01*
X132708000Y-57571014D01*
X132708000Y-57992000D01*
X131692000Y-57992000D01*
X131692000Y-57571014D01*
X131691999Y-57571014D01*
X131605973Y-57603101D01*
X131489953Y-57689952D01*
X131403100Y-57805976D01*
X131352455Y-57941757D01*
X131352453Y-57941765D01*
X131347052Y-57992000D01*
X131053451Y-57992000D01*
X131048040Y-57941658D01*
X130997342Y-57805733D01*
X130910404Y-57689596D01*
X130794267Y-57602658D01*
X130794265Y-57602657D01*
X130794266Y-57602657D01*
X130658349Y-57551962D01*
X130658344Y-57551960D01*
X130658342Y-57551960D01*
X130628298Y-57548730D01*
X130598256Y-57545500D01*
X129801753Y-57545500D01*
X129801729Y-57545502D01*
X129741660Y-57551959D01*
X129741658Y-57551959D01*
X129605733Y-57602657D01*
X129489596Y-57689596D01*
X129402658Y-57805732D01*
X129374081Y-57882348D01*
X129331533Y-57939183D01*
X129265012Y-57963992D01*
X129195639Y-57948899D01*
X129166931Y-57927408D01*
X128918405Y-57678882D01*
X128884379Y-57616570D01*
X128881500Y-57589787D01*
X128881500Y-56355184D01*
X128901502Y-56287063D01*
X128955158Y-56240570D01*
X128994999Y-56230789D01*
X128994900Y-56229860D01*
X129032546Y-56225812D01*
X129058342Y-56223040D01*
X129194267Y-56172342D01*
X129310404Y-56085404D01*
X129397342Y-55969267D01*
X129448040Y-55833342D01*
X129454500Y-55773255D01*
X129454499Y-54426746D01*
X129454499Y-54426745D01*
X129454499Y-54426741D01*
X129454499Y-54426737D01*
X130745500Y-54426737D01*
X130745500Y-55773246D01*
X130745502Y-55773270D01*
X130751959Y-55833339D01*
X130751959Y-55833341D01*
X130802657Y-55969266D01*
X130824515Y-55998465D01*
X130889596Y-56085404D01*
X131005733Y-56172342D01*
X131141658Y-56223040D01*
X131201745Y-56229500D01*
X132098254Y-56229499D01*
X132119115Y-56227256D01*
X132166181Y-56222198D01*
X132166571Y-56225829D01*
X132220717Y-56228302D01*
X132268835Y-56258357D01*
X132804139Y-56793662D01*
X133335992Y-57325515D01*
X133368520Y-57385085D01*
X133368854Y-57384984D01*
X133369339Y-57386584D01*
X133370018Y-57387827D01*
X133370474Y-57390019D01*
X133370650Y-57390904D01*
X133370651Y-57390908D01*
X133419989Y-57510022D01*
X133491616Y-57617219D01*
X133491621Y-57617225D01*
X133582774Y-57708378D01*
X133582780Y-57708383D01*
X133689978Y-57780011D01*
X133809089Y-57829348D01*
X133935537Y-57854500D01*
X133935538Y-57854500D01*
X134064462Y-57854500D01*
X134064463Y-57854500D01*
X134190911Y-57829348D01*
X134310022Y-57780011D01*
X134417220Y-57708383D01*
X134508383Y-57617220D01*
X134580011Y-57510022D01*
X134629348Y-57390911D01*
X134654500Y-57264463D01*
X134654500Y-57135537D01*
X134629348Y-57009089D01*
X134580011Y-56889978D01*
X134508383Y-56782780D01*
X134508378Y-56782774D01*
X134417225Y-56691621D01*
X134417216Y-56691614D01*
X134381974Y-56668066D01*
X134310022Y-56619989D01*
X134190911Y-56570652D01*
X134185175Y-56569511D01*
X134064465Y-56545500D01*
X134064463Y-56545500D01*
X133935537Y-56545500D01*
X133935534Y-56545500D01*
X133809089Y-56570652D01*
X133809083Y-56570654D01*
X133781566Y-56582051D01*
X133710976Y-56589637D01*
X133647490Y-56557855D01*
X133644258Y-56554735D01*
X132591404Y-55501881D01*
X132557378Y-55439569D01*
X132554499Y-55412786D01*
X132554499Y-54426753D01*
X132554499Y-54426746D01*
X132548040Y-54366658D01*
X132497342Y-54230733D01*
X132410404Y-54114596D01*
X132294267Y-54027658D01*
X132294265Y-54027657D01*
X132294266Y-54027657D01*
X132158349Y-53976962D01*
X132158344Y-53976960D01*
X132158342Y-53976960D01*
X132128298Y-53973730D01*
X132098256Y-53970500D01*
X131201753Y-53970500D01*
X131201729Y-53970502D01*
X131141660Y-53976959D01*
X131141658Y-53976959D01*
X131005733Y-54027657D01*
X130889596Y-54114596D01*
X130802657Y-54230734D01*
X130751962Y-54366650D01*
X130751960Y-54366658D01*
X130745500Y-54426737D01*
X129454499Y-54426737D01*
X129448040Y-54366660D01*
X129448040Y-54366658D01*
X129397342Y-54230733D01*
X129357610Y-54177657D01*
X129310404Y-54114596D01*
X129194267Y-54027658D01*
X129194265Y-54027657D01*
X129194266Y-54027657D01*
X129058349Y-53976962D01*
X129058342Y-53976960D01*
X129058333Y-53976959D01*
X129044025Y-53975420D01*
X129041873Y-53974529D01*
X129039568Y-53974861D01*
X129009248Y-53961013D01*
X128978435Y-53948249D01*
X128977105Y-53946334D01*
X128974988Y-53945367D01*
X128956972Y-53917334D01*
X128937946Y-53889929D01*
X128937469Y-53886987D01*
X128936604Y-53885641D01*
X128931500Y-53850143D01*
X128931500Y-53760213D01*
X128951502Y-53692092D01*
X128968405Y-53671118D01*
X130155270Y-52484253D01*
X130155276Y-52484247D01*
X130205502Y-52397253D01*
X130231501Y-52300225D01*
X130231501Y-52292739D01*
X130251503Y-52224618D01*
X130268406Y-52203644D01*
X130331324Y-52140725D01*
X130331326Y-52140723D01*
X130338624Y-52126400D01*
X130389498Y-52026555D01*
X130404500Y-51931834D01*
X130404500Y-51931792D01*
X131196001Y-51931792D01*
X131210983Y-52026397D01*
X131269082Y-52140423D01*
X131359575Y-52230917D01*
X131450000Y-52276990D01*
X131450000Y-52276989D01*
X132050000Y-52276989D01*
X132140424Y-52230917D01*
X132230917Y-52140423D01*
X132289015Y-52026400D01*
X132304000Y-51931791D01*
X132304000Y-51450000D01*
X132050000Y-51450000D01*
X132050000Y-52276989D01*
X131450000Y-52276989D01*
X131450000Y-51450000D01*
X131196001Y-51450000D01*
X131196001Y-51931792D01*
X130404500Y-51931792D01*
X130404500Y-50368166D01*
X130389498Y-50273445D01*
X130388052Y-50270607D01*
X130387333Y-50266781D01*
X130386435Y-50264016D01*
X130386792Y-50263899D01*
X130374949Y-50200830D01*
X130401650Y-50135046D01*
X130459678Y-50094141D01*
X130520030Y-50088957D01*
X130523444Y-50089497D01*
X130523445Y-50089498D01*
X130618166Y-50104500D01*
X130618168Y-50104500D01*
X130981831Y-50104500D01*
X130981834Y-50104500D01*
X131076555Y-50089498D01*
X131076556Y-50089497D01*
X131080579Y-50088860D01*
X131150991Y-50097960D01*
X131205305Y-50143682D01*
X131226277Y-50211510D01*
X131214035Y-50264161D01*
X131214049Y-50264166D01*
X131213998Y-50264322D01*
X131212561Y-50270504D01*
X131210985Y-50273596D01*
X131196000Y-50368208D01*
X131196000Y-50850000D01*
X131450000Y-50850000D01*
X132050000Y-50850000D01*
X132303999Y-50850000D01*
X132303999Y-50468167D01*
X134695500Y-50468167D01*
X134695500Y-52031832D01*
X134710501Y-52126553D01*
X134768673Y-52240723D01*
X134831595Y-52303645D01*
X134865621Y-52365957D01*
X134868500Y-52392740D01*
X134868500Y-53100223D01*
X134868499Y-53100223D01*
X134894498Y-53197251D01*
X134894501Y-53197258D01*
X134917816Y-53237640D01*
X134917816Y-53237641D01*
X134944721Y-53284243D01*
X134944723Y-53284245D01*
X134944724Y-53284247D01*
X135331596Y-53671119D01*
X135346539Y-53698485D01*
X135363396Y-53724715D01*
X135364302Y-53731016D01*
X135365620Y-53733430D01*
X135368500Y-53760213D01*
X135368500Y-54000143D01*
X135348498Y-54068264D01*
X135294842Y-54114757D01*
X135255969Y-54125421D01*
X135241659Y-54126959D01*
X135241658Y-54126959D01*
X135105733Y-54177657D01*
X134989596Y-54264596D01*
X134902657Y-54380734D01*
X134851962Y-54516650D01*
X134851960Y-54516658D01*
X134845500Y-54576737D01*
X134845500Y-55923246D01*
X134845502Y-55923270D01*
X134851959Y-55983339D01*
X134851959Y-55983341D01*
X134902657Y-56119266D01*
X134924515Y-56148465D01*
X134989596Y-56235404D01*
X135105733Y-56322342D01*
X135241658Y-56373040D01*
X135278881Y-56377041D01*
X135344471Y-56404210D01*
X135384963Y-56462527D01*
X135387117Y-56469707D01*
X135394496Y-56497247D01*
X135394501Y-56497258D01*
X135401872Y-56510025D01*
X135444722Y-56584244D01*
X135444730Y-56584254D01*
X137150431Y-58289953D01*
X137694722Y-58834244D01*
X137694724Y-58834247D01*
X137765753Y-58905276D01*
X137793613Y-58921361D01*
X137803207Y-58929888D01*
X137815493Y-58949547D01*
X137831493Y-58966327D01*
X137834990Y-58980744D01*
X137840834Y-58990094D01*
X137840657Y-59004101D01*
X137845500Y-59024062D01*
X137845500Y-59098257D01*
X137851959Y-59158339D01*
X137851959Y-59158341D01*
X137902657Y-59294266D01*
X137914737Y-59310403D01*
X137989596Y-59410404D01*
X138105733Y-59497342D01*
X138241658Y-59548040D01*
X138301745Y-59554500D01*
X139098254Y-59554499D01*
X139158342Y-59548040D01*
X139294267Y-59497342D01*
X139410404Y-59410404D01*
X139497342Y-59294267D01*
X139548040Y-59158342D01*
X139553452Y-59108001D01*
X139847052Y-59108001D01*
X139852452Y-59158232D01*
X139852452Y-59158234D01*
X139903100Y-59294023D01*
X139989952Y-59410047D01*
X140105976Y-59496899D01*
X140105975Y-59496899D01*
X140192000Y-59528985D01*
X140192000Y-59528984D01*
X141208000Y-59528984D01*
X141294023Y-59496899D01*
X141410047Y-59410047D01*
X141496899Y-59294023D01*
X141547544Y-59158242D01*
X141547546Y-59158234D01*
X141552948Y-59108000D01*
X141208000Y-59108000D01*
X141208000Y-59528984D01*
X140192000Y-59528984D01*
X140192000Y-59108000D01*
X139847053Y-59108000D01*
X139847052Y-59108001D01*
X139553452Y-59108001D01*
X139554500Y-59098255D01*
X139554499Y-58101746D01*
X139553451Y-58092000D01*
X139847052Y-58092000D01*
X140192000Y-58092000D01*
X141208000Y-58092000D01*
X141552947Y-58092000D01*
X141552947Y-58091998D01*
X141547547Y-58041767D01*
X141547547Y-58041765D01*
X141496899Y-57905976D01*
X141410046Y-57789952D01*
X141294026Y-57703101D01*
X141208000Y-57671014D01*
X141208000Y-58092000D01*
X140192000Y-58092000D01*
X140192000Y-57671014D01*
X140191999Y-57671014D01*
X140105973Y-57703101D01*
X139989953Y-57789952D01*
X139903100Y-57905976D01*
X139852455Y-58041757D01*
X139852453Y-58041765D01*
X139847052Y-58092000D01*
X139553451Y-58092000D01*
X139548040Y-58041658D01*
X139497342Y-57905733D01*
X139410404Y-57789596D01*
X139294267Y-57702658D01*
X139294265Y-57702657D01*
X139294266Y-57702657D01*
X139158349Y-57651962D01*
X139158344Y-57651960D01*
X139158342Y-57651960D01*
X139128298Y-57648730D01*
X139098256Y-57645500D01*
X138301753Y-57645500D01*
X138301729Y-57645502D01*
X138241660Y-57651959D01*
X138241658Y-57651959D01*
X138105733Y-57702657D01*
X137989595Y-57789596D01*
X137965224Y-57822153D01*
X137908389Y-57864700D01*
X137837573Y-57869765D01*
X137775263Y-57835741D01*
X136421369Y-56481846D01*
X136387343Y-56419534D01*
X136392408Y-56348718D01*
X136434953Y-56291884D01*
X136510404Y-56235404D01*
X136597342Y-56119267D01*
X136648040Y-55983342D01*
X136654500Y-55923255D01*
X136654499Y-54576746D01*
X136654499Y-54576745D01*
X136654499Y-54576741D01*
X136654499Y-54576737D01*
X137945500Y-54576737D01*
X137945500Y-55923246D01*
X137945502Y-55923270D01*
X137951959Y-55983339D01*
X137951959Y-55983341D01*
X138002657Y-56119266D01*
X138024515Y-56148465D01*
X138089596Y-56235404D01*
X138205733Y-56322342D01*
X138341658Y-56373040D01*
X138401745Y-56379500D01*
X139298254Y-56379499D01*
X139358342Y-56373040D01*
X139494267Y-56322342D01*
X139610404Y-56235404D01*
X139697342Y-56119267D01*
X139748040Y-55983342D01*
X139754500Y-55923255D01*
X139754500Y-55757500D01*
X139774502Y-55689379D01*
X139828158Y-55642886D01*
X139880500Y-55631500D01*
X140900223Y-55631500D01*
X140900225Y-55631500D01*
X140997254Y-55605501D01*
X140997256Y-55605499D01*
X140997259Y-55605499D01*
X141021231Y-55591658D01*
X141084247Y-55555276D01*
X141155276Y-55484247D01*
X145686009Y-50953512D01*
X145748321Y-50919487D01*
X145819136Y-50924552D01*
X145875972Y-50967099D01*
X145900783Y-51033619D01*
X145900500Y-51054803D01*
X145900500Y-51407786D01*
X145880498Y-51475907D01*
X145863595Y-51496881D01*
X141851881Y-55508595D01*
X141789569Y-55542621D01*
X141762786Y-55545500D01*
X141635534Y-55545500D01*
X141509088Y-55570652D01*
X141509083Y-55570654D01*
X141389979Y-55619988D01*
X141343715Y-55650900D01*
X141343708Y-55650905D01*
X141282780Y-55691617D01*
X141196549Y-55777847D01*
X141196535Y-55777860D01*
X141191618Y-55782778D01*
X141191616Y-55782780D01*
X141119989Y-55889978D01*
X141070654Y-56009083D01*
X141070652Y-56009088D01*
X141045500Y-56135534D01*
X141045500Y-56264465D01*
X141064803Y-56361506D01*
X141070652Y-56390911D01*
X141119989Y-56510022D01*
X141135350Y-56533011D01*
X141191616Y-56617219D01*
X141191621Y-56617225D01*
X141282774Y-56708378D01*
X141282780Y-56708383D01*
X141389978Y-56780011D01*
X141509089Y-56829348D01*
X141635537Y-56854500D01*
X141635538Y-56854500D01*
X141764462Y-56854500D01*
X141764463Y-56854500D01*
X141890911Y-56829348D01*
X142010022Y-56780011D01*
X142117220Y-56708383D01*
X142208383Y-56617220D01*
X142280011Y-56510022D01*
X142329348Y-56390911D01*
X142354500Y-56264463D01*
X142354500Y-56137211D01*
X142374502Y-56069090D01*
X142391400Y-56048121D01*
X145685407Y-52754113D01*
X145747717Y-52720089D01*
X145818532Y-52725154D01*
X145875368Y-52767701D01*
X145900179Y-52834221D01*
X145900500Y-52843210D01*
X145900500Y-53275063D01*
X145900501Y-53275073D01*
X145915265Y-53349299D01*
X145915265Y-53349300D01*
X145915266Y-53349301D01*
X145925754Y-53364998D01*
X145946969Y-53432749D01*
X145928187Y-53501216D01*
X145925755Y-53505000D01*
X145915266Y-53520697D01*
X145900500Y-53594930D01*
X145900500Y-54545063D01*
X145900501Y-54545073D01*
X145915265Y-54619300D01*
X145971516Y-54703484D01*
X146055697Y-54759733D01*
X146055699Y-54759734D01*
X146129933Y-54774500D01*
X147680066Y-54774499D01*
X147680069Y-54774498D01*
X147680073Y-54774498D01*
X147729326Y-54764701D01*
X147754301Y-54759734D01*
X147838484Y-54703484D01*
X147894734Y-54619301D01*
X147909500Y-54545067D01*
X147909500Y-54544977D01*
X149241000Y-54544977D01*
X149241000Y-54870000D01*
X149495000Y-54870000D01*
X149495000Y-54316000D01*
X150395000Y-54316000D01*
X150395000Y-56323999D01*
X150420014Y-56323999D01*
X150420022Y-56323998D01*
X150494105Y-56309263D01*
X150509545Y-56298946D01*
X150577298Y-56277730D01*
X150645765Y-56296512D01*
X150649551Y-56298945D01*
X150665697Y-56309733D01*
X150665699Y-56309734D01*
X150739933Y-56324500D01*
X151690066Y-56324499D01*
X151690069Y-56324498D01*
X151690073Y-56324498D01*
X151719514Y-56318641D01*
X151764301Y-56309734D01*
X151779998Y-56299245D01*
X151847746Y-56278030D01*
X151916213Y-56296811D01*
X151919997Y-56299242D01*
X151935699Y-56309734D01*
X152009933Y-56324500D01*
X152960066Y-56324499D01*
X152960069Y-56324498D01*
X152960073Y-56324498D01*
X152989514Y-56318641D01*
X153034301Y-56309734D01*
X153049998Y-56299245D01*
X153117746Y-56278030D01*
X153186213Y-56296811D01*
X153189997Y-56299242D01*
X153205699Y-56309734D01*
X153279933Y-56324500D01*
X154230066Y-56324499D01*
X154230069Y-56324498D01*
X154230073Y-56324498D01*
X154259514Y-56318641D01*
X154304301Y-56309734D01*
X154319998Y-56299245D01*
X154387746Y-56278030D01*
X154456213Y-56296811D01*
X154459997Y-56299242D01*
X154475699Y-56309734D01*
X154549933Y-56324500D01*
X155500066Y-56324499D01*
X155500069Y-56324498D01*
X155500073Y-56324498D01*
X155529514Y-56318641D01*
X155574301Y-56309734D01*
X155589998Y-56299245D01*
X155657746Y-56278030D01*
X155726213Y-56296811D01*
X155729997Y-56299242D01*
X155745699Y-56309734D01*
X155819933Y-56324500D01*
X156770066Y-56324499D01*
X156770069Y-56324498D01*
X156770073Y-56324498D01*
X156799514Y-56318641D01*
X156844301Y-56309734D01*
X156859998Y-56299245D01*
X156927746Y-56278030D01*
X156996213Y-56296811D01*
X156999997Y-56299242D01*
X157015699Y-56309734D01*
X157089933Y-56324500D01*
X158040066Y-56324499D01*
X158040069Y-56324498D01*
X158040073Y-56324498D01*
X158069514Y-56318641D01*
X158114301Y-56309734D01*
X158129998Y-56299245D01*
X158197746Y-56278030D01*
X158266213Y-56296811D01*
X158269997Y-56299242D01*
X158285699Y-56309734D01*
X158359933Y-56324500D01*
X159310066Y-56324499D01*
X159310069Y-56324498D01*
X159310073Y-56324498D01*
X159339514Y-56318641D01*
X159384301Y-56309734D01*
X159399998Y-56299245D01*
X159467746Y-56278030D01*
X159536213Y-56296811D01*
X159539997Y-56299242D01*
X159555699Y-56309734D01*
X159629933Y-56324500D01*
X160231787Y-56324499D01*
X160253375Y-56330838D01*
X160275817Y-56332443D01*
X160286773Y-56340644D01*
X160299907Y-56344501D01*
X160314642Y-56361506D01*
X160332653Y-56374989D01*
X160337435Y-56387811D01*
X160346400Y-56398157D01*
X160349602Y-56420429D01*
X160357465Y-56441509D01*
X160354556Y-56454881D01*
X160356504Y-56468430D01*
X160347156Y-56488898D01*
X160342374Y-56510883D01*
X160328890Y-56528896D01*
X160327011Y-56533011D01*
X160320883Y-56539593D01*
X160278883Y-56581594D01*
X160216571Y-56615620D01*
X160189786Y-56618500D01*
X159493475Y-56618500D01*
X159442589Y-56632135D01*
X159396448Y-56644498D01*
X159396441Y-56644501D01*
X159318502Y-56689500D01*
X159314835Y-56691617D01*
X159310588Y-56694068D01*
X159309451Y-56694725D01*
X159309447Y-56694728D01*
X158129148Y-57875027D01*
X158066836Y-57909053D01*
X157996020Y-57903988D01*
X157939186Y-57861442D01*
X157895512Y-57803099D01*
X157885405Y-57789597D01*
X157885404Y-57789596D01*
X157769267Y-57702658D01*
X157769265Y-57702657D01*
X157769266Y-57702657D01*
X157633349Y-57651962D01*
X157633344Y-57651960D01*
X157633342Y-57651960D01*
X157603298Y-57648730D01*
X157573256Y-57645500D01*
X156226753Y-57645500D01*
X156226729Y-57645502D01*
X156166660Y-57651959D01*
X156166658Y-57651959D01*
X156030733Y-57702657D01*
X155914596Y-57789596D01*
X155827657Y-57905734D01*
X155776962Y-58041650D01*
X155776960Y-58041658D01*
X155770500Y-58101737D01*
X155770500Y-58998246D01*
X155770502Y-58998270D01*
X155776959Y-59058339D01*
X155776959Y-59058341D01*
X155827657Y-59194266D01*
X155827658Y-59194267D01*
X155914596Y-59310404D01*
X156030733Y-59397342D01*
X156166658Y-59448040D01*
X156226745Y-59454500D01*
X157573254Y-59454499D01*
X157633342Y-59448040D01*
X157769267Y-59397342D01*
X157885404Y-59310404D01*
X157972342Y-59194267D01*
X158023040Y-59058342D01*
X158027228Y-59019379D01*
X158054397Y-58953790D01*
X158112714Y-58913298D01*
X158119870Y-58911150D01*
X158140954Y-58905501D01*
X158140957Y-58905499D01*
X158140958Y-58905499D01*
X158199446Y-58871731D01*
X158227947Y-58855276D01*
X158298976Y-58784247D01*
X159664818Y-57418405D01*
X159727130Y-57384379D01*
X159753913Y-57381500D01*
X160450223Y-57381500D01*
X160450225Y-57381500D01*
X160547254Y-57355501D01*
X160547257Y-57355499D01*
X160547258Y-57355499D01*
X160599192Y-57325515D01*
X160634247Y-57305276D01*
X160705276Y-57234247D01*
X161578120Y-56361403D01*
X161640432Y-56327378D01*
X161667215Y-56324499D01*
X161850064Y-56324499D01*
X161850066Y-56324499D01*
X161850069Y-56324498D01*
X161850072Y-56324498D01*
X161886663Y-56317219D01*
X161924301Y-56309734D01*
X162008484Y-56253484D01*
X162064734Y-56169301D01*
X162079500Y-56095067D01*
X162079499Y-54544934D01*
X162079498Y-54544931D01*
X162079498Y-54544926D01*
X162064734Y-54470699D01*
X162035365Y-54426746D01*
X162008484Y-54386516D01*
X161999831Y-54380734D01*
X161924302Y-54330266D01*
X161850067Y-54315500D01*
X160899936Y-54315500D01*
X160899926Y-54315501D01*
X160825699Y-54330265D01*
X160810001Y-54340755D01*
X160742248Y-54361969D01*
X160673781Y-54343185D01*
X160669997Y-54340754D01*
X160654300Y-54330265D01*
X160580067Y-54315500D01*
X159629936Y-54315500D01*
X159629926Y-54315501D01*
X159555699Y-54330265D01*
X159540001Y-54340755D01*
X159472248Y-54361969D01*
X159403781Y-54343185D01*
X159399997Y-54340754D01*
X159384300Y-54330265D01*
X159310067Y-54315500D01*
X158359936Y-54315500D01*
X158359926Y-54315501D01*
X158285699Y-54330265D01*
X158270001Y-54340755D01*
X158202248Y-54361969D01*
X158133781Y-54343185D01*
X158129997Y-54340754D01*
X158114300Y-54330265D01*
X158040067Y-54315500D01*
X157089936Y-54315500D01*
X157089926Y-54315501D01*
X157015699Y-54330265D01*
X157000001Y-54340755D01*
X156932248Y-54361969D01*
X156863781Y-54343185D01*
X156859997Y-54340754D01*
X156844300Y-54330265D01*
X156770067Y-54315500D01*
X155819936Y-54315500D01*
X155819926Y-54315501D01*
X155745699Y-54330265D01*
X155730001Y-54340755D01*
X155662248Y-54361969D01*
X155593781Y-54343185D01*
X155589997Y-54340754D01*
X155574300Y-54330265D01*
X155500067Y-54315500D01*
X154549936Y-54315500D01*
X154549926Y-54315501D01*
X154475699Y-54330265D01*
X154460001Y-54340755D01*
X154392248Y-54361969D01*
X154323781Y-54343185D01*
X154319997Y-54340754D01*
X154304300Y-54330265D01*
X154230067Y-54315500D01*
X153279936Y-54315500D01*
X153279926Y-54315501D01*
X153205699Y-54330265D01*
X153190001Y-54340755D01*
X153122248Y-54361969D01*
X153053781Y-54343185D01*
X153049997Y-54340754D01*
X153034300Y-54330265D01*
X152960067Y-54315500D01*
X152009936Y-54315500D01*
X152009926Y-54315501D01*
X151935699Y-54330265D01*
X151920001Y-54340755D01*
X151852248Y-54361969D01*
X151783781Y-54343185D01*
X151779997Y-54340754D01*
X151764300Y-54330265D01*
X151690067Y-54315500D01*
X150739936Y-54315500D01*
X150739926Y-54315501D01*
X150665698Y-54330265D01*
X150649552Y-54341055D01*
X150581799Y-54362270D01*
X150513332Y-54343487D01*
X150509548Y-54341055D01*
X150494106Y-54330737D01*
X150494105Y-54330736D01*
X150420022Y-54316000D01*
X150395000Y-54316000D01*
X149495000Y-54316000D01*
X149494999Y-54315999D01*
X149469981Y-54316000D01*
X149395894Y-54330737D01*
X149395892Y-54330737D01*
X149311875Y-54386875D01*
X149255737Y-54470893D01*
X149255736Y-54470894D01*
X149241000Y-54544977D01*
X147909500Y-54544977D01*
X147909499Y-54068264D01*
X147909499Y-53594936D01*
X147909498Y-53594926D01*
X147894734Y-53520700D01*
X147894734Y-53520699D01*
X147884245Y-53505001D01*
X147863030Y-53437251D01*
X147881812Y-53368784D01*
X147884218Y-53365038D01*
X147894734Y-53349301D01*
X147909500Y-53275067D01*
X147909499Y-52324934D01*
X147909498Y-52324930D01*
X147909498Y-52324926D01*
X147894734Y-52250700D01*
X147894734Y-52250699D01*
X147884245Y-52235001D01*
X147863030Y-52167251D01*
X147881812Y-52098784D01*
X147884218Y-52095038D01*
X147894734Y-52079301D01*
X147909500Y-52005067D01*
X147909499Y-51054934D01*
X147909498Y-51054930D01*
X147909498Y-51054926D01*
X147894734Y-50980700D01*
X147894734Y-50980699D01*
X147884245Y-50965001D01*
X147863030Y-50897251D01*
X147881812Y-50828784D01*
X147884218Y-50825038D01*
X147894734Y-50809301D01*
X147909500Y-50735067D01*
X147909499Y-49784934D01*
X147909498Y-49784931D01*
X147909498Y-49784926D01*
X147894734Y-49710700D01*
X147894734Y-49710699D01*
X147884245Y-49695001D01*
X147863030Y-49627251D01*
X147881812Y-49558784D01*
X147884218Y-49555038D01*
X147894734Y-49539301D01*
X147909500Y-49465067D01*
X147909499Y-48514934D01*
X147909498Y-48514930D01*
X147909498Y-48514926D01*
X147894734Y-48440700D01*
X147894734Y-48440699D01*
X147884245Y-48425001D01*
X147863030Y-48357251D01*
X147881812Y-48288784D01*
X147884218Y-48285038D01*
X147894734Y-48269301D01*
X147909500Y-48195067D01*
X147909499Y-47244934D01*
X147909498Y-47244930D01*
X147909498Y-47244926D01*
X147894734Y-47170700D01*
X147894734Y-47170699D01*
X147884245Y-47155001D01*
X147863030Y-47087251D01*
X147866154Y-47057028D01*
X147871318Y-47034344D01*
X147894734Y-46999301D01*
X147899563Y-46975022D01*
X152671001Y-46975022D01*
X152685737Y-47049105D01*
X152685737Y-47049107D01*
X152741875Y-47133124D01*
X152825893Y-47189262D01*
X152825894Y-47189263D01*
X152899981Y-47203999D01*
X152941999Y-47203999D01*
X153958000Y-47203999D01*
X154000014Y-47203999D01*
X154000022Y-47203998D01*
X154074105Y-47189262D01*
X154074106Y-47189262D01*
X154142498Y-47143565D01*
X154210251Y-47122350D01*
X154278718Y-47141133D01*
X154282502Y-47143565D01*
X154350893Y-47189262D01*
X154350894Y-47189263D01*
X154424981Y-47203999D01*
X154466999Y-47203999D01*
X155483000Y-47203999D01*
X155525014Y-47203999D01*
X155525022Y-47203998D01*
X155599105Y-47189262D01*
X155599106Y-47189262D01*
X155667498Y-47143565D01*
X155735251Y-47122350D01*
X155803718Y-47141133D01*
X155807502Y-47143565D01*
X155875893Y-47189262D01*
X155875894Y-47189263D01*
X155949981Y-47203999D01*
X155991999Y-47203999D01*
X157008000Y-47203999D01*
X157050014Y-47203999D01*
X157050022Y-47203998D01*
X157124105Y-47189262D01*
X157124107Y-47189262D01*
X157208124Y-47133124D01*
X157264262Y-47049106D01*
X157264263Y-47049105D01*
X157278999Y-46975022D01*
X157279000Y-46975015D01*
X157279000Y-46933000D01*
X157008000Y-46933000D01*
X157008000Y-47203999D01*
X155991999Y-47203999D01*
X155992000Y-47203998D01*
X155992000Y-46933000D01*
X155483000Y-46933000D01*
X155483000Y-47203999D01*
X154466999Y-47203999D01*
X154467000Y-47203998D01*
X154467000Y-46933000D01*
X153958000Y-46933000D01*
X153958000Y-47203999D01*
X152941999Y-47203999D01*
X152942000Y-47203998D01*
X152942000Y-46933000D01*
X152671001Y-46933000D01*
X152671001Y-46975022D01*
X147899563Y-46975022D01*
X147909500Y-46925067D01*
X147909499Y-45974934D01*
X147909498Y-45974930D01*
X147909498Y-45974926D01*
X147896757Y-45910872D01*
X147894734Y-45900699D01*
X147889473Y-45892825D01*
X152671000Y-45892825D01*
X152671000Y-45917000D01*
X152942000Y-45917000D01*
X153958000Y-45917000D01*
X154467000Y-45917000D01*
X155483000Y-45917000D01*
X155992000Y-45917000D01*
X157008000Y-45917000D01*
X157278999Y-45917000D01*
X157278999Y-45874986D01*
X157278998Y-45874977D01*
X157264262Y-45800894D01*
X157264262Y-45800893D01*
X157218565Y-45732502D01*
X157197350Y-45664749D01*
X157216133Y-45596282D01*
X157218565Y-45592498D01*
X157264262Y-45524106D01*
X157264263Y-45524105D01*
X157278999Y-45450022D01*
X157279000Y-45450015D01*
X157279000Y-45408000D01*
X157008000Y-45408000D01*
X157008000Y-45917000D01*
X155992000Y-45917000D01*
X155992000Y-45408000D01*
X155483000Y-45408000D01*
X155483000Y-45917000D01*
X154467000Y-45917000D01*
X154467000Y-45408000D01*
X153958000Y-45408000D01*
X153958000Y-45917000D01*
X152942000Y-45917000D01*
X152942000Y-45408000D01*
X152671001Y-45408000D01*
X152671001Y-45450022D01*
X152685737Y-45524105D01*
X152685737Y-45524106D01*
X152731435Y-45592499D01*
X152752649Y-45660252D01*
X152743822Y-45708880D01*
X152671000Y-45892825D01*
X147889473Y-45892825D01*
X147880340Y-45879157D01*
X147877113Y-45872923D01*
X147871623Y-45844695D01*
X147863030Y-45817251D01*
X147864936Y-45810302D01*
X147863561Y-45803232D01*
X147874204Y-45776515D01*
X147881812Y-45748784D01*
X147884218Y-45745038D01*
X147894734Y-45729301D01*
X147909500Y-45655067D01*
X147909499Y-44704934D01*
X147909498Y-44704930D01*
X147909498Y-44704926D01*
X147897427Y-44644237D01*
X147894734Y-44630699D01*
X147884245Y-44615001D01*
X147863030Y-44547251D01*
X147866244Y-44516634D01*
X147871433Y-44494171D01*
X147894734Y-44459301D01*
X147909500Y-44385067D01*
X147909500Y-44367825D01*
X152671000Y-44367825D01*
X152671000Y-44392000D01*
X152942000Y-44392000D01*
X153958000Y-44392000D01*
X154467000Y-44392000D01*
X155483000Y-44392000D01*
X155992000Y-44392000D01*
X157008000Y-44392000D01*
X157278999Y-44392000D01*
X157278999Y-44349986D01*
X157278998Y-44349977D01*
X157264262Y-44275894D01*
X157264262Y-44275893D01*
X157218565Y-44207502D01*
X157197350Y-44139749D01*
X157216133Y-44071282D01*
X157218565Y-44067498D01*
X157264262Y-43999106D01*
X157264263Y-43999105D01*
X157278999Y-43925022D01*
X157279000Y-43925015D01*
X157279000Y-43883000D01*
X157008000Y-43883000D01*
X157008000Y-44392000D01*
X155992000Y-44392000D01*
X155992000Y-43883000D01*
X155483000Y-43883000D01*
X155483000Y-44392000D01*
X154467000Y-44392000D01*
X154467000Y-43883000D01*
X153958000Y-43883000D01*
X153958000Y-44392000D01*
X152942000Y-44392000D01*
X152942000Y-43883000D01*
X152671001Y-43883000D01*
X152671001Y-43925022D01*
X152685737Y-43999105D01*
X152685737Y-43999106D01*
X152731435Y-44067499D01*
X152733545Y-44074240D01*
X152738440Y-44079334D01*
X152744016Y-44107683D01*
X152752649Y-44135252D01*
X152750780Y-44142063D01*
X152752144Y-44148995D01*
X152743822Y-44183880D01*
X152671000Y-44367825D01*
X147909500Y-44367825D01*
X147909499Y-43434934D01*
X147909498Y-43434930D01*
X147909498Y-43434926D01*
X147894734Y-43360700D01*
X147894734Y-43360699D01*
X147884245Y-43345001D01*
X147863030Y-43277251D01*
X147881812Y-43208784D01*
X147884218Y-43205038D01*
X147894734Y-43189301D01*
X147909500Y-43115067D01*
X147909499Y-42824977D01*
X152671000Y-42824977D01*
X152671000Y-42867000D01*
X152942000Y-42867000D01*
X153958000Y-42867000D01*
X154467000Y-42867000D01*
X155483000Y-42867000D01*
X155992000Y-42867000D01*
X157008000Y-42867000D01*
X157278999Y-42867000D01*
X157278999Y-42824986D01*
X157278998Y-42824977D01*
X157264262Y-42750894D01*
X157264262Y-42750892D01*
X157208124Y-42666875D01*
X157124106Y-42610737D01*
X157124105Y-42610736D01*
X157050022Y-42596000D01*
X157008000Y-42596000D01*
X157008000Y-42867000D01*
X155992000Y-42867000D01*
X155992000Y-42596000D01*
X155949982Y-42596000D01*
X155875894Y-42610737D01*
X155875893Y-42610737D01*
X155807501Y-42656435D01*
X155739748Y-42677649D01*
X155671281Y-42658865D01*
X155667499Y-42656435D01*
X155599105Y-42610736D01*
X155525022Y-42596000D01*
X155483000Y-42596000D01*
X155483000Y-42867000D01*
X154467000Y-42867000D01*
X154467000Y-42596000D01*
X154424982Y-42596000D01*
X154350894Y-42610737D01*
X154350893Y-42610737D01*
X154282501Y-42656435D01*
X154214748Y-42677649D01*
X154146281Y-42658865D01*
X154142499Y-42656435D01*
X154074105Y-42610736D01*
X154000022Y-42596000D01*
X153958000Y-42596000D01*
X153958000Y-42867000D01*
X152942000Y-42867000D01*
X152942000Y-42596000D01*
X152899982Y-42596000D01*
X152825894Y-42610737D01*
X152825892Y-42610737D01*
X152741875Y-42666875D01*
X152685737Y-42750893D01*
X152685736Y-42750894D01*
X152671000Y-42824977D01*
X147909499Y-42824977D01*
X147909499Y-42610737D01*
X147909499Y-42164936D01*
X147909498Y-42164926D01*
X147894734Y-42090700D01*
X147894734Y-42090699D01*
X147884245Y-42075001D01*
X147863030Y-42007251D01*
X147881812Y-41938784D01*
X147884218Y-41935038D01*
X147894734Y-41919301D01*
X147909500Y-41845067D01*
X147909499Y-40894934D01*
X147909498Y-40894930D01*
X147909498Y-40894926D01*
X147894734Y-40820700D01*
X147894734Y-40820699D01*
X147884245Y-40805001D01*
X147863030Y-40737251D01*
X147881812Y-40668784D01*
X147884218Y-40665038D01*
X147894734Y-40649301D01*
X147909500Y-40575067D01*
X147909499Y-39624934D01*
X147909498Y-39624930D01*
X147909498Y-39624926D01*
X147894734Y-39550700D01*
X147894734Y-39550699D01*
X147884245Y-39535001D01*
X147863030Y-39467251D01*
X147881812Y-39398784D01*
X147884218Y-39395038D01*
X147894734Y-39379301D01*
X147909500Y-39305067D01*
X147909499Y-38354934D01*
X147909498Y-38354930D01*
X147909498Y-38354926D01*
X147894734Y-38280699D01*
X147890732Y-38274710D01*
X147883945Y-38264552D01*
X147862729Y-38196802D01*
X147881510Y-38128335D01*
X147883946Y-38124545D01*
X147894263Y-38109104D01*
X147908999Y-38035022D01*
X147909000Y-38035015D01*
X147909000Y-38010000D01*
X145901001Y-38010000D01*
X145901001Y-38035022D01*
X145915737Y-38109105D01*
X145915737Y-38109106D01*
X145926055Y-38124548D01*
X145947269Y-38192301D01*
X145937457Y-38243343D01*
X145932768Y-38254504D01*
X145915266Y-38280699D01*
X145909418Y-38310096D01*
X145904488Y-38321835D01*
X145889786Y-38339895D01*
X145878990Y-38360534D01*
X145867449Y-38367335D01*
X145859667Y-38376895D01*
X145840681Y-38383109D01*
X145820932Y-38394748D01*
X145775695Y-38406869D01*
X145703726Y-38426153D01*
X145703724Y-38426153D01*
X145703724Y-38426154D01*
X145662033Y-38450225D01*
X145587775Y-38493098D01*
X145587771Y-38493101D01*
X144862357Y-39218513D01*
X144800045Y-39252538D01*
X144797846Y-39252995D01*
X144709094Y-39270650D01*
X144709085Y-39270653D01*
X144589978Y-39319989D01*
X144482780Y-39391616D01*
X144482774Y-39391621D01*
X144391621Y-39482774D01*
X144391616Y-39482780D01*
X144319989Y-39589978D01*
X144270654Y-39709083D01*
X144270652Y-39709088D01*
X144245500Y-39835534D01*
X144245500Y-39964465D01*
X144255936Y-40016930D01*
X144270652Y-40090911D01*
X144319989Y-40210022D01*
X144360400Y-40270501D01*
X144391616Y-40317219D01*
X144391621Y-40317225D01*
X144482774Y-40408378D01*
X144482780Y-40408383D01*
X144589978Y-40480011D01*
X144709089Y-40529348D01*
X144835537Y-40554500D01*
X144835538Y-40554500D01*
X144901786Y-40554500D01*
X144969907Y-40574502D01*
X145016400Y-40628158D01*
X145026504Y-40698432D01*
X144997010Y-40763012D01*
X144990889Y-40769586D01*
X144715978Y-41044498D01*
X144448030Y-41312446D01*
X144448028Y-41312448D01*
X144394729Y-41365746D01*
X144394721Y-41365756D01*
X144344500Y-41452741D01*
X144343698Y-41455734D01*
X144321228Y-41539596D01*
X144318500Y-41549776D01*
X144318500Y-41703706D01*
X144298498Y-41771827D01*
X144281595Y-41792801D01*
X144191621Y-41882774D01*
X144191616Y-41882780D01*
X144119989Y-41989978D01*
X144070654Y-42109083D01*
X144070652Y-42109088D01*
X144045500Y-42235534D01*
X144045500Y-42235537D01*
X144045500Y-42364463D01*
X144070652Y-42490911D01*
X144119989Y-42610022D01*
X144152625Y-42658865D01*
X144191616Y-42717219D01*
X144191621Y-42717225D01*
X144282774Y-42808378D01*
X144282780Y-42808383D01*
X144389978Y-42880011D01*
X144509089Y-42929348D01*
X144635537Y-42954500D01*
X144635538Y-42954500D01*
X144764462Y-42954500D01*
X144764463Y-42954500D01*
X144890911Y-42929348D01*
X145010022Y-42880011D01*
X145117220Y-42808383D01*
X145208383Y-42717220D01*
X145280011Y-42610022D01*
X145329348Y-42490911D01*
X145354500Y-42364463D01*
X145354500Y-42235537D01*
X145329348Y-42109089D01*
X145280011Y-41989978D01*
X145208383Y-41882780D01*
X145208378Y-41882774D01*
X145171658Y-41846054D01*
X145137632Y-41783742D01*
X145142697Y-41712927D01*
X145171655Y-41667866D01*
X145685408Y-41154113D01*
X145747717Y-41120091D01*
X145818532Y-41125155D01*
X145875368Y-41167702D01*
X145900179Y-41234222D01*
X145900500Y-41243211D01*
X145900500Y-41845063D01*
X145900501Y-41845073D01*
X145915265Y-41919299D01*
X145915265Y-41919300D01*
X145915266Y-41919301D01*
X145925754Y-41934998D01*
X145946969Y-42002749D01*
X145928187Y-42071216D01*
X145925755Y-42075000D01*
X145915266Y-42090697D01*
X145900500Y-42164930D01*
X145900500Y-43115063D01*
X145900501Y-43115073D01*
X145915265Y-43189299D01*
X145915265Y-43189300D01*
X145915266Y-43189301D01*
X145925754Y-43204998D01*
X145946969Y-43272749D01*
X145928187Y-43341216D01*
X145925755Y-43345000D01*
X145915266Y-43360697D01*
X145900500Y-43434930D01*
X145900500Y-44385063D01*
X145900501Y-44385073D01*
X145915265Y-44459299D01*
X145915265Y-44459300D01*
X145915266Y-44459301D01*
X145925754Y-44474998D01*
X145946969Y-44542749D01*
X145928187Y-44611216D01*
X145925755Y-44615000D01*
X145915266Y-44630697D01*
X145900500Y-44704930D01*
X145900500Y-45655063D01*
X145900501Y-45655073D01*
X145915265Y-45729299D01*
X145915265Y-45729300D01*
X145915266Y-45729301D01*
X145925754Y-45744998D01*
X145946969Y-45812749D01*
X145928187Y-45881216D01*
X145925755Y-45885000D01*
X145915266Y-45900697D01*
X145900500Y-45974930D01*
X145900500Y-46925063D01*
X145900501Y-46925073D01*
X145915265Y-46999299D01*
X145915265Y-46999300D01*
X145915266Y-46999301D01*
X145925754Y-47014998D01*
X145946969Y-47082749D01*
X145928187Y-47151216D01*
X145925755Y-47155000D01*
X145915266Y-47170697D01*
X145900500Y-47244930D01*
X145900500Y-48195063D01*
X145900501Y-48195073D01*
X145915265Y-48269299D01*
X145915265Y-48269300D01*
X145915266Y-48269301D01*
X145925754Y-48284998D01*
X145946969Y-48352749D01*
X145940521Y-48394849D01*
X145935162Y-48410922D01*
X145915266Y-48440699D01*
X145900519Y-48514834D01*
X145898014Y-48522350D01*
X145882089Y-48545261D01*
X145869153Y-48569992D01*
X145862114Y-48573999D01*
X145857494Y-48580648D01*
X145831709Y-48591313D01*
X145807458Y-48605123D01*
X145794740Y-48606605D01*
X145791888Y-48607785D01*
X145789039Y-48607269D01*
X145778482Y-48608500D01*
X144030499Y-48608500D01*
X143962378Y-48588498D01*
X143915885Y-48534842D01*
X143904499Y-48482500D01*
X143904499Y-47976753D01*
X143904499Y-47976746D01*
X143898040Y-47916658D01*
X143847342Y-47780733D01*
X143760404Y-47664596D01*
X143644267Y-47577658D01*
X143644265Y-47577657D01*
X143644266Y-47577657D01*
X143508349Y-47526962D01*
X143508344Y-47526960D01*
X143508342Y-47526960D01*
X143478298Y-47523730D01*
X143448256Y-47520500D01*
X142551753Y-47520500D01*
X142551729Y-47520502D01*
X142491660Y-47526959D01*
X142491658Y-47526959D01*
X142355733Y-47577657D01*
X142239596Y-47664596D01*
X142152657Y-47780734D01*
X142101962Y-47916650D01*
X142101960Y-47916658D01*
X142095500Y-47976737D01*
X142095500Y-49323246D01*
X142095502Y-49323270D01*
X142101959Y-49383339D01*
X142101959Y-49383341D01*
X142152657Y-49519266D01*
X142152658Y-49519267D01*
X142239596Y-49635404D01*
X142355733Y-49722342D01*
X142491658Y-49773040D01*
X142551745Y-49779500D01*
X143448254Y-49779499D01*
X143508342Y-49773040D01*
X143644267Y-49722342D01*
X143760404Y-49635404D01*
X143847342Y-49519267D01*
X143871885Y-49453466D01*
X143914432Y-49396631D01*
X143980952Y-49371821D01*
X143989940Y-49371500D01*
X145778484Y-49371500D01*
X145802137Y-49378445D01*
X145826645Y-49381068D01*
X145835587Y-49388266D01*
X145846605Y-49391502D01*
X145862748Y-49410132D01*
X145881948Y-49425589D01*
X145887537Y-49438740D01*
X145893098Y-49445158D01*
X145898017Y-49457651D01*
X145900518Y-49465155D01*
X145915266Y-49539301D01*
X145935165Y-49569082D01*
X145940522Y-49585150D01*
X145941218Y-49604382D01*
X145946969Y-49622749D01*
X145942475Y-49639128D01*
X145943090Y-49656100D01*
X145933278Y-49672654D01*
X145928187Y-49691216D01*
X145925755Y-49695000D01*
X145915266Y-49710697D01*
X145901980Y-49777491D01*
X145869072Y-49840400D01*
X145807377Y-49875532D01*
X145794849Y-49877831D01*
X145789777Y-49878498D01*
X145692745Y-49904498D01*
X145605756Y-49954721D01*
X145605746Y-49954729D01*
X142642243Y-52918232D01*
X142518239Y-53042235D01*
X142518233Y-53042243D01*
X142060702Y-53499775D01*
X140728880Y-54831596D01*
X140666570Y-54865620D01*
X140639787Y-54868500D01*
X139880499Y-54868500D01*
X139812378Y-54848498D01*
X139765885Y-54794842D01*
X139754499Y-54742500D01*
X139754499Y-54576753D01*
X139754499Y-54576746D01*
X139748040Y-54516658D01*
X139697342Y-54380733D01*
X139610404Y-54264596D01*
X139494267Y-54177658D01*
X139494265Y-54177657D01*
X139494266Y-54177657D01*
X139358349Y-54126962D01*
X139358344Y-54126960D01*
X139358342Y-54126960D01*
X139328298Y-54123730D01*
X139298256Y-54120500D01*
X138401753Y-54120500D01*
X138401729Y-54120502D01*
X138341660Y-54126959D01*
X138341658Y-54126959D01*
X138205733Y-54177657D01*
X138089596Y-54264596D01*
X138002657Y-54380734D01*
X137951962Y-54516650D01*
X137951960Y-54516658D01*
X137945500Y-54576737D01*
X136654499Y-54576737D01*
X136648040Y-54516660D01*
X136648040Y-54516658D01*
X136597342Y-54380733D01*
X136583521Y-54362270D01*
X136510404Y-54264596D01*
X136394267Y-54177658D01*
X136394265Y-54177657D01*
X136394266Y-54177657D01*
X136258349Y-54126962D01*
X136258342Y-54126960D01*
X136258333Y-54126959D01*
X136244025Y-54125420D01*
X136178435Y-54098249D01*
X136137946Y-54039929D01*
X136131500Y-54000143D01*
X136131500Y-53610388D01*
X136131501Y-53610375D01*
X136131501Y-53499776D01*
X136114747Y-53437251D01*
X136105502Y-53402747D01*
X136101577Y-53395949D01*
X136055278Y-53315756D01*
X136055270Y-53315746D01*
X135668405Y-52928881D01*
X135634379Y-52866569D01*
X135631500Y-52839786D01*
X135631500Y-52392740D01*
X135651502Y-52324619D01*
X135668405Y-52303645D01*
X135731324Y-52240725D01*
X135731326Y-52240723D01*
X135768762Y-52167251D01*
X135789498Y-52126555D01*
X135804500Y-52031834D01*
X135804500Y-52031792D01*
X136596001Y-52031792D01*
X136610983Y-52126397D01*
X136669082Y-52240423D01*
X136759575Y-52330917D01*
X136850000Y-52376990D01*
X136850000Y-52376989D01*
X137450000Y-52376989D01*
X137540424Y-52330917D01*
X137630917Y-52240423D01*
X137689015Y-52126400D01*
X137704000Y-52031791D01*
X137704000Y-51550000D01*
X137450000Y-51550000D01*
X137450000Y-52376989D01*
X136850000Y-52376989D01*
X136850000Y-51550000D01*
X136596001Y-51550000D01*
X136596001Y-52031792D01*
X135804500Y-52031792D01*
X135804500Y-51501737D01*
X138845500Y-51501737D01*
X138845500Y-52498246D01*
X138845502Y-52498270D01*
X138851959Y-52558339D01*
X138851959Y-52558341D01*
X138902657Y-52694266D01*
X138921988Y-52720089D01*
X138989596Y-52810404D01*
X139105733Y-52897342D01*
X139241658Y-52948040D01*
X139301745Y-52954500D01*
X140098254Y-52954499D01*
X140158342Y-52948040D01*
X140294267Y-52897342D01*
X140410404Y-52810404D01*
X140497342Y-52694267D01*
X140548040Y-52558342D01*
X140553452Y-52508001D01*
X140847052Y-52508001D01*
X140852452Y-52558232D01*
X140852452Y-52558234D01*
X140903100Y-52694023D01*
X140989952Y-52810047D01*
X141105976Y-52896899D01*
X141105975Y-52896899D01*
X141192000Y-52928985D01*
X141192000Y-52928984D01*
X142208000Y-52928984D01*
X142294022Y-52896900D01*
X142346419Y-52857675D01*
X142457675Y-52746419D01*
X142496900Y-52694022D01*
X142547544Y-52558242D01*
X142547546Y-52558234D01*
X142552948Y-52508000D01*
X142208000Y-52508000D01*
X142208000Y-52928984D01*
X141192000Y-52928984D01*
X141192000Y-52508000D01*
X140847053Y-52508000D01*
X140847052Y-52508001D01*
X140553452Y-52508001D01*
X140554500Y-52498255D01*
X140554499Y-51501746D01*
X140553451Y-51492000D01*
X140847052Y-51492000D01*
X141192000Y-51492000D01*
X142208000Y-51492000D01*
X142552947Y-51492000D01*
X142552947Y-51491998D01*
X142547547Y-51441767D01*
X142547547Y-51441765D01*
X142496899Y-51305976D01*
X142410046Y-51189952D01*
X142294026Y-51103101D01*
X142208000Y-51071014D01*
X142208000Y-51492000D01*
X141192000Y-51492000D01*
X141192000Y-51071014D01*
X141191999Y-51071014D01*
X141105973Y-51103101D01*
X140989953Y-51189952D01*
X140903100Y-51305976D01*
X140852455Y-51441757D01*
X140852453Y-51441765D01*
X140847052Y-51492000D01*
X140553451Y-51492000D01*
X140548040Y-51441658D01*
X140497342Y-51305733D01*
X140410404Y-51189596D01*
X140294267Y-51102658D01*
X140294265Y-51102657D01*
X140294266Y-51102657D01*
X140163467Y-51053871D01*
X140145455Y-51040387D01*
X140124988Y-51031040D01*
X140117589Y-51019527D01*
X140106631Y-51011324D01*
X140098767Y-50990240D01*
X140086604Y-50971314D01*
X140083401Y-50949042D01*
X140081821Y-50944804D01*
X140081500Y-50935816D01*
X140081500Y-50810213D01*
X140101502Y-50742092D01*
X140118400Y-50721122D01*
X140205276Y-50634247D01*
X140255502Y-50547253D01*
X140281501Y-50450225D01*
X140281501Y-50349775D01*
X140281501Y-50342058D01*
X140281500Y-50342040D01*
X140281500Y-49899856D01*
X140301502Y-49831735D01*
X140355158Y-49785242D01*
X140394031Y-49774578D01*
X140408342Y-49773040D01*
X140544267Y-49722342D01*
X140660404Y-49635404D01*
X140747342Y-49519267D01*
X140798040Y-49383342D01*
X140804500Y-49323255D01*
X140804499Y-47976746D01*
X140798040Y-47916658D01*
X140747342Y-47780733D01*
X140660404Y-47664596D01*
X140544267Y-47577658D01*
X140544265Y-47577657D01*
X140544266Y-47577657D01*
X140408349Y-47526962D01*
X140408344Y-47526960D01*
X140408342Y-47526960D01*
X140400831Y-47526152D01*
X140348262Y-47520500D01*
X140348255Y-47520500D01*
X140107500Y-47520500D01*
X140039379Y-47500498D01*
X139992886Y-47446842D01*
X139981500Y-47394500D01*
X139981500Y-45590499D01*
X140001502Y-45522378D01*
X140055158Y-45475885D01*
X140107500Y-45464499D01*
X140183064Y-45464499D01*
X140183066Y-45464499D01*
X140183069Y-45464498D01*
X140183072Y-45464498D01*
X140219663Y-45457219D01*
X140257301Y-45449734D01*
X140341484Y-45393484D01*
X140397734Y-45309301D01*
X140412500Y-45235067D01*
X140412500Y-45235022D01*
X140788001Y-45235022D01*
X140802737Y-45309105D01*
X140802737Y-45309107D01*
X140858875Y-45393124D01*
X140942893Y-45449262D01*
X140942894Y-45449263D01*
X141016980Y-45463999D01*
X141016981Y-45463999D01*
X142058000Y-45463999D01*
X142083014Y-45463999D01*
X142083022Y-45463998D01*
X142157105Y-45449262D01*
X142157107Y-45449262D01*
X142241124Y-45393124D01*
X142297262Y-45309106D01*
X142297263Y-45309105D01*
X142311999Y-45235022D01*
X142312000Y-45235015D01*
X142312000Y-45118000D01*
X142058000Y-45118000D01*
X142058000Y-45463999D01*
X141016981Y-45463999D01*
X141041999Y-45463998D01*
X141042000Y-45463998D01*
X141042000Y-45118000D01*
X140788001Y-45118000D01*
X140788001Y-45235022D01*
X140412500Y-45235022D01*
X140412499Y-44598386D01*
X140412499Y-43984977D01*
X140788000Y-43984977D01*
X140788000Y-44102000D01*
X141042000Y-44102000D01*
X142058000Y-44102000D01*
X142311999Y-44102000D01*
X142311999Y-43984986D01*
X142311998Y-43984977D01*
X142297262Y-43910894D01*
X142297262Y-43910892D01*
X142241124Y-43826875D01*
X142157106Y-43770737D01*
X142157105Y-43770736D01*
X142083022Y-43756000D01*
X142058000Y-43756000D01*
X142058000Y-44102000D01*
X141042000Y-44102000D01*
X141042000Y-43756000D01*
X141041999Y-43755999D01*
X141016981Y-43756000D01*
X140942894Y-43770737D01*
X140942892Y-43770737D01*
X140858875Y-43826875D01*
X140802737Y-43910893D01*
X140802736Y-43910894D01*
X140788000Y-43984977D01*
X140412499Y-43984977D01*
X140412499Y-43984936D01*
X140412498Y-43984926D01*
X140397734Y-43910699D01*
X140341483Y-43826515D01*
X140257302Y-43770266D01*
X140183067Y-43755500D01*
X139116936Y-43755500D01*
X139116926Y-43755501D01*
X139042699Y-43770265D01*
X138958515Y-43826516D01*
X138902266Y-43910697D01*
X138887500Y-43984930D01*
X138887500Y-45235063D01*
X138887501Y-45235073D01*
X138902265Y-45309300D01*
X138958516Y-45393484D01*
X139042697Y-45449733D01*
X139042699Y-45449734D01*
X139116933Y-45464500D01*
X139116934Y-45464499D01*
X139117080Y-45464529D01*
X139179990Y-45497436D01*
X139215123Y-45559131D01*
X139218500Y-45588108D01*
X139218500Y-47542458D01*
X139198498Y-47610579D01*
X139168011Y-47643324D01*
X139139596Y-47664596D01*
X139139595Y-47664597D01*
X139139594Y-47664598D01*
X139052657Y-47780734D01*
X139001962Y-47916650D01*
X139001960Y-47916658D01*
X138995500Y-47976737D01*
X138995500Y-49323246D01*
X138995502Y-49323270D01*
X139001959Y-49383339D01*
X139001959Y-49383341D01*
X139052657Y-49519266D01*
X139052658Y-49519267D01*
X139139596Y-49635404D01*
X139255733Y-49722342D01*
X139391658Y-49773040D01*
X139405969Y-49774578D01*
X139471560Y-49801747D01*
X139512052Y-49860064D01*
X139518500Y-49899856D01*
X139518500Y-50189787D01*
X139509716Y-50219702D01*
X139503088Y-50250172D01*
X139499273Y-50255267D01*
X139498498Y-50257908D01*
X139481595Y-50278882D01*
X139465753Y-50294724D01*
X139430239Y-50330238D01*
X139394725Y-50365751D01*
X139394721Y-50365756D01*
X139344500Y-50452741D01*
X139318500Y-50549776D01*
X139318500Y-50935816D01*
X139298498Y-51003937D01*
X139244842Y-51050430D01*
X139236533Y-51053871D01*
X139105734Y-51102657D01*
X138989596Y-51189596D01*
X138902657Y-51305734D01*
X138851962Y-51441650D01*
X138851960Y-51441658D01*
X138845500Y-51501737D01*
X135804500Y-51501737D01*
X135804500Y-50468166D01*
X135789498Y-50373445D01*
X135788052Y-50370607D01*
X135787333Y-50366781D01*
X135786435Y-50364016D01*
X135786792Y-50363899D01*
X135774949Y-50300830D01*
X135801650Y-50235046D01*
X135859678Y-50194141D01*
X135920030Y-50188957D01*
X135923444Y-50189497D01*
X135923445Y-50189498D01*
X136018166Y-50204500D01*
X136018168Y-50204500D01*
X136381831Y-50204500D01*
X136381834Y-50204500D01*
X136476555Y-50189498D01*
X136476556Y-50189497D01*
X136480579Y-50188860D01*
X136550991Y-50197960D01*
X136605305Y-50243682D01*
X136626277Y-50311510D01*
X136614035Y-50364161D01*
X136614049Y-50364166D01*
X136613998Y-50364322D01*
X136612561Y-50370504D01*
X136610985Y-50373596D01*
X136596000Y-50468208D01*
X136596000Y-50950000D01*
X136850000Y-50950000D01*
X137450000Y-50950000D01*
X137703999Y-50950000D01*
X137703999Y-50468207D01*
X137689016Y-50373602D01*
X137630917Y-50259576D01*
X137540424Y-50169082D01*
X137540425Y-50169082D01*
X137450000Y-50123009D01*
X137450000Y-50950000D01*
X136850000Y-50950000D01*
X136850000Y-50124013D01*
X136789340Y-50087843D01*
X136783467Y-50081507D01*
X136775463Y-50078254D01*
X136759692Y-50055858D01*
X136741076Y-50035775D01*
X136739560Y-50027270D01*
X136734586Y-50020206D01*
X136733426Y-49992841D01*
X136728623Y-49965879D01*
X136731946Y-49957904D01*
X136731581Y-49949273D01*
X136736531Y-49936015D01*
X136736435Y-49935984D01*
X136739497Y-49926558D01*
X136739497Y-49926556D01*
X136739498Y-49926555D01*
X136754500Y-49831834D01*
X136754500Y-48268166D01*
X136739498Y-48173445D01*
X136703467Y-48102730D01*
X136681326Y-48059276D01*
X136590725Y-47968675D01*
X136550296Y-47948075D01*
X136498681Y-47899326D01*
X136481500Y-47835809D01*
X136481500Y-46230499D01*
X136501502Y-46162378D01*
X136555158Y-46115885D01*
X136607500Y-46104499D01*
X136773247Y-46104499D01*
X136773254Y-46104499D01*
X136833342Y-46098040D01*
X136969267Y-46047342D01*
X137085404Y-45960404D01*
X137172342Y-45844267D01*
X137223040Y-45708342D01*
X137229500Y-45648255D01*
X137229499Y-44751746D01*
X137223040Y-44691658D01*
X137172342Y-44555733D01*
X137085404Y-44439596D01*
X136969267Y-44352658D01*
X136969265Y-44352657D01*
X136969266Y-44352657D01*
X136833349Y-44301962D01*
X136833344Y-44301960D01*
X136833342Y-44301960D01*
X136803298Y-44298730D01*
X136773256Y-44295500D01*
X135426753Y-44295500D01*
X135426729Y-44295502D01*
X135366660Y-44301959D01*
X135366658Y-44301959D01*
X135230733Y-44352657D01*
X135114596Y-44439596D01*
X135027657Y-44555734D01*
X134976962Y-44691650D01*
X134976960Y-44691658D01*
X134970500Y-44751737D01*
X134970500Y-45648246D01*
X134970502Y-45648270D01*
X134976959Y-45708339D01*
X134976959Y-45708341D01*
X135027657Y-45844266D01*
X135049109Y-45872923D01*
X135114596Y-45960404D01*
X135230733Y-46047342D01*
X135366658Y-46098040D01*
X135426745Y-46104500D01*
X135592500Y-46104499D01*
X135660620Y-46124501D01*
X135707113Y-46178156D01*
X135718500Y-46230499D01*
X135718500Y-48029367D01*
X135704767Y-48086570D01*
X135660501Y-48173446D01*
X135647875Y-48253165D01*
X135645500Y-48268166D01*
X135645500Y-49831834D01*
X135646162Y-49836015D01*
X135660501Y-49926556D01*
X135661948Y-49929395D01*
X135662665Y-49933214D01*
X135663565Y-49935984D01*
X135663206Y-49936100D01*
X135675049Y-49999173D01*
X135648346Y-50064956D01*
X135590317Y-50105860D01*
X135529970Y-50111042D01*
X135446934Y-50097891D01*
X135431834Y-50095500D01*
X135068166Y-50095500D01*
X135042266Y-50099602D01*
X134973446Y-50110501D01*
X134859276Y-50168673D01*
X134768673Y-50259276D01*
X134710501Y-50373446D01*
X134695500Y-50468167D01*
X132303999Y-50468167D01*
X132303999Y-50368207D01*
X132289016Y-50273602D01*
X132230917Y-50159576D01*
X132140424Y-50069082D01*
X132140425Y-50069082D01*
X132050000Y-50023009D01*
X132050000Y-50850000D01*
X131450000Y-50850000D01*
X131450000Y-50024013D01*
X131389340Y-49987843D01*
X131383467Y-49981507D01*
X131375463Y-49978254D01*
X131359692Y-49955858D01*
X131341076Y-49935775D01*
X131339560Y-49927270D01*
X131334586Y-49920206D01*
X131333426Y-49892841D01*
X131328623Y-49865879D01*
X131331946Y-49857904D01*
X131331581Y-49849273D01*
X131336531Y-49836015D01*
X131336435Y-49835984D01*
X131339497Y-49826558D01*
X131339497Y-49826556D01*
X131339498Y-49826555D01*
X131354500Y-49731834D01*
X131354500Y-48987213D01*
X131374502Y-48919092D01*
X131391400Y-48898122D01*
X131905276Y-48384247D01*
X131955502Y-48297253D01*
X131981500Y-48200225D01*
X131981500Y-48099775D01*
X131981500Y-46430499D01*
X132001502Y-46362378D01*
X132055158Y-46315885D01*
X132107500Y-46304499D01*
X132273247Y-46304499D01*
X132273254Y-46304499D01*
X132333342Y-46298040D01*
X132469267Y-46247342D01*
X132585404Y-46160404D01*
X132672342Y-46044267D01*
X132723040Y-45908342D01*
X132729500Y-45848255D01*
X132729499Y-44951746D01*
X132723040Y-44891658D01*
X132672342Y-44755733D01*
X132585404Y-44639596D01*
X132469267Y-44552658D01*
X132469265Y-44552657D01*
X132469266Y-44552657D01*
X132333349Y-44501962D01*
X132333344Y-44501960D01*
X132333342Y-44501960D01*
X132303298Y-44498730D01*
X132273256Y-44495500D01*
X130926753Y-44495500D01*
X130926729Y-44495502D01*
X130866660Y-44501959D01*
X130866658Y-44501959D01*
X130730733Y-44552657D01*
X130614596Y-44639596D01*
X130527657Y-44755734D01*
X130476962Y-44891650D01*
X130476960Y-44891658D01*
X130470500Y-44951737D01*
X130470500Y-45848246D01*
X130470502Y-45848270D01*
X130476959Y-45908339D01*
X130476959Y-45908341D01*
X130527657Y-46044266D01*
X130527658Y-46044267D01*
X130614596Y-46160404D01*
X130730733Y-46247342D01*
X130866658Y-46298040D01*
X130926745Y-46304500D01*
X131092500Y-46304499D01*
X131160620Y-46324501D01*
X131207113Y-46378156D01*
X131218500Y-46430499D01*
X131218500Y-47685456D01*
X131198498Y-47753577D01*
X131144842Y-47800070D01*
X131074568Y-47810174D01*
X131072791Y-47809905D01*
X130993464Y-47797342D01*
X130981834Y-47795500D01*
X130618166Y-47795500D01*
X130592266Y-47799602D01*
X130523446Y-47810501D01*
X130409276Y-47868673D01*
X130318673Y-47959276D01*
X130260501Y-48073446D01*
X130245500Y-48168167D01*
X130245500Y-49731832D01*
X130260501Y-49826556D01*
X130261948Y-49829395D01*
X130262665Y-49833214D01*
X130263565Y-49835984D01*
X130263206Y-49836100D01*
X130275049Y-49899173D01*
X130248346Y-49964956D01*
X130190317Y-50005860D01*
X130129970Y-50011042D01*
X130046934Y-49997891D01*
X130031834Y-49995500D01*
X129668166Y-49995500D01*
X129644975Y-49999173D01*
X129573446Y-50010501D01*
X129459276Y-50068673D01*
X129368673Y-50159276D01*
X129310501Y-50273446D01*
X129304473Y-50311510D01*
X129295500Y-50368166D01*
X129295500Y-51931834D01*
X129297465Y-51944238D01*
X129310501Y-52026553D01*
X129344355Y-52092995D01*
X129357459Y-52162772D01*
X129330759Y-52228557D01*
X129321183Y-52239293D01*
X128814058Y-52746419D01*
X128315753Y-53244724D01*
X128285414Y-53275063D01*
X128244725Y-53315751D01*
X128244721Y-53315756D01*
X128194500Y-53402741D01*
X128168500Y-53499776D01*
X128168500Y-53850143D01*
X128148498Y-53918264D01*
X128094842Y-53964757D01*
X128055969Y-53975421D01*
X128041659Y-53976959D01*
X128041658Y-53976959D01*
X127905733Y-54027657D01*
X127789596Y-54114596D01*
X127702657Y-54230734D01*
X127651962Y-54366650D01*
X127651960Y-54366658D01*
X127645500Y-54426737D01*
X125089500Y-54426737D01*
X125089500Y-53802503D01*
X125099090Y-53754287D01*
X125165897Y-53593002D01*
X125204500Y-53398935D01*
X125204500Y-53201065D01*
X125165897Y-53006998D01*
X125104046Y-52857675D01*
X125099091Y-52845713D01*
X125089500Y-52797495D01*
X125089500Y-51912393D01*
X125089499Y-51912389D01*
X125086714Y-51898386D01*
X125055317Y-51740542D01*
X124988265Y-51578664D01*
X124890920Y-51432977D01*
X124767023Y-51309080D01*
X124689757Y-51231814D01*
X124655731Y-51169502D01*
X124660796Y-51098687D01*
X124674086Y-51072718D01*
X124689734Y-51049301D01*
X124704500Y-50975067D01*
X124704499Y-47424934D01*
X124689734Y-47350699D01*
X124633484Y-47266516D01*
X124627959Y-47262824D01*
X124549302Y-47210266D01*
X124475069Y-47195500D01*
X124475067Y-47195500D01*
X124228000Y-47195500D01*
X124159879Y-47175498D01*
X124113386Y-47121842D01*
X124102000Y-47069500D01*
X124102000Y-38283864D01*
X124122002Y-38215743D01*
X124175658Y-38169250D01*
X124245932Y-38159146D01*
X124297999Y-38179098D01*
X124426032Y-38264646D01*
X124569711Y-38324160D01*
X124722241Y-38354500D01*
X124722242Y-38354500D01*
X124877758Y-38354500D01*
X124877759Y-38354500D01*
X125030289Y-38324160D01*
X125173968Y-38264646D01*
X125183242Y-38258448D01*
X125250990Y-38237230D01*
X125319458Y-38256008D01*
X125340831Y-38276619D01*
X125342741Y-38274710D01*
X125351514Y-38283483D01*
X125435697Y-38339733D01*
X125435699Y-38339734D01*
X125509933Y-38354500D01*
X126630066Y-38354499D01*
X126630069Y-38354498D01*
X126630073Y-38354498D01*
X126643954Y-38351737D01*
X130470500Y-38351737D01*
X130470500Y-39248246D01*
X130470502Y-39248270D01*
X130476959Y-39308339D01*
X130476959Y-39308341D01*
X130527657Y-39444266D01*
X130527658Y-39444267D01*
X130614596Y-39560404D01*
X130730733Y-39647342D01*
X130866658Y-39698040D01*
X130926745Y-39704500D01*
X131092500Y-39704499D01*
X131160620Y-39724501D01*
X131207113Y-39778156D01*
X131218500Y-39830499D01*
X131218500Y-41269500D01*
X131198498Y-41337621D01*
X131144842Y-41384114D01*
X131092501Y-41395500D01*
X130926753Y-41395500D01*
X130926729Y-41395502D01*
X130866660Y-41401959D01*
X130866658Y-41401959D01*
X130730733Y-41452657D01*
X130614596Y-41539596D01*
X130527657Y-41655734D01*
X130476962Y-41791650D01*
X130476960Y-41791658D01*
X130470500Y-41851737D01*
X130470500Y-42748246D01*
X130470502Y-42748270D01*
X130476959Y-42808339D01*
X130476959Y-42808341D01*
X130527657Y-42944266D01*
X130527658Y-42944267D01*
X130614596Y-43060404D01*
X130730733Y-43147342D01*
X130866658Y-43198040D01*
X130926745Y-43204500D01*
X132273254Y-43204499D01*
X132333342Y-43198040D01*
X132469267Y-43147342D01*
X132585404Y-43060404D01*
X132672342Y-42944267D01*
X132723040Y-42808342D01*
X132729500Y-42748255D01*
X132729499Y-41851746D01*
X132723040Y-41791658D01*
X132672342Y-41655733D01*
X132585404Y-41539596D01*
X132469267Y-41452658D01*
X132469265Y-41452657D01*
X132469266Y-41452657D01*
X132333349Y-41401962D01*
X132333344Y-41401960D01*
X132333342Y-41401960D01*
X132325831Y-41401152D01*
X132273262Y-41395500D01*
X132273255Y-41395500D01*
X132107500Y-41395500D01*
X132039379Y-41375498D01*
X131992886Y-41321842D01*
X131981500Y-41269500D01*
X131981500Y-39830499D01*
X132001502Y-39762378D01*
X132055158Y-39715885D01*
X132107500Y-39704499D01*
X132273247Y-39704499D01*
X132273254Y-39704499D01*
X132333342Y-39698040D01*
X132469267Y-39647342D01*
X132585404Y-39560404D01*
X132672342Y-39444267D01*
X132723040Y-39308342D01*
X132729500Y-39248255D01*
X132729499Y-38351746D01*
X132723040Y-38291658D01*
X132708150Y-38251737D01*
X134870500Y-38251737D01*
X134870500Y-39148246D01*
X134870502Y-39148270D01*
X134876959Y-39208339D01*
X134876959Y-39208341D01*
X134927657Y-39344266D01*
X134927658Y-39344267D01*
X135014596Y-39460404D01*
X135130733Y-39547342D01*
X135266658Y-39598040D01*
X135326745Y-39604500D01*
X135592501Y-39604499D01*
X135660620Y-39624501D01*
X135707113Y-39678156D01*
X135718500Y-39730499D01*
X135718500Y-41069500D01*
X135698498Y-41137621D01*
X135644842Y-41184114D01*
X135592501Y-41195500D01*
X135426753Y-41195500D01*
X135426729Y-41195502D01*
X135366660Y-41201959D01*
X135366658Y-41201959D01*
X135230733Y-41252657D01*
X135114596Y-41339596D01*
X135027657Y-41455734D01*
X134976962Y-41591650D01*
X134976960Y-41591658D01*
X134970500Y-41651737D01*
X134970500Y-42548246D01*
X134970502Y-42548270D01*
X134976959Y-42608339D01*
X134976959Y-42608341D01*
X135027657Y-42744266D01*
X135032617Y-42750892D01*
X135114596Y-42860404D01*
X135230733Y-42947342D01*
X135366658Y-42998040D01*
X135426745Y-43004500D01*
X136773254Y-43004499D01*
X136833342Y-42998040D01*
X136969267Y-42947342D01*
X137085404Y-42860404D01*
X137172342Y-42744267D01*
X137223040Y-42608342D01*
X137229500Y-42548255D01*
X137229499Y-41651746D01*
X137223040Y-41591658D01*
X137172342Y-41455733D01*
X137085404Y-41339596D01*
X136969267Y-41252658D01*
X136969265Y-41252657D01*
X136969266Y-41252657D01*
X136833349Y-41201962D01*
X136833344Y-41201960D01*
X136833342Y-41201960D01*
X136825831Y-41201152D01*
X136773262Y-41195500D01*
X136773255Y-41195500D01*
X136607500Y-41195500D01*
X136539379Y-41175498D01*
X136492886Y-41121842D01*
X136481500Y-41069500D01*
X136481500Y-39730499D01*
X136501502Y-39662378D01*
X136555158Y-39615885D01*
X136607500Y-39604499D01*
X136673247Y-39604499D01*
X136673254Y-39604499D01*
X136733342Y-39598040D01*
X136869267Y-39547342D01*
X136985404Y-39460404D01*
X137072342Y-39344267D01*
X137123040Y-39208342D01*
X137129500Y-39148255D01*
X137129499Y-38251746D01*
X137129499Y-38251745D01*
X137129499Y-38251741D01*
X137129499Y-38251737D01*
X139670500Y-38251737D01*
X139670500Y-39148246D01*
X139670502Y-39148270D01*
X139676959Y-39208339D01*
X139676959Y-39208341D01*
X139727657Y-39344266D01*
X139727658Y-39344267D01*
X139814596Y-39460404D01*
X139930733Y-39547342D01*
X140066658Y-39598040D01*
X140105970Y-39602266D01*
X140171561Y-39629435D01*
X140212052Y-39687753D01*
X140218500Y-39727544D01*
X140218500Y-41509500D01*
X140198498Y-41577621D01*
X140144842Y-41624114D01*
X140092504Y-41635500D01*
X140066938Y-41635500D01*
X140066926Y-41635501D01*
X139992699Y-41650265D01*
X139908515Y-41706516D01*
X139852266Y-41790697D01*
X139837500Y-41864930D01*
X139837500Y-43115063D01*
X139837501Y-43115073D01*
X139852265Y-43189300D01*
X139908516Y-43273484D01*
X139992697Y-43329733D01*
X139992699Y-43329734D01*
X140066933Y-43344500D01*
X141133066Y-43344499D01*
X141133069Y-43344498D01*
X141133073Y-43344498D01*
X141182326Y-43334701D01*
X141207301Y-43329734D01*
X141291484Y-43273484D01*
X141347734Y-43189301D01*
X141362500Y-43115067D01*
X141362499Y-41864934D01*
X141362498Y-41864930D01*
X141362498Y-41864926D01*
X141347734Y-41790699D01*
X141326859Y-41759458D01*
X141291484Y-41706516D01*
X141291483Y-41706515D01*
X141207302Y-41650266D01*
X141133069Y-41635500D01*
X141133067Y-41635500D01*
X141107500Y-41635500D01*
X141039379Y-41615498D01*
X140992886Y-41561842D01*
X140981500Y-41509500D01*
X140981500Y-39730499D01*
X141001502Y-39662378D01*
X141055158Y-39615885D01*
X141107500Y-39604499D01*
X141473247Y-39604499D01*
X141473254Y-39604499D01*
X141533342Y-39598040D01*
X141669267Y-39547342D01*
X141785404Y-39460404D01*
X141872342Y-39344267D01*
X141923040Y-39208342D01*
X141929500Y-39148255D01*
X141929499Y-38251746D01*
X141923040Y-38191658D01*
X141872342Y-38055733D01*
X141785404Y-37939596D01*
X141669267Y-37852658D01*
X141669265Y-37852657D01*
X141669266Y-37852657D01*
X141533349Y-37801962D01*
X141533344Y-37801960D01*
X141533342Y-37801960D01*
X141503298Y-37798730D01*
X141473256Y-37795500D01*
X140126753Y-37795500D01*
X140126729Y-37795502D01*
X140066660Y-37801959D01*
X140066658Y-37801959D01*
X139930733Y-37852657D01*
X139814596Y-37939596D01*
X139727657Y-38055734D01*
X139676962Y-38191650D01*
X139676960Y-38191658D01*
X139670500Y-38251737D01*
X137129499Y-38251737D01*
X137124885Y-38208826D01*
X137123040Y-38191658D01*
X137072342Y-38055733D01*
X136985404Y-37939596D01*
X136869267Y-37852658D01*
X136869265Y-37852657D01*
X136869266Y-37852657D01*
X136733349Y-37801962D01*
X136733344Y-37801960D01*
X136733342Y-37801960D01*
X136703298Y-37798730D01*
X136673256Y-37795500D01*
X135326753Y-37795500D01*
X135326729Y-37795502D01*
X135266660Y-37801959D01*
X135266658Y-37801959D01*
X135130733Y-37852657D01*
X135014596Y-37939596D01*
X134927657Y-38055734D01*
X134876962Y-38191650D01*
X134876960Y-38191658D01*
X134870500Y-38251737D01*
X132708150Y-38251737D01*
X132672342Y-38155733D01*
X132585404Y-38039596D01*
X132469267Y-37952658D01*
X132469265Y-37952657D01*
X132469266Y-37952657D01*
X132333349Y-37901962D01*
X132333344Y-37901960D01*
X132333342Y-37901960D01*
X132303298Y-37898730D01*
X132273256Y-37895500D01*
X130926753Y-37895500D01*
X130926729Y-37895502D01*
X130866660Y-37901959D01*
X130866658Y-37901959D01*
X130730733Y-37952657D01*
X130614596Y-38039596D01*
X130527657Y-38155734D01*
X130476962Y-38291650D01*
X130476960Y-38291658D01*
X130470500Y-38351737D01*
X126643954Y-38351737D01*
X126679326Y-38344701D01*
X126704301Y-38339734D01*
X126788484Y-38283484D01*
X126844734Y-38199301D01*
X126859500Y-38125067D01*
X126859500Y-37707500D01*
X126875702Y-37652322D01*
X169726096Y-37652322D01*
X169801474Y-37676814D01*
X169973116Y-37704000D01*
X170146884Y-37704000D01*
X170318529Y-37676814D01*
X170393901Y-37652322D01*
X170393902Y-37652321D01*
X170060001Y-37318420D01*
X170060000Y-37318420D01*
X169726096Y-37652322D01*
X126875702Y-37652322D01*
X126879502Y-37639379D01*
X126933158Y-37592886D01*
X126985500Y-37581500D01*
X128950223Y-37581500D01*
X128950225Y-37581500D01*
X129047254Y-37555501D01*
X129047257Y-37555499D01*
X129047258Y-37555499D01*
X129069901Y-37542426D01*
X129134247Y-37505276D01*
X129205276Y-37434247D01*
X129205276Y-37434246D01*
X129554544Y-37084977D01*
X145901000Y-37084977D01*
X145901000Y-37110000D01*
X146455000Y-37110000D01*
X147355000Y-37110000D01*
X147908999Y-37110000D01*
X147908999Y-37084981D01*
X147908998Y-37084977D01*
X163401000Y-37084977D01*
X163401000Y-37110000D01*
X163955000Y-37110000D01*
X164855000Y-37110000D01*
X165408999Y-37110000D01*
X165408999Y-37084986D01*
X165408998Y-37084977D01*
X165394262Y-37010894D01*
X165394262Y-37010892D01*
X165338124Y-36926875D01*
X165254106Y-36870737D01*
X165254105Y-36870736D01*
X165180022Y-36856000D01*
X164855000Y-36856000D01*
X164855000Y-37110000D01*
X163955000Y-37110000D01*
X163955000Y-36856000D01*
X163629986Y-36856000D01*
X163629976Y-36856001D01*
X163555894Y-36870737D01*
X163555892Y-36870737D01*
X163471875Y-36926875D01*
X163415737Y-37010893D01*
X163415736Y-37010894D01*
X163401000Y-37084977D01*
X147908998Y-37084977D01*
X147894262Y-37010894D01*
X147894262Y-37010892D01*
X147838124Y-36926875D01*
X147754106Y-36870737D01*
X147754105Y-36870736D01*
X147680022Y-36856000D01*
X147355000Y-36856000D01*
X147355000Y-37110000D01*
X146455000Y-37110000D01*
X146455000Y-36856000D01*
X146129986Y-36856000D01*
X146129976Y-36856001D01*
X146055894Y-36870737D01*
X146055892Y-36870737D01*
X145971875Y-36926875D01*
X145915737Y-37010893D01*
X145915736Y-37010894D01*
X145901000Y-37084977D01*
X129554544Y-37084977D01*
X130326561Y-36312959D01*
X130388870Y-36278937D01*
X130459685Y-36284001D01*
X130516521Y-36326548D01*
X130526239Y-36341669D01*
X130527656Y-36344264D01*
X130527657Y-36344265D01*
X130527658Y-36344267D01*
X130614596Y-36460404D01*
X130730733Y-36547342D01*
X130866658Y-36598040D01*
X130926745Y-36604500D01*
X132273254Y-36604499D01*
X132333342Y-36598040D01*
X132469267Y-36547342D01*
X132514988Y-36513116D01*
X168956000Y-36513116D01*
X168956000Y-36686883D01*
X168983185Y-36858526D01*
X169007676Y-36933901D01*
X169007677Y-36933901D01*
X169341580Y-36599999D01*
X169275755Y-36534174D01*
X169560000Y-36534174D01*
X169560000Y-36665826D01*
X169594075Y-36792993D01*
X169659901Y-36907007D01*
X169752993Y-37000099D01*
X169867007Y-37065925D01*
X169994174Y-37100000D01*
X170125826Y-37100000D01*
X170252993Y-37065925D01*
X170367007Y-37000099D01*
X170460099Y-36907007D01*
X170525925Y-36792993D01*
X170560000Y-36665826D01*
X170560000Y-36599999D01*
X170778420Y-36599999D01*
X170778420Y-36600001D01*
X171112321Y-36933902D01*
X171112322Y-36933901D01*
X171136814Y-36858529D01*
X171164000Y-36686883D01*
X171164000Y-36513116D01*
X171136814Y-36341474D01*
X171112322Y-36266096D01*
X170778420Y-36599999D01*
X170560000Y-36599999D01*
X170560000Y-36534174D01*
X170525925Y-36407007D01*
X170460099Y-36292993D01*
X170367007Y-36199901D01*
X170252993Y-36134075D01*
X170125826Y-36100000D01*
X169994174Y-36100000D01*
X169867007Y-36134075D01*
X169752993Y-36199901D01*
X169659901Y-36292993D01*
X169594075Y-36407007D01*
X169560000Y-36534174D01*
X169275755Y-36534174D01*
X169007678Y-36266097D01*
X169007676Y-36266097D01*
X168983185Y-36341473D01*
X168956000Y-36513116D01*
X132514988Y-36513116D01*
X132585404Y-36460404D01*
X132672342Y-36344267D01*
X132723040Y-36208342D01*
X132729500Y-36148255D01*
X132729499Y-35251746D01*
X132723040Y-35191658D01*
X132672342Y-35055733D01*
X132585404Y-34939596D01*
X132469267Y-34852658D01*
X132469265Y-34852657D01*
X132469266Y-34852657D01*
X132333349Y-34801962D01*
X132333344Y-34801960D01*
X132333342Y-34801960D01*
X132303298Y-34798730D01*
X132273256Y-34795500D01*
X130926753Y-34795500D01*
X130926729Y-34795502D01*
X130866660Y-34801959D01*
X130866658Y-34801959D01*
X130730733Y-34852657D01*
X130614596Y-34939596D01*
X130527657Y-35055734D01*
X130476962Y-35191650D01*
X130476960Y-35191659D01*
X130475422Y-35205968D01*
X130448253Y-35271560D01*
X130389936Y-35312052D01*
X130357939Y-35317236D01*
X130357964Y-35317422D01*
X130351736Y-35318241D01*
X130350144Y-35318500D01*
X130349775Y-35318500D01*
X130290390Y-35334412D01*
X130252741Y-35344500D01*
X130165756Y-35394721D01*
X130165751Y-35394725D01*
X130130238Y-35430239D01*
X130094724Y-35465753D01*
X128778882Y-36781595D01*
X128716570Y-36815621D01*
X128689787Y-36818500D01*
X126985499Y-36818500D01*
X126917378Y-36798498D01*
X126870885Y-36744842D01*
X126859499Y-36692500D01*
X126859499Y-36274936D01*
X126859498Y-36274927D01*
X126844734Y-36200699D01*
X126844201Y-36199901D01*
X126788484Y-36116516D01*
X126777697Y-36109308D01*
X126704302Y-36060266D01*
X126630067Y-36045500D01*
X125509936Y-36045500D01*
X125509926Y-36045501D01*
X125435698Y-36060266D01*
X125435697Y-36060266D01*
X125425193Y-36067285D01*
X125357440Y-36088498D01*
X125288973Y-36069713D01*
X125241531Y-36016895D01*
X125230177Y-35946812D01*
X125258514Y-35881716D01*
X125266088Y-35873434D01*
X127421118Y-33718405D01*
X127483430Y-33684379D01*
X127510213Y-33681500D01*
X133489787Y-33681500D01*
X133557908Y-33701502D01*
X133578882Y-33718405D01*
X134841641Y-34981164D01*
X134875667Y-35043476D01*
X134875508Y-35083575D01*
X134877803Y-35083822D01*
X134870500Y-35151737D01*
X134870500Y-36048246D01*
X134870502Y-36048270D01*
X134876959Y-36108339D01*
X134876959Y-36108341D01*
X134927657Y-36244266D01*
X134944902Y-36267303D01*
X135014596Y-36360404D01*
X135130733Y-36447342D01*
X135266658Y-36498040D01*
X135326745Y-36504500D01*
X136673254Y-36504499D01*
X136733342Y-36498040D01*
X136869267Y-36447342D01*
X136985404Y-36360404D01*
X137072342Y-36244267D01*
X137123040Y-36108342D01*
X137129500Y-36048255D01*
X137129499Y-35151746D01*
X137123040Y-35091658D01*
X137072342Y-34955733D01*
X136985404Y-34839596D01*
X136869267Y-34752658D01*
X136869265Y-34752657D01*
X136869266Y-34752657D01*
X136733349Y-34701962D01*
X136733344Y-34701960D01*
X136733342Y-34701960D01*
X136725831Y-34701152D01*
X136673262Y-34695500D01*
X136673255Y-34695500D01*
X135687213Y-34695500D01*
X135619092Y-34675498D01*
X135598118Y-34658595D01*
X133934251Y-32994727D01*
X133934248Y-32994725D01*
X133934247Y-32994724D01*
X133933798Y-32994465D01*
X133895217Y-32972190D01*
X133847258Y-32944501D01*
X133847255Y-32944500D01*
X133847254Y-32944499D01*
X133847252Y-32944498D01*
X133847251Y-32944498D01*
X133821253Y-32937532D01*
X133750225Y-32918500D01*
X127350225Y-32918500D01*
X127249775Y-32918500D01*
X127206989Y-32929964D01*
X127152742Y-32944499D01*
X127065756Y-32994721D01*
X127065746Y-32994729D01*
X125120881Y-34939596D01*
X124565753Y-35494724D01*
X124537780Y-35522697D01*
X124494725Y-35565751D01*
X124494721Y-35565756D01*
X124444500Y-35652741D01*
X124429963Y-35706991D01*
X124425157Y-35724933D01*
X124418500Y-35749776D01*
X124418500Y-36073037D01*
X124417799Y-36075421D01*
X124418409Y-36077832D01*
X124407849Y-36109308D01*
X124398498Y-36141158D01*
X124396374Y-36143516D01*
X124395829Y-36145142D01*
X124388022Y-36152792D01*
X124371329Y-36171333D01*
X124367055Y-36174760D01*
X124296723Y-36221755D01*
X124249215Y-36269262D01*
X124243828Y-36273583D01*
X124217122Y-36284570D01*
X124191781Y-36298408D01*
X124184719Y-36297902D01*
X124178171Y-36300597D01*
X124149762Y-36295402D01*
X124120965Y-36293342D01*
X124113992Y-36288860D01*
X124108333Y-36287826D01*
X124099444Y-36279511D01*
X124075904Y-36264382D01*
X124033281Y-36221759D01*
X124033277Y-36221755D01*
X123903968Y-36135354D01*
X123760289Y-36075840D01*
X123758183Y-36075421D01*
X123607761Y-36045500D01*
X123607759Y-36045500D01*
X123452241Y-36045500D01*
X123452238Y-36045500D01*
X123299710Y-36075840D01*
X123299705Y-36075842D01*
X123156032Y-36135354D01*
X123026724Y-36221754D01*
X122984095Y-36264383D01*
X122982183Y-36265426D01*
X122981076Y-36267303D01*
X122951164Y-36282364D01*
X122921782Y-36298408D01*
X122919610Y-36298252D01*
X122917665Y-36299232D01*
X122884368Y-36295731D01*
X122850966Y-36293342D01*
X122848541Y-36291965D01*
X122847057Y-36291809D01*
X122840089Y-36287165D01*
X122816171Y-36273582D01*
X122810783Y-36269261D01*
X122763277Y-36221755D01*
X122692952Y-36174765D01*
X122688671Y-36171332D01*
X122671364Y-36146532D01*
X122651970Y-36123324D01*
X122650609Y-36116789D01*
X122648042Y-36113110D01*
X122647638Y-36102521D01*
X122641500Y-36073037D01*
X122641500Y-35850212D01*
X122661502Y-35782091D01*
X122678405Y-35761117D01*
X126321117Y-32118405D01*
X126383429Y-32084379D01*
X126410212Y-32081500D01*
X136689787Y-32081500D01*
X136757908Y-32101502D01*
X136778882Y-32118405D01*
X139641641Y-34981164D01*
X139675667Y-35043476D01*
X139675508Y-35083575D01*
X139677803Y-35083822D01*
X139670500Y-35151737D01*
X139670500Y-36048246D01*
X139670502Y-36048270D01*
X139676959Y-36108339D01*
X139676959Y-36108341D01*
X139727657Y-36244266D01*
X139744902Y-36267303D01*
X139814596Y-36360404D01*
X139930733Y-36447342D01*
X140066658Y-36498040D01*
X140126745Y-36504500D01*
X141473254Y-36504499D01*
X141533342Y-36498040D01*
X141669267Y-36447342D01*
X141785404Y-36360404D01*
X141872342Y-36244267D01*
X141923040Y-36108342D01*
X141929500Y-36048255D01*
X141929499Y-35151746D01*
X141923040Y-35091658D01*
X141872342Y-34955733D01*
X141785404Y-34839596D01*
X141669267Y-34752658D01*
X141669265Y-34752657D01*
X141669266Y-34752657D01*
X141533349Y-34701962D01*
X141533344Y-34701960D01*
X141533342Y-34701960D01*
X141525831Y-34701152D01*
X141473262Y-34695500D01*
X141473255Y-34695500D01*
X140487213Y-34695500D01*
X140419092Y-34675498D01*
X140398118Y-34658595D01*
X137134253Y-31394729D01*
X137134243Y-31394721D01*
X137047258Y-31344500D01*
X137035792Y-31341427D01*
X136950225Y-31318500D01*
X126149775Y-31318500D01*
X126090390Y-31334412D01*
X126052741Y-31344500D01*
X125965756Y-31394721D01*
X125965751Y-31394725D01*
X125930238Y-31430239D01*
X125894724Y-31465753D01*
X125894722Y-31465755D01*
X122008030Y-35352445D01*
X122008028Y-35352448D01*
X121954729Y-35405746D01*
X121954721Y-35405756D01*
X121904500Y-35492741D01*
X121896473Y-35522698D01*
X121882079Y-35576420D01*
X121878500Y-35589776D01*
X121878500Y-36073037D01*
X121858498Y-36141158D01*
X121822503Y-36177802D01*
X121756721Y-36221756D01*
X121646755Y-36331723D01*
X121646754Y-36331724D01*
X121560354Y-36461032D01*
X121500842Y-36604705D01*
X121500840Y-36604710D01*
X121470500Y-36757238D01*
X121470500Y-37642761D01*
X121500840Y-37795289D01*
X121500842Y-37795294D01*
X121503603Y-37801959D01*
X121560354Y-37938968D01*
X121646755Y-38068277D01*
X121756723Y-38178245D01*
X121886032Y-38264646D01*
X122029711Y-38324160D01*
X122182241Y-38354500D01*
X122182242Y-38354500D01*
X122337758Y-38354500D01*
X122337759Y-38354500D01*
X122490289Y-38324160D01*
X122633968Y-38264646D01*
X122761999Y-38179098D01*
X122829751Y-38157884D01*
X122898218Y-38176667D01*
X122945661Y-38229484D01*
X122958000Y-38283864D01*
X122958000Y-47069500D01*
X122937998Y-47137621D01*
X122884342Y-47184114D01*
X122832000Y-47195500D01*
X120924936Y-47195500D01*
X120924926Y-47195501D01*
X120850699Y-47210265D01*
X120766515Y-47266516D01*
X120710266Y-47350697D01*
X120695500Y-47424930D01*
X120695500Y-50975063D01*
X120695501Y-50975072D01*
X120710265Y-51049300D01*
X120766516Y-51133484D01*
X120850697Y-51189733D01*
X120850699Y-51189734D01*
X120924933Y-51204500D01*
X122094366Y-51204499D01*
X122162487Y-51224501D01*
X122183461Y-51241404D01*
X123273595Y-52331538D01*
X123307621Y-52393850D01*
X123310500Y-52420633D01*
X123310500Y-52797495D01*
X123300909Y-52845713D01*
X123234104Y-53006994D01*
X123234103Y-53006997D01*
X123195500Y-53201061D01*
X123195500Y-53398938D01*
X123234103Y-53593002D01*
X123234104Y-53593005D01*
X123255459Y-53644561D01*
X123300909Y-53754287D01*
X123310500Y-53802503D01*
X123310500Y-55021068D01*
X123290498Y-55089189D01*
X123236842Y-55135682D01*
X123209082Y-55144647D01*
X123083217Y-55169683D01*
X123083212Y-55169685D01*
X122921340Y-55236735D01*
X122775657Y-55334077D01*
X122775655Y-55334078D01*
X121410190Y-56699542D01*
X121403147Y-56704247D01*
X121400157Y-56708555D01*
X121369314Y-56726855D01*
X121247624Y-56777260D01*
X121240986Y-56780011D01*
X121229552Y-56784747D01*
X121181333Y-56794338D01*
X119628551Y-56794338D01*
X119456703Y-56828521D01*
X119456698Y-56828523D01*
X119294826Y-56895573D01*
X119149143Y-56992915D01*
X119149136Y-56992920D01*
X117676759Y-58465297D01*
X117676754Y-58465304D01*
X117579412Y-58610987D01*
X117512362Y-58772859D01*
X117512360Y-58772864D01*
X117478177Y-58944712D01*
X117478177Y-59676098D01*
X117458175Y-59744219D01*
X117404519Y-59790712D01*
X117396213Y-59794152D01*
X117373411Y-59802657D01*
X117257273Y-59889596D01*
X117170334Y-60005734D01*
X117119639Y-60141650D01*
X117119637Y-60141658D01*
X117113177Y-60201737D01*
X113447521Y-60201737D01*
X113539967Y-60109290D01*
X113539981Y-60109276D01*
X113820619Y-59828636D01*
X113820619Y-59828635D01*
X113661326Y-59776878D01*
X113661328Y-59776878D01*
X113466367Y-59746000D01*
X113268987Y-59746000D01*
X113074026Y-59776878D01*
X112914733Y-59828635D01*
X109254500Y-59828635D01*
X109254500Y-52938741D01*
X117695500Y-52938741D01*
X117695500Y-54861258D01*
X117698385Y-54909701D01*
X117744237Y-55120480D01*
X117820039Y-55297495D01*
X117829152Y-55318774D01*
X117847241Y-55345500D01*
X117950052Y-55497406D01*
X117950061Y-55497417D01*
X118102582Y-55649938D01*
X118102593Y-55649947D01*
X118178115Y-55701061D01*
X118281226Y-55770848D01*
X118479518Y-55855762D01*
X118690297Y-55901614D01*
X118738746Y-55904500D01*
X118738763Y-55904500D01*
X120661237Y-55904500D01*
X120661254Y-55904500D01*
X120709703Y-55901614D01*
X120920482Y-55855762D01*
X121118774Y-55770848D01*
X121267277Y-55670338D01*
X121297406Y-55649947D01*
X121297407Y-55649945D01*
X121297413Y-55649942D01*
X121449942Y-55497413D01*
X121570848Y-55318774D01*
X121655762Y-55120482D01*
X121701614Y-54909703D01*
X121704500Y-54861254D01*
X121704500Y-52938746D01*
X121701614Y-52890297D01*
X121655762Y-52679518D01*
X121570848Y-52481226D01*
X121514014Y-52397253D01*
X121449947Y-52302593D01*
X121449938Y-52302582D01*
X121297417Y-52150061D01*
X121297406Y-52150052D01*
X121152404Y-52051913D01*
X121118774Y-52029152D01*
X121118771Y-52029150D01*
X121118770Y-52029150D01*
X120920480Y-51944237D01*
X120709701Y-51898385D01*
X120661258Y-51895500D01*
X120661254Y-51895500D01*
X118738746Y-51895500D01*
X118738741Y-51895500D01*
X118690298Y-51898385D01*
X118479519Y-51944237D01*
X118281229Y-52029150D01*
X118281221Y-52029155D01*
X118102593Y-52150052D01*
X118102582Y-52150061D01*
X117950061Y-52302582D01*
X117950052Y-52302593D01*
X117829155Y-52481221D01*
X117829150Y-52481229D01*
X117744237Y-52679519D01*
X117698385Y-52890298D01*
X117695500Y-52938741D01*
X109254500Y-52938741D01*
X109254500Y-50258239D01*
X114946000Y-50258239D01*
X114956651Y-50378035D01*
X114956651Y-50378038D01*
X115012824Y-50574355D01*
X115107365Y-50755343D01*
X115236402Y-50913597D01*
X115394656Y-51042634D01*
X115575644Y-51137175D01*
X115771962Y-51193348D01*
X115891760Y-51203999D01*
X115891767Y-51204000D01*
X116192000Y-51204000D01*
X117208000Y-51204000D01*
X117508233Y-51204000D01*
X117508239Y-51203999D01*
X117628035Y-51193348D01*
X117628038Y-51193348D01*
X117824355Y-51137175D01*
X118005343Y-51042634D01*
X118163597Y-50913597D01*
X118292634Y-50755343D01*
X118387175Y-50574355D01*
X118443348Y-50378038D01*
X118443348Y-50378035D01*
X118453999Y-50258239D01*
X118454000Y-50258233D01*
X118454000Y-49708000D01*
X117208000Y-49708000D01*
X117208000Y-51204000D01*
X116192000Y-51204000D01*
X116192000Y-49708000D01*
X114946000Y-49708000D01*
X114946000Y-50258239D01*
X109254500Y-50258239D01*
X109254500Y-48141760D01*
X114946000Y-48141760D01*
X114946000Y-48692000D01*
X116192000Y-48692000D01*
X116192000Y-48134174D01*
X116200000Y-48134174D01*
X116200000Y-50265826D01*
X116234075Y-50392993D01*
X116299901Y-50507007D01*
X116392993Y-50600099D01*
X116507007Y-50665925D01*
X116634174Y-50700000D01*
X116765826Y-50700000D01*
X116892993Y-50665925D01*
X117007007Y-50600099D01*
X117100099Y-50507007D01*
X117165925Y-50392993D01*
X117200000Y-50265826D01*
X117200000Y-48692000D01*
X117208000Y-48692000D01*
X118454000Y-48692000D01*
X118454000Y-48141767D01*
X118453999Y-48141760D01*
X118443348Y-48021964D01*
X118443348Y-48021961D01*
X118387175Y-47825644D01*
X118292634Y-47644656D01*
X118163597Y-47486402D01*
X118005343Y-47357365D01*
X117824355Y-47262824D01*
X117628037Y-47206651D01*
X117508239Y-47196000D01*
X117208000Y-47196000D01*
X117208000Y-48692000D01*
X117200000Y-48692000D01*
X117200000Y-48134174D01*
X117165925Y-48007007D01*
X117100099Y-47892993D01*
X117007007Y-47799901D01*
X116892993Y-47734075D01*
X116765826Y-47700000D01*
X116634174Y-47700000D01*
X116507007Y-47734075D01*
X116392993Y-47799901D01*
X116299901Y-47892993D01*
X116234075Y-48007007D01*
X116200000Y-48134174D01*
X116192000Y-48134174D01*
X116192000Y-47196000D01*
X115891760Y-47196000D01*
X115771964Y-47206651D01*
X115771961Y-47206651D01*
X115575644Y-47262824D01*
X115394656Y-47357365D01*
X115236402Y-47486402D01*
X115107365Y-47644656D01*
X115012824Y-47825644D01*
X114956651Y-48021961D01*
X114956651Y-48021964D01*
X114946000Y-48141760D01*
X109254500Y-48141760D01*
X109254500Y-35002747D01*
X109254620Y-34997251D01*
X109263147Y-34801959D01*
X109272318Y-34591895D01*
X109273276Y-34580947D01*
X109325877Y-34181404D01*
X109327786Y-34170579D01*
X109383167Y-33920774D01*
X109415008Y-33777144D01*
X109417853Y-33766528D01*
X109438356Y-33701502D01*
X109539035Y-33382186D01*
X109542792Y-33371865D01*
X109697017Y-32999532D01*
X109701659Y-32989579D01*
X109887743Y-32632114D01*
X109893218Y-32622631D01*
X110109769Y-32282714D01*
X110116053Y-32273741D01*
X110361387Y-31954016D01*
X110368452Y-31945596D01*
X110640708Y-31648481D01*
X110648481Y-31640708D01*
X110945596Y-31368452D01*
X110954016Y-31361387D01*
X111085396Y-31260575D01*
X111273741Y-31116053D01*
X111282714Y-31109769D01*
X111622631Y-30893218D01*
X111632114Y-30887743D01*
X111989588Y-30701654D01*
X111999532Y-30697017D01*
X112371872Y-30542789D01*
X112382186Y-30539035D01*
X112766529Y-30417852D01*
X112777146Y-30415008D01*
X112932802Y-30380500D01*
X113170587Y-30327784D01*
X113181396Y-30325878D01*
X113580950Y-30273275D01*
X113591895Y-30272318D01*
X113997252Y-30254620D01*
X114002748Y-30254500D01*
X114044875Y-30254500D01*
X143329000Y-30254500D01*
X143397121Y-30274502D01*
G37*
%TD.AperFunction*%
%TD*%
M02*
