M48
; DRILL file {KiCad 9.0.2} date 2025-11-11T23:34:24+0200
; FORMAT={-:-/ absolute / metric / decimal}
; #@! TF.CreationDate,2025-11-11T23:34:24+02:00
; #@! TF.GenerationSoftware,Kicad,Pcbnew,9.0.2
; #@! TF.FileFunction,Plated,1,2,PTH
FMAT,2
METRIC
; #@! TA.AperFunction,Plated,PTH,ComponentDrill
T1C0.200
; #@! TA.AperFunction,Plated,PTH,ViaDrill
T2C0.400
; #@! TA.AperFunction,Plated,PTH,ComponentDrill
T3C0.500
; #@! TA.AperFunction,Plated,PTH,ViaDrill
T4C0.750
; #@! TA.AperFunction,Plated,PTH,ComponentDrill
T5C0.900
; #@! TA.AperFunction,Plated,PTH,ComponentDrill
T6C1.000
; #@! TA.AperFunction,Plated,PTH,ComponentDrill
T7C3.200
%
G90
G05
T1
X153.45Y-44.137
X153.45Y-45.663
X154.213Y-43.375
X154.213Y-44.9
X154.213Y-46.425
X154.975Y-44.137
X154.975Y-45.663
X155.737Y-43.375
X155.737Y-44.9
X155.737Y-46.425
X156.5Y-44.137
X156.5Y-45.663
T2
X134.0Y-57.2
X139.1Y-63.3
X141.7Y-56.2
X144.7Y-42.3
X144.7Y-56.0
X144.9Y-39.9
T3
X111.6Y-35.0
X111.6Y-76.5
X112.303Y-33.303
X112.303Y-36.697
X112.303Y-74.803
X112.303Y-78.197
X114.0Y-32.6
X114.0Y-37.4
X114.0Y-74.1
X114.0Y-78.9
X115.697Y-33.303
X115.697Y-36.697
X115.697Y-74.803
X115.697Y-78.197
X116.4Y-35.0
X116.4Y-76.5
X179.1Y-35.0
X179.1Y-76.5
X179.803Y-33.303
X179.803Y-36.697
X179.803Y-74.803
X179.803Y-78.197
X181.5Y-32.6
X181.5Y-37.4
X181.5Y-74.1
X181.5Y-78.9
X183.197Y-33.303
X183.197Y-36.697
X183.197Y-74.803
X183.197Y-78.197
X183.9Y-35.0
X183.9Y-76.5
T4
X119.99Y-64.49
X121.684Y-57.684
X124.2Y-53.3
X146.2Y-72.6
X159.0Y-72.6
X166.1Y-68.5
X169.6Y-69.7
X170.8Y-72.6
X171.9Y-55.8
X176.0Y-69.7
X182.6Y-45.2
T5
X122.26Y-37.2
X123.53Y-37.2
X124.8Y-37.2
X126.07Y-37.2
T6
X113.368Y-61.0
X118.368Y-61.0
X170.06Y-36.6
X172.6Y-36.6
X175.14Y-36.6
T7
X114.0Y-35.0
X114.0Y-76.5
X181.5Y-35.0
X181.5Y-76.5
T6
G00X116.7Y-48.2
M15
G01X116.7Y-50.2
M16
G05
G00X118.7Y-53.9
M15
G01X120.7Y-53.9
M16
G05
G00X122.7Y-48.2
M15
G01X122.7Y-50.2
M16
G05
G00X172.7Y-52.3
M15
G01X172.7Y-50.3
M16
G05
G00X172.7Y-65.757
M15
G01X172.7Y-63.758
M16
G05
G00X176.7Y-46.6
M15
G01X174.7Y-46.6
M16
G05
G00X176.7Y-60.057
M15
G01X174.7Y-60.057
M16
G05
G00X178.7Y-52.3
M15
G01X178.7Y-50.3
M16
G05
G00X178.7Y-65.757
M15
G01X178.7Y-63.758
M16
G05
M30
