%TF.GenerationSoftware,KiCad,Pcbnew,9.0.2*%
%TF.CreationDate,2025-11-11T23:34:30+02:00*%
%TF.ProjectId,Neon_2x1M_12V,4e656f6e-5f32-4783-914d-5f3132562e6b,REV1_1*%
%TF.SameCoordinates,Original*%
%TF.FileFunction,Paste,Top*%
%TF.FilePolarity,Positive*%
%FSLAX46Y46*%
G04 Gerber Fmt 4.6, Leading zero omitted, Abs format (unit mm)*
G04 Created by KiCad (PCBNEW 9.0.2) date 2025-11-11 23:34:30*
%MOMM*%
%LPD*%
G01*
G04 APERTURE LIST*
G04 Aperture macros list*
%AMRoundRect*
0 Rectangle with rounded corners*
0 $1 Rounding radius*
0 $2 $3 $4 $5 $6 $7 $8 $9 X,Y pos of 4 corners*
0 Add a 4 corners polygon primitive as box body*
4,1,4,$2,$3,$4,$5,$6,$7,$8,$9,$2,$3,0*
0 Add four circle primitives for the rounded corners*
1,1,$1+$1,$2,$3*
1,1,$1+$1,$4,$5*
1,1,$1+$1,$6,$7*
1,1,$1+$1,$8,$9*
0 Add four rect primitives between the rounded corners*
20,1,$1+$1,$2,$3,$4,$5,0*
20,1,$1+$1,$4,$5,$6,$7,0*
20,1,$1+$1,$6,$7,$8,$9,0*
20,1,$1+$1,$8,$9,$2,$3,0*%
G04 Aperture macros list end*
%ADD10RoundRect,0.250000X-0.350000X-0.450000X0.350000X-0.450000X0.350000X0.450000X-0.350000X0.450000X0*%
%ADD11RoundRect,0.250000X-0.400000X-0.625000X0.400000X-0.625000X0.400000X0.625000X-0.400000X0.625000X0*%
%ADD12R,1.752600X4.495800*%
%ADD13RoundRect,0.150000X0.150000X-0.750000X0.150000X0.750000X-0.150000X0.750000X-0.150000X-0.750000X0*%
%ADD14RoundRect,0.250000X0.400000X0.625000X-0.400000X0.625000X-0.400000X-0.625000X0.400000X-0.625000X0*%
%ADD15RoundRect,0.250000X0.625000X-0.400000X0.625000X0.400000X-0.625000X0.400000X-0.625000X-0.400000X0*%
%ADD16RoundRect,0.150000X0.150000X-0.825000X0.150000X0.825000X-0.150000X0.825000X-0.150000X-0.825000X0*%
%ADD17RoundRect,0.250000X-0.650000X0.325000X-0.650000X-0.325000X0.650000X-0.325000X0.650000X0.325000X0*%
%ADD18RoundRect,0.250000X-0.625000X0.400000X-0.625000X-0.400000X0.625000X-0.400000X0.625000X0.400000X0*%
%ADD19RoundRect,0.250000X-1.950000X-1.000000X1.950000X-1.000000X1.950000X1.000000X-1.950000X1.000000X0*%
%ADD20RoundRect,0.250001X-0.624999X0.462499X-0.624999X-0.462499X0.624999X-0.462499X0.624999X0.462499X0*%
%ADD21R,1.016000X1.200000*%
%ADD22RoundRect,0.250000X1.000000X0.650000X-1.000000X0.650000X-1.000000X-0.650000X1.000000X-0.650000X0*%
%ADD23RoundRect,0.250000X-0.450000X0.350000X-0.450000X-0.350000X0.450000X-0.350000X0.450000X0.350000X0*%
%ADD24RoundRect,0.250001X0.624999X-0.462499X0.624999X0.462499X-0.624999X0.462499X-0.624999X-0.462499X0*%
%ADD25R,1.350000X1.800000*%
%ADD26R,1.200000X1.016000*%
%ADD27R,1.500000X0.900000*%
%ADD28R,0.900000X1.500000*%
%ADD29R,1.050000X1.050000*%
G04 APERTURE END LIST*
D10*
%TO.C,R17*%
X138700000Y-58600000D03*
X140700000Y-58600000D03*
%TD*%
D11*
%TO.C,R12*%
X128550000Y-55100000D03*
X131650000Y-55100000D03*
%TD*%
D12*
%TO.C,L1*%
X124474400Y-73800000D03*
X127725600Y-73800000D03*
%TD*%
D13*
%TO.C,Q4*%
X135250000Y-51250000D03*
X137150000Y-51250000D03*
X136200000Y-49050000D03*
%TD*%
D14*
%TO.C,R5*%
X173450000Y-41400000D03*
X170350000Y-41400000D03*
%TD*%
D15*
%TO.C,R2*%
X169600000Y-46950000D03*
X169600000Y-43850000D03*
%TD*%
D16*
%TO.C,U2*%
X124095000Y-67475000D03*
X125365000Y-67475000D03*
X126635000Y-67475000D03*
X127905000Y-67475000D03*
X127905000Y-62525000D03*
X126635000Y-62525000D03*
X125365000Y-62525000D03*
X124095000Y-62525000D03*
%TD*%
D17*
%TO.C,C1*%
X124000000Y-56025000D03*
X124000000Y-58975000D03*
%TD*%
D18*
%TO.C,R1*%
X132100000Y-61950000D03*
X132100000Y-65050000D03*
%TD*%
D19*
%TO.C,C3*%
X133400000Y-72800000D03*
X141800000Y-72800000D03*
%TD*%
D10*
%TO.C,R16*%
X139700000Y-52000000D03*
X141700000Y-52000000D03*
%TD*%
D20*
%TO.C,D5*%
X153400000Y-58712500D03*
X153400000Y-61687500D03*
%TD*%
D21*
%TO.C,Q3*%
X139650000Y-44610000D03*
X141550000Y-44610000D03*
X140600000Y-42490000D03*
%TD*%
D18*
%TO.C,R19*%
X131600000Y-42300000D03*
X131600000Y-45400000D03*
%TD*%
D22*
%TO.C,D1*%
X119100000Y-70000000D03*
X115100000Y-70000000D03*
%TD*%
D11*
%TO.C,R11*%
X135750000Y-55250000D03*
X138850000Y-55250000D03*
%TD*%
D13*
%TO.C,Q5*%
X129850000Y-51150000D03*
X131750000Y-51150000D03*
X130800000Y-48950000D03*
%TD*%
D18*
%TO.C,R9*%
X136100000Y-42100000D03*
X136100000Y-45200000D03*
%TD*%
D23*
%TO.C,R7*%
X141100000Y-62800000D03*
X141100000Y-64800000D03*
%TD*%
D18*
%TO.C,R14*%
X136000000Y-35600000D03*
X136000000Y-38700000D03*
%TD*%
D24*
%TO.C,D9*%
X136000000Y-62787500D03*
X136000000Y-59812500D03*
%TD*%
D23*
%TO.C,R6*%
X176400000Y-40500000D03*
X176400000Y-42500000D03*
%TD*%
D18*
%TO.C,R15*%
X131600000Y-35700000D03*
X131600000Y-38800000D03*
%TD*%
D10*
%TO.C,R18*%
X130200000Y-58500000D03*
X132200000Y-58500000D03*
%TD*%
D15*
%TO.C,R4*%
X156900000Y-61650000D03*
X156900000Y-58550000D03*
%TD*%
D21*
%TO.C,Q1*%
X167050000Y-63740000D03*
X165150000Y-63740000D03*
X166100000Y-65860000D03*
%TD*%
D18*
%TO.C,R13*%
X140800000Y-35600000D03*
X140800000Y-38700000D03*
%TD*%
D25*
%TO.C,SW2*%
X164075000Y-59700000D03*
X159925000Y-59700000D03*
%TD*%
D23*
%TO.C,R8*%
X159700000Y-64600000D03*
X159700000Y-66600000D03*
%TD*%
D11*
%TO.C,R10*%
X139900000Y-48650000D03*
X143000000Y-48650000D03*
%TD*%
D26*
%TO.C,Q2*%
X179840000Y-40550000D03*
X179840000Y-42450000D03*
X181960000Y-41500000D03*
%TD*%
D25*
%TO.C,SW1*%
X149975000Y-59900000D03*
X145825000Y-59900000D03*
%TD*%
D27*
%TO.C,U1*%
X146905000Y-37560000D03*
X146905000Y-38830000D03*
X146905000Y-40100000D03*
X146905000Y-41370000D03*
X146905000Y-42640000D03*
X146905000Y-43910000D03*
X146905000Y-45180000D03*
X146905000Y-46450000D03*
X146905000Y-47720000D03*
X146905000Y-48990000D03*
X146905000Y-50260000D03*
X146905000Y-51530000D03*
X146905000Y-52800000D03*
X146905000Y-54070000D03*
D28*
X149945000Y-55320000D03*
X151215000Y-55320000D03*
X152485000Y-55320000D03*
X153755000Y-55320000D03*
X155025000Y-55320000D03*
X156295000Y-55320000D03*
X157565000Y-55320000D03*
X158835000Y-55320000D03*
X160105000Y-55320000D03*
X161375000Y-55320000D03*
D27*
X164405000Y-54070000D03*
X164405000Y-52800000D03*
X164405000Y-51530000D03*
X164405000Y-50260000D03*
X164405000Y-48990000D03*
X164405000Y-47720000D03*
X164405000Y-46450000D03*
X164405000Y-45180000D03*
X164405000Y-43910000D03*
X164405000Y-42640000D03*
X164405000Y-41370000D03*
X164405000Y-40100000D03*
X164405000Y-38830000D03*
X164405000Y-37560000D03*
D29*
X153450000Y-43375000D03*
X153450000Y-44900000D03*
X153450000Y-46425000D03*
X154975000Y-43375000D03*
X154975000Y-44900000D03*
X154975000Y-46425000D03*
X156500000Y-43375000D03*
X156500000Y-44900000D03*
X156500000Y-46425000D03*
%TD*%
D23*
%TO.C,R3*%
X167400000Y-50000000D03*
X167400000Y-52000000D03*
%TD*%
M02*
